%TF.GenerationSoftware,KiCad,Pcbnew,7.0.2-6a45011f42~172~ubuntu22.10.1*%
%TF.CreationDate,2023-04-24T11:56:10+02:00*%
%TF.ProjectId,vscp-din-esp32-can-z102,76736370-2d64-4696-9e2d-65737033322d,B*%
%TF.SameCoordinates,Original*%
%TF.FileFunction,Legend,Bot*%
%TF.FilePolarity,Positive*%
%FSLAX46Y46*%
G04 Gerber Fmt 4.6, Leading zero omitted, Abs format (unit mm)*
G04 Created by KiCad (PCBNEW 7.0.2-6a45011f42~172~ubuntu22.10.1) date 2023-04-24 11:56:10*
%MOMM*%
%LPD*%
G01*
G04 APERTURE LIST*
%ADD10C,0.300000*%
%ADD11C,0.200000*%
G04 APERTURE END LIST*
D10*
X140706071Y-76350000D02*
X142206071Y-76350000D01*
X142206071Y-76350000D02*
X142206071Y-75778571D01*
X142206071Y-75778571D02*
X142134642Y-75635714D01*
X142134642Y-75635714D02*
X142063214Y-75564285D01*
X142063214Y-75564285D02*
X141920357Y-75492857D01*
X141920357Y-75492857D02*
X141706071Y-75492857D01*
X141706071Y-75492857D02*
X141563214Y-75564285D01*
X141563214Y-75564285D02*
X141491785Y-75635714D01*
X141491785Y-75635714D02*
X141420357Y-75778571D01*
X141420357Y-75778571D02*
X141420357Y-76350000D01*
X142206071Y-74992857D02*
X140706071Y-74635714D01*
X140706071Y-74635714D02*
X141777500Y-74350000D01*
X141777500Y-74350000D02*
X140706071Y-74064285D01*
X140706071Y-74064285D02*
X142206071Y-73707143D01*
X140706071Y-72278571D02*
X141420357Y-72778571D01*
X140706071Y-73135714D02*
X142206071Y-73135714D01*
X142206071Y-73135714D02*
X142206071Y-72564285D01*
X142206071Y-72564285D02*
X142134642Y-72421428D01*
X142134642Y-72421428D02*
X142063214Y-72349999D01*
X142063214Y-72349999D02*
X141920357Y-72278571D01*
X141920357Y-72278571D02*
X141706071Y-72278571D01*
X141706071Y-72278571D02*
X141563214Y-72349999D01*
X141563214Y-72349999D02*
X141491785Y-72421428D01*
X141491785Y-72421428D02*
X141420357Y-72564285D01*
X141420357Y-72564285D02*
X141420357Y-73135714D01*
X133098928Y-76421428D02*
X133027500Y-76492856D01*
X133027500Y-76492856D02*
X132956071Y-76707142D01*
X132956071Y-76707142D02*
X132956071Y-76849999D01*
X132956071Y-76849999D02*
X133027500Y-77064285D01*
X133027500Y-77064285D02*
X133170357Y-77207142D01*
X133170357Y-77207142D02*
X133313214Y-77278571D01*
X133313214Y-77278571D02*
X133598928Y-77349999D01*
X133598928Y-77349999D02*
X133813214Y-77349999D01*
X133813214Y-77349999D02*
X134098928Y-77278571D01*
X134098928Y-77278571D02*
X134241785Y-77207142D01*
X134241785Y-77207142D02*
X134384642Y-77064285D01*
X134384642Y-77064285D02*
X134456071Y-76849999D01*
X134456071Y-76849999D02*
X134456071Y-76707142D01*
X134456071Y-76707142D02*
X134384642Y-76492856D01*
X134384642Y-76492856D02*
X134313214Y-76421428D01*
X133384642Y-75849999D02*
X133384642Y-75135714D01*
X132956071Y-75992856D02*
X134456071Y-75492856D01*
X134456071Y-75492856D02*
X132956071Y-74992856D01*
X132956071Y-74492857D02*
X134456071Y-74492857D01*
X134456071Y-74492857D02*
X132956071Y-73635714D01*
X132956071Y-73635714D02*
X134456071Y-73635714D01*
X132956071Y-72207142D02*
X132956071Y-72921428D01*
X132956071Y-72921428D02*
X134456071Y-72921428D01*
D11*
X144161190Y-145440476D02*
X144161190Y-145773809D01*
X143637380Y-145773809D02*
X144637380Y-145773809D01*
X144637380Y-145773809D02*
X144637380Y-145297619D01*
X143637380Y-144440476D02*
X143637380Y-144916666D01*
X143637380Y-144916666D02*
X144637380Y-144916666D01*
X143923095Y-144154761D02*
X143923095Y-143678571D01*
X143637380Y-144249999D02*
X144637380Y-143916666D01*
X144637380Y-143916666D02*
X143637380Y-143583333D01*
X143685000Y-143297618D02*
X143637380Y-143154761D01*
X143637380Y-143154761D02*
X143637380Y-142916666D01*
X143637380Y-142916666D02*
X143685000Y-142821428D01*
X143685000Y-142821428D02*
X143732619Y-142773809D01*
X143732619Y-142773809D02*
X143827857Y-142726190D01*
X143827857Y-142726190D02*
X143923095Y-142726190D01*
X143923095Y-142726190D02*
X144018333Y-142773809D01*
X144018333Y-142773809D02*
X144065952Y-142821428D01*
X144065952Y-142821428D02*
X144113571Y-142916666D01*
X144113571Y-142916666D02*
X144161190Y-143107142D01*
X144161190Y-143107142D02*
X144208809Y-143202380D01*
X144208809Y-143202380D02*
X144256428Y-143249999D01*
X144256428Y-143249999D02*
X144351666Y-143297618D01*
X144351666Y-143297618D02*
X144446904Y-143297618D01*
X144446904Y-143297618D02*
X144542142Y-143249999D01*
X144542142Y-143249999D02*
X144589761Y-143202380D01*
X144589761Y-143202380D02*
X144637380Y-143107142D01*
X144637380Y-143107142D02*
X144637380Y-142869047D01*
X144637380Y-142869047D02*
X144589761Y-142726190D01*
X143637380Y-142297618D02*
X144637380Y-142297618D01*
X144161190Y-142297618D02*
X144161190Y-141726190D01*
X143637380Y-141726190D02*
X144637380Y-141726190D01*
X134937380Y-146030951D02*
X135937380Y-146030951D01*
X135937380Y-146030951D02*
X135937380Y-145792856D01*
X135937380Y-145792856D02*
X135889761Y-145649999D01*
X135889761Y-145649999D02*
X135794523Y-145554761D01*
X135794523Y-145554761D02*
X135699285Y-145507142D01*
X135699285Y-145507142D02*
X135508809Y-145459523D01*
X135508809Y-145459523D02*
X135365952Y-145459523D01*
X135365952Y-145459523D02*
X135175476Y-145507142D01*
X135175476Y-145507142D02*
X135080238Y-145554761D01*
X135080238Y-145554761D02*
X134985000Y-145649999D01*
X134985000Y-145649999D02*
X134937380Y-145792856D01*
X134937380Y-145792856D02*
X134937380Y-146030951D01*
X135318333Y-145030951D02*
X135318333Y-144269047D01*
X134937380Y-144649999D02*
X135699285Y-144649999D01*
X138489761Y-145911904D02*
X138537380Y-146007142D01*
X138537380Y-146007142D02*
X138537380Y-146149999D01*
X138537380Y-146149999D02*
X138489761Y-146292856D01*
X138489761Y-146292856D02*
X138394523Y-146388094D01*
X138394523Y-146388094D02*
X138299285Y-146435713D01*
X138299285Y-146435713D02*
X138108809Y-146483332D01*
X138108809Y-146483332D02*
X137965952Y-146483332D01*
X137965952Y-146483332D02*
X137775476Y-146435713D01*
X137775476Y-146435713D02*
X137680238Y-146388094D01*
X137680238Y-146388094D02*
X137585000Y-146292856D01*
X137585000Y-146292856D02*
X137537380Y-146149999D01*
X137537380Y-146149999D02*
X137537380Y-146054761D01*
X137537380Y-146054761D02*
X137585000Y-145911904D01*
X137585000Y-145911904D02*
X137632619Y-145864285D01*
X137632619Y-145864285D02*
X137965952Y-145864285D01*
X137965952Y-145864285D02*
X137965952Y-146054761D01*
X137537380Y-145435713D02*
X138537380Y-145435713D01*
X138537380Y-145435713D02*
X137537380Y-144864285D01*
X137537380Y-144864285D02*
X138537380Y-144864285D01*
X137537380Y-144388094D02*
X138537380Y-144388094D01*
X138537380Y-144388094D02*
X138537380Y-144149999D01*
X138537380Y-144149999D02*
X138489761Y-144007142D01*
X138489761Y-144007142D02*
X138394523Y-143911904D01*
X138394523Y-143911904D02*
X138299285Y-143864285D01*
X138299285Y-143864285D02*
X138108809Y-143816666D01*
X138108809Y-143816666D02*
X137965952Y-143816666D01*
X137965952Y-143816666D02*
X137775476Y-143864285D01*
X137775476Y-143864285D02*
X137680238Y-143911904D01*
X137680238Y-143911904D02*
X137585000Y-144007142D01*
X137585000Y-144007142D02*
X137537380Y-144149999D01*
X137537380Y-144149999D02*
X137537380Y-144388094D01*
X154318333Y-145799999D02*
X154318333Y-145038095D01*
X153937380Y-145419047D02*
X154699285Y-145419047D01*
X154937380Y-144657142D02*
X154937380Y-144038095D01*
X154937380Y-144038095D02*
X154556428Y-144371428D01*
X154556428Y-144371428D02*
X154556428Y-144228571D01*
X154556428Y-144228571D02*
X154508809Y-144133333D01*
X154508809Y-144133333D02*
X154461190Y-144085714D01*
X154461190Y-144085714D02*
X154365952Y-144038095D01*
X154365952Y-144038095D02*
X154127857Y-144038095D01*
X154127857Y-144038095D02*
X154032619Y-144085714D01*
X154032619Y-144085714D02*
X153985000Y-144133333D01*
X153985000Y-144133333D02*
X153937380Y-144228571D01*
X153937380Y-144228571D02*
X153937380Y-144514285D01*
X153937380Y-144514285D02*
X153985000Y-144609523D01*
X153985000Y-144609523D02*
X154032619Y-144657142D01*
X154032619Y-143609523D02*
X153985000Y-143561904D01*
X153985000Y-143561904D02*
X153937380Y-143609523D01*
X153937380Y-143609523D02*
X153985000Y-143657142D01*
X153985000Y-143657142D02*
X154032619Y-143609523D01*
X154032619Y-143609523D02*
X153937380Y-143609523D01*
X154937380Y-143228571D02*
X154937380Y-142609524D01*
X154937380Y-142609524D02*
X154556428Y-142942857D01*
X154556428Y-142942857D02*
X154556428Y-142800000D01*
X154556428Y-142800000D02*
X154508809Y-142704762D01*
X154508809Y-142704762D02*
X154461190Y-142657143D01*
X154461190Y-142657143D02*
X154365952Y-142609524D01*
X154365952Y-142609524D02*
X154127857Y-142609524D01*
X154127857Y-142609524D02*
X154032619Y-142657143D01*
X154032619Y-142657143D02*
X153985000Y-142704762D01*
X153985000Y-142704762D02*
X153937380Y-142800000D01*
X153937380Y-142800000D02*
X153937380Y-143085714D01*
X153937380Y-143085714D02*
X153985000Y-143180952D01*
X153985000Y-143180952D02*
X154032619Y-143228571D01*
X154937380Y-142323809D02*
X153937380Y-141990476D01*
X153937380Y-141990476D02*
X154937380Y-141657143D01*
X149687380Y-145811904D02*
X149687380Y-145240476D01*
X148687380Y-145526190D02*
X149687380Y-145526190D01*
X149687380Y-145002380D02*
X148687380Y-144335714D01*
X149687380Y-144335714D02*
X148687380Y-145002380D01*
D10*
X130634642Y-75292856D02*
X130706071Y-75435714D01*
X130706071Y-75435714D02*
X130706071Y-75649999D01*
X130706071Y-75649999D02*
X130634642Y-75864285D01*
X130634642Y-75864285D02*
X130491785Y-76007142D01*
X130491785Y-76007142D02*
X130348928Y-76078571D01*
X130348928Y-76078571D02*
X130063214Y-76149999D01*
X130063214Y-76149999D02*
X129848928Y-76149999D01*
X129848928Y-76149999D02*
X129563214Y-76078571D01*
X129563214Y-76078571D02*
X129420357Y-76007142D01*
X129420357Y-76007142D02*
X129277500Y-75864285D01*
X129277500Y-75864285D02*
X129206071Y-75649999D01*
X129206071Y-75649999D02*
X129206071Y-75507142D01*
X129206071Y-75507142D02*
X129277500Y-75292856D01*
X129277500Y-75292856D02*
X129348928Y-75221428D01*
X129348928Y-75221428D02*
X129848928Y-75221428D01*
X129848928Y-75221428D02*
X129848928Y-75507142D01*
X129206071Y-74578571D02*
X130706071Y-74578571D01*
X130706071Y-74578571D02*
X129206071Y-73721428D01*
X129206071Y-73721428D02*
X130706071Y-73721428D01*
X129206071Y-73007142D02*
X130706071Y-73007142D01*
X130706071Y-73007142D02*
X130706071Y-72649999D01*
X130706071Y-72649999D02*
X130634642Y-72435713D01*
X130634642Y-72435713D02*
X130491785Y-72292856D01*
X130491785Y-72292856D02*
X130348928Y-72221427D01*
X130348928Y-72221427D02*
X130063214Y-72149999D01*
X130063214Y-72149999D02*
X129848928Y-72149999D01*
X129848928Y-72149999D02*
X129563214Y-72221427D01*
X129563214Y-72221427D02*
X129420357Y-72292856D01*
X129420357Y-72292856D02*
X129277500Y-72435713D01*
X129277500Y-72435713D02*
X129206071Y-72649999D01*
X129206071Y-72649999D02*
X129206071Y-73007142D01*
D11*
X151287380Y-145188095D02*
X151763571Y-145521428D01*
X151287380Y-145759523D02*
X152287380Y-145759523D01*
X152287380Y-145759523D02*
X152287380Y-145378571D01*
X152287380Y-145378571D02*
X152239761Y-145283333D01*
X152239761Y-145283333D02*
X152192142Y-145235714D01*
X152192142Y-145235714D02*
X152096904Y-145188095D01*
X152096904Y-145188095D02*
X151954047Y-145188095D01*
X151954047Y-145188095D02*
X151858809Y-145235714D01*
X151858809Y-145235714D02*
X151811190Y-145283333D01*
X151811190Y-145283333D02*
X151763571Y-145378571D01*
X151763571Y-145378571D02*
X151763571Y-145759523D01*
X151335000Y-144378571D02*
X151287380Y-144473809D01*
X151287380Y-144473809D02*
X151287380Y-144664285D01*
X151287380Y-144664285D02*
X151335000Y-144759523D01*
X151335000Y-144759523D02*
X151430238Y-144807142D01*
X151430238Y-144807142D02*
X151811190Y-144807142D01*
X151811190Y-144807142D02*
X151906428Y-144759523D01*
X151906428Y-144759523D02*
X151954047Y-144664285D01*
X151954047Y-144664285D02*
X151954047Y-144473809D01*
X151954047Y-144473809D02*
X151906428Y-144378571D01*
X151906428Y-144378571D02*
X151811190Y-144330952D01*
X151811190Y-144330952D02*
X151715952Y-144330952D01*
X151715952Y-144330952D02*
X151620714Y-144807142D01*
X151335000Y-143949999D02*
X151287380Y-143854761D01*
X151287380Y-143854761D02*
X151287380Y-143664285D01*
X151287380Y-143664285D02*
X151335000Y-143569047D01*
X151335000Y-143569047D02*
X151430238Y-143521428D01*
X151430238Y-143521428D02*
X151477857Y-143521428D01*
X151477857Y-143521428D02*
X151573095Y-143569047D01*
X151573095Y-143569047D02*
X151620714Y-143664285D01*
X151620714Y-143664285D02*
X151620714Y-143807142D01*
X151620714Y-143807142D02*
X151668333Y-143902380D01*
X151668333Y-143902380D02*
X151763571Y-143949999D01*
X151763571Y-143949999D02*
X151811190Y-143949999D01*
X151811190Y-143949999D02*
X151906428Y-143902380D01*
X151906428Y-143902380D02*
X151954047Y-143807142D01*
X151954047Y-143807142D02*
X151954047Y-143664285D01*
X151954047Y-143664285D02*
X151906428Y-143569047D01*
X151335000Y-142711904D02*
X151287380Y-142807142D01*
X151287380Y-142807142D02*
X151287380Y-142997618D01*
X151287380Y-142997618D02*
X151335000Y-143092856D01*
X151335000Y-143092856D02*
X151430238Y-143140475D01*
X151430238Y-143140475D02*
X151811190Y-143140475D01*
X151811190Y-143140475D02*
X151906428Y-143092856D01*
X151906428Y-143092856D02*
X151954047Y-142997618D01*
X151954047Y-142997618D02*
X151954047Y-142807142D01*
X151954047Y-142807142D02*
X151906428Y-142711904D01*
X151906428Y-142711904D02*
X151811190Y-142664285D01*
X151811190Y-142664285D02*
X151715952Y-142664285D01*
X151715952Y-142664285D02*
X151620714Y-143140475D01*
X151954047Y-142378570D02*
X151954047Y-141997618D01*
X152287380Y-142235713D02*
X151430238Y-142235713D01*
X151430238Y-142235713D02*
X151335000Y-142188094D01*
X151335000Y-142188094D02*
X151287380Y-142092856D01*
X151287380Y-142092856D02*
X151287380Y-141997618D01*
D10*
X144556071Y-123935715D02*
X143556071Y-123650001D01*
X143556071Y-123650001D02*
X144270357Y-123364286D01*
X144270357Y-123364286D02*
X143556071Y-123078572D01*
X143556071Y-123078572D02*
X144556071Y-122792858D01*
X144556071Y-122364286D02*
X143556071Y-122078572D01*
X143556071Y-122078572D02*
X144270357Y-121792857D01*
X144270357Y-121792857D02*
X143556071Y-121507143D01*
X143556071Y-121507143D02*
X144556071Y-121221429D01*
X144556071Y-120792857D02*
X143556071Y-120507143D01*
X143556071Y-120507143D02*
X144270357Y-120221428D01*
X144270357Y-120221428D02*
X143556071Y-119935714D01*
X143556071Y-119935714D02*
X144556071Y-119650000D01*
X143698928Y-119078571D02*
X143627500Y-119007142D01*
X143627500Y-119007142D02*
X143556071Y-119078571D01*
X143556071Y-119078571D02*
X143627500Y-119149999D01*
X143627500Y-119149999D02*
X143698928Y-119078571D01*
X143698928Y-119078571D02*
X143556071Y-119078571D01*
X144556071Y-117721428D02*
X143341785Y-117721428D01*
X143341785Y-117721428D02*
X143198928Y-117792856D01*
X143198928Y-117792856D02*
X143127500Y-117864285D01*
X143127500Y-117864285D02*
X143056071Y-118007142D01*
X143056071Y-118007142D02*
X143056071Y-118221428D01*
X143056071Y-118221428D02*
X143127500Y-118364285D01*
X143627500Y-117721428D02*
X143556071Y-117864285D01*
X143556071Y-117864285D02*
X143556071Y-118149999D01*
X143556071Y-118149999D02*
X143627500Y-118292856D01*
X143627500Y-118292856D02*
X143698928Y-118364285D01*
X143698928Y-118364285D02*
X143841785Y-118435713D01*
X143841785Y-118435713D02*
X144270357Y-118435713D01*
X144270357Y-118435713D02*
X144413214Y-118364285D01*
X144413214Y-118364285D02*
X144484642Y-118292856D01*
X144484642Y-118292856D02*
X144556071Y-118149999D01*
X144556071Y-118149999D02*
X144556071Y-117864285D01*
X144556071Y-117864285D02*
X144484642Y-117721428D01*
X143556071Y-117007142D02*
X144556071Y-117007142D01*
X144270357Y-117007142D02*
X144413214Y-116935713D01*
X144413214Y-116935713D02*
X144484642Y-116864285D01*
X144484642Y-116864285D02*
X144556071Y-116721427D01*
X144556071Y-116721427D02*
X144556071Y-116578570D01*
X143556071Y-115864285D02*
X143627500Y-116007142D01*
X143627500Y-116007142D02*
X143698928Y-116078571D01*
X143698928Y-116078571D02*
X143841785Y-116149999D01*
X143841785Y-116149999D02*
X144270357Y-116149999D01*
X144270357Y-116149999D02*
X144413214Y-116078571D01*
X144413214Y-116078571D02*
X144484642Y-116007142D01*
X144484642Y-116007142D02*
X144556071Y-115864285D01*
X144556071Y-115864285D02*
X144556071Y-115649999D01*
X144556071Y-115649999D02*
X144484642Y-115507142D01*
X144484642Y-115507142D02*
X144413214Y-115435714D01*
X144413214Y-115435714D02*
X144270357Y-115364285D01*
X144270357Y-115364285D02*
X143841785Y-115364285D01*
X143841785Y-115364285D02*
X143698928Y-115435714D01*
X143698928Y-115435714D02*
X143627500Y-115507142D01*
X143627500Y-115507142D02*
X143556071Y-115649999D01*
X143556071Y-115649999D02*
X143556071Y-115864285D01*
X143556071Y-114078571D02*
X145056071Y-114078571D01*
X143627500Y-114078571D02*
X143556071Y-114221428D01*
X143556071Y-114221428D02*
X143556071Y-114507142D01*
X143556071Y-114507142D02*
X143627500Y-114649999D01*
X143627500Y-114649999D02*
X143698928Y-114721428D01*
X143698928Y-114721428D02*
X143841785Y-114792856D01*
X143841785Y-114792856D02*
X144270357Y-114792856D01*
X144270357Y-114792856D02*
X144413214Y-114721428D01*
X144413214Y-114721428D02*
X144484642Y-114649999D01*
X144484642Y-114649999D02*
X144556071Y-114507142D01*
X144556071Y-114507142D02*
X144556071Y-114221428D01*
X144556071Y-114221428D02*
X144484642Y-114078571D01*
X143556071Y-112721428D02*
X144341785Y-112721428D01*
X144341785Y-112721428D02*
X144484642Y-112792856D01*
X144484642Y-112792856D02*
X144556071Y-112935713D01*
X144556071Y-112935713D02*
X144556071Y-113221428D01*
X144556071Y-113221428D02*
X144484642Y-113364285D01*
X143627500Y-112721428D02*
X143556071Y-112864285D01*
X143556071Y-112864285D02*
X143556071Y-113221428D01*
X143556071Y-113221428D02*
X143627500Y-113364285D01*
X143627500Y-113364285D02*
X143770357Y-113435713D01*
X143770357Y-113435713D02*
X143913214Y-113435713D01*
X143913214Y-113435713D02*
X144056071Y-113364285D01*
X144056071Y-113364285D02*
X144127500Y-113221428D01*
X144127500Y-113221428D02*
X144127500Y-112864285D01*
X144127500Y-112864285D02*
X144198928Y-112721428D01*
X144556071Y-112007142D02*
X143556071Y-112007142D01*
X144413214Y-112007142D02*
X144484642Y-111935713D01*
X144484642Y-111935713D02*
X144556071Y-111792856D01*
X144556071Y-111792856D02*
X144556071Y-111578570D01*
X144556071Y-111578570D02*
X144484642Y-111435713D01*
X144484642Y-111435713D02*
X144341785Y-111364285D01*
X144341785Y-111364285D02*
X143556071Y-111364285D01*
X143627500Y-110721427D02*
X143556071Y-110578570D01*
X143556071Y-110578570D02*
X143556071Y-110292856D01*
X143556071Y-110292856D02*
X143627500Y-110149999D01*
X143627500Y-110149999D02*
X143770357Y-110078570D01*
X143770357Y-110078570D02*
X143841785Y-110078570D01*
X143841785Y-110078570D02*
X143984642Y-110149999D01*
X143984642Y-110149999D02*
X144056071Y-110292856D01*
X144056071Y-110292856D02*
X144056071Y-110507142D01*
X144056071Y-110507142D02*
X144127500Y-110649999D01*
X144127500Y-110649999D02*
X144270357Y-110721427D01*
X144270357Y-110721427D02*
X144341785Y-110721427D01*
X144341785Y-110721427D02*
X144484642Y-110649999D01*
X144484642Y-110649999D02*
X144556071Y-110507142D01*
X144556071Y-110507142D02*
X144556071Y-110292856D01*
X144556071Y-110292856D02*
X144484642Y-110149999D01*
X144556071Y-109435713D02*
X143056071Y-109435713D01*
X144484642Y-109435713D02*
X144556071Y-109292856D01*
X144556071Y-109292856D02*
X144556071Y-109007141D01*
X144556071Y-109007141D02*
X144484642Y-108864284D01*
X144484642Y-108864284D02*
X144413214Y-108792856D01*
X144413214Y-108792856D02*
X144270357Y-108721427D01*
X144270357Y-108721427D02*
X143841785Y-108721427D01*
X143841785Y-108721427D02*
X143698928Y-108792856D01*
X143698928Y-108792856D02*
X143627500Y-108864284D01*
X143627500Y-108864284D02*
X143556071Y-109007141D01*
X143556071Y-109007141D02*
X143556071Y-109292856D01*
X143556071Y-109292856D02*
X143627500Y-109435713D01*
X143556071Y-107435713D02*
X144341785Y-107435713D01*
X144341785Y-107435713D02*
X144484642Y-107507141D01*
X144484642Y-107507141D02*
X144556071Y-107649998D01*
X144556071Y-107649998D02*
X144556071Y-107935713D01*
X144556071Y-107935713D02*
X144484642Y-108078570D01*
X143627500Y-107435713D02*
X143556071Y-107578570D01*
X143556071Y-107578570D02*
X143556071Y-107935713D01*
X143556071Y-107935713D02*
X143627500Y-108078570D01*
X143627500Y-108078570D02*
X143770357Y-108149998D01*
X143770357Y-108149998D02*
X143913214Y-108149998D01*
X143913214Y-108149998D02*
X144056071Y-108078570D01*
X144056071Y-108078570D02*
X144127500Y-107935713D01*
X144127500Y-107935713D02*
X144127500Y-107578570D01*
X144127500Y-107578570D02*
X144198928Y-107435713D01*
X143556071Y-106721427D02*
X144556071Y-106721427D01*
X144270357Y-106721427D02*
X144413214Y-106649998D01*
X144413214Y-106649998D02*
X144484642Y-106578570D01*
X144484642Y-106578570D02*
X144556071Y-106435712D01*
X144556071Y-106435712D02*
X144556071Y-106292855D01*
X143556071Y-105149999D02*
X144341785Y-105149999D01*
X144341785Y-105149999D02*
X144484642Y-105221427D01*
X144484642Y-105221427D02*
X144556071Y-105364284D01*
X144556071Y-105364284D02*
X144556071Y-105649999D01*
X144556071Y-105649999D02*
X144484642Y-105792856D01*
X143627500Y-105149999D02*
X143556071Y-105292856D01*
X143556071Y-105292856D02*
X143556071Y-105649999D01*
X143556071Y-105649999D02*
X143627500Y-105792856D01*
X143627500Y-105792856D02*
X143770357Y-105864284D01*
X143770357Y-105864284D02*
X143913214Y-105864284D01*
X143913214Y-105864284D02*
X144056071Y-105792856D01*
X144056071Y-105792856D02*
X144127500Y-105649999D01*
X144127500Y-105649999D02*
X144127500Y-105292856D01*
X144127500Y-105292856D02*
X144198928Y-105149999D01*
X143556071Y-103792856D02*
X145056071Y-103792856D01*
X143627500Y-103792856D02*
X143556071Y-103935713D01*
X143556071Y-103935713D02*
X143556071Y-104221427D01*
X143556071Y-104221427D02*
X143627500Y-104364284D01*
X143627500Y-104364284D02*
X143698928Y-104435713D01*
X143698928Y-104435713D02*
X143841785Y-104507141D01*
X143841785Y-104507141D02*
X144270357Y-104507141D01*
X144270357Y-104507141D02*
X144413214Y-104435713D01*
X144413214Y-104435713D02*
X144484642Y-104364284D01*
X144484642Y-104364284D02*
X144556071Y-104221427D01*
X144556071Y-104221427D02*
X144556071Y-103935713D01*
X144556071Y-103935713D02*
X144484642Y-103792856D01*
X143556071Y-103078570D02*
X144556071Y-103078570D01*
X145056071Y-103078570D02*
X144984642Y-103149998D01*
X144984642Y-103149998D02*
X144913214Y-103078570D01*
X144913214Y-103078570D02*
X144984642Y-103007141D01*
X144984642Y-103007141D02*
X145056071Y-103078570D01*
X145056071Y-103078570D02*
X144913214Y-103078570D01*
X143627500Y-102435712D02*
X143556071Y-102292855D01*
X143556071Y-102292855D02*
X143556071Y-102007141D01*
X143556071Y-102007141D02*
X143627500Y-101864284D01*
X143627500Y-101864284D02*
X143770357Y-101792855D01*
X143770357Y-101792855D02*
X143841785Y-101792855D01*
X143841785Y-101792855D02*
X143984642Y-101864284D01*
X143984642Y-101864284D02*
X144056071Y-102007141D01*
X144056071Y-102007141D02*
X144056071Y-102221427D01*
X144056071Y-102221427D02*
X144127500Y-102364284D01*
X144127500Y-102364284D02*
X144270357Y-102435712D01*
X144270357Y-102435712D02*
X144341785Y-102435712D01*
X144341785Y-102435712D02*
X144484642Y-102364284D01*
X144484642Y-102364284D02*
X144556071Y-102221427D01*
X144556071Y-102221427D02*
X144556071Y-102007141D01*
X144556071Y-102007141D02*
X144484642Y-101864284D01*
X143698928Y-101149998D02*
X143627500Y-101078569D01*
X143627500Y-101078569D02*
X143556071Y-101149998D01*
X143556071Y-101149998D02*
X143627500Y-101221426D01*
X143627500Y-101221426D02*
X143698928Y-101149998D01*
X143698928Y-101149998D02*
X143556071Y-101149998D01*
X143627500Y-99792855D02*
X143556071Y-99935712D01*
X143556071Y-99935712D02*
X143556071Y-100221426D01*
X143556071Y-100221426D02*
X143627500Y-100364283D01*
X143627500Y-100364283D02*
X143698928Y-100435712D01*
X143698928Y-100435712D02*
X143841785Y-100507140D01*
X143841785Y-100507140D02*
X144270357Y-100507140D01*
X144270357Y-100507140D02*
X144413214Y-100435712D01*
X144413214Y-100435712D02*
X144484642Y-100364283D01*
X144484642Y-100364283D02*
X144556071Y-100221426D01*
X144556071Y-100221426D02*
X144556071Y-99935712D01*
X144556071Y-99935712D02*
X144484642Y-99792855D01*
X143556071Y-98935712D02*
X143627500Y-99078569D01*
X143627500Y-99078569D02*
X143698928Y-99149998D01*
X143698928Y-99149998D02*
X143841785Y-99221426D01*
X143841785Y-99221426D02*
X144270357Y-99221426D01*
X144270357Y-99221426D02*
X144413214Y-99149998D01*
X144413214Y-99149998D02*
X144484642Y-99078569D01*
X144484642Y-99078569D02*
X144556071Y-98935712D01*
X144556071Y-98935712D02*
X144556071Y-98721426D01*
X144556071Y-98721426D02*
X144484642Y-98578569D01*
X144484642Y-98578569D02*
X144413214Y-98507141D01*
X144413214Y-98507141D02*
X144270357Y-98435712D01*
X144270357Y-98435712D02*
X143841785Y-98435712D01*
X143841785Y-98435712D02*
X143698928Y-98507141D01*
X143698928Y-98507141D02*
X143627500Y-98578569D01*
X143627500Y-98578569D02*
X143556071Y-98721426D01*
X143556071Y-98721426D02*
X143556071Y-98935712D01*
X143556071Y-97792855D02*
X144556071Y-97792855D01*
X144413214Y-97792855D02*
X144484642Y-97721426D01*
X144484642Y-97721426D02*
X144556071Y-97578569D01*
X144556071Y-97578569D02*
X144556071Y-97364283D01*
X144556071Y-97364283D02*
X144484642Y-97221426D01*
X144484642Y-97221426D02*
X144341785Y-97149998D01*
X144341785Y-97149998D02*
X143556071Y-97149998D01*
X144341785Y-97149998D02*
X144484642Y-97078569D01*
X144484642Y-97078569D02*
X144556071Y-96935712D01*
X144556071Y-96935712D02*
X144556071Y-96721426D01*
X144556071Y-96721426D02*
X144484642Y-96578569D01*
X144484642Y-96578569D02*
X144341785Y-96507140D01*
X144341785Y-96507140D02*
X143556071Y-96507140D01*
X136948928Y-76650000D02*
X136877500Y-76721428D01*
X136877500Y-76721428D02*
X136806071Y-76935714D01*
X136806071Y-76935714D02*
X136806071Y-77078571D01*
X136806071Y-77078571D02*
X136877500Y-77292857D01*
X136877500Y-77292857D02*
X137020357Y-77435714D01*
X137020357Y-77435714D02*
X137163214Y-77507143D01*
X137163214Y-77507143D02*
X137448928Y-77578571D01*
X137448928Y-77578571D02*
X137663214Y-77578571D01*
X137663214Y-77578571D02*
X137948928Y-77507143D01*
X137948928Y-77507143D02*
X138091785Y-77435714D01*
X138091785Y-77435714D02*
X138234642Y-77292857D01*
X138234642Y-77292857D02*
X138306071Y-77078571D01*
X138306071Y-77078571D02*
X138306071Y-76935714D01*
X138306071Y-76935714D02*
X138234642Y-76721428D01*
X138234642Y-76721428D02*
X138163214Y-76650000D01*
X137234642Y-76078571D02*
X137234642Y-75364286D01*
X136806071Y-76221428D02*
X138306071Y-75721428D01*
X138306071Y-75721428D02*
X136806071Y-75221428D01*
X136806071Y-74721429D02*
X138306071Y-74721429D01*
X138306071Y-74721429D02*
X136806071Y-73864286D01*
X136806071Y-73864286D02*
X138306071Y-73864286D01*
X136806071Y-73150000D02*
X138306071Y-73150000D01*
X137591785Y-73150000D02*
X137591785Y-72292857D01*
X136806071Y-72292857D02*
X138306071Y-72292857D01*
D11*
X157339761Y-145261904D02*
X157387380Y-145357142D01*
X157387380Y-145357142D02*
X157387380Y-145499999D01*
X157387380Y-145499999D02*
X157339761Y-145642856D01*
X157339761Y-145642856D02*
X157244523Y-145738094D01*
X157244523Y-145738094D02*
X157149285Y-145785713D01*
X157149285Y-145785713D02*
X156958809Y-145833332D01*
X156958809Y-145833332D02*
X156815952Y-145833332D01*
X156815952Y-145833332D02*
X156625476Y-145785713D01*
X156625476Y-145785713D02*
X156530238Y-145738094D01*
X156530238Y-145738094D02*
X156435000Y-145642856D01*
X156435000Y-145642856D02*
X156387380Y-145499999D01*
X156387380Y-145499999D02*
X156387380Y-145404761D01*
X156387380Y-145404761D02*
X156435000Y-145261904D01*
X156435000Y-145261904D02*
X156482619Y-145214285D01*
X156482619Y-145214285D02*
X156815952Y-145214285D01*
X156815952Y-145214285D02*
X156815952Y-145404761D01*
X156387380Y-144785713D02*
X157387380Y-144785713D01*
X157387380Y-144785713D02*
X156387380Y-144214285D01*
X156387380Y-144214285D02*
X157387380Y-144214285D01*
X156387380Y-143738094D02*
X157387380Y-143738094D01*
X157387380Y-143738094D02*
X157387380Y-143499999D01*
X157387380Y-143499999D02*
X157339761Y-143357142D01*
X157339761Y-143357142D02*
X157244523Y-143261904D01*
X157244523Y-143261904D02*
X157149285Y-143214285D01*
X157149285Y-143214285D02*
X156958809Y-143166666D01*
X156958809Y-143166666D02*
X156815952Y-143166666D01*
X156815952Y-143166666D02*
X156625476Y-143214285D01*
X156625476Y-143214285D02*
X156530238Y-143261904D01*
X156530238Y-143261904D02*
X156435000Y-143357142D01*
X156435000Y-143357142D02*
X156387380Y-143499999D01*
X156387380Y-143499999D02*
X156387380Y-143738094D01*
X129587380Y-146083332D02*
X130587380Y-146083332D01*
X130587380Y-146083332D02*
X130587380Y-145702380D01*
X130587380Y-145702380D02*
X130539761Y-145607142D01*
X130539761Y-145607142D02*
X130492142Y-145559523D01*
X130492142Y-145559523D02*
X130396904Y-145511904D01*
X130396904Y-145511904D02*
X130254047Y-145511904D01*
X130254047Y-145511904D02*
X130158809Y-145559523D01*
X130158809Y-145559523D02*
X130111190Y-145607142D01*
X130111190Y-145607142D02*
X130063571Y-145702380D01*
X130063571Y-145702380D02*
X130063571Y-146083332D01*
X130587380Y-145178570D02*
X129587380Y-144940475D01*
X129587380Y-144940475D02*
X130301666Y-144749999D01*
X130301666Y-144749999D02*
X129587380Y-144559523D01*
X129587380Y-144559523D02*
X130587380Y-144321428D01*
X129587380Y-143369047D02*
X130063571Y-143702380D01*
X129587380Y-143940475D02*
X130587380Y-143940475D01*
X130587380Y-143940475D02*
X130587380Y-143559523D01*
X130587380Y-143559523D02*
X130539761Y-143464285D01*
X130539761Y-143464285D02*
X130492142Y-143416666D01*
X130492142Y-143416666D02*
X130396904Y-143369047D01*
X130396904Y-143369047D02*
X130254047Y-143369047D01*
X130254047Y-143369047D02*
X130158809Y-143416666D01*
X130158809Y-143416666D02*
X130111190Y-143464285D01*
X130111190Y-143464285D02*
X130063571Y-143559523D01*
X130063571Y-143559523D02*
X130063571Y-143940475D01*
X132387380Y-146080951D02*
X133387380Y-146080951D01*
X133387380Y-146080951D02*
X133387380Y-145842856D01*
X133387380Y-145842856D02*
X133339761Y-145699999D01*
X133339761Y-145699999D02*
X133244523Y-145604761D01*
X133244523Y-145604761D02*
X133149285Y-145557142D01*
X133149285Y-145557142D02*
X132958809Y-145509523D01*
X132958809Y-145509523D02*
X132815952Y-145509523D01*
X132815952Y-145509523D02*
X132625476Y-145557142D01*
X132625476Y-145557142D02*
X132530238Y-145604761D01*
X132530238Y-145604761D02*
X132435000Y-145699999D01*
X132435000Y-145699999D02*
X132387380Y-145842856D01*
X132387380Y-145842856D02*
X132387380Y-146080951D01*
X132768333Y-145080951D02*
X132768333Y-144319047D01*
X146337380Y-145166666D02*
X146813571Y-145499999D01*
X146337380Y-145738094D02*
X147337380Y-145738094D01*
X147337380Y-145738094D02*
X147337380Y-145357142D01*
X147337380Y-145357142D02*
X147289761Y-145261904D01*
X147289761Y-145261904D02*
X147242142Y-145214285D01*
X147242142Y-145214285D02*
X147146904Y-145166666D01*
X147146904Y-145166666D02*
X147004047Y-145166666D01*
X147004047Y-145166666D02*
X146908809Y-145214285D01*
X146908809Y-145214285D02*
X146861190Y-145261904D01*
X146861190Y-145261904D02*
X146813571Y-145357142D01*
X146813571Y-145357142D02*
X146813571Y-145738094D01*
X147337380Y-144833332D02*
X146337380Y-144166666D01*
X147337380Y-144166666D02*
X146337380Y-144833332D01*
M02*
