%TF.GenerationSoftware,KiCad,Pcbnew,7.0.2-6a45011f42~172~ubuntu22.10.1*%
%TF.CreationDate,2023-04-24T11:56:10+02:00*%
%TF.ProjectId,vscp-din-esp32-can-z102,76736370-2d64-4696-9e2d-65737033322d,B*%
%TF.SameCoordinates,Original*%
%TF.FileFunction,Legend,Top*%
%TF.FilePolarity,Positive*%
%FSLAX46Y46*%
G04 Gerber Fmt 4.6, Leading zero omitted, Abs format (unit mm)*
G04 Created by KiCad (PCBNEW 7.0.2-6a45011f42~172~ubuntu22.10.1) date 2023-04-24 11:56:10*
%MOMM*%
%LPD*%
G01*
G04 APERTURE LIST*
%ADD10C,0.300000*%
%ADD11C,0.200000*%
%ADD12C,0.150000*%
%ADD13C,0.120000*%
G04 APERTURE END LIST*
D10*
X121285714Y-129143928D02*
X121642857Y-130143928D01*
X121642857Y-130143928D02*
X122000000Y-129143928D01*
X122500000Y-130072500D02*
X122642857Y-130143928D01*
X122642857Y-130143928D02*
X122928571Y-130143928D01*
X122928571Y-130143928D02*
X123071428Y-130072500D01*
X123071428Y-130072500D02*
X123142857Y-129929642D01*
X123142857Y-129929642D02*
X123142857Y-129858214D01*
X123142857Y-129858214D02*
X123071428Y-129715357D01*
X123071428Y-129715357D02*
X122928571Y-129643928D01*
X122928571Y-129643928D02*
X122714286Y-129643928D01*
X122714286Y-129643928D02*
X122571428Y-129572500D01*
X122571428Y-129572500D02*
X122500000Y-129429642D01*
X122500000Y-129429642D02*
X122500000Y-129358214D01*
X122500000Y-129358214D02*
X122571428Y-129215357D01*
X122571428Y-129215357D02*
X122714286Y-129143928D01*
X122714286Y-129143928D02*
X122928571Y-129143928D01*
X122928571Y-129143928D02*
X123071428Y-129215357D01*
X124428572Y-130072500D02*
X124285714Y-130143928D01*
X124285714Y-130143928D02*
X124000000Y-130143928D01*
X124000000Y-130143928D02*
X123857143Y-130072500D01*
X123857143Y-130072500D02*
X123785714Y-130001071D01*
X123785714Y-130001071D02*
X123714286Y-129858214D01*
X123714286Y-129858214D02*
X123714286Y-129429642D01*
X123714286Y-129429642D02*
X123785714Y-129286785D01*
X123785714Y-129286785D02*
X123857143Y-129215357D01*
X123857143Y-129215357D02*
X124000000Y-129143928D01*
X124000000Y-129143928D02*
X124285714Y-129143928D01*
X124285714Y-129143928D02*
X124428572Y-129215357D01*
X125071428Y-129143928D02*
X125071428Y-130643928D01*
X125071428Y-129215357D02*
X125214286Y-129143928D01*
X125214286Y-129143928D02*
X125500000Y-129143928D01*
X125500000Y-129143928D02*
X125642857Y-129215357D01*
X125642857Y-129215357D02*
X125714286Y-129286785D01*
X125714286Y-129286785D02*
X125785714Y-129429642D01*
X125785714Y-129429642D02*
X125785714Y-129858214D01*
X125785714Y-129858214D02*
X125714286Y-130001071D01*
X125714286Y-130001071D02*
X125642857Y-130072500D01*
X125642857Y-130072500D02*
X125500000Y-130143928D01*
X125500000Y-130143928D02*
X125214286Y-130143928D01*
X125214286Y-130143928D02*
X125071428Y-130072500D01*
X126428571Y-130001071D02*
X126500000Y-130072500D01*
X126500000Y-130072500D02*
X126428571Y-130143928D01*
X126428571Y-130143928D02*
X126357143Y-130072500D01*
X126357143Y-130072500D02*
X126428571Y-130001071D01*
X126428571Y-130001071D02*
X126428571Y-130143928D01*
X127357143Y-130143928D02*
X127214286Y-130072500D01*
X127214286Y-130072500D02*
X127142857Y-130001071D01*
X127142857Y-130001071D02*
X127071429Y-129858214D01*
X127071429Y-129858214D02*
X127071429Y-129429642D01*
X127071429Y-129429642D02*
X127142857Y-129286785D01*
X127142857Y-129286785D02*
X127214286Y-129215357D01*
X127214286Y-129215357D02*
X127357143Y-129143928D01*
X127357143Y-129143928D02*
X127571429Y-129143928D01*
X127571429Y-129143928D02*
X127714286Y-129215357D01*
X127714286Y-129215357D02*
X127785715Y-129286785D01*
X127785715Y-129286785D02*
X127857143Y-129429642D01*
X127857143Y-129429642D02*
X127857143Y-129858214D01*
X127857143Y-129858214D02*
X127785715Y-130001071D01*
X127785715Y-130001071D02*
X127714286Y-130072500D01*
X127714286Y-130072500D02*
X127571429Y-130143928D01*
X127571429Y-130143928D02*
X127357143Y-130143928D01*
X128500000Y-130143928D02*
X128500000Y-129143928D01*
X128500000Y-129429642D02*
X128571429Y-129286785D01*
X128571429Y-129286785D02*
X128642858Y-129215357D01*
X128642858Y-129215357D02*
X128785715Y-129143928D01*
X128785715Y-129143928D02*
X128928572Y-129143928D01*
X130071429Y-129143928D02*
X130071429Y-130358214D01*
X130071429Y-130358214D02*
X130000000Y-130501071D01*
X130000000Y-130501071D02*
X129928571Y-130572500D01*
X129928571Y-130572500D02*
X129785714Y-130643928D01*
X129785714Y-130643928D02*
X129571429Y-130643928D01*
X129571429Y-130643928D02*
X129428571Y-130572500D01*
X130071429Y-130072500D02*
X129928571Y-130143928D01*
X129928571Y-130143928D02*
X129642857Y-130143928D01*
X129642857Y-130143928D02*
X129500000Y-130072500D01*
X129500000Y-130072500D02*
X129428571Y-130001071D01*
X129428571Y-130001071D02*
X129357143Y-129858214D01*
X129357143Y-129858214D02*
X129357143Y-129429642D01*
X129357143Y-129429642D02*
X129428571Y-129286785D01*
X129428571Y-129286785D02*
X129500000Y-129215357D01*
X129500000Y-129215357D02*
X129642857Y-129143928D01*
X129642857Y-129143928D02*
X129928571Y-129143928D01*
X129928571Y-129143928D02*
X130071429Y-129215357D01*
D11*
X142912619Y-86671427D02*
X141912619Y-86671427D01*
X141912619Y-86671427D02*
X142626904Y-86338094D01*
X142626904Y-86338094D02*
X141912619Y-86004761D01*
X141912619Y-86004761D02*
X142912619Y-86004761D01*
X142912619Y-85528570D02*
X141912619Y-85528570D01*
X142865000Y-85099999D02*
X142912619Y-84957142D01*
X142912619Y-84957142D02*
X142912619Y-84719047D01*
X142912619Y-84719047D02*
X142865000Y-84623809D01*
X142865000Y-84623809D02*
X142817380Y-84576190D01*
X142817380Y-84576190D02*
X142722142Y-84528571D01*
X142722142Y-84528571D02*
X142626904Y-84528571D01*
X142626904Y-84528571D02*
X142531666Y-84576190D01*
X142531666Y-84576190D02*
X142484047Y-84623809D01*
X142484047Y-84623809D02*
X142436428Y-84719047D01*
X142436428Y-84719047D02*
X142388809Y-84909523D01*
X142388809Y-84909523D02*
X142341190Y-85004761D01*
X142341190Y-85004761D02*
X142293571Y-85052380D01*
X142293571Y-85052380D02*
X142198333Y-85099999D01*
X142198333Y-85099999D02*
X142103095Y-85099999D01*
X142103095Y-85099999D02*
X142007857Y-85052380D01*
X142007857Y-85052380D02*
X141960238Y-85004761D01*
X141960238Y-85004761D02*
X141912619Y-84909523D01*
X141912619Y-84909523D02*
X141912619Y-84671428D01*
X141912619Y-84671428D02*
X141960238Y-84528571D01*
X141912619Y-83909523D02*
X141912619Y-83719047D01*
X141912619Y-83719047D02*
X141960238Y-83623809D01*
X141960238Y-83623809D02*
X142055476Y-83528571D01*
X142055476Y-83528571D02*
X142245952Y-83480952D01*
X142245952Y-83480952D02*
X142579285Y-83480952D01*
X142579285Y-83480952D02*
X142769761Y-83528571D01*
X142769761Y-83528571D02*
X142865000Y-83623809D01*
X142865000Y-83623809D02*
X142912619Y-83719047D01*
X142912619Y-83719047D02*
X142912619Y-83909523D01*
X142912619Y-83909523D02*
X142865000Y-84004761D01*
X142865000Y-84004761D02*
X142769761Y-84099999D01*
X142769761Y-84099999D02*
X142579285Y-84147618D01*
X142579285Y-84147618D02*
X142245952Y-84147618D01*
X142245952Y-84147618D02*
X142055476Y-84099999D01*
X142055476Y-84099999D02*
X141960238Y-84004761D01*
X141960238Y-84004761D02*
X141912619Y-83909523D01*
X152160238Y-85511904D02*
X152112619Y-85607142D01*
X152112619Y-85607142D02*
X152112619Y-85749999D01*
X152112619Y-85749999D02*
X152160238Y-85892856D01*
X152160238Y-85892856D02*
X152255476Y-85988094D01*
X152255476Y-85988094D02*
X152350714Y-86035713D01*
X152350714Y-86035713D02*
X152541190Y-86083332D01*
X152541190Y-86083332D02*
X152684047Y-86083332D01*
X152684047Y-86083332D02*
X152874523Y-86035713D01*
X152874523Y-86035713D02*
X152969761Y-85988094D01*
X152969761Y-85988094D02*
X153065000Y-85892856D01*
X153065000Y-85892856D02*
X153112619Y-85749999D01*
X153112619Y-85749999D02*
X153112619Y-85654761D01*
X153112619Y-85654761D02*
X153065000Y-85511904D01*
X153065000Y-85511904D02*
X153017380Y-85464285D01*
X153017380Y-85464285D02*
X152684047Y-85464285D01*
X152684047Y-85464285D02*
X152684047Y-85654761D01*
X153112619Y-85035713D02*
X152112619Y-85035713D01*
X152112619Y-85035713D02*
X153112619Y-84464285D01*
X153112619Y-84464285D02*
X152112619Y-84464285D01*
X153112619Y-83988094D02*
X152112619Y-83988094D01*
X152112619Y-83988094D02*
X152112619Y-83749999D01*
X152112619Y-83749999D02*
X152160238Y-83607142D01*
X152160238Y-83607142D02*
X152255476Y-83511904D01*
X152255476Y-83511904D02*
X152350714Y-83464285D01*
X152350714Y-83464285D02*
X152541190Y-83416666D01*
X152541190Y-83416666D02*
X152684047Y-83416666D01*
X152684047Y-83416666D02*
X152874523Y-83464285D01*
X152874523Y-83464285D02*
X152969761Y-83511904D01*
X152969761Y-83511904D02*
X153065000Y-83607142D01*
X153065000Y-83607142D02*
X153112619Y-83749999D01*
X153112619Y-83749999D02*
X153112619Y-83988094D01*
X145365000Y-86035713D02*
X145412619Y-85892856D01*
X145412619Y-85892856D02*
X145412619Y-85654761D01*
X145412619Y-85654761D02*
X145365000Y-85559523D01*
X145365000Y-85559523D02*
X145317380Y-85511904D01*
X145317380Y-85511904D02*
X145222142Y-85464285D01*
X145222142Y-85464285D02*
X145126904Y-85464285D01*
X145126904Y-85464285D02*
X145031666Y-85511904D01*
X145031666Y-85511904D02*
X144984047Y-85559523D01*
X144984047Y-85559523D02*
X144936428Y-85654761D01*
X144936428Y-85654761D02*
X144888809Y-85845237D01*
X144888809Y-85845237D02*
X144841190Y-85940475D01*
X144841190Y-85940475D02*
X144793571Y-85988094D01*
X144793571Y-85988094D02*
X144698333Y-86035713D01*
X144698333Y-86035713D02*
X144603095Y-86035713D01*
X144603095Y-86035713D02*
X144507857Y-85988094D01*
X144507857Y-85988094D02*
X144460238Y-85940475D01*
X144460238Y-85940475D02*
X144412619Y-85845237D01*
X144412619Y-85845237D02*
X144412619Y-85607142D01*
X144412619Y-85607142D02*
X144460238Y-85464285D01*
X145317380Y-84464285D02*
X145365000Y-84511904D01*
X145365000Y-84511904D02*
X145412619Y-84654761D01*
X145412619Y-84654761D02*
X145412619Y-84749999D01*
X145412619Y-84749999D02*
X145365000Y-84892856D01*
X145365000Y-84892856D02*
X145269761Y-84988094D01*
X145269761Y-84988094D02*
X145174523Y-85035713D01*
X145174523Y-85035713D02*
X144984047Y-85083332D01*
X144984047Y-85083332D02*
X144841190Y-85083332D01*
X144841190Y-85083332D02*
X144650714Y-85035713D01*
X144650714Y-85035713D02*
X144555476Y-84988094D01*
X144555476Y-84988094D02*
X144460238Y-84892856D01*
X144460238Y-84892856D02*
X144412619Y-84749999D01*
X144412619Y-84749999D02*
X144412619Y-84654761D01*
X144412619Y-84654761D02*
X144460238Y-84511904D01*
X144460238Y-84511904D02*
X144507857Y-84464285D01*
X145412619Y-84035713D02*
X144412619Y-84035713D01*
X145412619Y-83464285D02*
X144841190Y-83892856D01*
X144412619Y-83464285D02*
X144984047Y-84035713D01*
X141976191Y-79015000D02*
X142119048Y-79062619D01*
X142119048Y-79062619D02*
X142357143Y-79062619D01*
X142357143Y-79062619D02*
X142452381Y-79015000D01*
X142452381Y-79015000D02*
X142500000Y-78967380D01*
X142500000Y-78967380D02*
X142547619Y-78872142D01*
X142547619Y-78872142D02*
X142547619Y-78776904D01*
X142547619Y-78776904D02*
X142500000Y-78681666D01*
X142500000Y-78681666D02*
X142452381Y-78634047D01*
X142452381Y-78634047D02*
X142357143Y-78586428D01*
X142357143Y-78586428D02*
X142166667Y-78538809D01*
X142166667Y-78538809D02*
X142071429Y-78491190D01*
X142071429Y-78491190D02*
X142023810Y-78443571D01*
X142023810Y-78443571D02*
X141976191Y-78348333D01*
X141976191Y-78348333D02*
X141976191Y-78253095D01*
X141976191Y-78253095D02*
X142023810Y-78157857D01*
X142023810Y-78157857D02*
X142071429Y-78110238D01*
X142071429Y-78110238D02*
X142166667Y-78062619D01*
X142166667Y-78062619D02*
X142404762Y-78062619D01*
X142404762Y-78062619D02*
X142547619Y-78110238D01*
X142976191Y-79062619D02*
X142976191Y-78062619D01*
X142976191Y-78062619D02*
X143357143Y-78062619D01*
X143357143Y-78062619D02*
X143452381Y-78110238D01*
X143452381Y-78110238D02*
X143500000Y-78157857D01*
X143500000Y-78157857D02*
X143547619Y-78253095D01*
X143547619Y-78253095D02*
X143547619Y-78395952D01*
X143547619Y-78395952D02*
X143500000Y-78491190D01*
X143500000Y-78491190D02*
X143452381Y-78538809D01*
X143452381Y-78538809D02*
X143357143Y-78586428D01*
X143357143Y-78586428D02*
X142976191Y-78586428D01*
X143976191Y-79062619D02*
X143976191Y-78062619D01*
X150262619Y-132866666D02*
X149786428Y-133199999D01*
X150262619Y-133438094D02*
X149262619Y-133438094D01*
X149262619Y-133438094D02*
X149262619Y-133057142D01*
X149262619Y-133057142D02*
X149310238Y-132961904D01*
X149310238Y-132961904D02*
X149357857Y-132914285D01*
X149357857Y-132914285D02*
X149453095Y-132866666D01*
X149453095Y-132866666D02*
X149595952Y-132866666D01*
X149595952Y-132866666D02*
X149691190Y-132914285D01*
X149691190Y-132914285D02*
X149738809Y-132961904D01*
X149738809Y-132961904D02*
X149786428Y-133057142D01*
X149786428Y-133057142D02*
X149786428Y-133438094D01*
X149262619Y-132533332D02*
X150262619Y-131866666D01*
X149262619Y-131866666D02*
X150262619Y-132533332D01*
X149462619Y-86526189D02*
X149462619Y-85907142D01*
X149462619Y-85907142D02*
X149843571Y-86240475D01*
X149843571Y-86240475D02*
X149843571Y-86097618D01*
X149843571Y-86097618D02*
X149891190Y-86002380D01*
X149891190Y-86002380D02*
X149938809Y-85954761D01*
X149938809Y-85954761D02*
X150034047Y-85907142D01*
X150034047Y-85907142D02*
X150272142Y-85907142D01*
X150272142Y-85907142D02*
X150367380Y-85954761D01*
X150367380Y-85954761D02*
X150415000Y-86002380D01*
X150415000Y-86002380D02*
X150462619Y-86097618D01*
X150462619Y-86097618D02*
X150462619Y-86383332D01*
X150462619Y-86383332D02*
X150415000Y-86478570D01*
X150415000Y-86478570D02*
X150367380Y-86526189D01*
X150367380Y-85478570D02*
X150415000Y-85430951D01*
X150415000Y-85430951D02*
X150462619Y-85478570D01*
X150462619Y-85478570D02*
X150415000Y-85526189D01*
X150415000Y-85526189D02*
X150367380Y-85478570D01*
X150367380Y-85478570D02*
X150462619Y-85478570D01*
X149462619Y-85097618D02*
X149462619Y-84478571D01*
X149462619Y-84478571D02*
X149843571Y-84811904D01*
X149843571Y-84811904D02*
X149843571Y-84669047D01*
X149843571Y-84669047D02*
X149891190Y-84573809D01*
X149891190Y-84573809D02*
X149938809Y-84526190D01*
X149938809Y-84526190D02*
X150034047Y-84478571D01*
X150034047Y-84478571D02*
X150272142Y-84478571D01*
X150272142Y-84478571D02*
X150367380Y-84526190D01*
X150367380Y-84526190D02*
X150415000Y-84573809D01*
X150415000Y-84573809D02*
X150462619Y-84669047D01*
X150462619Y-84669047D02*
X150462619Y-84954761D01*
X150462619Y-84954761D02*
X150415000Y-85049999D01*
X150415000Y-85049999D02*
X150367380Y-85097618D01*
X149462619Y-84192856D02*
X150462619Y-83859523D01*
X150462619Y-83859523D02*
X149462619Y-83526190D01*
X151662619Y-133611904D02*
X151662619Y-133040476D01*
X152662619Y-133326190D02*
X151662619Y-133326190D01*
X151662619Y-132802380D02*
X152662619Y-132135714D01*
X151662619Y-132135714D02*
X152662619Y-132802380D01*
X142612619Y-133199999D02*
X141612619Y-133199999D01*
X141612619Y-132533333D02*
X141612619Y-132342857D01*
X141612619Y-132342857D02*
X141660238Y-132247619D01*
X141660238Y-132247619D02*
X141755476Y-132152381D01*
X141755476Y-132152381D02*
X141945952Y-132104762D01*
X141945952Y-132104762D02*
X142279285Y-132104762D01*
X142279285Y-132104762D02*
X142469761Y-132152381D01*
X142469761Y-132152381D02*
X142565000Y-132247619D01*
X142565000Y-132247619D02*
X142612619Y-132342857D01*
X142612619Y-132342857D02*
X142612619Y-132533333D01*
X142612619Y-132533333D02*
X142565000Y-132628571D01*
X142565000Y-132628571D02*
X142469761Y-132723809D01*
X142469761Y-132723809D02*
X142279285Y-132771428D01*
X142279285Y-132771428D02*
X141945952Y-132771428D01*
X141945952Y-132771428D02*
X141755476Y-132723809D01*
X141755476Y-132723809D02*
X141660238Y-132628571D01*
X141660238Y-132628571D02*
X141612619Y-132533333D01*
X141945952Y-131247619D02*
X142612619Y-131247619D01*
X141565000Y-131485714D02*
X142279285Y-131723809D01*
X142279285Y-131723809D02*
X142279285Y-131104762D01*
D10*
X122100000Y-128251071D02*
X122028572Y-128322500D01*
X122028572Y-128322500D02*
X121814286Y-128393928D01*
X121814286Y-128393928D02*
X121671429Y-128393928D01*
X121671429Y-128393928D02*
X121457143Y-128322500D01*
X121457143Y-128322500D02*
X121314286Y-128179642D01*
X121314286Y-128179642D02*
X121242857Y-128036785D01*
X121242857Y-128036785D02*
X121171429Y-127751071D01*
X121171429Y-127751071D02*
X121171429Y-127536785D01*
X121171429Y-127536785D02*
X121242857Y-127251071D01*
X121242857Y-127251071D02*
X121314286Y-127108214D01*
X121314286Y-127108214D02*
X121457143Y-126965357D01*
X121457143Y-126965357D02*
X121671429Y-126893928D01*
X121671429Y-126893928D02*
X121814286Y-126893928D01*
X121814286Y-126893928D02*
X122028572Y-126965357D01*
X122028572Y-126965357D02*
X122100000Y-127036785D01*
X122671429Y-127965357D02*
X123385715Y-127965357D01*
X122528572Y-128393928D02*
X123028572Y-126893928D01*
X123028572Y-126893928D02*
X123528572Y-128393928D01*
X124028571Y-128393928D02*
X124028571Y-126893928D01*
X124028571Y-126893928D02*
X124885714Y-128393928D01*
X124885714Y-128393928D02*
X124885714Y-126893928D01*
X126242858Y-127393928D02*
X126242858Y-128393928D01*
X125885715Y-126822500D02*
X125528572Y-127893928D01*
X125528572Y-127893928D02*
X126457143Y-127893928D01*
X126814286Y-126893928D02*
X127314286Y-128393928D01*
X127314286Y-128393928D02*
X127814286Y-126893928D01*
X128242857Y-128322500D02*
X128457143Y-128393928D01*
X128457143Y-128393928D02*
X128814285Y-128393928D01*
X128814285Y-128393928D02*
X128957143Y-128322500D01*
X128957143Y-128322500D02*
X129028571Y-128251071D01*
X129028571Y-128251071D02*
X129100000Y-128108214D01*
X129100000Y-128108214D02*
X129100000Y-127965357D01*
X129100000Y-127965357D02*
X129028571Y-127822500D01*
X129028571Y-127822500D02*
X128957143Y-127751071D01*
X128957143Y-127751071D02*
X128814285Y-127679642D01*
X128814285Y-127679642D02*
X128528571Y-127608214D01*
X128528571Y-127608214D02*
X128385714Y-127536785D01*
X128385714Y-127536785D02*
X128314285Y-127465357D01*
X128314285Y-127465357D02*
X128242857Y-127322500D01*
X128242857Y-127322500D02*
X128242857Y-127179642D01*
X128242857Y-127179642D02*
X128314285Y-127036785D01*
X128314285Y-127036785D02*
X128385714Y-126965357D01*
X128385714Y-126965357D02*
X128528571Y-126893928D01*
X128528571Y-126893928D02*
X128885714Y-126893928D01*
X128885714Y-126893928D02*
X129100000Y-126965357D01*
X130599999Y-128251071D02*
X130528571Y-128322500D01*
X130528571Y-128322500D02*
X130314285Y-128393928D01*
X130314285Y-128393928D02*
X130171428Y-128393928D01*
X130171428Y-128393928D02*
X129957142Y-128322500D01*
X129957142Y-128322500D02*
X129814285Y-128179642D01*
X129814285Y-128179642D02*
X129742856Y-128036785D01*
X129742856Y-128036785D02*
X129671428Y-127751071D01*
X129671428Y-127751071D02*
X129671428Y-127536785D01*
X129671428Y-127536785D02*
X129742856Y-127251071D01*
X129742856Y-127251071D02*
X129814285Y-127108214D01*
X129814285Y-127108214D02*
X129957142Y-126965357D01*
X129957142Y-126965357D02*
X130171428Y-126893928D01*
X130171428Y-126893928D02*
X130314285Y-126893928D01*
X130314285Y-126893928D02*
X130528571Y-126965357D01*
X130528571Y-126965357D02*
X130599999Y-127036785D01*
X131242856Y-128393928D02*
X131242856Y-126893928D01*
X131242856Y-126893928D02*
X131814285Y-126893928D01*
X131814285Y-126893928D02*
X131957142Y-126965357D01*
X131957142Y-126965357D02*
X132028571Y-127036785D01*
X132028571Y-127036785D02*
X132099999Y-127179642D01*
X132099999Y-127179642D02*
X132099999Y-127393928D01*
X132099999Y-127393928D02*
X132028571Y-127536785D01*
X132028571Y-127536785D02*
X131957142Y-127608214D01*
X131957142Y-127608214D02*
X131814285Y-127679642D01*
X131814285Y-127679642D02*
X131242856Y-127679642D01*
X134385713Y-127608214D02*
X133885713Y-127608214D01*
X133885713Y-128393928D02*
X133885713Y-126893928D01*
X133885713Y-126893928D02*
X134599999Y-126893928D01*
X135171427Y-128393928D02*
X135171427Y-127393928D01*
X135171427Y-127679642D02*
X135242856Y-127536785D01*
X135242856Y-127536785D02*
X135314285Y-127465357D01*
X135314285Y-127465357D02*
X135457142Y-127393928D01*
X135457142Y-127393928D02*
X135599999Y-127393928D01*
X136742856Y-128393928D02*
X136742856Y-127608214D01*
X136742856Y-127608214D02*
X136671427Y-127465357D01*
X136671427Y-127465357D02*
X136528570Y-127393928D01*
X136528570Y-127393928D02*
X136242856Y-127393928D01*
X136242856Y-127393928D02*
X136099998Y-127465357D01*
X136742856Y-128322500D02*
X136599998Y-128393928D01*
X136599998Y-128393928D02*
X136242856Y-128393928D01*
X136242856Y-128393928D02*
X136099998Y-128322500D01*
X136099998Y-128322500D02*
X136028570Y-128179642D01*
X136028570Y-128179642D02*
X136028570Y-128036785D01*
X136028570Y-128036785D02*
X136099998Y-127893928D01*
X136099998Y-127893928D02*
X136242856Y-127822500D01*
X136242856Y-127822500D02*
X136599998Y-127822500D01*
X136599998Y-127822500D02*
X136742856Y-127751071D01*
X137457141Y-127393928D02*
X137457141Y-128393928D01*
X137457141Y-127536785D02*
X137528570Y-127465357D01*
X137528570Y-127465357D02*
X137671427Y-127393928D01*
X137671427Y-127393928D02*
X137885713Y-127393928D01*
X137885713Y-127393928D02*
X138028570Y-127465357D01*
X138028570Y-127465357D02*
X138099999Y-127608214D01*
X138099999Y-127608214D02*
X138099999Y-128393928D01*
X138814284Y-128393928D02*
X138814284Y-126893928D01*
X138957142Y-127822500D02*
X139385713Y-128393928D01*
X139385713Y-127393928D02*
X138814284Y-127965357D01*
X139814285Y-127393928D02*
X140385713Y-127393928D01*
X140028570Y-128393928D02*
X140028570Y-127108214D01*
X140028570Y-127108214D02*
X140099999Y-126965357D01*
X140099999Y-126965357D02*
X140242856Y-126893928D01*
X140242856Y-126893928D02*
X140385713Y-126893928D01*
X141528571Y-127393928D02*
X141528571Y-128393928D01*
X140885713Y-127393928D02*
X140885713Y-128179642D01*
X140885713Y-128179642D02*
X140957142Y-128322500D01*
X140957142Y-128322500D02*
X141099999Y-128393928D01*
X141099999Y-128393928D02*
X141314285Y-128393928D01*
X141314285Y-128393928D02*
X141457142Y-128322500D01*
X141457142Y-128322500D02*
X141528571Y-128251071D01*
X142242856Y-128393928D02*
X142242856Y-127393928D01*
X142242856Y-127679642D02*
X142314285Y-127536785D01*
X142314285Y-127536785D02*
X142385714Y-127465357D01*
X142385714Y-127465357D02*
X142528571Y-127393928D01*
X142528571Y-127393928D02*
X142671428Y-127393928D01*
X142957142Y-127393928D02*
X143528570Y-127393928D01*
X143171427Y-126893928D02*
X143171427Y-128179642D01*
X143171427Y-128179642D02*
X143242856Y-128322500D01*
X143242856Y-128322500D02*
X143385713Y-128393928D01*
X143385713Y-128393928D02*
X143528570Y-128393928D01*
X145028570Y-126893928D02*
X145385713Y-128393928D01*
X145385713Y-128393928D02*
X145671427Y-127322500D01*
X145671427Y-127322500D02*
X145957142Y-128393928D01*
X145957142Y-128393928D02*
X146314285Y-126893928D01*
X146885713Y-128393928D02*
X146885713Y-127393928D01*
X146885713Y-126893928D02*
X146814285Y-126965357D01*
X146814285Y-126965357D02*
X146885713Y-127036785D01*
X146885713Y-127036785D02*
X146957142Y-126965357D01*
X146957142Y-126965357D02*
X146885713Y-126893928D01*
X146885713Y-126893928D02*
X146885713Y-127036785D01*
X147385714Y-127393928D02*
X147957142Y-127393928D01*
X147599999Y-128393928D02*
X147599999Y-127108214D01*
X147599999Y-127108214D02*
X147671428Y-126965357D01*
X147671428Y-126965357D02*
X147814285Y-126893928D01*
X147814285Y-126893928D02*
X147957142Y-126893928D01*
X148457142Y-128393928D02*
X148457142Y-127393928D01*
X148457142Y-126893928D02*
X148385714Y-126965357D01*
X148385714Y-126965357D02*
X148457142Y-127036785D01*
X148457142Y-127036785D02*
X148528571Y-126965357D01*
X148528571Y-126965357D02*
X148457142Y-126893928D01*
X148457142Y-126893928D02*
X148457142Y-127036785D01*
X122178571Y-132293928D02*
X121678571Y-131579642D01*
X121321428Y-132293928D02*
X121321428Y-130793928D01*
X121321428Y-130793928D02*
X121892857Y-130793928D01*
X121892857Y-130793928D02*
X122035714Y-130865357D01*
X122035714Y-130865357D02*
X122107143Y-130936785D01*
X122107143Y-130936785D02*
X122178571Y-131079642D01*
X122178571Y-131079642D02*
X122178571Y-131293928D01*
X122178571Y-131293928D02*
X122107143Y-131436785D01*
X122107143Y-131436785D02*
X122035714Y-131508214D01*
X122035714Y-131508214D02*
X121892857Y-131579642D01*
X121892857Y-131579642D02*
X121321428Y-131579642D01*
X123392857Y-132222500D02*
X123250000Y-132293928D01*
X123250000Y-132293928D02*
X122964286Y-132293928D01*
X122964286Y-132293928D02*
X122821428Y-132222500D01*
X122821428Y-132222500D02*
X122750000Y-132079642D01*
X122750000Y-132079642D02*
X122750000Y-131508214D01*
X122750000Y-131508214D02*
X122821428Y-131365357D01*
X122821428Y-131365357D02*
X122964286Y-131293928D01*
X122964286Y-131293928D02*
X123250000Y-131293928D01*
X123250000Y-131293928D02*
X123392857Y-131365357D01*
X123392857Y-131365357D02*
X123464286Y-131508214D01*
X123464286Y-131508214D02*
X123464286Y-131651071D01*
X123464286Y-131651071D02*
X122750000Y-131793928D01*
X123964285Y-131293928D02*
X124321428Y-132293928D01*
X124321428Y-132293928D02*
X124678571Y-131293928D01*
X126892856Y-131508214D02*
X127107142Y-131579642D01*
X127107142Y-131579642D02*
X127178571Y-131651071D01*
X127178571Y-131651071D02*
X127249999Y-131793928D01*
X127249999Y-131793928D02*
X127249999Y-132008214D01*
X127249999Y-132008214D02*
X127178571Y-132151071D01*
X127178571Y-132151071D02*
X127107142Y-132222500D01*
X127107142Y-132222500D02*
X126964285Y-132293928D01*
X126964285Y-132293928D02*
X126392856Y-132293928D01*
X126392856Y-132293928D02*
X126392856Y-130793928D01*
X126392856Y-130793928D02*
X126892856Y-130793928D01*
X126892856Y-130793928D02*
X127035714Y-130865357D01*
X127035714Y-130865357D02*
X127107142Y-130936785D01*
X127107142Y-130936785D02*
X127178571Y-131079642D01*
X127178571Y-131079642D02*
X127178571Y-131222500D01*
X127178571Y-131222500D02*
X127107142Y-131365357D01*
X127107142Y-131365357D02*
X127035714Y-131436785D01*
X127035714Y-131436785D02*
X126892856Y-131508214D01*
X126892856Y-131508214D02*
X126392856Y-131508214D01*
D11*
X153259524Y-66762619D02*
X153830952Y-66762619D01*
X153545238Y-67762619D02*
X153545238Y-66762619D01*
X154545238Y-67715000D02*
X154450000Y-67762619D01*
X154450000Y-67762619D02*
X154259524Y-67762619D01*
X154259524Y-67762619D02*
X154164286Y-67715000D01*
X154164286Y-67715000D02*
X154116667Y-67619761D01*
X154116667Y-67619761D02*
X154116667Y-67238809D01*
X154116667Y-67238809D02*
X154164286Y-67143571D01*
X154164286Y-67143571D02*
X154259524Y-67095952D01*
X154259524Y-67095952D02*
X154450000Y-67095952D01*
X154450000Y-67095952D02*
X154545238Y-67143571D01*
X154545238Y-67143571D02*
X154592857Y-67238809D01*
X154592857Y-67238809D02*
X154592857Y-67334047D01*
X154592857Y-67334047D02*
X154116667Y-67429285D01*
X155021429Y-67762619D02*
X155021429Y-67095952D01*
X155021429Y-67286428D02*
X155069048Y-67191190D01*
X155069048Y-67191190D02*
X155116667Y-67143571D01*
X155116667Y-67143571D02*
X155211905Y-67095952D01*
X155211905Y-67095952D02*
X155307143Y-67095952D01*
X155640477Y-67762619D02*
X155640477Y-67095952D01*
X155640477Y-67191190D02*
X155688096Y-67143571D01*
X155688096Y-67143571D02*
X155783334Y-67095952D01*
X155783334Y-67095952D02*
X155926191Y-67095952D01*
X155926191Y-67095952D02*
X156021429Y-67143571D01*
X156021429Y-67143571D02*
X156069048Y-67238809D01*
X156069048Y-67238809D02*
X156069048Y-67762619D01*
X156069048Y-67238809D02*
X156116667Y-67143571D01*
X156116667Y-67143571D02*
X156211905Y-67095952D01*
X156211905Y-67095952D02*
X156354762Y-67095952D01*
X156354762Y-67095952D02*
X156450001Y-67143571D01*
X156450001Y-67143571D02*
X156497620Y-67238809D01*
X156497620Y-67238809D02*
X156497620Y-67762619D01*
X147662619Y-133399999D02*
X146662619Y-133399999D01*
X146662619Y-132733333D02*
X146662619Y-132542857D01*
X146662619Y-132542857D02*
X146710238Y-132447619D01*
X146710238Y-132447619D02*
X146805476Y-132352381D01*
X146805476Y-132352381D02*
X146995952Y-132304762D01*
X146995952Y-132304762D02*
X147329285Y-132304762D01*
X147329285Y-132304762D02*
X147519761Y-132352381D01*
X147519761Y-132352381D02*
X147615000Y-132447619D01*
X147615000Y-132447619D02*
X147662619Y-132542857D01*
X147662619Y-132542857D02*
X147662619Y-132733333D01*
X147662619Y-132733333D02*
X147615000Y-132828571D01*
X147615000Y-132828571D02*
X147519761Y-132923809D01*
X147519761Y-132923809D02*
X147329285Y-132971428D01*
X147329285Y-132971428D02*
X146995952Y-132971428D01*
X146995952Y-132971428D02*
X146805476Y-132923809D01*
X146805476Y-132923809D02*
X146710238Y-132828571D01*
X146710238Y-132828571D02*
X146662619Y-132733333D01*
X146662619Y-131971428D02*
X146662619Y-131352381D01*
X146662619Y-131352381D02*
X147043571Y-131685714D01*
X147043571Y-131685714D02*
X147043571Y-131542857D01*
X147043571Y-131542857D02*
X147091190Y-131447619D01*
X147091190Y-131447619D02*
X147138809Y-131400000D01*
X147138809Y-131400000D02*
X147234047Y-131352381D01*
X147234047Y-131352381D02*
X147472142Y-131352381D01*
X147472142Y-131352381D02*
X147567380Y-131400000D01*
X147567380Y-131400000D02*
X147615000Y-131447619D01*
X147615000Y-131447619D02*
X147662619Y-131542857D01*
X147662619Y-131542857D02*
X147662619Y-131828571D01*
X147662619Y-131828571D02*
X147615000Y-131923809D01*
X147615000Y-131923809D02*
X147567380Y-131971428D01*
X145162619Y-133349999D02*
X144162619Y-133349999D01*
X144162619Y-132683333D02*
X144162619Y-132492857D01*
X144162619Y-132492857D02*
X144210238Y-132397619D01*
X144210238Y-132397619D02*
X144305476Y-132302381D01*
X144305476Y-132302381D02*
X144495952Y-132254762D01*
X144495952Y-132254762D02*
X144829285Y-132254762D01*
X144829285Y-132254762D02*
X145019761Y-132302381D01*
X145019761Y-132302381D02*
X145115000Y-132397619D01*
X145115000Y-132397619D02*
X145162619Y-132492857D01*
X145162619Y-132492857D02*
X145162619Y-132683333D01*
X145162619Y-132683333D02*
X145115000Y-132778571D01*
X145115000Y-132778571D02*
X145019761Y-132873809D01*
X145019761Y-132873809D02*
X144829285Y-132921428D01*
X144829285Y-132921428D02*
X144495952Y-132921428D01*
X144495952Y-132921428D02*
X144305476Y-132873809D01*
X144305476Y-132873809D02*
X144210238Y-132778571D01*
X144210238Y-132778571D02*
X144162619Y-132683333D01*
X144162619Y-131350000D02*
X144162619Y-131826190D01*
X144162619Y-131826190D02*
X144638809Y-131873809D01*
X144638809Y-131873809D02*
X144591190Y-131826190D01*
X144591190Y-131826190D02*
X144543571Y-131730952D01*
X144543571Y-131730952D02*
X144543571Y-131492857D01*
X144543571Y-131492857D02*
X144591190Y-131397619D01*
X144591190Y-131397619D02*
X144638809Y-131350000D01*
X144638809Y-131350000D02*
X144734047Y-131302381D01*
X144734047Y-131302381D02*
X144972142Y-131302381D01*
X144972142Y-131302381D02*
X145067380Y-131350000D01*
X145067380Y-131350000D02*
X145115000Y-131397619D01*
X145115000Y-131397619D02*
X145162619Y-131492857D01*
X145162619Y-131492857D02*
X145162619Y-131730952D01*
X145162619Y-131730952D02*
X145115000Y-131826190D01*
X145115000Y-131826190D02*
X145067380Y-131873809D01*
X147862619Y-86821427D02*
X146862619Y-86821427D01*
X146862619Y-86821427D02*
X147576904Y-86488094D01*
X147576904Y-86488094D02*
X146862619Y-86154761D01*
X146862619Y-86154761D02*
X147862619Y-86154761D01*
X146862619Y-85488094D02*
X146862619Y-85297618D01*
X146862619Y-85297618D02*
X146910238Y-85202380D01*
X146910238Y-85202380D02*
X147005476Y-85107142D01*
X147005476Y-85107142D02*
X147195952Y-85059523D01*
X147195952Y-85059523D02*
X147529285Y-85059523D01*
X147529285Y-85059523D02*
X147719761Y-85107142D01*
X147719761Y-85107142D02*
X147815000Y-85202380D01*
X147815000Y-85202380D02*
X147862619Y-85297618D01*
X147862619Y-85297618D02*
X147862619Y-85488094D01*
X147862619Y-85488094D02*
X147815000Y-85583332D01*
X147815000Y-85583332D02*
X147719761Y-85678570D01*
X147719761Y-85678570D02*
X147529285Y-85726189D01*
X147529285Y-85726189D02*
X147195952Y-85726189D01*
X147195952Y-85726189D02*
X147005476Y-85678570D01*
X147005476Y-85678570D02*
X146910238Y-85583332D01*
X146910238Y-85583332D02*
X146862619Y-85488094D01*
X147815000Y-84678570D02*
X147862619Y-84535713D01*
X147862619Y-84535713D02*
X147862619Y-84297618D01*
X147862619Y-84297618D02*
X147815000Y-84202380D01*
X147815000Y-84202380D02*
X147767380Y-84154761D01*
X147767380Y-84154761D02*
X147672142Y-84107142D01*
X147672142Y-84107142D02*
X147576904Y-84107142D01*
X147576904Y-84107142D02*
X147481666Y-84154761D01*
X147481666Y-84154761D02*
X147434047Y-84202380D01*
X147434047Y-84202380D02*
X147386428Y-84297618D01*
X147386428Y-84297618D02*
X147338809Y-84488094D01*
X147338809Y-84488094D02*
X147291190Y-84583332D01*
X147291190Y-84583332D02*
X147243571Y-84630951D01*
X147243571Y-84630951D02*
X147148333Y-84678570D01*
X147148333Y-84678570D02*
X147053095Y-84678570D01*
X147053095Y-84678570D02*
X146957857Y-84630951D01*
X146957857Y-84630951D02*
X146910238Y-84583332D01*
X146910238Y-84583332D02*
X146862619Y-84488094D01*
X146862619Y-84488094D02*
X146862619Y-84249999D01*
X146862619Y-84249999D02*
X146910238Y-84107142D01*
X147862619Y-83678570D02*
X146862619Y-83678570D01*
D12*
%TO.C,D4*%
X162282619Y-137750594D02*
X161282619Y-137750594D01*
X161282619Y-137750594D02*
X161282619Y-137512499D01*
X161282619Y-137512499D02*
X161330238Y-137369642D01*
X161330238Y-137369642D02*
X161425476Y-137274404D01*
X161425476Y-137274404D02*
X161520714Y-137226785D01*
X161520714Y-137226785D02*
X161711190Y-137179166D01*
X161711190Y-137179166D02*
X161854047Y-137179166D01*
X161854047Y-137179166D02*
X162044523Y-137226785D01*
X162044523Y-137226785D02*
X162139761Y-137274404D01*
X162139761Y-137274404D02*
X162235000Y-137369642D01*
X162235000Y-137369642D02*
X162282619Y-137512499D01*
X162282619Y-137512499D02*
X162282619Y-137750594D01*
X161615952Y-136322023D02*
X162282619Y-136322023D01*
X161235000Y-136560118D02*
X161949285Y-136798213D01*
X161949285Y-136798213D02*
X161949285Y-136179166D01*
%TO.C,D3*%
X137761905Y-85262619D02*
X137761905Y-84262619D01*
X137761905Y-84262619D02*
X138000000Y-84262619D01*
X138000000Y-84262619D02*
X138142857Y-84310238D01*
X138142857Y-84310238D02*
X138238095Y-84405476D01*
X138238095Y-84405476D02*
X138285714Y-84500714D01*
X138285714Y-84500714D02*
X138333333Y-84691190D01*
X138333333Y-84691190D02*
X138333333Y-84834047D01*
X138333333Y-84834047D02*
X138285714Y-85024523D01*
X138285714Y-85024523D02*
X138238095Y-85119761D01*
X138238095Y-85119761D02*
X138142857Y-85215000D01*
X138142857Y-85215000D02*
X138000000Y-85262619D01*
X138000000Y-85262619D02*
X137761905Y-85262619D01*
X138666667Y-84262619D02*
X139285714Y-84262619D01*
X139285714Y-84262619D02*
X138952381Y-84643571D01*
X138952381Y-84643571D02*
X139095238Y-84643571D01*
X139095238Y-84643571D02*
X139190476Y-84691190D01*
X139190476Y-84691190D02*
X139238095Y-84738809D01*
X139238095Y-84738809D02*
X139285714Y-84834047D01*
X139285714Y-84834047D02*
X139285714Y-85072142D01*
X139285714Y-85072142D02*
X139238095Y-85167380D01*
X139238095Y-85167380D02*
X139190476Y-85215000D01*
X139190476Y-85215000D02*
X139095238Y-85262619D01*
X139095238Y-85262619D02*
X138809524Y-85262619D01*
X138809524Y-85262619D02*
X138714286Y-85215000D01*
X138714286Y-85215000D02*
X138666667Y-85167380D01*
%TO.C,U4*%
X164038095Y-76862619D02*
X164038095Y-77672142D01*
X164038095Y-77672142D02*
X164085714Y-77767380D01*
X164085714Y-77767380D02*
X164133333Y-77815000D01*
X164133333Y-77815000D02*
X164228571Y-77862619D01*
X164228571Y-77862619D02*
X164419047Y-77862619D01*
X164419047Y-77862619D02*
X164514285Y-77815000D01*
X164514285Y-77815000D02*
X164561904Y-77767380D01*
X164561904Y-77767380D02*
X164609523Y-77672142D01*
X164609523Y-77672142D02*
X164609523Y-76862619D01*
X165514285Y-77195952D02*
X165514285Y-77862619D01*
X165276190Y-76815000D02*
X165038095Y-77529285D01*
X165038095Y-77529285D02*
X165657142Y-77529285D01*
%TO.C,R7*%
X132562619Y-90466666D02*
X132086428Y-90799999D01*
X132562619Y-91038094D02*
X131562619Y-91038094D01*
X131562619Y-91038094D02*
X131562619Y-90657142D01*
X131562619Y-90657142D02*
X131610238Y-90561904D01*
X131610238Y-90561904D02*
X131657857Y-90514285D01*
X131657857Y-90514285D02*
X131753095Y-90466666D01*
X131753095Y-90466666D02*
X131895952Y-90466666D01*
X131895952Y-90466666D02*
X131991190Y-90514285D01*
X131991190Y-90514285D02*
X132038809Y-90561904D01*
X132038809Y-90561904D02*
X132086428Y-90657142D01*
X132086428Y-90657142D02*
X132086428Y-91038094D01*
X131562619Y-90133332D02*
X131562619Y-89466666D01*
X131562619Y-89466666D02*
X132562619Y-89895237D01*
%TO.C,R11*%
X127157142Y-87312619D02*
X126823809Y-86836428D01*
X126585714Y-87312619D02*
X126585714Y-86312619D01*
X126585714Y-86312619D02*
X126966666Y-86312619D01*
X126966666Y-86312619D02*
X127061904Y-86360238D01*
X127061904Y-86360238D02*
X127109523Y-86407857D01*
X127109523Y-86407857D02*
X127157142Y-86503095D01*
X127157142Y-86503095D02*
X127157142Y-86645952D01*
X127157142Y-86645952D02*
X127109523Y-86741190D01*
X127109523Y-86741190D02*
X127061904Y-86788809D01*
X127061904Y-86788809D02*
X126966666Y-86836428D01*
X126966666Y-86836428D02*
X126585714Y-86836428D01*
X128109523Y-87312619D02*
X127538095Y-87312619D01*
X127823809Y-87312619D02*
X127823809Y-86312619D01*
X127823809Y-86312619D02*
X127728571Y-86455476D01*
X127728571Y-86455476D02*
X127633333Y-86550714D01*
X127633333Y-86550714D02*
X127538095Y-86598333D01*
X129061904Y-87312619D02*
X128490476Y-87312619D01*
X128776190Y-87312619D02*
X128776190Y-86312619D01*
X128776190Y-86312619D02*
X128680952Y-86455476D01*
X128680952Y-86455476D02*
X128585714Y-86550714D01*
X128585714Y-86550714D02*
X128490476Y-86598333D01*
%TO.C,J8*%
X158416666Y-73662619D02*
X158416666Y-74376904D01*
X158416666Y-74376904D02*
X158369047Y-74519761D01*
X158369047Y-74519761D02*
X158273809Y-74615000D01*
X158273809Y-74615000D02*
X158130952Y-74662619D01*
X158130952Y-74662619D02*
X158035714Y-74662619D01*
X159035714Y-74091190D02*
X158940476Y-74043571D01*
X158940476Y-74043571D02*
X158892857Y-73995952D01*
X158892857Y-73995952D02*
X158845238Y-73900714D01*
X158845238Y-73900714D02*
X158845238Y-73853095D01*
X158845238Y-73853095D02*
X158892857Y-73757857D01*
X158892857Y-73757857D02*
X158940476Y-73710238D01*
X158940476Y-73710238D02*
X159035714Y-73662619D01*
X159035714Y-73662619D02*
X159226190Y-73662619D01*
X159226190Y-73662619D02*
X159321428Y-73710238D01*
X159321428Y-73710238D02*
X159369047Y-73757857D01*
X159369047Y-73757857D02*
X159416666Y-73853095D01*
X159416666Y-73853095D02*
X159416666Y-73900714D01*
X159416666Y-73900714D02*
X159369047Y-73995952D01*
X159369047Y-73995952D02*
X159321428Y-74043571D01*
X159321428Y-74043571D02*
X159226190Y-74091190D01*
X159226190Y-74091190D02*
X159035714Y-74091190D01*
X159035714Y-74091190D02*
X158940476Y-74138809D01*
X158940476Y-74138809D02*
X158892857Y-74186428D01*
X158892857Y-74186428D02*
X158845238Y-74281666D01*
X158845238Y-74281666D02*
X158845238Y-74472142D01*
X158845238Y-74472142D02*
X158892857Y-74567380D01*
X158892857Y-74567380D02*
X158940476Y-74615000D01*
X158940476Y-74615000D02*
X159035714Y-74662619D01*
X159035714Y-74662619D02*
X159226190Y-74662619D01*
X159226190Y-74662619D02*
X159321428Y-74615000D01*
X159321428Y-74615000D02*
X159369047Y-74567380D01*
X159369047Y-74567380D02*
X159416666Y-74472142D01*
X159416666Y-74472142D02*
X159416666Y-74281666D01*
X159416666Y-74281666D02*
X159369047Y-74186428D01*
X159369047Y-74186428D02*
X159321428Y-74138809D01*
X159321428Y-74138809D02*
X159226190Y-74091190D01*
%TO.C,C10*%
X160807142Y-120767380D02*
X160759523Y-120815000D01*
X160759523Y-120815000D02*
X160616666Y-120862619D01*
X160616666Y-120862619D02*
X160521428Y-120862619D01*
X160521428Y-120862619D02*
X160378571Y-120815000D01*
X160378571Y-120815000D02*
X160283333Y-120719761D01*
X160283333Y-120719761D02*
X160235714Y-120624523D01*
X160235714Y-120624523D02*
X160188095Y-120434047D01*
X160188095Y-120434047D02*
X160188095Y-120291190D01*
X160188095Y-120291190D02*
X160235714Y-120100714D01*
X160235714Y-120100714D02*
X160283333Y-120005476D01*
X160283333Y-120005476D02*
X160378571Y-119910238D01*
X160378571Y-119910238D02*
X160521428Y-119862619D01*
X160521428Y-119862619D02*
X160616666Y-119862619D01*
X160616666Y-119862619D02*
X160759523Y-119910238D01*
X160759523Y-119910238D02*
X160807142Y-119957857D01*
X161759523Y-120862619D02*
X161188095Y-120862619D01*
X161473809Y-120862619D02*
X161473809Y-119862619D01*
X161473809Y-119862619D02*
X161378571Y-120005476D01*
X161378571Y-120005476D02*
X161283333Y-120100714D01*
X161283333Y-120100714D02*
X161188095Y-120148333D01*
X162378571Y-119862619D02*
X162473809Y-119862619D01*
X162473809Y-119862619D02*
X162569047Y-119910238D01*
X162569047Y-119910238D02*
X162616666Y-119957857D01*
X162616666Y-119957857D02*
X162664285Y-120053095D01*
X162664285Y-120053095D02*
X162711904Y-120243571D01*
X162711904Y-120243571D02*
X162711904Y-120481666D01*
X162711904Y-120481666D02*
X162664285Y-120672142D01*
X162664285Y-120672142D02*
X162616666Y-120767380D01*
X162616666Y-120767380D02*
X162569047Y-120815000D01*
X162569047Y-120815000D02*
X162473809Y-120862619D01*
X162473809Y-120862619D02*
X162378571Y-120862619D01*
X162378571Y-120862619D02*
X162283333Y-120815000D01*
X162283333Y-120815000D02*
X162235714Y-120767380D01*
X162235714Y-120767380D02*
X162188095Y-120672142D01*
X162188095Y-120672142D02*
X162140476Y-120481666D01*
X162140476Y-120481666D02*
X162140476Y-120243571D01*
X162140476Y-120243571D02*
X162188095Y-120053095D01*
X162188095Y-120053095D02*
X162235714Y-119957857D01*
X162235714Y-119957857D02*
X162283333Y-119910238D01*
X162283333Y-119910238D02*
X162378571Y-119862619D01*
%TO.C,R9*%
X150712619Y-143479166D02*
X150236428Y-143812499D01*
X150712619Y-144050594D02*
X149712619Y-144050594D01*
X149712619Y-144050594D02*
X149712619Y-143669642D01*
X149712619Y-143669642D02*
X149760238Y-143574404D01*
X149760238Y-143574404D02*
X149807857Y-143526785D01*
X149807857Y-143526785D02*
X149903095Y-143479166D01*
X149903095Y-143479166D02*
X150045952Y-143479166D01*
X150045952Y-143479166D02*
X150141190Y-143526785D01*
X150141190Y-143526785D02*
X150188809Y-143574404D01*
X150188809Y-143574404D02*
X150236428Y-143669642D01*
X150236428Y-143669642D02*
X150236428Y-144050594D01*
X150712619Y-143002975D02*
X150712619Y-142812499D01*
X150712619Y-142812499D02*
X150665000Y-142717261D01*
X150665000Y-142717261D02*
X150617380Y-142669642D01*
X150617380Y-142669642D02*
X150474523Y-142574404D01*
X150474523Y-142574404D02*
X150284047Y-142526785D01*
X150284047Y-142526785D02*
X149903095Y-142526785D01*
X149903095Y-142526785D02*
X149807857Y-142574404D01*
X149807857Y-142574404D02*
X149760238Y-142622023D01*
X149760238Y-142622023D02*
X149712619Y-142717261D01*
X149712619Y-142717261D02*
X149712619Y-142907737D01*
X149712619Y-142907737D02*
X149760238Y-143002975D01*
X149760238Y-143002975D02*
X149807857Y-143050594D01*
X149807857Y-143050594D02*
X149903095Y-143098213D01*
X149903095Y-143098213D02*
X150141190Y-143098213D01*
X150141190Y-143098213D02*
X150236428Y-143050594D01*
X150236428Y-143050594D02*
X150284047Y-143002975D01*
X150284047Y-143002975D02*
X150331666Y-142907737D01*
X150331666Y-142907737D02*
X150331666Y-142717261D01*
X150331666Y-142717261D02*
X150284047Y-142622023D01*
X150284047Y-142622023D02*
X150236428Y-142574404D01*
X150236428Y-142574404D02*
X150141190Y-142526785D01*
%TO.C,C8*%
X165733333Y-91417380D02*
X165685714Y-91465000D01*
X165685714Y-91465000D02*
X165542857Y-91512619D01*
X165542857Y-91512619D02*
X165447619Y-91512619D01*
X165447619Y-91512619D02*
X165304762Y-91465000D01*
X165304762Y-91465000D02*
X165209524Y-91369761D01*
X165209524Y-91369761D02*
X165161905Y-91274523D01*
X165161905Y-91274523D02*
X165114286Y-91084047D01*
X165114286Y-91084047D02*
X165114286Y-90941190D01*
X165114286Y-90941190D02*
X165161905Y-90750714D01*
X165161905Y-90750714D02*
X165209524Y-90655476D01*
X165209524Y-90655476D02*
X165304762Y-90560238D01*
X165304762Y-90560238D02*
X165447619Y-90512619D01*
X165447619Y-90512619D02*
X165542857Y-90512619D01*
X165542857Y-90512619D02*
X165685714Y-90560238D01*
X165685714Y-90560238D02*
X165733333Y-90607857D01*
X166304762Y-90941190D02*
X166209524Y-90893571D01*
X166209524Y-90893571D02*
X166161905Y-90845952D01*
X166161905Y-90845952D02*
X166114286Y-90750714D01*
X166114286Y-90750714D02*
X166114286Y-90703095D01*
X166114286Y-90703095D02*
X166161905Y-90607857D01*
X166161905Y-90607857D02*
X166209524Y-90560238D01*
X166209524Y-90560238D02*
X166304762Y-90512619D01*
X166304762Y-90512619D02*
X166495238Y-90512619D01*
X166495238Y-90512619D02*
X166590476Y-90560238D01*
X166590476Y-90560238D02*
X166638095Y-90607857D01*
X166638095Y-90607857D02*
X166685714Y-90703095D01*
X166685714Y-90703095D02*
X166685714Y-90750714D01*
X166685714Y-90750714D02*
X166638095Y-90845952D01*
X166638095Y-90845952D02*
X166590476Y-90893571D01*
X166590476Y-90893571D02*
X166495238Y-90941190D01*
X166495238Y-90941190D02*
X166304762Y-90941190D01*
X166304762Y-90941190D02*
X166209524Y-90988809D01*
X166209524Y-90988809D02*
X166161905Y-91036428D01*
X166161905Y-91036428D02*
X166114286Y-91131666D01*
X166114286Y-91131666D02*
X166114286Y-91322142D01*
X166114286Y-91322142D02*
X166161905Y-91417380D01*
X166161905Y-91417380D02*
X166209524Y-91465000D01*
X166209524Y-91465000D02*
X166304762Y-91512619D01*
X166304762Y-91512619D02*
X166495238Y-91512619D01*
X166495238Y-91512619D02*
X166590476Y-91465000D01*
X166590476Y-91465000D02*
X166638095Y-91417380D01*
X166638095Y-91417380D02*
X166685714Y-91322142D01*
X166685714Y-91322142D02*
X166685714Y-91131666D01*
X166685714Y-91131666D02*
X166638095Y-91036428D01*
X166638095Y-91036428D02*
X166590476Y-90988809D01*
X166590476Y-90988809D02*
X166495238Y-90941190D01*
%TO.C,J6*%
X121816666Y-76962619D02*
X121816666Y-77676904D01*
X121816666Y-77676904D02*
X121769047Y-77819761D01*
X121769047Y-77819761D02*
X121673809Y-77915000D01*
X121673809Y-77915000D02*
X121530952Y-77962619D01*
X121530952Y-77962619D02*
X121435714Y-77962619D01*
X122721428Y-76962619D02*
X122530952Y-76962619D01*
X122530952Y-76962619D02*
X122435714Y-77010238D01*
X122435714Y-77010238D02*
X122388095Y-77057857D01*
X122388095Y-77057857D02*
X122292857Y-77200714D01*
X122292857Y-77200714D02*
X122245238Y-77391190D01*
X122245238Y-77391190D02*
X122245238Y-77772142D01*
X122245238Y-77772142D02*
X122292857Y-77867380D01*
X122292857Y-77867380D02*
X122340476Y-77915000D01*
X122340476Y-77915000D02*
X122435714Y-77962619D01*
X122435714Y-77962619D02*
X122626190Y-77962619D01*
X122626190Y-77962619D02*
X122721428Y-77915000D01*
X122721428Y-77915000D02*
X122769047Y-77867380D01*
X122769047Y-77867380D02*
X122816666Y-77772142D01*
X122816666Y-77772142D02*
X122816666Y-77534047D01*
X122816666Y-77534047D02*
X122769047Y-77438809D01*
X122769047Y-77438809D02*
X122721428Y-77391190D01*
X122721428Y-77391190D02*
X122626190Y-77343571D01*
X122626190Y-77343571D02*
X122435714Y-77343571D01*
X122435714Y-77343571D02*
X122340476Y-77391190D01*
X122340476Y-77391190D02*
X122292857Y-77438809D01*
X122292857Y-77438809D02*
X122245238Y-77534047D01*
%TO.C,C5*%
X138133333Y-143437380D02*
X138085714Y-143485000D01*
X138085714Y-143485000D02*
X137942857Y-143532619D01*
X137942857Y-143532619D02*
X137847619Y-143532619D01*
X137847619Y-143532619D02*
X137704762Y-143485000D01*
X137704762Y-143485000D02*
X137609524Y-143389761D01*
X137609524Y-143389761D02*
X137561905Y-143294523D01*
X137561905Y-143294523D02*
X137514286Y-143104047D01*
X137514286Y-143104047D02*
X137514286Y-142961190D01*
X137514286Y-142961190D02*
X137561905Y-142770714D01*
X137561905Y-142770714D02*
X137609524Y-142675476D01*
X137609524Y-142675476D02*
X137704762Y-142580238D01*
X137704762Y-142580238D02*
X137847619Y-142532619D01*
X137847619Y-142532619D02*
X137942857Y-142532619D01*
X137942857Y-142532619D02*
X138085714Y-142580238D01*
X138085714Y-142580238D02*
X138133333Y-142627857D01*
X139038095Y-142532619D02*
X138561905Y-142532619D01*
X138561905Y-142532619D02*
X138514286Y-143008809D01*
X138514286Y-143008809D02*
X138561905Y-142961190D01*
X138561905Y-142961190D02*
X138657143Y-142913571D01*
X138657143Y-142913571D02*
X138895238Y-142913571D01*
X138895238Y-142913571D02*
X138990476Y-142961190D01*
X138990476Y-142961190D02*
X139038095Y-143008809D01*
X139038095Y-143008809D02*
X139085714Y-143104047D01*
X139085714Y-143104047D02*
X139085714Y-143342142D01*
X139085714Y-143342142D02*
X139038095Y-143437380D01*
X139038095Y-143437380D02*
X138990476Y-143485000D01*
X138990476Y-143485000D02*
X138895238Y-143532619D01*
X138895238Y-143532619D02*
X138657143Y-143532619D01*
X138657143Y-143532619D02*
X138561905Y-143485000D01*
X138561905Y-143485000D02*
X138514286Y-143437380D01*
%TO.C,J7*%
X138716666Y-135812619D02*
X138716666Y-136526904D01*
X138716666Y-136526904D02*
X138669047Y-136669761D01*
X138669047Y-136669761D02*
X138573809Y-136765000D01*
X138573809Y-136765000D02*
X138430952Y-136812619D01*
X138430952Y-136812619D02*
X138335714Y-136812619D01*
X139097619Y-135812619D02*
X139764285Y-135812619D01*
X139764285Y-135812619D02*
X139335714Y-136812619D01*
%TO.C,C2*%
X127633333Y-118617380D02*
X127585714Y-118665000D01*
X127585714Y-118665000D02*
X127442857Y-118712619D01*
X127442857Y-118712619D02*
X127347619Y-118712619D01*
X127347619Y-118712619D02*
X127204762Y-118665000D01*
X127204762Y-118665000D02*
X127109524Y-118569761D01*
X127109524Y-118569761D02*
X127061905Y-118474523D01*
X127061905Y-118474523D02*
X127014286Y-118284047D01*
X127014286Y-118284047D02*
X127014286Y-118141190D01*
X127014286Y-118141190D02*
X127061905Y-117950714D01*
X127061905Y-117950714D02*
X127109524Y-117855476D01*
X127109524Y-117855476D02*
X127204762Y-117760238D01*
X127204762Y-117760238D02*
X127347619Y-117712619D01*
X127347619Y-117712619D02*
X127442857Y-117712619D01*
X127442857Y-117712619D02*
X127585714Y-117760238D01*
X127585714Y-117760238D02*
X127633333Y-117807857D01*
X128014286Y-117807857D02*
X128061905Y-117760238D01*
X128061905Y-117760238D02*
X128157143Y-117712619D01*
X128157143Y-117712619D02*
X128395238Y-117712619D01*
X128395238Y-117712619D02*
X128490476Y-117760238D01*
X128490476Y-117760238D02*
X128538095Y-117807857D01*
X128538095Y-117807857D02*
X128585714Y-117903095D01*
X128585714Y-117903095D02*
X128585714Y-117998333D01*
X128585714Y-117998333D02*
X128538095Y-118141190D01*
X128538095Y-118141190D02*
X127966667Y-118712619D01*
X127966667Y-118712619D02*
X128585714Y-118712619D01*
%TO.C,U2*%
X154288095Y-91562619D02*
X154288095Y-92372142D01*
X154288095Y-92372142D02*
X154335714Y-92467380D01*
X154335714Y-92467380D02*
X154383333Y-92515000D01*
X154383333Y-92515000D02*
X154478571Y-92562619D01*
X154478571Y-92562619D02*
X154669047Y-92562619D01*
X154669047Y-92562619D02*
X154764285Y-92515000D01*
X154764285Y-92515000D02*
X154811904Y-92467380D01*
X154811904Y-92467380D02*
X154859523Y-92372142D01*
X154859523Y-92372142D02*
X154859523Y-91562619D01*
X155288095Y-91657857D02*
X155335714Y-91610238D01*
X155335714Y-91610238D02*
X155430952Y-91562619D01*
X155430952Y-91562619D02*
X155669047Y-91562619D01*
X155669047Y-91562619D02*
X155764285Y-91610238D01*
X155764285Y-91610238D02*
X155811904Y-91657857D01*
X155811904Y-91657857D02*
X155859523Y-91753095D01*
X155859523Y-91753095D02*
X155859523Y-91848333D01*
X155859523Y-91848333D02*
X155811904Y-91991190D01*
X155811904Y-91991190D02*
X155240476Y-92562619D01*
X155240476Y-92562619D02*
X155859523Y-92562619D01*
%TO.C,C6*%
X153087380Y-76166666D02*
X153135000Y-76214285D01*
X153135000Y-76214285D02*
X153182619Y-76357142D01*
X153182619Y-76357142D02*
X153182619Y-76452380D01*
X153182619Y-76452380D02*
X153135000Y-76595237D01*
X153135000Y-76595237D02*
X153039761Y-76690475D01*
X153039761Y-76690475D02*
X152944523Y-76738094D01*
X152944523Y-76738094D02*
X152754047Y-76785713D01*
X152754047Y-76785713D02*
X152611190Y-76785713D01*
X152611190Y-76785713D02*
X152420714Y-76738094D01*
X152420714Y-76738094D02*
X152325476Y-76690475D01*
X152325476Y-76690475D02*
X152230238Y-76595237D01*
X152230238Y-76595237D02*
X152182619Y-76452380D01*
X152182619Y-76452380D02*
X152182619Y-76357142D01*
X152182619Y-76357142D02*
X152230238Y-76214285D01*
X152230238Y-76214285D02*
X152277857Y-76166666D01*
X152182619Y-75309523D02*
X152182619Y-75499999D01*
X152182619Y-75499999D02*
X152230238Y-75595237D01*
X152230238Y-75595237D02*
X152277857Y-75642856D01*
X152277857Y-75642856D02*
X152420714Y-75738094D01*
X152420714Y-75738094D02*
X152611190Y-75785713D01*
X152611190Y-75785713D02*
X152992142Y-75785713D01*
X152992142Y-75785713D02*
X153087380Y-75738094D01*
X153087380Y-75738094D02*
X153135000Y-75690475D01*
X153135000Y-75690475D02*
X153182619Y-75595237D01*
X153182619Y-75595237D02*
X153182619Y-75404761D01*
X153182619Y-75404761D02*
X153135000Y-75309523D01*
X153135000Y-75309523D02*
X153087380Y-75261904D01*
X153087380Y-75261904D02*
X152992142Y-75214285D01*
X152992142Y-75214285D02*
X152754047Y-75214285D01*
X152754047Y-75214285D02*
X152658809Y-75261904D01*
X152658809Y-75261904D02*
X152611190Y-75309523D01*
X152611190Y-75309523D02*
X152563571Y-75404761D01*
X152563571Y-75404761D02*
X152563571Y-75595237D01*
X152563571Y-75595237D02*
X152611190Y-75690475D01*
X152611190Y-75690475D02*
X152658809Y-75738094D01*
X152658809Y-75738094D02*
X152754047Y-75785713D01*
%TO.C,R1*%
X133462619Y-140366666D02*
X132986428Y-140699999D01*
X133462619Y-140938094D02*
X132462619Y-140938094D01*
X132462619Y-140938094D02*
X132462619Y-140557142D01*
X132462619Y-140557142D02*
X132510238Y-140461904D01*
X132510238Y-140461904D02*
X132557857Y-140414285D01*
X132557857Y-140414285D02*
X132653095Y-140366666D01*
X132653095Y-140366666D02*
X132795952Y-140366666D01*
X132795952Y-140366666D02*
X132891190Y-140414285D01*
X132891190Y-140414285D02*
X132938809Y-140461904D01*
X132938809Y-140461904D02*
X132986428Y-140557142D01*
X132986428Y-140557142D02*
X132986428Y-140938094D01*
X133462619Y-139414285D02*
X133462619Y-139985713D01*
X133462619Y-139699999D02*
X132462619Y-139699999D01*
X132462619Y-139699999D02*
X132605476Y-139795237D01*
X132605476Y-139795237D02*
X132700714Y-139890475D01*
X132700714Y-139890475D02*
X132748333Y-139985713D01*
%TO.C,C3*%
X136383333Y-116717380D02*
X136335714Y-116765000D01*
X136335714Y-116765000D02*
X136192857Y-116812619D01*
X136192857Y-116812619D02*
X136097619Y-116812619D01*
X136097619Y-116812619D02*
X135954762Y-116765000D01*
X135954762Y-116765000D02*
X135859524Y-116669761D01*
X135859524Y-116669761D02*
X135811905Y-116574523D01*
X135811905Y-116574523D02*
X135764286Y-116384047D01*
X135764286Y-116384047D02*
X135764286Y-116241190D01*
X135764286Y-116241190D02*
X135811905Y-116050714D01*
X135811905Y-116050714D02*
X135859524Y-115955476D01*
X135859524Y-115955476D02*
X135954762Y-115860238D01*
X135954762Y-115860238D02*
X136097619Y-115812619D01*
X136097619Y-115812619D02*
X136192857Y-115812619D01*
X136192857Y-115812619D02*
X136335714Y-115860238D01*
X136335714Y-115860238D02*
X136383333Y-115907857D01*
X136716667Y-115812619D02*
X137335714Y-115812619D01*
X137335714Y-115812619D02*
X137002381Y-116193571D01*
X137002381Y-116193571D02*
X137145238Y-116193571D01*
X137145238Y-116193571D02*
X137240476Y-116241190D01*
X137240476Y-116241190D02*
X137288095Y-116288809D01*
X137288095Y-116288809D02*
X137335714Y-116384047D01*
X137335714Y-116384047D02*
X137335714Y-116622142D01*
X137335714Y-116622142D02*
X137288095Y-116717380D01*
X137288095Y-116717380D02*
X137240476Y-116765000D01*
X137240476Y-116765000D02*
X137145238Y-116812619D01*
X137145238Y-116812619D02*
X136859524Y-116812619D01*
X136859524Y-116812619D02*
X136764286Y-116765000D01*
X136764286Y-116765000D02*
X136716667Y-116717380D01*
%TO.C,J2*%
X149266666Y-71212619D02*
X149266666Y-71926904D01*
X149266666Y-71926904D02*
X149219047Y-72069761D01*
X149219047Y-72069761D02*
X149123809Y-72165000D01*
X149123809Y-72165000D02*
X148980952Y-72212619D01*
X148980952Y-72212619D02*
X148885714Y-72212619D01*
X149695238Y-71307857D02*
X149742857Y-71260238D01*
X149742857Y-71260238D02*
X149838095Y-71212619D01*
X149838095Y-71212619D02*
X150076190Y-71212619D01*
X150076190Y-71212619D02*
X150171428Y-71260238D01*
X150171428Y-71260238D02*
X150219047Y-71307857D01*
X150219047Y-71307857D02*
X150266666Y-71403095D01*
X150266666Y-71403095D02*
X150266666Y-71498333D01*
X150266666Y-71498333D02*
X150219047Y-71641190D01*
X150219047Y-71641190D02*
X149647619Y-72212619D01*
X149647619Y-72212619D02*
X150266666Y-72212619D01*
%TO.C,R3*%
X132583333Y-118512619D02*
X132250000Y-118036428D01*
X132011905Y-118512619D02*
X132011905Y-117512619D01*
X132011905Y-117512619D02*
X132392857Y-117512619D01*
X132392857Y-117512619D02*
X132488095Y-117560238D01*
X132488095Y-117560238D02*
X132535714Y-117607857D01*
X132535714Y-117607857D02*
X132583333Y-117703095D01*
X132583333Y-117703095D02*
X132583333Y-117845952D01*
X132583333Y-117845952D02*
X132535714Y-117941190D01*
X132535714Y-117941190D02*
X132488095Y-117988809D01*
X132488095Y-117988809D02*
X132392857Y-118036428D01*
X132392857Y-118036428D02*
X132011905Y-118036428D01*
X132916667Y-117512619D02*
X133535714Y-117512619D01*
X133535714Y-117512619D02*
X133202381Y-117893571D01*
X133202381Y-117893571D02*
X133345238Y-117893571D01*
X133345238Y-117893571D02*
X133440476Y-117941190D01*
X133440476Y-117941190D02*
X133488095Y-117988809D01*
X133488095Y-117988809D02*
X133535714Y-118084047D01*
X133535714Y-118084047D02*
X133535714Y-118322142D01*
X133535714Y-118322142D02*
X133488095Y-118417380D01*
X133488095Y-118417380D02*
X133440476Y-118465000D01*
X133440476Y-118465000D02*
X133345238Y-118512619D01*
X133345238Y-118512619D02*
X133059524Y-118512619D01*
X133059524Y-118512619D02*
X132964286Y-118465000D01*
X132964286Y-118465000D02*
X132916667Y-118417380D01*
%TO.C,J3*%
X141816666Y-144612619D02*
X141816666Y-145326904D01*
X141816666Y-145326904D02*
X141769047Y-145469761D01*
X141769047Y-145469761D02*
X141673809Y-145565000D01*
X141673809Y-145565000D02*
X141530952Y-145612619D01*
X141530952Y-145612619D02*
X141435714Y-145612619D01*
X142197619Y-144612619D02*
X142816666Y-144612619D01*
X142816666Y-144612619D02*
X142483333Y-144993571D01*
X142483333Y-144993571D02*
X142626190Y-144993571D01*
X142626190Y-144993571D02*
X142721428Y-145041190D01*
X142721428Y-145041190D02*
X142769047Y-145088809D01*
X142769047Y-145088809D02*
X142816666Y-145184047D01*
X142816666Y-145184047D02*
X142816666Y-145422142D01*
X142816666Y-145422142D02*
X142769047Y-145517380D01*
X142769047Y-145517380D02*
X142721428Y-145565000D01*
X142721428Y-145565000D02*
X142626190Y-145612619D01*
X142626190Y-145612619D02*
X142340476Y-145612619D01*
X142340476Y-145612619D02*
X142245238Y-145565000D01*
X142245238Y-145565000D02*
X142197619Y-145517380D01*
%TO.C,C7*%
X156433333Y-77617380D02*
X156385714Y-77665000D01*
X156385714Y-77665000D02*
X156242857Y-77712619D01*
X156242857Y-77712619D02*
X156147619Y-77712619D01*
X156147619Y-77712619D02*
X156004762Y-77665000D01*
X156004762Y-77665000D02*
X155909524Y-77569761D01*
X155909524Y-77569761D02*
X155861905Y-77474523D01*
X155861905Y-77474523D02*
X155814286Y-77284047D01*
X155814286Y-77284047D02*
X155814286Y-77141190D01*
X155814286Y-77141190D02*
X155861905Y-76950714D01*
X155861905Y-76950714D02*
X155909524Y-76855476D01*
X155909524Y-76855476D02*
X156004762Y-76760238D01*
X156004762Y-76760238D02*
X156147619Y-76712619D01*
X156147619Y-76712619D02*
X156242857Y-76712619D01*
X156242857Y-76712619D02*
X156385714Y-76760238D01*
X156385714Y-76760238D02*
X156433333Y-76807857D01*
X156766667Y-76712619D02*
X157433333Y-76712619D01*
X157433333Y-76712619D02*
X157004762Y-77712619D01*
%TO.C,U1*%
X141412619Y-104511904D02*
X142222142Y-104511904D01*
X142222142Y-104511904D02*
X142317380Y-104464285D01*
X142317380Y-104464285D02*
X142365000Y-104416666D01*
X142365000Y-104416666D02*
X142412619Y-104321428D01*
X142412619Y-104321428D02*
X142412619Y-104130952D01*
X142412619Y-104130952D02*
X142365000Y-104035714D01*
X142365000Y-104035714D02*
X142317380Y-103988095D01*
X142317380Y-103988095D02*
X142222142Y-103940476D01*
X142222142Y-103940476D02*
X141412619Y-103940476D01*
X142412619Y-102940476D02*
X142412619Y-103511904D01*
X142412619Y-103226190D02*
X141412619Y-103226190D01*
X141412619Y-103226190D02*
X141555476Y-103321428D01*
X141555476Y-103321428D02*
X141650714Y-103416666D01*
X141650714Y-103416666D02*
X141698333Y-103511904D01*
%TO.C,C1*%
X128833333Y-113017380D02*
X128785714Y-113065000D01*
X128785714Y-113065000D02*
X128642857Y-113112619D01*
X128642857Y-113112619D02*
X128547619Y-113112619D01*
X128547619Y-113112619D02*
X128404762Y-113065000D01*
X128404762Y-113065000D02*
X128309524Y-112969761D01*
X128309524Y-112969761D02*
X128261905Y-112874523D01*
X128261905Y-112874523D02*
X128214286Y-112684047D01*
X128214286Y-112684047D02*
X128214286Y-112541190D01*
X128214286Y-112541190D02*
X128261905Y-112350714D01*
X128261905Y-112350714D02*
X128309524Y-112255476D01*
X128309524Y-112255476D02*
X128404762Y-112160238D01*
X128404762Y-112160238D02*
X128547619Y-112112619D01*
X128547619Y-112112619D02*
X128642857Y-112112619D01*
X128642857Y-112112619D02*
X128785714Y-112160238D01*
X128785714Y-112160238D02*
X128833333Y-112207857D01*
X129785714Y-113112619D02*
X129214286Y-113112619D01*
X129500000Y-113112619D02*
X129500000Y-112112619D01*
X129500000Y-112112619D02*
X129404762Y-112255476D01*
X129404762Y-112255476D02*
X129309524Y-112350714D01*
X129309524Y-112350714D02*
X129214286Y-112398333D01*
%TO.C,R5*%
X132283333Y-88112619D02*
X131950000Y-87636428D01*
X131711905Y-88112619D02*
X131711905Y-87112619D01*
X131711905Y-87112619D02*
X132092857Y-87112619D01*
X132092857Y-87112619D02*
X132188095Y-87160238D01*
X132188095Y-87160238D02*
X132235714Y-87207857D01*
X132235714Y-87207857D02*
X132283333Y-87303095D01*
X132283333Y-87303095D02*
X132283333Y-87445952D01*
X132283333Y-87445952D02*
X132235714Y-87541190D01*
X132235714Y-87541190D02*
X132188095Y-87588809D01*
X132188095Y-87588809D02*
X132092857Y-87636428D01*
X132092857Y-87636428D02*
X131711905Y-87636428D01*
X133188095Y-87112619D02*
X132711905Y-87112619D01*
X132711905Y-87112619D02*
X132664286Y-87588809D01*
X132664286Y-87588809D02*
X132711905Y-87541190D01*
X132711905Y-87541190D02*
X132807143Y-87493571D01*
X132807143Y-87493571D02*
X133045238Y-87493571D01*
X133045238Y-87493571D02*
X133140476Y-87541190D01*
X133140476Y-87541190D02*
X133188095Y-87588809D01*
X133188095Y-87588809D02*
X133235714Y-87684047D01*
X133235714Y-87684047D02*
X133235714Y-87922142D01*
X133235714Y-87922142D02*
X133188095Y-88017380D01*
X133188095Y-88017380D02*
X133140476Y-88065000D01*
X133140476Y-88065000D02*
X133045238Y-88112619D01*
X133045238Y-88112619D02*
X132807143Y-88112619D01*
X132807143Y-88112619D02*
X132711905Y-88065000D01*
X132711905Y-88065000D02*
X132664286Y-88017380D01*
%TO.C,R4*%
X144083333Y-140912619D02*
X143750000Y-140436428D01*
X143511905Y-140912619D02*
X143511905Y-139912619D01*
X143511905Y-139912619D02*
X143892857Y-139912619D01*
X143892857Y-139912619D02*
X143988095Y-139960238D01*
X143988095Y-139960238D02*
X144035714Y-140007857D01*
X144035714Y-140007857D02*
X144083333Y-140103095D01*
X144083333Y-140103095D02*
X144083333Y-140245952D01*
X144083333Y-140245952D02*
X144035714Y-140341190D01*
X144035714Y-140341190D02*
X143988095Y-140388809D01*
X143988095Y-140388809D02*
X143892857Y-140436428D01*
X143892857Y-140436428D02*
X143511905Y-140436428D01*
X144940476Y-140245952D02*
X144940476Y-140912619D01*
X144702381Y-139865000D02*
X144464286Y-140579285D01*
X144464286Y-140579285D02*
X145083333Y-140579285D01*
%TO.C,U3*%
X134038095Y-84062619D02*
X134038095Y-84872142D01*
X134038095Y-84872142D02*
X134085714Y-84967380D01*
X134085714Y-84967380D02*
X134133333Y-85015000D01*
X134133333Y-85015000D02*
X134228571Y-85062619D01*
X134228571Y-85062619D02*
X134419047Y-85062619D01*
X134419047Y-85062619D02*
X134514285Y-85015000D01*
X134514285Y-85015000D02*
X134561904Y-84967380D01*
X134561904Y-84967380D02*
X134609523Y-84872142D01*
X134609523Y-84872142D02*
X134609523Y-84062619D01*
X134990476Y-84062619D02*
X135609523Y-84062619D01*
X135609523Y-84062619D02*
X135276190Y-84443571D01*
X135276190Y-84443571D02*
X135419047Y-84443571D01*
X135419047Y-84443571D02*
X135514285Y-84491190D01*
X135514285Y-84491190D02*
X135561904Y-84538809D01*
X135561904Y-84538809D02*
X135609523Y-84634047D01*
X135609523Y-84634047D02*
X135609523Y-84872142D01*
X135609523Y-84872142D02*
X135561904Y-84967380D01*
X135561904Y-84967380D02*
X135514285Y-85015000D01*
X135514285Y-85015000D02*
X135419047Y-85062619D01*
X135419047Y-85062619D02*
X135133333Y-85062619D01*
X135133333Y-85062619D02*
X135038095Y-85015000D01*
X135038095Y-85015000D02*
X134990476Y-84967380D01*
%TO.C,D2*%
X147512619Y-111638094D02*
X146512619Y-111638094D01*
X146512619Y-111638094D02*
X146512619Y-111399999D01*
X146512619Y-111399999D02*
X146560238Y-111257142D01*
X146560238Y-111257142D02*
X146655476Y-111161904D01*
X146655476Y-111161904D02*
X146750714Y-111114285D01*
X146750714Y-111114285D02*
X146941190Y-111066666D01*
X146941190Y-111066666D02*
X147084047Y-111066666D01*
X147084047Y-111066666D02*
X147274523Y-111114285D01*
X147274523Y-111114285D02*
X147369761Y-111161904D01*
X147369761Y-111161904D02*
X147465000Y-111257142D01*
X147465000Y-111257142D02*
X147512619Y-111399999D01*
X147512619Y-111399999D02*
X147512619Y-111638094D01*
X146607857Y-110685713D02*
X146560238Y-110638094D01*
X146560238Y-110638094D02*
X146512619Y-110542856D01*
X146512619Y-110542856D02*
X146512619Y-110304761D01*
X146512619Y-110304761D02*
X146560238Y-110209523D01*
X146560238Y-110209523D02*
X146607857Y-110161904D01*
X146607857Y-110161904D02*
X146703095Y-110114285D01*
X146703095Y-110114285D02*
X146798333Y-110114285D01*
X146798333Y-110114285D02*
X146941190Y-110161904D01*
X146941190Y-110161904D02*
X147512619Y-110733332D01*
X147512619Y-110733332D02*
X147512619Y-110114285D01*
%TO.C,J5*%
X128966666Y-144712619D02*
X128966666Y-145426904D01*
X128966666Y-145426904D02*
X128919047Y-145569761D01*
X128919047Y-145569761D02*
X128823809Y-145665000D01*
X128823809Y-145665000D02*
X128680952Y-145712619D01*
X128680952Y-145712619D02*
X128585714Y-145712619D01*
X129919047Y-144712619D02*
X129442857Y-144712619D01*
X129442857Y-144712619D02*
X129395238Y-145188809D01*
X129395238Y-145188809D02*
X129442857Y-145141190D01*
X129442857Y-145141190D02*
X129538095Y-145093571D01*
X129538095Y-145093571D02*
X129776190Y-145093571D01*
X129776190Y-145093571D02*
X129871428Y-145141190D01*
X129871428Y-145141190D02*
X129919047Y-145188809D01*
X129919047Y-145188809D02*
X129966666Y-145284047D01*
X129966666Y-145284047D02*
X129966666Y-145522142D01*
X129966666Y-145522142D02*
X129919047Y-145617380D01*
X129919047Y-145617380D02*
X129871428Y-145665000D01*
X129871428Y-145665000D02*
X129776190Y-145712619D01*
X129776190Y-145712619D02*
X129538095Y-145712619D01*
X129538095Y-145712619D02*
X129442857Y-145665000D01*
X129442857Y-145665000D02*
X129395238Y-145617380D01*
%TO.C,R8*%
X149912619Y-69866666D02*
X149436428Y-70199999D01*
X149912619Y-70438094D02*
X148912619Y-70438094D01*
X148912619Y-70438094D02*
X148912619Y-70057142D01*
X148912619Y-70057142D02*
X148960238Y-69961904D01*
X148960238Y-69961904D02*
X149007857Y-69914285D01*
X149007857Y-69914285D02*
X149103095Y-69866666D01*
X149103095Y-69866666D02*
X149245952Y-69866666D01*
X149245952Y-69866666D02*
X149341190Y-69914285D01*
X149341190Y-69914285D02*
X149388809Y-69961904D01*
X149388809Y-69961904D02*
X149436428Y-70057142D01*
X149436428Y-70057142D02*
X149436428Y-70438094D01*
X149341190Y-69295237D02*
X149293571Y-69390475D01*
X149293571Y-69390475D02*
X149245952Y-69438094D01*
X149245952Y-69438094D02*
X149150714Y-69485713D01*
X149150714Y-69485713D02*
X149103095Y-69485713D01*
X149103095Y-69485713D02*
X149007857Y-69438094D01*
X149007857Y-69438094D02*
X148960238Y-69390475D01*
X148960238Y-69390475D02*
X148912619Y-69295237D01*
X148912619Y-69295237D02*
X148912619Y-69104761D01*
X148912619Y-69104761D02*
X148960238Y-69009523D01*
X148960238Y-69009523D02*
X149007857Y-68961904D01*
X149007857Y-68961904D02*
X149103095Y-68914285D01*
X149103095Y-68914285D02*
X149150714Y-68914285D01*
X149150714Y-68914285D02*
X149245952Y-68961904D01*
X149245952Y-68961904D02*
X149293571Y-69009523D01*
X149293571Y-69009523D02*
X149341190Y-69104761D01*
X149341190Y-69104761D02*
X149341190Y-69295237D01*
X149341190Y-69295237D02*
X149388809Y-69390475D01*
X149388809Y-69390475D02*
X149436428Y-69438094D01*
X149436428Y-69438094D02*
X149531666Y-69485713D01*
X149531666Y-69485713D02*
X149722142Y-69485713D01*
X149722142Y-69485713D02*
X149817380Y-69438094D01*
X149817380Y-69438094D02*
X149865000Y-69390475D01*
X149865000Y-69390475D02*
X149912619Y-69295237D01*
X149912619Y-69295237D02*
X149912619Y-69104761D01*
X149912619Y-69104761D02*
X149865000Y-69009523D01*
X149865000Y-69009523D02*
X149817380Y-68961904D01*
X149817380Y-68961904D02*
X149722142Y-68914285D01*
X149722142Y-68914285D02*
X149531666Y-68914285D01*
X149531666Y-68914285D02*
X149436428Y-68961904D01*
X149436428Y-68961904D02*
X149388809Y-69009523D01*
X149388809Y-69009523D02*
X149341190Y-69104761D01*
%TO.C,L1*%
X159083333Y-106012619D02*
X158607143Y-106012619D01*
X158607143Y-106012619D02*
X158607143Y-105012619D01*
X159940476Y-106012619D02*
X159369048Y-106012619D01*
X159654762Y-106012619D02*
X159654762Y-105012619D01*
X159654762Y-105012619D02*
X159559524Y-105155476D01*
X159559524Y-105155476D02*
X159464286Y-105250714D01*
X159464286Y-105250714D02*
X159369048Y-105298333D01*
%TO.C,J4*%
X135306666Y-72145119D02*
X135306666Y-72859404D01*
X135306666Y-72859404D02*
X135259047Y-73002261D01*
X135259047Y-73002261D02*
X135163809Y-73097500D01*
X135163809Y-73097500D02*
X135020952Y-73145119D01*
X135020952Y-73145119D02*
X134925714Y-73145119D01*
X136211428Y-72478452D02*
X136211428Y-73145119D01*
X135973333Y-72097500D02*
X135735238Y-72811785D01*
X135735238Y-72811785D02*
X136354285Y-72811785D01*
%TO.C,J1*%
X147421666Y-78062619D02*
X147421666Y-78776904D01*
X147421666Y-78776904D02*
X147374047Y-78919761D01*
X147374047Y-78919761D02*
X147278809Y-79015000D01*
X147278809Y-79015000D02*
X147135952Y-79062619D01*
X147135952Y-79062619D02*
X147040714Y-79062619D01*
X148421666Y-79062619D02*
X147850238Y-79062619D01*
X148135952Y-79062619D02*
X148135952Y-78062619D01*
X148135952Y-78062619D02*
X148040714Y-78205476D01*
X148040714Y-78205476D02*
X147945476Y-78300714D01*
X147945476Y-78300714D02*
X147850238Y-78348333D01*
%TO.C,R6*%
X138583333Y-119262619D02*
X138250000Y-118786428D01*
X138011905Y-119262619D02*
X138011905Y-118262619D01*
X138011905Y-118262619D02*
X138392857Y-118262619D01*
X138392857Y-118262619D02*
X138488095Y-118310238D01*
X138488095Y-118310238D02*
X138535714Y-118357857D01*
X138535714Y-118357857D02*
X138583333Y-118453095D01*
X138583333Y-118453095D02*
X138583333Y-118595952D01*
X138583333Y-118595952D02*
X138535714Y-118691190D01*
X138535714Y-118691190D02*
X138488095Y-118738809D01*
X138488095Y-118738809D02*
X138392857Y-118786428D01*
X138392857Y-118786428D02*
X138011905Y-118786428D01*
X139440476Y-118262619D02*
X139250000Y-118262619D01*
X139250000Y-118262619D02*
X139154762Y-118310238D01*
X139154762Y-118310238D02*
X139107143Y-118357857D01*
X139107143Y-118357857D02*
X139011905Y-118500714D01*
X139011905Y-118500714D02*
X138964286Y-118691190D01*
X138964286Y-118691190D02*
X138964286Y-119072142D01*
X138964286Y-119072142D02*
X139011905Y-119167380D01*
X139011905Y-119167380D02*
X139059524Y-119215000D01*
X139059524Y-119215000D02*
X139154762Y-119262619D01*
X139154762Y-119262619D02*
X139345238Y-119262619D01*
X139345238Y-119262619D02*
X139440476Y-119215000D01*
X139440476Y-119215000D02*
X139488095Y-119167380D01*
X139488095Y-119167380D02*
X139535714Y-119072142D01*
X139535714Y-119072142D02*
X139535714Y-118834047D01*
X139535714Y-118834047D02*
X139488095Y-118738809D01*
X139488095Y-118738809D02*
X139440476Y-118691190D01*
X139440476Y-118691190D02*
X139345238Y-118643571D01*
X139345238Y-118643571D02*
X139154762Y-118643571D01*
X139154762Y-118643571D02*
X139059524Y-118691190D01*
X139059524Y-118691190D02*
X139011905Y-118738809D01*
X139011905Y-118738809D02*
X138964286Y-118834047D01*
%TO.C,C9*%
X126683333Y-79567380D02*
X126635714Y-79615000D01*
X126635714Y-79615000D02*
X126492857Y-79662619D01*
X126492857Y-79662619D02*
X126397619Y-79662619D01*
X126397619Y-79662619D02*
X126254762Y-79615000D01*
X126254762Y-79615000D02*
X126159524Y-79519761D01*
X126159524Y-79519761D02*
X126111905Y-79424523D01*
X126111905Y-79424523D02*
X126064286Y-79234047D01*
X126064286Y-79234047D02*
X126064286Y-79091190D01*
X126064286Y-79091190D02*
X126111905Y-78900714D01*
X126111905Y-78900714D02*
X126159524Y-78805476D01*
X126159524Y-78805476D02*
X126254762Y-78710238D01*
X126254762Y-78710238D02*
X126397619Y-78662619D01*
X126397619Y-78662619D02*
X126492857Y-78662619D01*
X126492857Y-78662619D02*
X126635714Y-78710238D01*
X126635714Y-78710238D02*
X126683333Y-78757857D01*
X127159524Y-79662619D02*
X127350000Y-79662619D01*
X127350000Y-79662619D02*
X127445238Y-79615000D01*
X127445238Y-79615000D02*
X127492857Y-79567380D01*
X127492857Y-79567380D02*
X127588095Y-79424523D01*
X127588095Y-79424523D02*
X127635714Y-79234047D01*
X127635714Y-79234047D02*
X127635714Y-78853095D01*
X127635714Y-78853095D02*
X127588095Y-78757857D01*
X127588095Y-78757857D02*
X127540476Y-78710238D01*
X127540476Y-78710238D02*
X127445238Y-78662619D01*
X127445238Y-78662619D02*
X127254762Y-78662619D01*
X127254762Y-78662619D02*
X127159524Y-78710238D01*
X127159524Y-78710238D02*
X127111905Y-78757857D01*
X127111905Y-78757857D02*
X127064286Y-78853095D01*
X127064286Y-78853095D02*
X127064286Y-79091190D01*
X127064286Y-79091190D02*
X127111905Y-79186428D01*
X127111905Y-79186428D02*
X127159524Y-79234047D01*
X127159524Y-79234047D02*
X127254762Y-79281666D01*
X127254762Y-79281666D02*
X127445238Y-79281666D01*
X127445238Y-79281666D02*
X127540476Y-79234047D01*
X127540476Y-79234047D02*
X127588095Y-79186428D01*
X127588095Y-79186428D02*
X127635714Y-79091190D01*
%TO.C,R10*%
X151107142Y-73262619D02*
X150773809Y-72786428D01*
X150535714Y-73262619D02*
X150535714Y-72262619D01*
X150535714Y-72262619D02*
X150916666Y-72262619D01*
X150916666Y-72262619D02*
X151011904Y-72310238D01*
X151011904Y-72310238D02*
X151059523Y-72357857D01*
X151059523Y-72357857D02*
X151107142Y-72453095D01*
X151107142Y-72453095D02*
X151107142Y-72595952D01*
X151107142Y-72595952D02*
X151059523Y-72691190D01*
X151059523Y-72691190D02*
X151011904Y-72738809D01*
X151011904Y-72738809D02*
X150916666Y-72786428D01*
X150916666Y-72786428D02*
X150535714Y-72786428D01*
X152059523Y-73262619D02*
X151488095Y-73262619D01*
X151773809Y-73262619D02*
X151773809Y-72262619D01*
X151773809Y-72262619D02*
X151678571Y-72405476D01*
X151678571Y-72405476D02*
X151583333Y-72500714D01*
X151583333Y-72500714D02*
X151488095Y-72548333D01*
X152678571Y-72262619D02*
X152773809Y-72262619D01*
X152773809Y-72262619D02*
X152869047Y-72310238D01*
X152869047Y-72310238D02*
X152916666Y-72357857D01*
X152916666Y-72357857D02*
X152964285Y-72453095D01*
X152964285Y-72453095D02*
X153011904Y-72643571D01*
X153011904Y-72643571D02*
X153011904Y-72881666D01*
X153011904Y-72881666D02*
X152964285Y-73072142D01*
X152964285Y-73072142D02*
X152916666Y-73167380D01*
X152916666Y-73167380D02*
X152869047Y-73215000D01*
X152869047Y-73215000D02*
X152773809Y-73262619D01*
X152773809Y-73262619D02*
X152678571Y-73262619D01*
X152678571Y-73262619D02*
X152583333Y-73215000D01*
X152583333Y-73215000D02*
X152535714Y-73167380D01*
X152535714Y-73167380D02*
X152488095Y-73072142D01*
X152488095Y-73072142D02*
X152440476Y-72881666D01*
X152440476Y-72881666D02*
X152440476Y-72643571D01*
X152440476Y-72643571D02*
X152488095Y-72453095D01*
X152488095Y-72453095D02*
X152535714Y-72357857D01*
X152535714Y-72357857D02*
X152583333Y-72310238D01*
X152583333Y-72310238D02*
X152678571Y-72262619D01*
%TO.C,J9*%
X140266666Y-121862619D02*
X140266666Y-122576904D01*
X140266666Y-122576904D02*
X140219047Y-122719761D01*
X140219047Y-122719761D02*
X140123809Y-122815000D01*
X140123809Y-122815000D02*
X139980952Y-122862619D01*
X139980952Y-122862619D02*
X139885714Y-122862619D01*
X140790476Y-122862619D02*
X140980952Y-122862619D01*
X140980952Y-122862619D02*
X141076190Y-122815000D01*
X141076190Y-122815000D02*
X141123809Y-122767380D01*
X141123809Y-122767380D02*
X141219047Y-122624523D01*
X141219047Y-122624523D02*
X141266666Y-122434047D01*
X141266666Y-122434047D02*
X141266666Y-122053095D01*
X141266666Y-122053095D02*
X141219047Y-121957857D01*
X141219047Y-121957857D02*
X141171428Y-121910238D01*
X141171428Y-121910238D02*
X141076190Y-121862619D01*
X141076190Y-121862619D02*
X140885714Y-121862619D01*
X140885714Y-121862619D02*
X140790476Y-121910238D01*
X140790476Y-121910238D02*
X140742857Y-121957857D01*
X140742857Y-121957857D02*
X140695238Y-122053095D01*
X140695238Y-122053095D02*
X140695238Y-122291190D01*
X140695238Y-122291190D02*
X140742857Y-122386428D01*
X140742857Y-122386428D02*
X140790476Y-122434047D01*
X140790476Y-122434047D02*
X140885714Y-122481666D01*
X140885714Y-122481666D02*
X141076190Y-122481666D01*
X141076190Y-122481666D02*
X141171428Y-122434047D01*
X141171428Y-122434047D02*
X141219047Y-122386428D01*
X141219047Y-122386428D02*
X141266666Y-122291190D01*
%TO.C,R2*%
X135562619Y-140316666D02*
X135086428Y-140649999D01*
X135562619Y-140888094D02*
X134562619Y-140888094D01*
X134562619Y-140888094D02*
X134562619Y-140507142D01*
X134562619Y-140507142D02*
X134610238Y-140411904D01*
X134610238Y-140411904D02*
X134657857Y-140364285D01*
X134657857Y-140364285D02*
X134753095Y-140316666D01*
X134753095Y-140316666D02*
X134895952Y-140316666D01*
X134895952Y-140316666D02*
X134991190Y-140364285D01*
X134991190Y-140364285D02*
X135038809Y-140411904D01*
X135038809Y-140411904D02*
X135086428Y-140507142D01*
X135086428Y-140507142D02*
X135086428Y-140888094D01*
X134657857Y-139935713D02*
X134610238Y-139888094D01*
X134610238Y-139888094D02*
X134562619Y-139792856D01*
X134562619Y-139792856D02*
X134562619Y-139554761D01*
X134562619Y-139554761D02*
X134610238Y-139459523D01*
X134610238Y-139459523D02*
X134657857Y-139411904D01*
X134657857Y-139411904D02*
X134753095Y-139364285D01*
X134753095Y-139364285D02*
X134848333Y-139364285D01*
X134848333Y-139364285D02*
X134991190Y-139411904D01*
X134991190Y-139411904D02*
X135562619Y-139983332D01*
X135562619Y-139983332D02*
X135562619Y-139364285D01*
%TO.C,C4*%
X128333333Y-141767380D02*
X128285714Y-141815000D01*
X128285714Y-141815000D02*
X128142857Y-141862619D01*
X128142857Y-141862619D02*
X128047619Y-141862619D01*
X128047619Y-141862619D02*
X127904762Y-141815000D01*
X127904762Y-141815000D02*
X127809524Y-141719761D01*
X127809524Y-141719761D02*
X127761905Y-141624523D01*
X127761905Y-141624523D02*
X127714286Y-141434047D01*
X127714286Y-141434047D02*
X127714286Y-141291190D01*
X127714286Y-141291190D02*
X127761905Y-141100714D01*
X127761905Y-141100714D02*
X127809524Y-141005476D01*
X127809524Y-141005476D02*
X127904762Y-140910238D01*
X127904762Y-140910238D02*
X128047619Y-140862619D01*
X128047619Y-140862619D02*
X128142857Y-140862619D01*
X128142857Y-140862619D02*
X128285714Y-140910238D01*
X128285714Y-140910238D02*
X128333333Y-140957857D01*
X129190476Y-141195952D02*
X129190476Y-141862619D01*
X128952381Y-140815000D02*
X128714286Y-141529285D01*
X128714286Y-141529285D02*
X129333333Y-141529285D01*
%TO.C,D1*%
X149611905Y-77862619D02*
X149611905Y-76862619D01*
X149611905Y-76862619D02*
X149850000Y-76862619D01*
X149850000Y-76862619D02*
X149992857Y-76910238D01*
X149992857Y-76910238D02*
X150088095Y-77005476D01*
X150088095Y-77005476D02*
X150135714Y-77100714D01*
X150135714Y-77100714D02*
X150183333Y-77291190D01*
X150183333Y-77291190D02*
X150183333Y-77434047D01*
X150183333Y-77434047D02*
X150135714Y-77624523D01*
X150135714Y-77624523D02*
X150088095Y-77719761D01*
X150088095Y-77719761D02*
X149992857Y-77815000D01*
X149992857Y-77815000D02*
X149850000Y-77862619D01*
X149850000Y-77862619D02*
X149611905Y-77862619D01*
X151135714Y-77862619D02*
X150564286Y-77862619D01*
X150850000Y-77862619D02*
X150850000Y-76862619D01*
X150850000Y-76862619D02*
X150754762Y-77005476D01*
X150754762Y-77005476D02*
X150659524Y-77100714D01*
X150659524Y-77100714D02*
X150564286Y-77148333D01*
D13*
%TO.C,D4*%
X158820000Y-134652500D02*
X158820000Y-138662500D01*
X160820000Y-134652500D02*
X160820000Y-138662500D01*
X160820000Y-134652500D02*
X158820000Y-134652500D01*
%TO.C,D3*%
X136870000Y-80290000D02*
X136870000Y-83450000D01*
X136870000Y-80290000D02*
X137800000Y-80290000D01*
X140030000Y-80290000D02*
X140030000Y-81750000D01*
X140030000Y-80290000D02*
X139100000Y-80290000D01*
%TO.C,U4*%
X154092500Y-78192500D02*
X155332500Y-78192500D01*
X154092500Y-79432500D02*
X154092500Y-78192500D01*
X154332500Y-78432500D02*
X154332500Y-87052500D01*
X154332500Y-78432500D02*
X165952500Y-78432500D01*
X154332500Y-87052500D02*
X165952500Y-87052500D01*
X165952500Y-78432500D02*
X165952500Y-87052500D01*
%TO.C,R7*%
X130935000Y-89172936D02*
X130935000Y-89627064D01*
X129465000Y-89172936D02*
X129465000Y-89627064D01*
%TO.C,R11*%
X127415000Y-89627064D02*
X127415000Y-89172936D01*
X128885000Y-89627064D02*
X128885000Y-89172936D01*
%TO.C,J8*%
X157920000Y-67645000D02*
X159250000Y-67645000D01*
X157920000Y-68975000D02*
X157920000Y-67645000D01*
X157920000Y-70245000D02*
X157920000Y-72845000D01*
X157920000Y-70245000D02*
X160580000Y-70245000D01*
X157920000Y-72845000D02*
X160580000Y-72845000D01*
X160580000Y-70245000D02*
X160580000Y-72845000D01*
%TO.C,C10*%
X157012500Y-122902500D02*
X157800000Y-122902500D01*
X157406250Y-122508750D02*
X157406250Y-123296250D01*
X158040000Y-122404437D02*
X158040000Y-123690000D01*
X158040000Y-122404437D02*
X159104437Y-121340000D01*
X158040000Y-127095563D02*
X158040000Y-125810000D01*
X158040000Y-127095563D02*
X159104437Y-128160000D01*
X159104437Y-121340000D02*
X164860000Y-121340000D01*
X159104437Y-128160000D02*
X164860000Y-128160000D01*
X164860000Y-121340000D02*
X164860000Y-123690000D01*
X164860000Y-128160000D02*
X164860000Y-125810000D01*
%TO.C,R9*%
X151165000Y-143539564D02*
X151165000Y-143085436D01*
X152635000Y-143539564D02*
X152635000Y-143085436D01*
%TO.C,C8*%
X156762500Y-86602500D02*
X157550000Y-86602500D01*
X157156250Y-86208750D02*
X157156250Y-86996250D01*
X157790000Y-86104437D02*
X157790000Y-87390000D01*
X157790000Y-86104437D02*
X158854437Y-85040000D01*
X157790000Y-90795563D02*
X157790000Y-89510000D01*
X157790000Y-90795563D02*
X158854437Y-91860000D01*
X158854437Y-85040000D02*
X164610000Y-85040000D01*
X158854437Y-91860000D02*
X164610000Y-91860000D01*
X164610000Y-85040000D02*
X164610000Y-87390000D01*
X164610000Y-91860000D02*
X164610000Y-89510000D01*
%TO.C,J6*%
X124580000Y-86430000D02*
X123250000Y-86430000D01*
X124580000Y-85100000D02*
X124580000Y-86430000D01*
X124580000Y-83830000D02*
X124580000Y-78690000D01*
X124580000Y-83830000D02*
X121920000Y-83830000D01*
X124580000Y-78690000D02*
X121920000Y-78690000D01*
X121920000Y-83830000D02*
X121920000Y-78690000D01*
%TO.C,C5*%
X138038748Y-144015000D02*
X138561252Y-144015000D01*
X138038748Y-145485000D02*
X138561252Y-145485000D01*
%TO.C,J7*%
X140720000Y-136580000D02*
X140720000Y-135250000D01*
X142050000Y-136580000D02*
X140720000Y-136580000D01*
X143320000Y-136580000D02*
X153540000Y-136580000D01*
X143320000Y-136580000D02*
X143320000Y-133920000D01*
X153540000Y-136580000D02*
X153540000Y-133920000D01*
X143320000Y-133920000D02*
X153540000Y-133920000D01*
%TO.C,C2*%
X128638748Y-115615000D02*
X129161252Y-115615000D01*
X128638748Y-117085000D02*
X129161252Y-117085000D01*
%TO.C,U2*%
X152775000Y-93700000D02*
X152775000Y-94650000D01*
X152775000Y-94650000D02*
X147650000Y-94650000D01*
X152775000Y-103150000D02*
X151675000Y-103150000D01*
X152775000Y-104100000D02*
X152775000Y-103150000D01*
X154275000Y-93700000D02*
X152775000Y-93700000D01*
X154275000Y-104100000D02*
X152775000Y-104100000D01*
%TO.C,C6*%
X153665000Y-76261252D02*
X153665000Y-75738748D01*
X155135000Y-76261252D02*
X155135000Y-75738748D01*
%TO.C,R1*%
X133585000Y-142972936D02*
X133585000Y-143427064D01*
X132115000Y-142972936D02*
X132115000Y-143427064D01*
%TO.C,C3*%
X135188748Y-113815000D02*
X135711252Y-113815000D01*
X135188748Y-115285000D02*
X135711252Y-115285000D01*
%TO.C,J2*%
X150980000Y-71130000D02*
X150980000Y-69800000D01*
X152310000Y-71130000D02*
X150980000Y-71130000D01*
X153580000Y-71130000D02*
X156180000Y-71130000D01*
X153580000Y-71130000D02*
X153580000Y-68470000D01*
X156180000Y-71130000D02*
X156180000Y-68470000D01*
X153580000Y-68470000D02*
X156180000Y-68470000D01*
%TO.C,R3*%
X131515000Y-115627064D02*
X131515000Y-115172936D01*
X132985000Y-115627064D02*
X132985000Y-115172936D01*
%TO.C,J3*%
X142870000Y-149180000D02*
X142870000Y-147850000D01*
X144200000Y-149180000D02*
X142870000Y-149180000D01*
X145470000Y-149180000D02*
X158230000Y-149180000D01*
X145470000Y-149180000D02*
X145470000Y-146520000D01*
X158230000Y-149180000D02*
X158230000Y-146520000D01*
X145470000Y-146520000D02*
X158230000Y-146520000D01*
%TO.C,C7*%
X159811252Y-76785000D02*
X159288748Y-76785000D01*
X159811252Y-75315000D02*
X159288748Y-75315000D01*
%TO.C,U1*%
X120530000Y-111120000D02*
X126550000Y-111120000D01*
X120530000Y-111120000D02*
X120530000Y-92880000D01*
X126550000Y-111120000D02*
X126550000Y-113000000D01*
X140450000Y-111120000D02*
X140770000Y-111120000D01*
X140770000Y-111120000D02*
X140770000Y-110100000D01*
X140770000Y-94000000D02*
X140770000Y-92880000D01*
X120530000Y-92880000D02*
X127050000Y-92880000D01*
X140450000Y-92880000D02*
X140750000Y-92880000D01*
%TO.C,C1*%
X128638748Y-113515000D02*
X129161252Y-113515000D01*
X128638748Y-114985000D02*
X129161252Y-114985000D01*
%TO.C,R5*%
X131222936Y-85115000D02*
X131677064Y-85115000D01*
X131222936Y-86585000D02*
X131677064Y-86585000D01*
%TO.C,R4*%
X143465000Y-143527064D02*
X143465000Y-143072936D01*
X144935000Y-143527064D02*
X144935000Y-143072936D01*
%TO.C,U3*%
X132200000Y-78440000D02*
X128750000Y-78440000D01*
X132200000Y-78440000D02*
X134150000Y-78440000D01*
X132200000Y-83560000D02*
X130250000Y-83560000D01*
X132200000Y-83560000D02*
X134150000Y-83560000D01*
%TO.C,D2*%
X147900000Y-115410000D02*
X151200000Y-115410000D01*
X147900000Y-115410000D02*
X147900000Y-108400000D01*
X151200000Y-115410000D02*
X151200000Y-108400000D01*
%TO.C,J5*%
X129020000Y-149330000D02*
X129020000Y-148000000D01*
X130350000Y-149330000D02*
X129020000Y-149330000D01*
X131620000Y-149330000D02*
X139300000Y-149330000D01*
X131620000Y-149330000D02*
X131620000Y-146670000D01*
X139300000Y-149330000D02*
X139300000Y-146670000D01*
X131620000Y-146670000D02*
X139300000Y-146670000D01*
%TO.C,R8*%
X148535000Y-69472936D02*
X148535000Y-69927064D01*
X147065000Y-69472936D02*
X147065000Y-69927064D01*
%TO.C,L1*%
X152850000Y-107050000D02*
X152850000Y-109800000D01*
X152850000Y-115800000D02*
X152850000Y-118550000D01*
X153500000Y-106400000D02*
X165000000Y-106400000D01*
X165000000Y-119200000D02*
X153500000Y-119200000D01*
X165650000Y-107050000D02*
X165650000Y-109800000D01*
X165650000Y-115800000D02*
X165650000Y-118550000D01*
X153500000Y-106400000D02*
G75*
G03*
X152850000Y-107050000I1J-650001D01*
G01*
X152850000Y-118550000D02*
G75*
G03*
X153500000Y-119200000I650001J1D01*
G01*
X165650000Y-107050000D02*
G75*
G03*
X165000000Y-106400000I-650000J0D01*
G01*
X165000000Y-119200000D02*
G75*
G03*
X165650000Y-118550000I0J650000D01*
G01*
%TO.C,J4*%
X144070000Y-70992500D02*
X144070000Y-61572500D01*
X144070000Y-70992500D02*
X142410000Y-70992500D01*
X144070000Y-64882500D02*
X127220000Y-64882500D01*
X144070000Y-61572500D02*
X127220000Y-61572500D01*
X141660000Y-72282500D02*
X141060000Y-72282500D01*
X141360000Y-71682500D02*
X141660000Y-72282500D01*
X141060000Y-72282500D02*
X141360000Y-71682500D01*
X140310000Y-70992500D02*
X138600000Y-70992500D01*
X136500000Y-70992500D02*
X134790000Y-70992500D01*
X132690000Y-70992500D02*
X130980000Y-70992500D01*
X127220000Y-70992500D02*
X128880000Y-70992500D01*
X127220000Y-61572500D02*
X127220000Y-70992500D01*
%TO.C,J1*%
X140745000Y-82580000D02*
X140745000Y-81250000D01*
X142075000Y-82580000D02*
X140745000Y-82580000D01*
X143345000Y-82580000D02*
X153565000Y-82580000D01*
X143345000Y-82580000D02*
X143345000Y-79920000D01*
X153565000Y-82580000D02*
X153565000Y-79920000D01*
X143345000Y-79920000D02*
X153565000Y-79920000D01*
%TO.C,R6*%
X137965000Y-116327064D02*
X137965000Y-115872936D01*
X139435000Y-116327064D02*
X139435000Y-115872936D01*
%TO.C,C9*%
X126115000Y-82061252D02*
X126115000Y-81538748D01*
X127585000Y-82061252D02*
X127585000Y-81538748D01*
%TO.C,R10*%
X155377064Y-73585000D02*
X154922936Y-73585000D01*
X155377064Y-72115000D02*
X154922936Y-72115000D01*
%TO.C,J9*%
X133780000Y-125930000D02*
X133780000Y-124600000D01*
X135110000Y-125930000D02*
X133780000Y-125930000D01*
X136380000Y-125930000D02*
X138980000Y-125930000D01*
X136380000Y-125930000D02*
X136380000Y-123270000D01*
X138980000Y-125930000D02*
X138980000Y-123270000D01*
X136380000Y-123270000D02*
X138980000Y-123270000D01*
%TO.C,R2*%
X135685000Y-142972936D02*
X135685000Y-143427064D01*
X134215000Y-142972936D02*
X134215000Y-143427064D01*
%TO.C,C4*%
X129811252Y-143885000D02*
X129288748Y-143885000D01*
X129811252Y-142415000D02*
X129288748Y-142415000D01*
%TO.C,D1*%
X150660000Y-76400000D02*
X150660000Y-74400000D01*
X150660000Y-76400000D02*
X146650000Y-76400000D01*
X150660000Y-74400000D02*
X146650000Y-74400000D01*
%TD*%
M02*
