%TF.GenerationSoftware,KiCad,Pcbnew,7.0.2-6a45011f42~172~ubuntu22.10.1*%
%TF.CreationDate,2023-04-24T11:56:10+02:00*%
%TF.ProjectId,vscp-din-esp32-can-z102,76736370-2d64-4696-9e2d-65737033322d,B*%
%TF.SameCoordinates,Original*%
%TF.FileFunction,Copper,L2,Bot*%
%TF.FilePolarity,Positive*%
%FSLAX46Y46*%
G04 Gerber Fmt 4.6, Leading zero omitted, Abs format (unit mm)*
G04 Created by KiCad (PCBNEW 7.0.2-6a45011f42~172~ubuntu22.10.1) date 2023-04-24 11:56:10*
%MOMM*%
%LPD*%
G01*
G04 APERTURE LIST*
G04 Aperture macros list*
%AMRoundRect*
0 Rectangle with rounded corners*
0 $1 Rounding radius*
0 $2 $3 $4 $5 $6 $7 $8 $9 X,Y pos of 4 corners*
0 Add a 4 corners polygon primitive as box body*
4,1,4,$2,$3,$4,$5,$6,$7,$8,$9,$2,$3,0*
0 Add four circle primitives for the rounded corners*
1,1,$1+$1,$2,$3*
1,1,$1+$1,$4,$5*
1,1,$1+$1,$6,$7*
1,1,$1+$1,$8,$9*
0 Add four rect primitives between the rounded corners*
20,1,$1+$1,$2,$3,$4,$5,0*
20,1,$1+$1,$4,$5,$6,$7,0*
20,1,$1+$1,$6,$7,$8,$9,0*
20,1,$1+$1,$8,$9,$2,$3,0*%
G04 Aperture macros list end*
%TA.AperFunction,ComponentPad*%
%ADD10R,1.700000X2.500000*%
%TD*%
%TA.AperFunction,ComponentPad*%
%ADD11O,1.700000X2.500000*%
%TD*%
%TA.AperFunction,ComponentPad*%
%ADD12R,1.700000X1.700000*%
%TD*%
%TA.AperFunction,ComponentPad*%
%ADD13O,1.700000X1.700000*%
%TD*%
%TA.AperFunction,ComponentPad*%
%ADD14RoundRect,0.250000X0.650000X1.550000X-0.650000X1.550000X-0.650000X-1.550000X0.650000X-1.550000X0*%
%TD*%
%TA.AperFunction,ComponentPad*%
%ADD15O,1.800000X3.600000*%
%TD*%
%TA.AperFunction,ViaPad*%
%ADD16C,0.800000*%
%TD*%
%TA.AperFunction,Conductor*%
%ADD17C,0.500000*%
%TD*%
%TA.AperFunction,Conductor*%
%ADD18C,0.250000*%
%TD*%
%TA.AperFunction,Conductor*%
%ADD19C,1.000000*%
%TD*%
G04 APERTURE END LIST*
D10*
%TO.P,U4,1,IN*%
%TO.N,+28V*%
X157602500Y-80492500D03*
D11*
%TO.P,U4,2,GND*%
%TO.N,GND*%
X160142500Y-80492500D03*
%TO.P,U4,3,OUT*%
%TO.N,+3V3*%
X162682500Y-80492500D03*
%TD*%
D12*
%TO.P,J8,1,Pin_1*%
%TO.N,Net-(J8-Pin_1)*%
X159250000Y-68975000D03*
D13*
%TO.P,J8,2,Pin_2*%
%TO.N,GND*%
X159250000Y-71515000D03*
%TD*%
D12*
%TO.P,J6,1,Pin_1*%
%TO.N,Net-(J6-Pin_1)*%
X123250000Y-85100000D03*
D13*
%TO.P,J6,2,Pin_2*%
%TO.N,GND*%
X123250000Y-82560000D03*
%TO.P,J6,3,Pin_3*%
%TO.N,Net-(J6-Pin_3)*%
X123250000Y-80020000D03*
%TD*%
D12*
%TO.P,J7,1,Pin_1*%
%TO.N,/io4*%
X142050000Y-135250000D03*
D13*
%TO.P,J7,2,Pin_2*%
%TO.N,/io5*%
X144590000Y-135250000D03*
%TO.P,J7,3,Pin_3*%
%TO.N,/io3*%
X147130000Y-135250000D03*
%TO.P,J7,4,Pin_4*%
%TO.N,/rx*%
X149670000Y-135250000D03*
%TO.P,J7,5,Pin_5*%
%TO.N,/tx*%
X152210000Y-135250000D03*
%TD*%
D12*
%TO.P,J2,1,Pin_1*%
%TO.N,Net-(J2-Pin_1)*%
X152310000Y-69800000D03*
D13*
%TO.P,J2,2,Pin_2*%
%TO.N,Net-(J2-Pin_2)*%
X154850000Y-69800000D03*
%TD*%
D12*
%TO.P,J3,1,Pin_1*%
%TO.N,Net-(J3-Pin_1)*%
X144200000Y-147850000D03*
D13*
%TO.P,J3,2,Pin_2*%
%TO.N,/rx*%
X146740000Y-147850000D03*
%TO.P,J3,3,Pin_3*%
%TO.N,/tx*%
X149280000Y-147850000D03*
%TO.P,J3,4,Pin_4*%
%TO.N,Net-(J3-Pin_4)*%
X151820000Y-147850000D03*
%TO.P,J3,5,Pin_5*%
%TO.N,+3V3*%
X154360000Y-147850000D03*
%TO.P,J3,6,Pin_6*%
%TO.N,GND*%
X156900000Y-147850000D03*
%TD*%
D12*
%TO.P,J5,1,Pin_1*%
%TO.N,Net-(D4-A)*%
X130350000Y-148000000D03*
D13*
%TO.P,J5,2,Pin_2*%
%TO.N,/USB D-*%
X132890000Y-148000000D03*
%TO.P,J5,3,Pin_3*%
%TO.N,/USB D+*%
X135430000Y-148000000D03*
%TO.P,J5,4,Pin_4*%
%TO.N,GND*%
X137970000Y-148000000D03*
%TD*%
D14*
%TO.P,J4,1,Pin_1*%
%TO.N,Net-(D1-A)*%
X141360000Y-69682500D03*
D15*
%TO.P,J4,2,Pin_2*%
%TO.N,Net-(J2-Pin_2)*%
X137550000Y-69682500D03*
%TO.P,J4,3,Pin_3*%
%TO.N,Net-(J4-Pin_3)*%
X133740000Y-69682500D03*
%TO.P,J4,4,Pin_4*%
%TO.N,GND*%
X129930000Y-69682500D03*
%TD*%
D12*
%TO.P,J1,1,Pin_1*%
%TO.N,/MISO*%
X142075000Y-81250000D03*
D13*
%TO.P,J1,2,Pin_2*%
%TO.N,/SCK*%
X144615000Y-81250000D03*
%TO.P,J1,3,Pin_3*%
%TO.N,/MOSI*%
X147155000Y-81250000D03*
%TO.P,J1,4,Pin_4*%
%TO.N,+3V3*%
X149695000Y-81250000D03*
%TO.P,J1,5,Pin_5*%
%TO.N,GND*%
X152235000Y-81250000D03*
%TD*%
D12*
%TO.P,J9,1,Pin_1*%
%TO.N,GND*%
X135110000Y-124600000D03*
D13*
%TO.P,J9,2,Pin_2*%
%TO.N,/reset*%
X137650000Y-124600000D03*
%TD*%
D16*
%TO.N,+3V3*%
X161800000Y-77850000D03*
X152100000Y-78700000D03*
%TO.N,GND*%
X140650000Y-109200000D03*
X135400000Y-106350000D03*
X138400000Y-141150000D03*
X132900000Y-88800000D03*
X151500000Y-140100000D03*
X148000000Y-145250000D03*
X142750000Y-139250000D03*
X137050000Y-119900000D03*
X137450000Y-108200000D03*
X130500000Y-101900000D03*
X132600000Y-124000000D03*
X131800000Y-83000000D03*
X121950000Y-81250000D03*
X153500000Y-78850000D03*
X147750000Y-141500000D03*
X126300000Y-135000000D03*
X138100000Y-97500000D03*
X145800000Y-108100000D03*
X149650000Y-116900000D03*
X132700000Y-96950000D03*
X134100000Y-145950000D03*
X135300000Y-112400000D03*
X139450000Y-80900000D03*
X139200000Y-77200000D03*
X127950000Y-145200000D03*
X141700000Y-88600000D03*
X157700000Y-74050000D03*
X124200000Y-116900000D03*
X166150000Y-76750000D03*
X135350000Y-77100000D03*
X166000000Y-140650000D03*
X151750000Y-74700000D03*
X128300000Y-80900000D03*
X131400000Y-77100000D03*
X161950000Y-83350000D03*
X126750000Y-123050000D03*
X141000000Y-78700000D03*
X141250000Y-111850000D03*
X155350000Y-85050000D03*
X127900000Y-78100000D03*
X158600000Y-110200000D03*
X123750000Y-77250000D03*
X136000000Y-89700000D03*
X132650000Y-118050000D03*
X155600000Y-75900000D03*
X161400000Y-79050000D03*
X127650000Y-95100000D03*
X141150000Y-146800000D03*
X155250000Y-81600000D03*
X150600000Y-145700000D03*
X158250000Y-146000000D03*
%TO.N,/reset*%
X132500000Y-112600000D03*
X135500000Y-117900000D03*
%TO.N,Net-(D1-A)*%
X145150000Y-77400000D03*
%TO.N,Net-(D2-K)*%
X152100000Y-109050000D03*
X147000000Y-97550000D03*
%TO.N,/txcan*%
X140600000Y-113200000D03*
X141050000Y-118750000D03*
%TO.N,/SCK*%
X139300000Y-104650000D03*
%TO.N,/MOSI*%
X139350000Y-105800000D03*
%TO.N,/MISO*%
X138550000Y-85474500D03*
%TO.N,Net-(J2-Pin_2)*%
X147350000Y-72600000D03*
%TO.N,+28V*%
X166250000Y-108100000D03*
X165350000Y-92250000D03*
%TO.N,/rx*%
X124650000Y-121700000D03*
X146050000Y-137675500D03*
X129000000Y-109250000D03*
%TO.N,/tx*%
X126400000Y-118900000D03*
X149250000Y-141950000D03*
X123550000Y-121650000D03*
%TO.N,Net-(J8-Pin_1)*%
X156600000Y-74800000D03*
%TO.N,Net-(U1-IO18)*%
X121950000Y-118300000D03*
X127100000Y-96900000D03*
%TO.N,Net-(U1-IO19)*%
X121950000Y-119700000D03*
X133100000Y-94950000D03*
%TO.N,/io3*%
X138500000Y-91000000D03*
X142050000Y-91000000D03*
X139900000Y-120300000D03*
X140250000Y-114750000D03*
%TO.N,/io4*%
X130250000Y-109250000D03*
X130300000Y-121750000D03*
%TO.N,/io5*%
X131550000Y-109250000D03*
X131550000Y-121700000D03*
%TD*%
D17*
%TO.N,+3V3*%
X152100000Y-78700000D02*
X152950000Y-77850000D01*
X152950000Y-77850000D02*
X161800000Y-77850000D01*
D18*
%TO.N,GND*%
X161400000Y-79050000D02*
X161400000Y-79235000D01*
X161400000Y-79235000D02*
X160142500Y-80492500D01*
%TO.N,/reset*%
X135500000Y-117900000D02*
X135500000Y-115600000D01*
X135500000Y-122450000D02*
X135500000Y-117900000D01*
X135500000Y-115600000D02*
X132500000Y-112600000D01*
X137650000Y-124600000D02*
X135500000Y-122450000D01*
D19*
%TO.N,Net-(D1-A)*%
X145150000Y-77400000D02*
X144550000Y-77400000D01*
X144550000Y-77400000D02*
X141360000Y-74210000D01*
X141360000Y-74210000D02*
X141360000Y-69682500D01*
%TO.N,Net-(D2-K)*%
X151100000Y-109050000D02*
X152100000Y-109050000D01*
X147000000Y-97550000D02*
X147000000Y-104950000D01*
X147000000Y-104950000D02*
X151100000Y-109050000D01*
D18*
%TO.N,/txcan*%
X140600000Y-113200000D02*
X141050000Y-113650000D01*
X141050000Y-113650000D02*
X141050000Y-118750000D01*
%TO.N,/SCK*%
X143549511Y-100400489D02*
X143549511Y-82615489D01*
X139300000Y-104650000D02*
X143549511Y-100400489D01*
X143549511Y-82615489D02*
X144915000Y-81250000D01*
%TO.N,/MOSI*%
X144250000Y-84455000D02*
X147455000Y-81250000D01*
X139600103Y-105374511D02*
X144250000Y-100724614D01*
X144250000Y-100724614D02*
X144250000Y-84455000D01*
%TO.N,/MISO*%
X142375000Y-81649500D02*
X142375000Y-81250000D01*
X138550000Y-85474500D02*
X142375000Y-81649500D01*
%TO.N,Net-(J2-Pin_2)*%
X147350000Y-72600000D02*
X142307980Y-67557980D01*
X139674520Y-67557980D02*
X137550000Y-69682500D01*
X142307980Y-67557980D02*
X139674520Y-67557980D01*
D19*
%TO.N,+28V*%
X166250000Y-108100000D02*
X166700000Y-107650000D01*
X166700000Y-93600000D02*
X165350000Y-92250000D01*
X166700000Y-107650000D02*
X166700000Y-93600000D01*
D18*
%TO.N,/rx*%
X129000000Y-117350000D02*
X124650000Y-121700000D01*
X146740000Y-138365500D02*
X146740000Y-147850000D01*
X129000000Y-109250000D02*
X129000000Y-117350000D01*
X146050000Y-137675500D02*
X146740000Y-138365500D01*
%TO.N,/tx*%
X149280000Y-141980000D02*
X149280000Y-147850000D01*
X126400000Y-118900000D02*
X126300000Y-118900000D01*
X126300000Y-118900000D02*
X123550000Y-121650000D01*
X149250000Y-141950000D02*
X149280000Y-141980000D01*
%TO.N,Net-(J8-Pin_1)*%
X159250000Y-68975000D02*
X158225000Y-68975000D01*
X158225000Y-68975000D02*
X156600000Y-70600000D01*
X156600000Y-70600000D02*
X156600000Y-74800000D01*
%TO.N,Net-(U1-IO18)*%
X121950000Y-118300000D02*
X124526804Y-118300000D01*
X127100000Y-115726804D02*
X127100000Y-96900000D01*
X124526804Y-118300000D02*
X127100000Y-115726804D01*
%TO.N,Net-(U1-IO19)*%
X128275489Y-96674511D02*
X128275489Y-114775489D01*
X128275489Y-114775489D02*
X128275489Y-115187032D01*
X128275489Y-115187032D02*
X123762521Y-119700000D01*
X131375489Y-96674511D02*
X128275489Y-96674511D01*
X123762521Y-119700000D02*
X121950000Y-119700000D01*
X133100000Y-94950000D02*
X131375489Y-96674511D01*
%TO.N,/io3*%
X140250000Y-119950000D02*
X139900000Y-120300000D01*
X138500000Y-91000000D02*
X141800000Y-91000000D01*
X141800000Y-91000000D02*
X142050000Y-91000000D01*
X140250000Y-114750000D02*
X140250000Y-119950000D01*
%TO.N,/io4*%
X129875000Y-109625000D02*
X129875000Y-121325000D01*
X130250000Y-109250000D02*
X129875000Y-109625000D01*
X129875000Y-121325000D02*
X130300000Y-121750000D01*
%TO.N,/io5*%
X131550000Y-109250000D02*
X131550000Y-121700000D01*
%TD*%
%TA.AperFunction,Conductor*%
%TO.N,GND*%
G36*
X161325535Y-78628502D02*
G01*
X161331448Y-78632545D01*
X161343248Y-78641118D01*
X161517712Y-78718794D01*
X161704513Y-78758500D01*
X161704515Y-78758500D01*
X161813061Y-78758500D01*
X161881182Y-78778502D01*
X161927675Y-78832158D01*
X161937779Y-78902432D01*
X161908285Y-78967012D01*
X161879125Y-78991792D01*
X161871770Y-78996320D01*
X161698178Y-79149100D01*
X161698176Y-79149102D01*
X161671023Y-79182731D01*
X161552896Y-79329029D01*
X161522678Y-79383121D01*
X161471994Y-79432837D01*
X161402477Y-79447257D01*
X161336199Y-79421805D01*
X161308287Y-79392228D01*
X161202893Y-79236294D01*
X161042937Y-79069398D01*
X160857086Y-78931942D01*
X160688629Y-78847009D01*
X160636807Y-78798481D01*
X160619448Y-78729639D01*
X160642063Y-78662340D01*
X160697473Y-78617952D01*
X160745354Y-78608500D01*
X161257414Y-78608500D01*
X161325535Y-78628502D01*
G37*
%TD.AperFunction*%
%TA.AperFunction,Conductor*%
G36*
X161963673Y-66035315D02*
G01*
X162031764Y-66055409D01*
X162078184Y-66109128D01*
X162089500Y-66161315D01*
X162089500Y-75397856D01*
X162088633Y-75402215D01*
X162088634Y-75424999D01*
X162089141Y-75426222D01*
X162089500Y-75427088D01*
X162091964Y-75433036D01*
X162100000Y-75436365D01*
X162122807Y-75436365D01*
X162127155Y-75435500D01*
X167363500Y-75435500D01*
X167431621Y-75455502D01*
X167478114Y-75509158D01*
X167489500Y-75561500D01*
X167489500Y-92659076D01*
X167469498Y-92727197D01*
X167415842Y-92773690D01*
X167345568Y-92783794D01*
X167280988Y-92754300D01*
X167274405Y-92748171D01*
X166030278Y-91504044D01*
X166028082Y-91501848D01*
X165913003Y-91407405D01*
X165913002Y-91407404D01*
X165737802Y-91313758D01*
X165547701Y-91256090D01*
X165350000Y-91236619D01*
X165152298Y-91256090D01*
X164962197Y-91313757D01*
X164786998Y-91407404D01*
X164633431Y-91533431D01*
X164507404Y-91686998D01*
X164413757Y-91862197D01*
X164356090Y-92052298D01*
X164336619Y-92249999D01*
X164356090Y-92447701D01*
X164413758Y-92637802D01*
X164486391Y-92773690D01*
X164507405Y-92813003D01*
X164601848Y-92928082D01*
X164604043Y-92930277D01*
X164604044Y-92930278D01*
X165654595Y-93980828D01*
X165688620Y-94043140D01*
X165691500Y-94069923D01*
X165691500Y-107180076D01*
X165671498Y-107248197D01*
X165654595Y-107269171D01*
X165504044Y-107419721D01*
X165504034Y-107419731D01*
X165501848Y-107421918D01*
X165499886Y-107424307D01*
X165499882Y-107424313D01*
X165407404Y-107536997D01*
X165313758Y-107712197D01*
X165256090Y-107902298D01*
X165236619Y-108100000D01*
X165256090Y-108297701D01*
X165313757Y-108487802D01*
X165364073Y-108581935D01*
X165407405Y-108663003D01*
X165448482Y-108713056D01*
X165533431Y-108816568D01*
X165608827Y-108878443D01*
X165686997Y-108942595D01*
X165780644Y-108992650D01*
X165862197Y-109036242D01*
X166052298Y-109093909D01*
X166250000Y-109113380D01*
X166447701Y-109093909D01*
X166637804Y-109036241D01*
X166813003Y-108942595D01*
X166928082Y-108848152D01*
X167274405Y-108501827D01*
X167336715Y-108467804D01*
X167407531Y-108472868D01*
X167464367Y-108515415D01*
X167489178Y-108581935D01*
X167489499Y-108590924D01*
X167489500Y-142088500D01*
X167469498Y-142156621D01*
X167415842Y-142203114D01*
X167363500Y-142214500D01*
X160727154Y-142214500D01*
X160722806Y-142213635D01*
X160700001Y-142213635D01*
X160700000Y-142213635D01*
X160697912Y-142214500D01*
X160694938Y-142215732D01*
X160691963Y-142216964D01*
X160688635Y-142224999D01*
X160688635Y-142247807D01*
X160689500Y-142252154D01*
X160689500Y-150588500D01*
X160669498Y-150656621D01*
X160615842Y-150703114D01*
X160563500Y-150714500D01*
X126836500Y-150714500D01*
X126768379Y-150694498D01*
X126721886Y-150640842D01*
X126710500Y-150588500D01*
X126710500Y-148898638D01*
X128991500Y-148898638D01*
X128998011Y-148959201D01*
X129009784Y-148990766D01*
X129049111Y-149096205D01*
X129136738Y-149213261D01*
X129253794Y-149300888D01*
X129253795Y-149300888D01*
X129253796Y-149300889D01*
X129390799Y-149351989D01*
X129451362Y-149358500D01*
X129454731Y-149358500D01*
X131245269Y-149358500D01*
X131248638Y-149358500D01*
X131309201Y-149351989D01*
X131446204Y-149300889D01*
X131563261Y-149213261D01*
X131650889Y-149096204D01*
X131694999Y-148977941D01*
X131737545Y-148921107D01*
X131804065Y-148896296D01*
X131873439Y-148911387D01*
X131905753Y-148936635D01*
X131943780Y-148977943D01*
X131966762Y-149002908D01*
X132144421Y-149141187D01*
X132144424Y-149141189D01*
X132342426Y-149248342D01*
X132555365Y-149321444D01*
X132777431Y-149358500D01*
X132777434Y-149358500D01*
X133002566Y-149358500D01*
X133002569Y-149358500D01*
X133224635Y-149321444D01*
X133437574Y-149248342D01*
X133635576Y-149141189D01*
X133813240Y-149002906D01*
X133965722Y-148837268D01*
X134054518Y-148701354D01*
X134108521Y-148655268D01*
X134178869Y-148645693D01*
X134243226Y-148675670D01*
X134265480Y-148701353D01*
X134354278Y-148837268D01*
X134466525Y-148959200D01*
X134506762Y-149002908D01*
X134684421Y-149141187D01*
X134684424Y-149141189D01*
X134882426Y-149248342D01*
X135095365Y-149321444D01*
X135317431Y-149358500D01*
X135317434Y-149358500D01*
X135542566Y-149358500D01*
X135542569Y-149358500D01*
X135764635Y-149321444D01*
X135977574Y-149248342D01*
X136175576Y-149141189D01*
X136353240Y-149002906D01*
X136505722Y-148837268D01*
X136594817Y-148700896D01*
X136648819Y-148654809D01*
X136719167Y-148645234D01*
X136783524Y-148675211D01*
X136805782Y-148700897D01*
X136894678Y-148836962D01*
X137047096Y-149002533D01*
X137224697Y-149140766D01*
X137422631Y-149247883D01*
X137635485Y-149320955D01*
X137716000Y-149334391D01*
X137716000Y-148433674D01*
X137827685Y-148484680D01*
X137934237Y-148500000D01*
X138005763Y-148500000D01*
X138112315Y-148484680D01*
X138224000Y-148433674D01*
X138224000Y-149334390D01*
X138304514Y-149320955D01*
X138517368Y-149247883D01*
X138715302Y-149140766D01*
X138892903Y-149002533D01*
X139045321Y-148836962D01*
X139103026Y-148748638D01*
X142841500Y-148748638D01*
X142848011Y-148809201D01*
X142858480Y-148837268D01*
X142899111Y-148946205D01*
X142986738Y-149063261D01*
X143103794Y-149150888D01*
X143103795Y-149150888D01*
X143103796Y-149150889D01*
X143240799Y-149201989D01*
X143301362Y-149208500D01*
X143304731Y-149208500D01*
X145095269Y-149208500D01*
X145098638Y-149208500D01*
X145159201Y-149201989D01*
X145296204Y-149150889D01*
X145413261Y-149063261D01*
X145500889Y-148946204D01*
X145544999Y-148827941D01*
X145587545Y-148771107D01*
X145654065Y-148746296D01*
X145723439Y-148761387D01*
X145755753Y-148786635D01*
X145802364Y-148837268D01*
X145816762Y-148852908D01*
X145994421Y-148991187D01*
X145994424Y-148991189D01*
X146192426Y-149098342D01*
X146405365Y-149171444D01*
X146627431Y-149208500D01*
X146627434Y-149208500D01*
X146852566Y-149208500D01*
X146852569Y-149208500D01*
X147074635Y-149171444D01*
X147287574Y-149098342D01*
X147485576Y-148991189D01*
X147663240Y-148852906D01*
X147815722Y-148687268D01*
X147904518Y-148551354D01*
X147958521Y-148505268D01*
X148028869Y-148495693D01*
X148093226Y-148525670D01*
X148115480Y-148551353D01*
X148204278Y-148687268D01*
X148342082Y-148836962D01*
X148356762Y-148852908D01*
X148534421Y-148991187D01*
X148534424Y-148991189D01*
X148732426Y-149098342D01*
X148945365Y-149171444D01*
X149167431Y-149208500D01*
X149167434Y-149208500D01*
X149392566Y-149208500D01*
X149392569Y-149208500D01*
X149614635Y-149171444D01*
X149827574Y-149098342D01*
X150025576Y-148991189D01*
X150203240Y-148852906D01*
X150355722Y-148687268D01*
X150444518Y-148551354D01*
X150498521Y-148505268D01*
X150568869Y-148495693D01*
X150633226Y-148525670D01*
X150655480Y-148551353D01*
X150744278Y-148687268D01*
X150882082Y-148836962D01*
X150896762Y-148852908D01*
X151074421Y-148991187D01*
X151074424Y-148991189D01*
X151272426Y-149098342D01*
X151485365Y-149171444D01*
X151707431Y-149208500D01*
X151707434Y-149208500D01*
X151932566Y-149208500D01*
X151932569Y-149208500D01*
X152154635Y-149171444D01*
X152367574Y-149098342D01*
X152565576Y-148991189D01*
X152743240Y-148852906D01*
X152895722Y-148687268D01*
X152984518Y-148551354D01*
X153038521Y-148505268D01*
X153108869Y-148495693D01*
X153173226Y-148525670D01*
X153195480Y-148551353D01*
X153284278Y-148687268D01*
X153422082Y-148836962D01*
X153436762Y-148852908D01*
X153614421Y-148991187D01*
X153614424Y-148991189D01*
X153812426Y-149098342D01*
X154025365Y-149171444D01*
X154247431Y-149208500D01*
X154247434Y-149208500D01*
X154472566Y-149208500D01*
X154472569Y-149208500D01*
X154694635Y-149171444D01*
X154907574Y-149098342D01*
X155105576Y-148991189D01*
X155283240Y-148852906D01*
X155435722Y-148687268D01*
X155524817Y-148550896D01*
X155578819Y-148504809D01*
X155649167Y-148495234D01*
X155713524Y-148525211D01*
X155735782Y-148550897D01*
X155824678Y-148686962D01*
X155977096Y-148852533D01*
X156154697Y-148990766D01*
X156352631Y-149097883D01*
X156565485Y-149170955D01*
X156646000Y-149184391D01*
X156646000Y-148283674D01*
X156757685Y-148334680D01*
X156864237Y-148350000D01*
X156935763Y-148350000D01*
X157042315Y-148334680D01*
X157154000Y-148283674D01*
X157154000Y-149184390D01*
X157234514Y-149170955D01*
X157447368Y-149097883D01*
X157645302Y-148990766D01*
X157822903Y-148852533D01*
X157975321Y-148686962D01*
X158098419Y-148498548D01*
X158188822Y-148292451D01*
X158236544Y-148104000D01*
X157331116Y-148104000D01*
X157359493Y-148059844D01*
X157400000Y-147921889D01*
X157400000Y-147778111D01*
X157359493Y-147640156D01*
X157331116Y-147596000D01*
X158236544Y-147596000D01*
X158236544Y-147595999D01*
X158188822Y-147407548D01*
X158098419Y-147201451D01*
X157975321Y-147013037D01*
X157822903Y-146847466D01*
X157645302Y-146709233D01*
X157447368Y-146602116D01*
X157234510Y-146529042D01*
X157154000Y-146515606D01*
X157154000Y-147416325D01*
X157042315Y-147365320D01*
X156935763Y-147350000D01*
X156864237Y-147350000D01*
X156757685Y-147365320D01*
X156646000Y-147416325D01*
X156646000Y-146515607D01*
X156645999Y-146515606D01*
X156565489Y-146529042D01*
X156352631Y-146602116D01*
X156154697Y-146709233D01*
X155977096Y-146847466D01*
X155824678Y-147013037D01*
X155735782Y-147149102D01*
X155681778Y-147195190D01*
X155611430Y-147204765D01*
X155547073Y-147174787D01*
X155524816Y-147149101D01*
X155454059Y-147040799D01*
X155435722Y-147012732D01*
X155283240Y-146847094D01*
X155283239Y-146847093D01*
X155283237Y-146847091D01*
X155105578Y-146708812D01*
X154907573Y-146601657D01*
X154754510Y-146549111D01*
X154694635Y-146528556D01*
X154472569Y-146491500D01*
X154247431Y-146491500D01*
X154025365Y-146528556D01*
X154025362Y-146528556D01*
X154025362Y-146528557D01*
X153812426Y-146601657D01*
X153614421Y-146708812D01*
X153436762Y-146847091D01*
X153284278Y-147012731D01*
X153195483Y-147148643D01*
X153141479Y-147194731D01*
X153071131Y-147204306D01*
X153006774Y-147174328D01*
X152984517Y-147148643D01*
X152914059Y-147040799D01*
X152895722Y-147012732D01*
X152743240Y-146847094D01*
X152743239Y-146847093D01*
X152743237Y-146847091D01*
X152565578Y-146708812D01*
X152367573Y-146601657D01*
X152214510Y-146549111D01*
X152154635Y-146528556D01*
X151932569Y-146491500D01*
X151707431Y-146491500D01*
X151485365Y-146528556D01*
X151485362Y-146528556D01*
X151485362Y-146528557D01*
X151272426Y-146601657D01*
X151074421Y-146708812D01*
X150896762Y-146847091D01*
X150744278Y-147012731D01*
X150655483Y-147148643D01*
X150601479Y-147194731D01*
X150531131Y-147204306D01*
X150466774Y-147174328D01*
X150444517Y-147148643D01*
X150374059Y-147040799D01*
X150355722Y-147012732D01*
X150203240Y-146847094D01*
X150203239Y-146847093D01*
X150203237Y-146847091D01*
X150025578Y-146708812D01*
X149979529Y-146683891D01*
X149929139Y-146633877D01*
X149913500Y-146573078D01*
X149913500Y-142619206D01*
X149933502Y-142551085D01*
X149945864Y-142534896D01*
X149959711Y-142519516D01*
X149989040Y-142486944D01*
X150084527Y-142321556D01*
X150143542Y-142139928D01*
X150163504Y-141950000D01*
X150143542Y-141760072D01*
X150084527Y-141578444D01*
X150084527Y-141578443D01*
X149989041Y-141413057D01*
X149861252Y-141271133D01*
X149706753Y-141158883D01*
X149706752Y-141158882D01*
X149532288Y-141081206D01*
X149345487Y-141041500D01*
X149154513Y-141041500D01*
X149029979Y-141067970D01*
X148967711Y-141081206D01*
X148793246Y-141158883D01*
X148638747Y-141271133D01*
X148510958Y-141413057D01*
X148415472Y-141578443D01*
X148356458Y-141760070D01*
X148336496Y-141949999D01*
X148356458Y-142139929D01*
X148415472Y-142321556D01*
X148510960Y-142486945D01*
X148614136Y-142601534D01*
X148644854Y-142665541D01*
X148646500Y-142685844D01*
X148646500Y-146573078D01*
X148626498Y-146641199D01*
X148580471Y-146683891D01*
X148534421Y-146708812D01*
X148356762Y-146847091D01*
X148204278Y-147012731D01*
X148115483Y-147148643D01*
X148061479Y-147194731D01*
X147991131Y-147204306D01*
X147926774Y-147174328D01*
X147904517Y-147148643D01*
X147834059Y-147040799D01*
X147815722Y-147012732D01*
X147663240Y-146847094D01*
X147663239Y-146847093D01*
X147663237Y-146847091D01*
X147485578Y-146708812D01*
X147439529Y-146683891D01*
X147389139Y-146633877D01*
X147373500Y-146573078D01*
X147373500Y-138449348D01*
X147375794Y-138428570D01*
X147375700Y-138425593D01*
X147375701Y-138425591D01*
X147373562Y-138357531D01*
X147373500Y-138353573D01*
X147373500Y-138329600D01*
X147373500Y-138325644D01*
X147372993Y-138321634D01*
X147372061Y-138309795D01*
X147370673Y-138265610D01*
X147365020Y-138246156D01*
X147361012Y-138226798D01*
X147358474Y-138206703D01*
X147342190Y-138165577D01*
X147338359Y-138154388D01*
X147326018Y-138111907D01*
X147315704Y-138094468D01*
X147307008Y-138076716D01*
X147299552Y-138057883D01*
X147273571Y-138022124D01*
X147267050Y-138012198D01*
X147244542Y-137974137D01*
X147230213Y-137959808D01*
X147217376Y-137944777D01*
X147205473Y-137928393D01*
X147171406Y-137900211D01*
X147162626Y-137892221D01*
X146997121Y-137726716D01*
X146963095Y-137664404D01*
X146960908Y-137650809D01*
X146943542Y-137485572D01*
X146884527Y-137303944D01*
X146884527Y-137303943D01*
X146789041Y-137138557D01*
X146661252Y-136996633D01*
X146506753Y-136884383D01*
X146506752Y-136884382D01*
X146332288Y-136806706D01*
X146145487Y-136767000D01*
X145954513Y-136767000D01*
X145829978Y-136793470D01*
X145767711Y-136806706D01*
X145593246Y-136884383D01*
X145438747Y-136996633D01*
X145310958Y-137138557D01*
X145215472Y-137303943D01*
X145156458Y-137485570D01*
X145136496Y-137675500D01*
X145156458Y-137865429D01*
X145215472Y-138047056D01*
X145310958Y-138212442D01*
X145310960Y-138212444D01*
X145438747Y-138354366D01*
X145593248Y-138466618D01*
X145767712Y-138544294D01*
X145954513Y-138584000D01*
X145980500Y-138584000D01*
X146048621Y-138604002D01*
X146095114Y-138657658D01*
X146106500Y-138710000D01*
X146106500Y-146573078D01*
X146086498Y-146641199D01*
X146040471Y-146683891D01*
X145994421Y-146708812D01*
X145816758Y-146847094D01*
X145755754Y-146913362D01*
X145694901Y-146949933D01*
X145623937Y-146947798D01*
X145565392Y-146907636D01*
X145544998Y-146872056D01*
X145535688Y-146847094D01*
X145500889Y-146753796D01*
X145500888Y-146753794D01*
X145413261Y-146636738D01*
X145296205Y-146549111D01*
X145206377Y-146515607D01*
X145159201Y-146498011D01*
X145098638Y-146491500D01*
X143301362Y-146491500D01*
X143298013Y-146491859D01*
X143298013Y-146491860D01*
X143240799Y-146498011D01*
X143103794Y-146549111D01*
X142986738Y-146636738D01*
X142899111Y-146753794D01*
X142855002Y-146872056D01*
X142848011Y-146890799D01*
X142841500Y-146951362D01*
X142841500Y-148748638D01*
X139103026Y-148748638D01*
X139168419Y-148648548D01*
X139258822Y-148442451D01*
X139306544Y-148254000D01*
X138401116Y-148254000D01*
X138429493Y-148209844D01*
X138470000Y-148071889D01*
X138470000Y-147928111D01*
X138429493Y-147790156D01*
X138401116Y-147746000D01*
X139306544Y-147746000D01*
X139306544Y-147745999D01*
X139258822Y-147557548D01*
X139168419Y-147351451D01*
X139045321Y-147163037D01*
X138892903Y-146997466D01*
X138715302Y-146859233D01*
X138517368Y-146752116D01*
X138304510Y-146679042D01*
X138224000Y-146665606D01*
X138224000Y-147566325D01*
X138112315Y-147515320D01*
X138005763Y-147500000D01*
X137934237Y-147500000D01*
X137827685Y-147515320D01*
X137716000Y-147566325D01*
X137716000Y-146665607D01*
X137715999Y-146665606D01*
X137635489Y-146679042D01*
X137422631Y-146752116D01*
X137224697Y-146859233D01*
X137047096Y-146997466D01*
X136894678Y-147163037D01*
X136805782Y-147299102D01*
X136751778Y-147345190D01*
X136681430Y-147354765D01*
X136617073Y-147324787D01*
X136594816Y-147299101D01*
X136533183Y-147204765D01*
X136505722Y-147162732D01*
X136353240Y-146997094D01*
X136353239Y-146997093D01*
X136353237Y-146997091D01*
X136175578Y-146858812D01*
X135977573Y-146751657D01*
X135780175Y-146683891D01*
X135764635Y-146678556D01*
X135542569Y-146641500D01*
X135317431Y-146641500D01*
X135095365Y-146678556D01*
X135095362Y-146678556D01*
X135095362Y-146678557D01*
X134882426Y-146751657D01*
X134684421Y-146858812D01*
X134506762Y-146997091D01*
X134354278Y-147162731D01*
X134265483Y-147298643D01*
X134211479Y-147344731D01*
X134141131Y-147354306D01*
X134076774Y-147324328D01*
X134054517Y-147298643D01*
X133993183Y-147204765D01*
X133965722Y-147162732D01*
X133813240Y-146997094D01*
X133813239Y-146997093D01*
X133813237Y-146997091D01*
X133635578Y-146858812D01*
X133437573Y-146751657D01*
X133240175Y-146683891D01*
X133224635Y-146678556D01*
X133002569Y-146641500D01*
X132777431Y-146641500D01*
X132555365Y-146678556D01*
X132555362Y-146678556D01*
X132555362Y-146678557D01*
X132342426Y-146751657D01*
X132144421Y-146858812D01*
X131966758Y-146997094D01*
X131905754Y-147063362D01*
X131844901Y-147099933D01*
X131773937Y-147097798D01*
X131715392Y-147057636D01*
X131694998Y-147022056D01*
X131685688Y-146997094D01*
X131650889Y-146903796D01*
X131627129Y-146872056D01*
X131563261Y-146786738D01*
X131446205Y-146699111D01*
X131356377Y-146665607D01*
X131309201Y-146648011D01*
X131248638Y-146641500D01*
X129451362Y-146641500D01*
X129448013Y-146641859D01*
X129448013Y-146641860D01*
X129390799Y-146648011D01*
X129253794Y-146699111D01*
X129136738Y-146786738D01*
X129049111Y-146903794D01*
X129008479Y-147012734D01*
X128998011Y-147040799D01*
X128991500Y-147101362D01*
X128991500Y-148898638D01*
X126710500Y-148898638D01*
X126710500Y-142252154D01*
X126711365Y-142247807D01*
X126711365Y-142224999D01*
X126708036Y-142216963D01*
X126702089Y-142214500D01*
X126700001Y-142213635D01*
X126677194Y-142213635D01*
X126672846Y-142214500D01*
X119836500Y-142214500D01*
X119768379Y-142194498D01*
X119721886Y-142140842D01*
X119710500Y-142088500D01*
X119710500Y-136148638D01*
X140691500Y-136148638D01*
X140698011Y-136209201D01*
X140714312Y-136252906D01*
X140749111Y-136346205D01*
X140836738Y-136463261D01*
X140953794Y-136550888D01*
X140953795Y-136550888D01*
X140953796Y-136550889D01*
X141090799Y-136601989D01*
X141151362Y-136608500D01*
X141154731Y-136608500D01*
X142945269Y-136608500D01*
X142948638Y-136608500D01*
X143009201Y-136601989D01*
X143146204Y-136550889D01*
X143263261Y-136463261D01*
X143350889Y-136346204D01*
X143394999Y-136227941D01*
X143437545Y-136171107D01*
X143504065Y-136146296D01*
X143573439Y-136161387D01*
X143605753Y-136186635D01*
X143643780Y-136227943D01*
X143666762Y-136252908D01*
X143786629Y-136346205D01*
X143844424Y-136391189D01*
X144042426Y-136498342D01*
X144255365Y-136571444D01*
X144477431Y-136608500D01*
X144477434Y-136608500D01*
X144702566Y-136608500D01*
X144702569Y-136608500D01*
X144924635Y-136571444D01*
X145137574Y-136498342D01*
X145335576Y-136391189D01*
X145513240Y-136252906D01*
X145665722Y-136087268D01*
X145754518Y-135951354D01*
X145808520Y-135905267D01*
X145878868Y-135895692D01*
X145943226Y-135925669D01*
X145965480Y-135951353D01*
X146054278Y-136087268D01*
X146183780Y-136227943D01*
X146206762Y-136252908D01*
X146326629Y-136346205D01*
X146384424Y-136391189D01*
X146582426Y-136498342D01*
X146795365Y-136571444D01*
X147017431Y-136608500D01*
X147017434Y-136608500D01*
X147242566Y-136608500D01*
X147242569Y-136608500D01*
X147464635Y-136571444D01*
X147677574Y-136498342D01*
X147875576Y-136391189D01*
X148053240Y-136252906D01*
X148205722Y-136087268D01*
X148294518Y-135951354D01*
X148348521Y-135905268D01*
X148418869Y-135895693D01*
X148483226Y-135925670D01*
X148505480Y-135951353D01*
X148594278Y-136087268D01*
X148706525Y-136209200D01*
X148746762Y-136252908D01*
X148866629Y-136346205D01*
X148924424Y-136391189D01*
X149122426Y-136498342D01*
X149335365Y-136571444D01*
X149557431Y-136608500D01*
X149557434Y-136608500D01*
X149782566Y-136608500D01*
X149782569Y-136608500D01*
X150004635Y-136571444D01*
X150217574Y-136498342D01*
X150415576Y-136391189D01*
X150593240Y-136252906D01*
X150745722Y-136087268D01*
X150834518Y-135951354D01*
X150888521Y-135905268D01*
X150958869Y-135895693D01*
X151023226Y-135925670D01*
X151045480Y-135951353D01*
X151134278Y-136087268D01*
X151246525Y-136209200D01*
X151286762Y-136252908D01*
X151406629Y-136346205D01*
X151464424Y-136391189D01*
X151662426Y-136498342D01*
X151875365Y-136571444D01*
X152097431Y-136608500D01*
X152097434Y-136608500D01*
X152322566Y-136608500D01*
X152322569Y-136608500D01*
X152544635Y-136571444D01*
X152757574Y-136498342D01*
X152955576Y-136391189D01*
X153133240Y-136252906D01*
X153285722Y-136087268D01*
X153408860Y-135898791D01*
X153499296Y-135692616D01*
X153554564Y-135474368D01*
X153573156Y-135250000D01*
X153554564Y-135025632D01*
X153499296Y-134807384D01*
X153408860Y-134601209D01*
X153285722Y-134412732D01*
X153133240Y-134247094D01*
X153133239Y-134247093D01*
X153133237Y-134247091D01*
X152955578Y-134108812D01*
X152757573Y-134001657D01*
X152604510Y-133949111D01*
X152544635Y-133928556D01*
X152322569Y-133891500D01*
X152097431Y-133891500D01*
X151875365Y-133928556D01*
X151875362Y-133928556D01*
X151875362Y-133928557D01*
X151662426Y-134001657D01*
X151464421Y-134108812D01*
X151286762Y-134247091D01*
X151134278Y-134412731D01*
X151045483Y-134548643D01*
X150991479Y-134594731D01*
X150921131Y-134604306D01*
X150856774Y-134574328D01*
X150834517Y-134548643D01*
X150745721Y-134412731D01*
X150685945Y-134347798D01*
X150593240Y-134247094D01*
X150593239Y-134247093D01*
X150593237Y-134247091D01*
X150415578Y-134108812D01*
X150217573Y-134001657D01*
X150064510Y-133949111D01*
X150004635Y-133928556D01*
X149782569Y-133891500D01*
X149557431Y-133891500D01*
X149335365Y-133928556D01*
X149335362Y-133928556D01*
X149335362Y-133928557D01*
X149122426Y-134001657D01*
X148924421Y-134108812D01*
X148746762Y-134247091D01*
X148594278Y-134412731D01*
X148505483Y-134548643D01*
X148451479Y-134594731D01*
X148381131Y-134604306D01*
X148316774Y-134574328D01*
X148294517Y-134548643D01*
X148205721Y-134412731D01*
X148145945Y-134347798D01*
X148053240Y-134247094D01*
X148053239Y-134247093D01*
X148053237Y-134247091D01*
X147875578Y-134108812D01*
X147677573Y-134001657D01*
X147524510Y-133949111D01*
X147464635Y-133928556D01*
X147242569Y-133891500D01*
X147017431Y-133891500D01*
X146795365Y-133928556D01*
X146795362Y-133928556D01*
X146795362Y-133928557D01*
X146582426Y-134001657D01*
X146384421Y-134108812D01*
X146206762Y-134247091D01*
X146054278Y-134412731D01*
X146008677Y-134482528D01*
X145965481Y-134548645D01*
X145911479Y-134594732D01*
X145841131Y-134604307D01*
X145776774Y-134574330D01*
X145754519Y-134548646D01*
X145665722Y-134412732D01*
X145513240Y-134247094D01*
X145513239Y-134247093D01*
X145513237Y-134247091D01*
X145335578Y-134108812D01*
X145137573Y-134001657D01*
X144984510Y-133949111D01*
X144924635Y-133928556D01*
X144702569Y-133891500D01*
X144477431Y-133891500D01*
X144255365Y-133928556D01*
X144255362Y-133928556D01*
X144255362Y-133928557D01*
X144042426Y-134001657D01*
X143844421Y-134108812D01*
X143666758Y-134247094D01*
X143605754Y-134313362D01*
X143544901Y-134349933D01*
X143473937Y-134347798D01*
X143415392Y-134307636D01*
X143394998Y-134272056D01*
X143385688Y-134247094D01*
X143350889Y-134153796D01*
X143350888Y-134153794D01*
X143263261Y-134036738D01*
X143146205Y-133949111D01*
X143077702Y-133923561D01*
X143009201Y-133898011D01*
X142948638Y-133891500D01*
X141151362Y-133891500D01*
X141148013Y-133891859D01*
X141148013Y-133891860D01*
X141090799Y-133898011D01*
X140953794Y-133949111D01*
X140836738Y-134036738D01*
X140749111Y-134153794D01*
X140714313Y-134247091D01*
X140698011Y-134290799D01*
X140691500Y-134351362D01*
X140691500Y-136148638D01*
X119710500Y-136148638D01*
X119710500Y-116126000D01*
X119730502Y-116057879D01*
X119784158Y-116011386D01*
X119836500Y-116000000D01*
X125626710Y-116000000D01*
X125694831Y-116020002D01*
X125741324Y-116073658D01*
X125751428Y-116143932D01*
X125721934Y-116208512D01*
X125715805Y-116215095D01*
X124301304Y-117629595D01*
X124238992Y-117663621D01*
X124212209Y-117666500D01*
X122658200Y-117666500D01*
X122590079Y-117646498D01*
X122564565Y-117624812D01*
X122561253Y-117621133D01*
X122406753Y-117508883D01*
X122406752Y-117508882D01*
X122232288Y-117431206D01*
X122045487Y-117391500D01*
X121854513Y-117391500D01*
X121729978Y-117417970D01*
X121667711Y-117431206D01*
X121493246Y-117508883D01*
X121338747Y-117621133D01*
X121210958Y-117763057D01*
X121115472Y-117928443D01*
X121056458Y-118110070D01*
X121036496Y-118299999D01*
X121056458Y-118489929D01*
X121115472Y-118671556D01*
X121210960Y-118836945D01*
X121281862Y-118915690D01*
X121312580Y-118979697D01*
X121303815Y-119050151D01*
X121281862Y-119084310D01*
X121210960Y-119163054D01*
X121115472Y-119328443D01*
X121056458Y-119510070D01*
X121036496Y-119700000D01*
X121056458Y-119889929D01*
X121115472Y-120071556D01*
X121210958Y-120236942D01*
X121210960Y-120236944D01*
X121338747Y-120378866D01*
X121493248Y-120491118D01*
X121667712Y-120568794D01*
X121854513Y-120608500D01*
X121854515Y-120608500D01*
X122045485Y-120608500D01*
X122045487Y-120608500D01*
X122232288Y-120568794D01*
X122406752Y-120491118D01*
X122561253Y-120378866D01*
X122564564Y-120375188D01*
X122625012Y-120337949D01*
X122658200Y-120333500D01*
X123666404Y-120333500D01*
X123734525Y-120353502D01*
X123781018Y-120407158D01*
X123791122Y-120477432D01*
X123761628Y-120542012D01*
X123755499Y-120548595D01*
X123599499Y-120704595D01*
X123537187Y-120738621D01*
X123510404Y-120741500D01*
X123454513Y-120741500D01*
X123336766Y-120766528D01*
X123267711Y-120781206D01*
X123093246Y-120858883D01*
X122938747Y-120971133D01*
X122810958Y-121113057D01*
X122715472Y-121278443D01*
X122656458Y-121460070D01*
X122636496Y-121650000D01*
X122656458Y-121839929D01*
X122715472Y-122021556D01*
X122810958Y-122186942D01*
X122901000Y-122286944D01*
X122938747Y-122328866D01*
X123093248Y-122441118D01*
X123267712Y-122518794D01*
X123454513Y-122558500D01*
X123454515Y-122558500D01*
X123645485Y-122558500D01*
X123645487Y-122558500D01*
X123832288Y-122518794D01*
X124006752Y-122441118D01*
X124006756Y-122441114D01*
X124013258Y-122438220D01*
X124083625Y-122428786D01*
X124138567Y-122451390D01*
X124193248Y-122491118D01*
X124367712Y-122568794D01*
X124554513Y-122608500D01*
X124554515Y-122608500D01*
X124745485Y-122608500D01*
X124745487Y-122608500D01*
X124932288Y-122568794D01*
X125106752Y-122491118D01*
X125261253Y-122378866D01*
X125389040Y-122236944D01*
X125484527Y-122071556D01*
X125543542Y-121889928D01*
X125560907Y-121724702D01*
X125587920Y-121659048D01*
X125597113Y-121648789D01*
X129026407Y-118219496D01*
X129088717Y-118185472D01*
X129159533Y-118190537D01*
X129216368Y-118233084D01*
X129241179Y-118299604D01*
X129241500Y-118308593D01*
X129241500Y-121241147D01*
X129239204Y-121261935D01*
X129241438Y-121332984D01*
X129241500Y-121336943D01*
X129241500Y-121364856D01*
X129241995Y-121368774D01*
X129241997Y-121368806D01*
X129242008Y-121368888D01*
X129242937Y-121380697D01*
X129244326Y-121424892D01*
X129249977Y-121444341D01*
X129253986Y-121463696D01*
X129256525Y-121483794D01*
X129272801Y-121524903D01*
X129276644Y-121536130D01*
X129288980Y-121578590D01*
X129299294Y-121596030D01*
X129307987Y-121613774D01*
X129315448Y-121632617D01*
X129315449Y-121632619D01*
X129341431Y-121668380D01*
X129347947Y-121678300D01*
X129371676Y-121718422D01*
X129388534Y-121769392D01*
X129406458Y-121939929D01*
X129465472Y-122121556D01*
X129560958Y-122286942D01*
X129560960Y-122286944D01*
X129688747Y-122428866D01*
X129843248Y-122541118D01*
X130017712Y-122618794D01*
X130204513Y-122658500D01*
X130204515Y-122658500D01*
X130395485Y-122658500D01*
X130395487Y-122658500D01*
X130582288Y-122618794D01*
X130756752Y-122541118D01*
X130885352Y-122447684D01*
X130952215Y-122423828D01*
X131021367Y-122439908D01*
X131033466Y-122447684D01*
X131093248Y-122491118D01*
X131267712Y-122568794D01*
X131454513Y-122608500D01*
X131454515Y-122608500D01*
X131645485Y-122608500D01*
X131645487Y-122608500D01*
X131832288Y-122568794D01*
X132006752Y-122491118D01*
X132161253Y-122378866D01*
X132289040Y-122236944D01*
X132384527Y-122071556D01*
X132443542Y-121889928D01*
X132463504Y-121700000D01*
X132443542Y-121510072D01*
X132387289Y-121336943D01*
X132384527Y-121328443D01*
X132289041Y-121163057D01*
X132215863Y-121081783D01*
X132185146Y-121017775D01*
X132183500Y-120997473D01*
X132183500Y-113617119D01*
X132203502Y-113548998D01*
X132257158Y-113502505D01*
X132327432Y-113492401D01*
X132335678Y-113493868D01*
X132404513Y-113508500D01*
X132460406Y-113508500D01*
X132528527Y-113528502D01*
X132549501Y-113545405D01*
X134829595Y-115825499D01*
X134863621Y-115887811D01*
X134866500Y-115914594D01*
X134866500Y-117197473D01*
X134846498Y-117265594D01*
X134834137Y-117281783D01*
X134760958Y-117363057D01*
X134665472Y-117528443D01*
X134606458Y-117710070D01*
X134606457Y-117710072D01*
X134606458Y-117710072D01*
X134586496Y-117900000D01*
X134589486Y-117928444D01*
X134606458Y-118089929D01*
X134665472Y-118271556D01*
X134760958Y-118436942D01*
X134760960Y-118436944D01*
X134834137Y-118518215D01*
X134864853Y-118582220D01*
X134866500Y-118602524D01*
X134866500Y-122366147D01*
X134864204Y-122386935D01*
X134866438Y-122457984D01*
X134866500Y-122461943D01*
X134866500Y-122489856D01*
X134866995Y-122493774D01*
X134866997Y-122493806D01*
X134867008Y-122493888D01*
X134867937Y-122505697D01*
X134869326Y-122549892D01*
X134874977Y-122569341D01*
X134878986Y-122588696D01*
X134881525Y-122608794D01*
X134897801Y-122649903D01*
X134901644Y-122661130D01*
X134913980Y-122703590D01*
X134924294Y-122721030D01*
X134932987Y-122738774D01*
X134940448Y-122757617D01*
X134940449Y-122757619D01*
X134966431Y-122793380D01*
X134972948Y-122803301D01*
X134995458Y-122841363D01*
X135009778Y-122855683D01*
X135022618Y-122870716D01*
X135034526Y-122887105D01*
X135068598Y-122915292D01*
X135077366Y-122923270D01*
X135327097Y-123173001D01*
X135361120Y-123235310D01*
X135364000Y-123262093D01*
X135364000Y-124166325D01*
X135252315Y-124115320D01*
X135145763Y-124100000D01*
X135074237Y-124100000D01*
X134967685Y-124115320D01*
X134856000Y-124166325D01*
X134856000Y-123242000D01*
X134214777Y-123242000D01*
X134208063Y-123242359D01*
X134150906Y-123248505D01*
X134014037Y-123299554D01*
X133897095Y-123387095D01*
X133809554Y-123504037D01*
X133758505Y-123640906D01*
X133752359Y-123698063D01*
X133752000Y-123704777D01*
X133752000Y-124346000D01*
X134678884Y-124346000D01*
X134650507Y-124390156D01*
X134610000Y-124528111D01*
X134610000Y-124671889D01*
X134650507Y-124809844D01*
X134678884Y-124854000D01*
X133752000Y-124854000D01*
X133752000Y-125495222D01*
X133752359Y-125501936D01*
X133758505Y-125559093D01*
X133809554Y-125695962D01*
X133897095Y-125812904D01*
X134014037Y-125900445D01*
X134150906Y-125951494D01*
X134208063Y-125957640D01*
X134214777Y-125958000D01*
X134856000Y-125958000D01*
X134856000Y-125033674D01*
X134967685Y-125084680D01*
X135074237Y-125100000D01*
X135145763Y-125100000D01*
X135252315Y-125084680D01*
X135364000Y-125033674D01*
X135364000Y-125958000D01*
X136005223Y-125958000D01*
X136011936Y-125957640D01*
X136069093Y-125951494D01*
X136205962Y-125900445D01*
X136322904Y-125812904D01*
X136410445Y-125695962D01*
X136454618Y-125577530D01*
X136497164Y-125520694D01*
X136563685Y-125495883D01*
X136633059Y-125510974D01*
X136665372Y-125536222D01*
X136686427Y-125559093D01*
X136726762Y-125602908D01*
X136846317Y-125695962D01*
X136904424Y-125741189D01*
X137102426Y-125848342D01*
X137315365Y-125921444D01*
X137537431Y-125958500D01*
X137537434Y-125958500D01*
X137762566Y-125958500D01*
X137762569Y-125958500D01*
X137984635Y-125921444D01*
X138197574Y-125848342D01*
X138395576Y-125741189D01*
X138573240Y-125602906D01*
X138725722Y-125437268D01*
X138848860Y-125248791D01*
X138939296Y-125042616D01*
X138994564Y-124824368D01*
X139013156Y-124600000D01*
X138994564Y-124375632D01*
X138939296Y-124157384D01*
X138848860Y-123951209D01*
X138725722Y-123762732D01*
X138573240Y-123597094D01*
X138573239Y-123597093D01*
X138573237Y-123597091D01*
X138395578Y-123458812D01*
X138197573Y-123351657D01*
X138045800Y-123299554D01*
X137984635Y-123278556D01*
X137762569Y-123241500D01*
X137537431Y-123241500D01*
X137315365Y-123278556D01*
X137315360Y-123278557D01*
X137305068Y-123280275D01*
X137304529Y-123277046D01*
X137251119Y-123279440D01*
X137192076Y-123246171D01*
X136170405Y-122224500D01*
X136136379Y-122162188D01*
X136133500Y-122135405D01*
X136133500Y-120300000D01*
X138986496Y-120300000D01*
X139006458Y-120489929D01*
X139065472Y-120671556D01*
X139160958Y-120836942D01*
X139263737Y-120951090D01*
X139288747Y-120978866D01*
X139443248Y-121091118D01*
X139617712Y-121168794D01*
X139804513Y-121208500D01*
X139804515Y-121208500D01*
X139995485Y-121208500D01*
X139995487Y-121208500D01*
X140182288Y-121168794D01*
X140356752Y-121091118D01*
X140511253Y-120978866D01*
X140639040Y-120836944D01*
X140734527Y-120671556D01*
X140793542Y-120489928D01*
X140813504Y-120300000D01*
X140812335Y-120288880D01*
X140825104Y-120219044D01*
X140827212Y-120215040D01*
X140843695Y-120185060D01*
X140848733Y-120165434D01*
X140855137Y-120146732D01*
X140863181Y-120128144D01*
X140866044Y-120110070D01*
X140870096Y-120084481D01*
X140872504Y-120072853D01*
X140883500Y-120030029D01*
X140883500Y-120009775D01*
X140885051Y-119990063D01*
X140888220Y-119970057D01*
X140884738Y-119933227D01*
X140884059Y-119926036D01*
X140883500Y-119914179D01*
X140883500Y-119784500D01*
X140903502Y-119716379D01*
X140957158Y-119669886D01*
X141009500Y-119658500D01*
X141145485Y-119658500D01*
X141145487Y-119658500D01*
X141332288Y-119618794D01*
X141506752Y-119541118D01*
X141661253Y-119428866D01*
X141789040Y-119286944D01*
X141884527Y-119121556D01*
X141943542Y-118939928D01*
X141963504Y-118750000D01*
X141943542Y-118560072D01*
X141884527Y-118378444D01*
X141884527Y-118378443D01*
X141789041Y-118213057D01*
X141715863Y-118131783D01*
X141685146Y-118067775D01*
X141683500Y-118047473D01*
X141683500Y-113733853D01*
X141685795Y-113713063D01*
X141683562Y-113642013D01*
X141683500Y-113638054D01*
X141683500Y-113614107D01*
X141683500Y-113614106D01*
X141683500Y-113610144D01*
X141682994Y-113606147D01*
X141682061Y-113594297D01*
X141680673Y-113550110D01*
X141675020Y-113530656D01*
X141671012Y-113511298D01*
X141668474Y-113491203D01*
X141652195Y-113450090D01*
X141648353Y-113438869D01*
X141636018Y-113396407D01*
X141636017Y-113396406D01*
X141636017Y-113396404D01*
X141625707Y-113378971D01*
X141617008Y-113361215D01*
X141609552Y-113342383D01*
X141583565Y-113306616D01*
X141577047Y-113296693D01*
X141554540Y-113258635D01*
X141547122Y-113251217D01*
X141513096Y-113188905D01*
X141510907Y-113175293D01*
X141493542Y-113010072D01*
X141434527Y-112828444D01*
X141434527Y-112828443D01*
X141339041Y-112663057D01*
X141211252Y-112521133D01*
X141056753Y-112408883D01*
X141056752Y-112408882D01*
X140882288Y-112331206D01*
X140695487Y-112291500D01*
X140504513Y-112291500D01*
X140379979Y-112317970D01*
X140317711Y-112331206D01*
X140143246Y-112408883D01*
X139988747Y-112521133D01*
X139860958Y-112663057D01*
X139765472Y-112828443D01*
X139706458Y-113010070D01*
X139686496Y-113199999D01*
X139706458Y-113389929D01*
X139765472Y-113571556D01*
X139860958Y-113736942D01*
X139868188Y-113744972D01*
X139898905Y-113808980D01*
X139890140Y-113879434D01*
X139844676Y-113933964D01*
X139825801Y-113944388D01*
X139793248Y-113958881D01*
X139638747Y-114071133D01*
X139510958Y-114213057D01*
X139415472Y-114378443D01*
X139356458Y-114560070D01*
X139336496Y-114749999D01*
X139356458Y-114939929D01*
X139415472Y-115121556D01*
X139510958Y-115286942D01*
X139510960Y-115286944D01*
X139584137Y-115368215D01*
X139614853Y-115432220D01*
X139616500Y-115452524D01*
X139616500Y-119349919D01*
X139596498Y-119418040D01*
X139542842Y-119464533D01*
X139541750Y-119465025D01*
X139443248Y-119508881D01*
X139288747Y-119621133D01*
X139160958Y-119763057D01*
X139065472Y-119928443D01*
X139006458Y-120110070D01*
X138986496Y-120300000D01*
X136133500Y-120300000D01*
X136133500Y-118602524D01*
X136153502Y-118534403D01*
X136165858Y-118518220D01*
X136239040Y-118436944D01*
X136334527Y-118271556D01*
X136393542Y-118089928D01*
X136413504Y-117900000D01*
X136393542Y-117710072D01*
X136334527Y-117528444D01*
X136334527Y-117528443D01*
X136239041Y-117363057D01*
X136165863Y-117281783D01*
X136135146Y-117217775D01*
X136133500Y-117197473D01*
X136133500Y-115683853D01*
X136135795Y-115663062D01*
X136133562Y-115592000D01*
X136133500Y-115588042D01*
X136133500Y-115564108D01*
X136133500Y-115560144D01*
X136132995Y-115556152D01*
X136132062Y-115544306D01*
X136130674Y-115500111D01*
X136125019Y-115480647D01*
X136121013Y-115461307D01*
X136118474Y-115441203D01*
X136102195Y-115400087D01*
X136098356Y-115388872D01*
X136086019Y-115346407D01*
X136075703Y-115328964D01*
X136067007Y-115311214D01*
X136059552Y-115292383D01*
X136033554Y-115256600D01*
X136027058Y-115246710D01*
X136004542Y-115208638D01*
X135990212Y-115194308D01*
X135977378Y-115179281D01*
X135965472Y-115162893D01*
X135965471Y-115162892D01*
X135931394Y-115134700D01*
X135922616Y-115126712D01*
X133447121Y-112651216D01*
X133413095Y-112588904D01*
X133410908Y-112575309D01*
X133393542Y-112410072D01*
X133334527Y-112228444D01*
X133334527Y-112228443D01*
X133239041Y-112063057D01*
X133111252Y-111921133D01*
X132956753Y-111808883D01*
X132956752Y-111808882D01*
X132782288Y-111731206D01*
X132595487Y-111691500D01*
X132404513Y-111691500D01*
X132404512Y-111691500D01*
X132335694Y-111706127D01*
X132264904Y-111700724D01*
X132208272Y-111657907D01*
X132183779Y-111591269D01*
X132183500Y-111582909D01*
X132183499Y-109952523D01*
X132203502Y-109884403D01*
X132215858Y-109868220D01*
X132289040Y-109786944D01*
X132384527Y-109621556D01*
X132443542Y-109439928D01*
X132463504Y-109250000D01*
X132443542Y-109060072D01*
X132384527Y-108878444D01*
X132384527Y-108878443D01*
X132289041Y-108713057D01*
X132161252Y-108571133D01*
X132065863Y-108501829D01*
X132006752Y-108458882D01*
X131832288Y-108381206D01*
X131645487Y-108341500D01*
X131454513Y-108341500D01*
X131336578Y-108366568D01*
X131267711Y-108381206D01*
X131093246Y-108458883D01*
X130974059Y-108545477D01*
X130907191Y-108569335D01*
X130838040Y-108553254D01*
X130825938Y-108545476D01*
X130765863Y-108501829D01*
X130706752Y-108458882D01*
X130532288Y-108381206D01*
X130345487Y-108341500D01*
X130154513Y-108341500D01*
X130036578Y-108366568D01*
X129967711Y-108381206D01*
X129793246Y-108458883D01*
X129699060Y-108527313D01*
X129632192Y-108551171D01*
X129563041Y-108535090D01*
X129550940Y-108527313D01*
X129456753Y-108458883D01*
X129456752Y-108458882D01*
X129282288Y-108381206D01*
X129095487Y-108341500D01*
X129095485Y-108341500D01*
X129034989Y-108341500D01*
X128966868Y-108321498D01*
X128920375Y-108267842D01*
X128908989Y-108215500D01*
X128908989Y-97434011D01*
X128928991Y-97365890D01*
X128982647Y-97319397D01*
X129034989Y-97308011D01*
X131291636Y-97308011D01*
X131312424Y-97310306D01*
X131315396Y-97310212D01*
X131315398Y-97310213D01*
X131383474Y-97308073D01*
X131387434Y-97308011D01*
X131411383Y-97308011D01*
X131415345Y-97308011D01*
X131419345Y-97307505D01*
X131431188Y-97306572D01*
X131475378Y-97305184D01*
X131494827Y-97299532D01*
X131514187Y-97295523D01*
X131534286Y-97292985D01*
X131575404Y-97276704D01*
X131586606Y-97272868D01*
X131629082Y-97260529D01*
X131646528Y-97250210D01*
X131664269Y-97241520D01*
X131683106Y-97234063D01*
X131718881Y-97208069D01*
X131728792Y-97201559D01*
X131766851Y-97179053D01*
X131781180Y-97164723D01*
X131796208Y-97151888D01*
X131812596Y-97139983D01*
X131840787Y-97105904D01*
X131848757Y-97097145D01*
X133050500Y-95895404D01*
X133112813Y-95861379D01*
X133139596Y-95858500D01*
X133195485Y-95858500D01*
X133195487Y-95858500D01*
X133382288Y-95818794D01*
X133556752Y-95741118D01*
X133711253Y-95628866D01*
X133839040Y-95486944D01*
X133934527Y-95321556D01*
X133993542Y-95139928D01*
X134013504Y-94950000D01*
X133993542Y-94760072D01*
X133934527Y-94578444D01*
X133934527Y-94578443D01*
X133839041Y-94413057D01*
X133711252Y-94271133D01*
X133556753Y-94158883D01*
X133556752Y-94158882D01*
X133382288Y-94081206D01*
X133195487Y-94041500D01*
X133004513Y-94041500D01*
X132879979Y-94067970D01*
X132817711Y-94081206D01*
X132643246Y-94158883D01*
X132488747Y-94271133D01*
X132360958Y-94413057D01*
X132265472Y-94578443D01*
X132206458Y-94760070D01*
X132189093Y-94925292D01*
X132162080Y-94990949D01*
X132152878Y-95001216D01*
X131149989Y-96004106D01*
X131087677Y-96038131D01*
X131060894Y-96041011D01*
X128347282Y-96041011D01*
X128323673Y-96038779D01*
X128320275Y-96038131D01*
X128315580Y-96037235D01*
X128259538Y-96040762D01*
X128251626Y-96041011D01*
X128235633Y-96041011D01*
X128231727Y-96041504D01*
X128231715Y-96041505D01*
X128219762Y-96043015D01*
X128211893Y-96043758D01*
X128155837Y-96047285D01*
X128147996Y-96049833D01*
X128124865Y-96055004D01*
X128116692Y-96056036D01*
X128064493Y-96076703D01*
X128057051Y-96079382D01*
X128003615Y-96096745D01*
X127996648Y-96101167D01*
X127975527Y-96111928D01*
X127967874Y-96114958D01*
X127967873Y-96114958D01*
X127967872Y-96114959D01*
X127938084Y-96136599D01*
X127922444Y-96147963D01*
X127915903Y-96152407D01*
X127868473Y-96182508D01*
X127862825Y-96188523D01*
X127845041Y-96204200D01*
X127840554Y-96207460D01*
X127773686Y-96231319D01*
X127704535Y-96215238D01*
X127692432Y-96207460D01*
X127616658Y-96152407D01*
X127556752Y-96108882D01*
X127382288Y-96031206D01*
X127195487Y-95991500D01*
X127004513Y-95991500D01*
X126817712Y-96031206D01*
X126817708Y-96031207D01*
X126804759Y-96033960D01*
X126803935Y-96030088D01*
X126756854Y-96036390D01*
X126692564Y-96006269D01*
X126654764Y-95946172D01*
X126650000Y-95911853D01*
X126650000Y-91000000D01*
X137586496Y-91000000D01*
X137606458Y-91189929D01*
X137665472Y-91371556D01*
X137760958Y-91536942D01*
X137760960Y-91536944D01*
X137888747Y-91678866D01*
X138043248Y-91791118D01*
X138217712Y-91868794D01*
X138404513Y-91908500D01*
X138404515Y-91908500D01*
X138595485Y-91908500D01*
X138595487Y-91908500D01*
X138782288Y-91868794D01*
X138956752Y-91791118D01*
X139111253Y-91678866D01*
X139114564Y-91675188D01*
X139175012Y-91637949D01*
X139208200Y-91633500D01*
X141341800Y-91633500D01*
X141409921Y-91653502D01*
X141435435Y-91675188D01*
X141438746Y-91678866D01*
X141479691Y-91708614D01*
X141593248Y-91791118D01*
X141767712Y-91868794D01*
X141954513Y-91908500D01*
X141954515Y-91908500D01*
X142145485Y-91908500D01*
X142145487Y-91908500D01*
X142332288Y-91868794D01*
X142506752Y-91791118D01*
X142661253Y-91678866D01*
X142696376Y-91639857D01*
X142756820Y-91602619D01*
X142827803Y-91603970D01*
X142886788Y-91643484D01*
X142915047Y-91708614D01*
X142916011Y-91724169D01*
X142916011Y-100085894D01*
X142896009Y-100154015D01*
X142879106Y-100174989D01*
X139349500Y-103704595D01*
X139287188Y-103738621D01*
X139260405Y-103741500D01*
X139204513Y-103741500D01*
X139079978Y-103767970D01*
X139017711Y-103781206D01*
X138843246Y-103858883D01*
X138688747Y-103971133D01*
X138560958Y-104113057D01*
X138465472Y-104278443D01*
X138406458Y-104460070D01*
X138386496Y-104650000D01*
X138406458Y-104839929D01*
X138465472Y-105021556D01*
X138567581Y-105198413D01*
X138565237Y-105199766D01*
X138587661Y-105246492D01*
X138578898Y-105316945D01*
X138572427Y-105329795D01*
X138515472Y-105428443D01*
X138456458Y-105610070D01*
X138436496Y-105800000D01*
X138456458Y-105989929D01*
X138515472Y-106171556D01*
X138610958Y-106336942D01*
X138610960Y-106336944D01*
X138738747Y-106478866D01*
X138893248Y-106591118D01*
X139067712Y-106668794D01*
X139254513Y-106708500D01*
X139254515Y-106708500D01*
X139445485Y-106708500D01*
X139445487Y-106708500D01*
X139632288Y-106668794D01*
X139806752Y-106591118D01*
X139961253Y-106478866D01*
X140089040Y-106336944D01*
X140184527Y-106171556D01*
X140243542Y-105989928D01*
X140263504Y-105800000D01*
X140251431Y-105685135D01*
X140264203Y-105615297D01*
X140287643Y-105582873D01*
X140920516Y-104950000D01*
X145986619Y-104950000D01*
X146006090Y-105147699D01*
X146047954Y-105285702D01*
X146063758Y-105337802D01*
X146157404Y-105513004D01*
X146283433Y-105666569D01*
X146317135Y-105694227D01*
X146326298Y-105702532D01*
X150347461Y-109723695D01*
X150355766Y-109732857D01*
X150383434Y-109766571D01*
X150536992Y-109892593D01*
X150536996Y-109892595D01*
X150712196Y-109986241D01*
X150729689Y-109991547D01*
X150769865Y-110003735D01*
X150902300Y-110043909D01*
X151099998Y-110063380D01*
X151099999Y-110063379D01*
X151100000Y-110063380D01*
X151143387Y-110059106D01*
X151155737Y-110058500D01*
X152146455Y-110058500D01*
X152149547Y-110058500D01*
X152297701Y-110043908D01*
X152487804Y-109986241D01*
X152663004Y-109892595D01*
X152663005Y-109892593D01*
X152663007Y-109892593D01*
X152816568Y-109766568D01*
X152942593Y-109613007D01*
X152942595Y-109613004D01*
X153036241Y-109437804D01*
X153093908Y-109247701D01*
X153113380Y-109050000D01*
X153102802Y-108942595D01*
X153093908Y-108852298D01*
X153051669Y-108713056D01*
X153036241Y-108662196D01*
X152942595Y-108486996D01*
X152942593Y-108486992D01*
X152816568Y-108333431D01*
X152663007Y-108207406D01*
X152487802Y-108113758D01*
X152297701Y-108056091D01*
X152152627Y-108041803D01*
X152152619Y-108041802D01*
X152149547Y-108041500D01*
X152146455Y-108041500D01*
X151569924Y-108041500D01*
X151501803Y-108021498D01*
X151480829Y-108004595D01*
X148045405Y-104569171D01*
X148011379Y-104506859D01*
X148008500Y-104480076D01*
X148008500Y-97503545D01*
X148008500Y-97500453D01*
X147993908Y-97352299D01*
X147983927Y-97319397D01*
X147960303Y-97241517D01*
X147936241Y-97162196D01*
X147842595Y-96986996D01*
X147842593Y-96986992D01*
X147716568Y-96833431D01*
X147563007Y-96707406D01*
X147387802Y-96613758D01*
X147197701Y-96556091D01*
X147000000Y-96536619D01*
X146802298Y-96556091D01*
X146612197Y-96613758D01*
X146436992Y-96707406D01*
X146283431Y-96833431D01*
X146157406Y-96986992D01*
X146063758Y-97162197D01*
X146006091Y-97352298D01*
X145991803Y-97497372D01*
X145991500Y-97500453D01*
X145991500Y-97503544D01*
X145991500Y-97503545D01*
X145991500Y-104894262D01*
X145990893Y-104906613D01*
X145986619Y-104950000D01*
X140920516Y-104950000D01*
X144638658Y-101231858D01*
X144654979Y-101218784D01*
X144657014Y-101216616D01*
X144657018Y-101216614D01*
X144703676Y-101166926D01*
X144706368Y-101164148D01*
X144726134Y-101144384D01*
X144728601Y-101141202D01*
X144736308Y-101132176D01*
X144766586Y-101099935D01*
X144776343Y-101082184D01*
X144787199Y-101065657D01*
X144799613Y-101049655D01*
X144817172Y-101009075D01*
X144822392Y-100998423D01*
X144843694Y-100959675D01*
X144843695Y-100959674D01*
X144848732Y-100940053D01*
X144855138Y-100921344D01*
X144863181Y-100902759D01*
X144870096Y-100859090D01*
X144872496Y-100847495D01*
X144883500Y-100804644D01*
X144883500Y-100784383D01*
X144885051Y-100764672D01*
X144888219Y-100744669D01*
X144884059Y-100700659D01*
X144883500Y-100688802D01*
X144883500Y-84769593D01*
X144903502Y-84701472D01*
X144920405Y-84680498D01*
X146955498Y-82645405D01*
X147017810Y-82611379D01*
X147044593Y-82608500D01*
X147267566Y-82608500D01*
X147267569Y-82608500D01*
X147489635Y-82571444D01*
X147702574Y-82498342D01*
X147900576Y-82391189D01*
X148078240Y-82252906D01*
X148230722Y-82087268D01*
X148319518Y-81951354D01*
X148373520Y-81905267D01*
X148443868Y-81895692D01*
X148508226Y-81925669D01*
X148530480Y-81951353D01*
X148619278Y-82087268D01*
X148771417Y-82252533D01*
X148771762Y-82252908D01*
X148949421Y-82391187D01*
X148949424Y-82391189D01*
X149147426Y-82498342D01*
X149360365Y-82571444D01*
X149582431Y-82608500D01*
X149582434Y-82608500D01*
X149807566Y-82608500D01*
X149807569Y-82608500D01*
X150029635Y-82571444D01*
X150242574Y-82498342D01*
X150440576Y-82391189D01*
X150618240Y-82252906D01*
X150770722Y-82087268D01*
X150859817Y-81950896D01*
X150913819Y-81904809D01*
X150984167Y-81895234D01*
X151048524Y-81925211D01*
X151070782Y-81950897D01*
X151159678Y-82086962D01*
X151312096Y-82252533D01*
X151489697Y-82390766D01*
X151687631Y-82497883D01*
X151900485Y-82570955D01*
X151981000Y-82584391D01*
X151981000Y-81683674D01*
X152092685Y-81734680D01*
X152199237Y-81750000D01*
X152270763Y-81750000D01*
X152377315Y-81734680D01*
X152489000Y-81683674D01*
X152489000Y-82584390D01*
X152569514Y-82570955D01*
X152782368Y-82497883D01*
X152980302Y-82390766D01*
X153157903Y-82252533D01*
X153310321Y-82086962D01*
X153433419Y-81898548D01*
X153523822Y-81692451D01*
X153571544Y-81504000D01*
X152666116Y-81504000D01*
X152694493Y-81459844D01*
X152735000Y-81321889D01*
X152735000Y-81178111D01*
X152694493Y-81040156D01*
X152666116Y-80996000D01*
X153571544Y-80996000D01*
X153571544Y-80995999D01*
X153523822Y-80807548D01*
X153433419Y-80601451D01*
X153310321Y-80413037D01*
X153157903Y-80247466D01*
X152980302Y-80109233D01*
X152782368Y-80002116D01*
X152569510Y-79929042D01*
X152489000Y-79915606D01*
X152489000Y-80816325D01*
X152377315Y-80765320D01*
X152270763Y-80750000D01*
X152199237Y-80750000D01*
X152092685Y-80765320D01*
X151981000Y-80816325D01*
X151981000Y-79915607D01*
X151980999Y-79915606D01*
X151900489Y-79929042D01*
X151687631Y-80002116D01*
X151489697Y-80109233D01*
X151312096Y-80247466D01*
X151159678Y-80413037D01*
X151070782Y-80549102D01*
X151016778Y-80595190D01*
X150946430Y-80604765D01*
X150882073Y-80574787D01*
X150859816Y-80549101D01*
X150770722Y-80412732D01*
X150618240Y-80247094D01*
X150618239Y-80247093D01*
X150618237Y-80247091D01*
X150440578Y-80108812D01*
X150242573Y-80001657D01*
X150089510Y-79949111D01*
X150029635Y-79928556D01*
X149807569Y-79891500D01*
X149582431Y-79891500D01*
X149360365Y-79928556D01*
X149360362Y-79928556D01*
X149360362Y-79928557D01*
X149147426Y-80001657D01*
X148949421Y-80108812D01*
X148771762Y-80247091D01*
X148619278Y-80412731D01*
X148586690Y-80462611D01*
X148530481Y-80548645D01*
X148476479Y-80594732D01*
X148406131Y-80604307D01*
X148341774Y-80574330D01*
X148319519Y-80548646D01*
X148230722Y-80412732D01*
X148078240Y-80247094D01*
X148078239Y-80247093D01*
X148078237Y-80247091D01*
X147900578Y-80108812D01*
X147702573Y-80001657D01*
X147549510Y-79949111D01*
X147489635Y-79928556D01*
X147267569Y-79891500D01*
X147042431Y-79891500D01*
X146820365Y-79928556D01*
X146820362Y-79928556D01*
X146820362Y-79928557D01*
X146607426Y-80001657D01*
X146409421Y-80108812D01*
X146231762Y-80247091D01*
X146079278Y-80412731D01*
X145990483Y-80548643D01*
X145936479Y-80594731D01*
X145866131Y-80604306D01*
X145801774Y-80574328D01*
X145779517Y-80548643D01*
X145723313Y-80462616D01*
X145690722Y-80412732D01*
X145538240Y-80247094D01*
X145538239Y-80247093D01*
X145538237Y-80247091D01*
X145360578Y-80108812D01*
X145162573Y-80001657D01*
X145009510Y-79949111D01*
X144949635Y-79928556D01*
X144727569Y-79891500D01*
X144502431Y-79891500D01*
X144280365Y-79928556D01*
X144280362Y-79928556D01*
X144280362Y-79928557D01*
X144067426Y-80001657D01*
X143869421Y-80108812D01*
X143691758Y-80247094D01*
X143630754Y-80313362D01*
X143569901Y-80349933D01*
X143498937Y-80347798D01*
X143440392Y-80307636D01*
X143419998Y-80272056D01*
X143410688Y-80247094D01*
X143375889Y-80153796D01*
X143375888Y-80153794D01*
X143288261Y-80036738D01*
X143171205Y-79949111D01*
X143081377Y-79915607D01*
X143034201Y-79898011D01*
X142973638Y-79891500D01*
X141176362Y-79891500D01*
X141173013Y-79891859D01*
X141173013Y-79891860D01*
X141115799Y-79898011D01*
X140978794Y-79949111D01*
X140861738Y-80036738D01*
X140774111Y-80153794D01*
X140738271Y-80249886D01*
X140723011Y-80290799D01*
X140716500Y-80351362D01*
X140716500Y-82148638D01*
X140716860Y-82151986D01*
X140723011Y-82209202D01*
X140748062Y-82276364D01*
X140753128Y-82347179D01*
X140719103Y-82409492D01*
X140719102Y-82409492D01*
X138599500Y-84529095D01*
X138537188Y-84563120D01*
X138510405Y-84566000D01*
X138454513Y-84566000D01*
X138329978Y-84592470D01*
X138267711Y-84605706D01*
X138093246Y-84683383D01*
X137938747Y-84795633D01*
X137810958Y-84937557D01*
X137715472Y-85102943D01*
X137656458Y-85284570D01*
X137636496Y-85474500D01*
X137656458Y-85664429D01*
X137715472Y-85846056D01*
X137810958Y-86011442D01*
X137938747Y-86153365D01*
X137938747Y-86153366D01*
X138093248Y-86265618D01*
X138267712Y-86343294D01*
X138454513Y-86383000D01*
X138454515Y-86383000D01*
X138645485Y-86383000D01*
X138645487Y-86383000D01*
X138832288Y-86343294D01*
X139006752Y-86265618D01*
X139161253Y-86153366D01*
X139289040Y-86011444D01*
X139384527Y-85846056D01*
X139443542Y-85664428D01*
X139460907Y-85499203D01*
X139487919Y-85433550D01*
X139497112Y-85423291D01*
X142274999Y-82645405D01*
X142337312Y-82611379D01*
X142364095Y-82608500D01*
X142790011Y-82608500D01*
X142858132Y-82628502D01*
X142904625Y-82682158D01*
X142916011Y-82734500D01*
X142916011Y-90275830D01*
X142896009Y-90343951D01*
X142842353Y-90390444D01*
X142772079Y-90400548D01*
X142707499Y-90371054D01*
X142696375Y-90360141D01*
X142661252Y-90321133D01*
X142506753Y-90208883D01*
X142506752Y-90208882D01*
X142332288Y-90131206D01*
X142145487Y-90091500D01*
X141954513Y-90091500D01*
X141829979Y-90117970D01*
X141767711Y-90131206D01*
X141593246Y-90208883D01*
X141438746Y-90321133D01*
X141435435Y-90324812D01*
X141374988Y-90362051D01*
X141341800Y-90366500D01*
X139208200Y-90366500D01*
X139140079Y-90346498D01*
X139114565Y-90324812D01*
X139111253Y-90321133D01*
X138956753Y-90208883D01*
X138956752Y-90208882D01*
X138782288Y-90131206D01*
X138595487Y-90091500D01*
X138404513Y-90091500D01*
X138279978Y-90117970D01*
X138217711Y-90131206D01*
X138043246Y-90208883D01*
X137888747Y-90321133D01*
X137760958Y-90463057D01*
X137665472Y-90628443D01*
X137606458Y-90810070D01*
X137586496Y-91000000D01*
X126650000Y-91000000D01*
X126650000Y-88000000D01*
X119836500Y-88000000D01*
X119768379Y-87979998D01*
X119721886Y-87926342D01*
X119710500Y-87874000D01*
X119710500Y-80020000D01*
X121886844Y-80020000D01*
X121905436Y-80244368D01*
X121905436Y-80244371D01*
X121905437Y-80244372D01*
X121960702Y-80462611D01*
X122051139Y-80668790D01*
X122174278Y-80857268D01*
X122326762Y-81022908D01*
X122504422Y-81161188D01*
X122504424Y-81161189D01*
X122538205Y-81179470D01*
X122588596Y-81229482D01*
X122603949Y-81298799D01*
X122579389Y-81365413D01*
X122538209Y-81401096D01*
X122504702Y-81419229D01*
X122327096Y-81557466D01*
X122174678Y-81723037D01*
X122051580Y-81911451D01*
X121961177Y-82117548D01*
X121913455Y-82305999D01*
X121913456Y-82306000D01*
X122818884Y-82306000D01*
X122790507Y-82350156D01*
X122750000Y-82488111D01*
X122750000Y-82631889D01*
X122790507Y-82769844D01*
X122818884Y-82814000D01*
X121913455Y-82814000D01*
X121961177Y-83002451D01*
X122051580Y-83208548D01*
X122174678Y-83396962D01*
X122317981Y-83552632D01*
X122349402Y-83616297D01*
X122341415Y-83686843D01*
X122296556Y-83741872D01*
X122269313Y-83756025D01*
X122153793Y-83799111D01*
X122036738Y-83886738D01*
X121949111Y-84003794D01*
X121898011Y-84140799D01*
X121891500Y-84201362D01*
X121891500Y-85998638D01*
X121891860Y-86001986D01*
X121898011Y-86059200D01*
X121949111Y-86196205D01*
X122036738Y-86313261D01*
X122153794Y-86400888D01*
X122153795Y-86400888D01*
X122153796Y-86400889D01*
X122290799Y-86451989D01*
X122351362Y-86458500D01*
X122354731Y-86458500D01*
X124145269Y-86458500D01*
X124148638Y-86458500D01*
X124209201Y-86451989D01*
X124346204Y-86400889D01*
X124463261Y-86313261D01*
X124550889Y-86196204D01*
X124601989Y-86059201D01*
X124608500Y-85998638D01*
X124608500Y-84201362D01*
X124601989Y-84140799D01*
X124550889Y-84003796D01*
X124550888Y-84003794D01*
X124463261Y-83886738D01*
X124346206Y-83799111D01*
X124272758Y-83771716D01*
X124230684Y-83756024D01*
X124173851Y-83713478D01*
X124149040Y-83646958D01*
X124164131Y-83577584D01*
X124182018Y-83552632D01*
X124325321Y-83396962D01*
X124448419Y-83208548D01*
X124538822Y-83002451D01*
X124586544Y-82814000D01*
X123681116Y-82814000D01*
X123709493Y-82769844D01*
X123750000Y-82631889D01*
X123750000Y-82488111D01*
X123709493Y-82350156D01*
X123681116Y-82306000D01*
X124586544Y-82306000D01*
X124586544Y-82305999D01*
X124538822Y-82117548D01*
X124448419Y-81911451D01*
X124325321Y-81723037D01*
X124172903Y-81557466D01*
X123995299Y-81419231D01*
X123961791Y-81401097D01*
X123911401Y-81351083D01*
X123896050Y-81281766D01*
X123920612Y-81215153D01*
X123961790Y-81179472D01*
X123995576Y-81161189D01*
X124173240Y-81022906D01*
X124325722Y-80857268D01*
X124448860Y-80668791D01*
X124539296Y-80462616D01*
X124594564Y-80244368D01*
X124613156Y-80020000D01*
X124594564Y-79795632D01*
X124539296Y-79577384D01*
X124448860Y-79371209D01*
X124325722Y-79182732D01*
X124173240Y-79017094D01*
X124173239Y-79017093D01*
X124173237Y-79017091D01*
X123995578Y-78878812D01*
X123797573Y-78771657D01*
X123611317Y-78707716D01*
X123588841Y-78700000D01*
X151186496Y-78700000D01*
X151206458Y-78889929D01*
X151265472Y-79071556D01*
X151360958Y-79236942D01*
X151360960Y-79236944D01*
X151488747Y-79378866D01*
X151643248Y-79491118D01*
X151817712Y-79568794D01*
X152004513Y-79608500D01*
X152004515Y-79608500D01*
X152195485Y-79608500D01*
X152195487Y-79608500D01*
X152382288Y-79568794D01*
X152556752Y-79491118D01*
X152711253Y-79378866D01*
X152839040Y-79236944D01*
X152934527Y-79071556D01*
X152989388Y-78902712D01*
X153020123Y-78852556D01*
X153227276Y-78645404D01*
X153289589Y-78611379D01*
X153316372Y-78608500D01*
X156372333Y-78608500D01*
X156440454Y-78628502D01*
X156486947Y-78682158D01*
X156497051Y-78752432D01*
X156467557Y-78817012D01*
X156447842Y-78835368D01*
X156389238Y-78879238D01*
X156301611Y-78996294D01*
X156274345Y-79069398D01*
X156250511Y-79133299D01*
X156244000Y-79193862D01*
X156244000Y-81791138D01*
X156250511Y-81851701D01*
X156270490Y-81905267D01*
X156301611Y-81988705D01*
X156389238Y-82105761D01*
X156506294Y-82193388D01*
X156506295Y-82193388D01*
X156506296Y-82193389D01*
X156643299Y-82244489D01*
X156703862Y-82251000D01*
X156707231Y-82251000D01*
X158497769Y-82251000D01*
X158501138Y-82251000D01*
X158561701Y-82244489D01*
X158698704Y-82193389D01*
X158815761Y-82105761D01*
X158903389Y-81988704D01*
X158947752Y-81869763D01*
X158990296Y-81812929D01*
X159056816Y-81788118D01*
X159126190Y-81803209D01*
X159156772Y-81826612D01*
X159242062Y-81915601D01*
X159427913Y-82053057D01*
X159634330Y-82157129D01*
X159855359Y-82224818D01*
X159888500Y-82229062D01*
X159888500Y-81036724D01*
X159985869Y-81077056D01*
X160103177Y-81092500D01*
X160181823Y-81092500D01*
X160299131Y-81077056D01*
X160396500Y-81036724D01*
X160396500Y-82226936D01*
X160541591Y-82195669D01*
X160756085Y-82109479D01*
X160952933Y-81988275D01*
X161126461Y-81835548D01*
X161271682Y-81655698D01*
X161301732Y-81601904D01*
X161352415Y-81552188D01*
X161421932Y-81537765D01*
X161488210Y-81563216D01*
X161516125Y-81592795D01*
X161558828Y-81655976D01*
X161621717Y-81749023D01*
X161781728Y-81915976D01*
X161967653Y-82053485D01*
X162174143Y-82157595D01*
X162395257Y-82225311D01*
X162624635Y-82254684D01*
X162855678Y-82244869D01*
X163081738Y-82196149D01*
X163296313Y-82109926D01*
X163493230Y-81988679D01*
X163666824Y-81835898D01*
X163812100Y-81655976D01*
X163924880Y-81454091D01*
X164001919Y-81236050D01*
X164041000Y-81008125D01*
X164041000Y-80034787D01*
X164026301Y-79862082D01*
X163968030Y-79638293D01*
X163940499Y-79577388D01*
X163872778Y-79427570D01*
X163806172Y-79329024D01*
X163743283Y-79235977D01*
X163583272Y-79069024D01*
X163397347Y-78931515D01*
X163190857Y-78827405D01*
X163190856Y-78827404D01*
X163190855Y-78827404D01*
X162969740Y-78759688D01*
X162740364Y-78730315D01*
X162509273Y-78740132D01*
X162440364Y-78723040D01*
X162391636Y-78671406D01*
X162378559Y-78601624D01*
X162405284Y-78535849D01*
X162410289Y-78529935D01*
X162411248Y-78528869D01*
X162411253Y-78528866D01*
X162539040Y-78386944D01*
X162622380Y-78242595D01*
X162634528Y-78221555D01*
X162682570Y-78073695D01*
X162693542Y-78039928D01*
X162713504Y-77850000D01*
X162693542Y-77660072D01*
X162634527Y-77478444D01*
X162634527Y-77478443D01*
X162539041Y-77313057D01*
X162411252Y-77171133D01*
X162307162Y-77095507D01*
X162256752Y-77058882D01*
X162082288Y-76981206D01*
X161895487Y-76941500D01*
X161704513Y-76941500D01*
X161579979Y-76967970D01*
X161517711Y-76981206D01*
X161448107Y-77012196D01*
X161343248Y-77058882D01*
X161331472Y-77067437D01*
X161264608Y-77091294D01*
X161257414Y-77091500D01*
X153014442Y-77091500D01*
X152996182Y-77090170D01*
X152972212Y-77086659D01*
X152972211Y-77086659D01*
X152946075Y-77088945D01*
X152922353Y-77091021D01*
X152911372Y-77091500D01*
X152905820Y-77091500D01*
X152902182Y-77091925D01*
X152902167Y-77091926D01*
X152874711Y-77095135D01*
X152871070Y-77095507D01*
X152794260Y-77102227D01*
X152775123Y-77106470D01*
X152702634Y-77132853D01*
X152699176Y-77134055D01*
X152626000Y-77158303D01*
X152608372Y-77166838D01*
X152543918Y-77209229D01*
X152540831Y-77211196D01*
X152475218Y-77251667D01*
X152460032Y-77264038D01*
X152407087Y-77320156D01*
X152404534Y-77322783D01*
X151943667Y-77783650D01*
X151881355Y-77817676D01*
X151880771Y-77817801D01*
X151817714Y-77831205D01*
X151643246Y-77908883D01*
X151488747Y-78021133D01*
X151360958Y-78163057D01*
X151265472Y-78328443D01*
X151206458Y-78510070D01*
X151186496Y-78700000D01*
X123588841Y-78700000D01*
X123584635Y-78698556D01*
X123362569Y-78661500D01*
X123137431Y-78661500D01*
X122915365Y-78698556D01*
X122915362Y-78698556D01*
X122915362Y-78698557D01*
X122702426Y-78771657D01*
X122504421Y-78878812D01*
X122326762Y-79017091D01*
X122174278Y-79182731D01*
X122051139Y-79371209D01*
X121960702Y-79577388D01*
X121905437Y-79795627D01*
X121905436Y-79795632D01*
X121886844Y-80020000D01*
X119710500Y-80020000D01*
X119710500Y-75561500D01*
X119730502Y-75493379D01*
X119784158Y-75446886D01*
X119836500Y-75435500D01*
X125072845Y-75435500D01*
X125077193Y-75436365D01*
X125100000Y-75436365D01*
X125108036Y-75433036D01*
X125110500Y-75427088D01*
X125110501Y-75427087D01*
X125110753Y-75426477D01*
X125111365Y-75425000D01*
X125111364Y-75424997D01*
X125111366Y-75402215D01*
X125110499Y-75397861D01*
X125110499Y-70639650D01*
X128522000Y-70639650D01*
X128522226Y-70644973D01*
X128537234Y-70821315D01*
X128597626Y-71053252D01*
X128696353Y-71271659D01*
X128830564Y-71470231D01*
X128996405Y-71643267D01*
X129189105Y-71785787D01*
X129403123Y-71893693D01*
X129632292Y-71963875D01*
X129676000Y-71969472D01*
X129676000Y-70226724D01*
X129773369Y-70267056D01*
X129890677Y-70282500D01*
X129969323Y-70282500D01*
X130086631Y-70267056D01*
X130183999Y-70226724D01*
X130183999Y-71968086D01*
X130343782Y-71933651D01*
X130566178Y-71844284D01*
X130770271Y-71718619D01*
X130950188Y-71560274D01*
X131100762Y-71373791D01*
X131217647Y-71164557D01*
X131297494Y-70938567D01*
X131338000Y-70702335D01*
X131338000Y-70642327D01*
X132331500Y-70642327D01*
X132331725Y-70644980D01*
X132331726Y-70644984D01*
X132346740Y-70821398D01*
X132407155Y-71053422D01*
X132423711Y-71090048D01*
X132505914Y-71271902D01*
X132640175Y-71470547D01*
X132726502Y-71560619D01*
X132806077Y-71643646D01*
X132998838Y-71786212D01*
X132998840Y-71786213D01*
X132998843Y-71786215D01*
X133212933Y-71894157D01*
X133442185Y-71964364D01*
X133680005Y-71994818D01*
X133919551Y-71984643D01*
X134153932Y-71934130D01*
X134376404Y-71844733D01*
X134580569Y-71719024D01*
X134760551Y-71560619D01*
X134911175Y-71374076D01*
X135028105Y-71164760D01*
X135030445Y-71158139D01*
X135067443Y-71053424D01*
X135107980Y-70938694D01*
X135148500Y-70702381D01*
X135148500Y-70642327D01*
X136141500Y-70642327D01*
X136141725Y-70644980D01*
X136141726Y-70644984D01*
X136156740Y-70821398D01*
X136217155Y-71053422D01*
X136233711Y-71090048D01*
X136315914Y-71271902D01*
X136450175Y-71470547D01*
X136536502Y-71560619D01*
X136616077Y-71643646D01*
X136808838Y-71786212D01*
X136808840Y-71786213D01*
X136808843Y-71786215D01*
X137022933Y-71894157D01*
X137252185Y-71964364D01*
X137490005Y-71994818D01*
X137729551Y-71984643D01*
X137963932Y-71934130D01*
X138186404Y-71844733D01*
X138390569Y-71719024D01*
X138570551Y-71560619D01*
X138721175Y-71374076D01*
X138838105Y-71164760D01*
X138840445Y-71158139D01*
X138877443Y-71053424D01*
X138917980Y-70938694D01*
X138958500Y-70702381D01*
X138958499Y-69222094D01*
X138978501Y-69153974D01*
X138995404Y-69132999D01*
X139165672Y-68962731D01*
X139736406Y-68391998D01*
X139798717Y-68357974D01*
X139869533Y-68363039D01*
X139926368Y-68405586D01*
X139951179Y-68472106D01*
X139951500Y-68481095D01*
X139951500Y-71279838D01*
X139951500Y-71279857D01*
X139951501Y-71283044D01*
X139962113Y-71386926D01*
X140017885Y-71555238D01*
X140110970Y-71706152D01*
X140236348Y-71831530D01*
X140291648Y-71865639D01*
X140339125Y-71918424D01*
X140351500Y-71972879D01*
X140351500Y-74154262D01*
X140350893Y-74166613D01*
X140346619Y-74210000D01*
X140366090Y-74407699D01*
X140422858Y-74594833D01*
X140423596Y-74597499D01*
X140517404Y-74773003D01*
X140643433Y-74926569D01*
X140677135Y-74954227D01*
X140686298Y-74962532D01*
X143797461Y-78073695D01*
X143805766Y-78082857D01*
X143833431Y-78116568D01*
X143938418Y-78202728D01*
X143961360Y-78221556D01*
X143986996Y-78242595D01*
X144162196Y-78336241D01*
X144257247Y-78365074D01*
X144352298Y-78393908D01*
X144549998Y-78413380D01*
X144549999Y-78413379D01*
X144550000Y-78413380D01*
X144593384Y-78409106D01*
X144605735Y-78408500D01*
X145196455Y-78408500D01*
X145199547Y-78408500D01*
X145347701Y-78393908D01*
X145537804Y-78336241D01*
X145713004Y-78242595D01*
X145713005Y-78242593D01*
X145713007Y-78242593D01*
X145866568Y-78116568D01*
X145992593Y-77963007D01*
X146021523Y-77908883D01*
X146086241Y-77787804D01*
X146143908Y-77597701D01*
X146163380Y-77400000D01*
X146154817Y-77313056D01*
X146143908Y-77202298D01*
X146111513Y-77095507D01*
X146086241Y-77012196D01*
X145992595Y-76836996D01*
X145992593Y-76836992D01*
X145866568Y-76683431D01*
X145713007Y-76557406D01*
X145537802Y-76463758D01*
X145347701Y-76406091D01*
X145202627Y-76391803D01*
X145202619Y-76391802D01*
X145199547Y-76391500D01*
X145196455Y-76391500D01*
X145019924Y-76391500D01*
X144951803Y-76371498D01*
X144930829Y-76354595D01*
X142405405Y-73829171D01*
X142371379Y-73766859D01*
X142368500Y-73740076D01*
X142368500Y-71972879D01*
X142388502Y-71904758D01*
X142428351Y-71865639D01*
X142483652Y-71831530D01*
X142609030Y-71706152D01*
X142702115Y-71555238D01*
X142757887Y-71386926D01*
X142768500Y-71283045D01*
X142768499Y-69218592D01*
X142788501Y-69150472D01*
X142842157Y-69103979D01*
X142912431Y-69093875D01*
X142977011Y-69123369D01*
X142983593Y-69129497D01*
X144700568Y-70846473D01*
X146402877Y-72548782D01*
X146436903Y-72611094D01*
X146439092Y-72624706D01*
X146456458Y-72789929D01*
X146515472Y-72971556D01*
X146610958Y-73136942D01*
X146610960Y-73136944D01*
X146738747Y-73278866D01*
X146893248Y-73391118D01*
X147067712Y-73468794D01*
X147254513Y-73508500D01*
X147254515Y-73508500D01*
X147445485Y-73508500D01*
X147445487Y-73508500D01*
X147632288Y-73468794D01*
X147806752Y-73391118D01*
X147961253Y-73278866D01*
X148089040Y-73136944D01*
X148184527Y-72971556D01*
X148243542Y-72789928D01*
X148263504Y-72600000D01*
X148243542Y-72410072D01*
X148184527Y-72228444D01*
X148184527Y-72228443D01*
X148089041Y-72063057D01*
X147961252Y-71921133D01*
X147806753Y-71808883D01*
X147806752Y-71808882D01*
X147632288Y-71731206D01*
X147445487Y-71691500D01*
X147445485Y-71691500D01*
X147389594Y-71691500D01*
X147321473Y-71671498D01*
X147300499Y-71654595D01*
X146344542Y-70698638D01*
X150951500Y-70698638D01*
X150958011Y-70759201D01*
X150974312Y-70802906D01*
X151009111Y-70896205D01*
X151096738Y-71013261D01*
X151213794Y-71100888D01*
X151213795Y-71100888D01*
X151213796Y-71100889D01*
X151350799Y-71151989D01*
X151411362Y-71158500D01*
X151414731Y-71158500D01*
X153205269Y-71158500D01*
X153208638Y-71158500D01*
X153269201Y-71151989D01*
X153406204Y-71100889D01*
X153523261Y-71013261D01*
X153610889Y-70896204D01*
X153654999Y-70777941D01*
X153697545Y-70721107D01*
X153764065Y-70696296D01*
X153833439Y-70711387D01*
X153865753Y-70736635D01*
X153926760Y-70802906D01*
X153926762Y-70802908D01*
X154104421Y-70941187D01*
X154104424Y-70941189D01*
X154302426Y-71048342D01*
X154515365Y-71121444D01*
X154737431Y-71158500D01*
X154737434Y-71158500D01*
X154962566Y-71158500D01*
X154962569Y-71158500D01*
X155184635Y-71121444D01*
X155397574Y-71048342D01*
X155595576Y-70941189D01*
X155664304Y-70887694D01*
X155763109Y-70810792D01*
X155829151Y-70784735D01*
X155898796Y-70798520D01*
X155949933Y-70847770D01*
X155966500Y-70910223D01*
X155966500Y-74097473D01*
X155946498Y-74165594D01*
X155934137Y-74181783D01*
X155860958Y-74263057D01*
X155765472Y-74428443D01*
X155706458Y-74610070D01*
X155686496Y-74799999D01*
X155706458Y-74989929D01*
X155765472Y-75171556D01*
X155860958Y-75336942D01*
X155949700Y-75435500D01*
X155988747Y-75478866D01*
X156143248Y-75591118D01*
X156317712Y-75668794D01*
X156504513Y-75708500D01*
X156504515Y-75708500D01*
X156695485Y-75708500D01*
X156695487Y-75708500D01*
X156882288Y-75668794D01*
X157056752Y-75591118D01*
X157211253Y-75478866D01*
X157339040Y-75336944D01*
X157434527Y-75171556D01*
X157493542Y-74989928D01*
X157513504Y-74800000D01*
X157493542Y-74610072D01*
X157434527Y-74428444D01*
X157434527Y-74428443D01*
X157339041Y-74263057D01*
X157265863Y-74181783D01*
X157235146Y-74117775D01*
X157233500Y-74097473D01*
X157233500Y-70914594D01*
X157253502Y-70846473D01*
X157270400Y-70825503D01*
X157885709Y-70210193D01*
X157948020Y-70176170D01*
X158018835Y-70181234D01*
X158050312Y-70198422D01*
X158153794Y-70275888D01*
X158153795Y-70275888D01*
X158153796Y-70275889D01*
X158269313Y-70318975D01*
X158326148Y-70361521D01*
X158350959Y-70428041D01*
X158335868Y-70497415D01*
X158317982Y-70522367D01*
X158174676Y-70678040D01*
X158051580Y-70866451D01*
X157961177Y-71072548D01*
X157913455Y-71260999D01*
X157913456Y-71261000D01*
X158818884Y-71261000D01*
X158790507Y-71305156D01*
X158750000Y-71443111D01*
X158750000Y-71586889D01*
X158790507Y-71724844D01*
X158818884Y-71769000D01*
X157913455Y-71769000D01*
X157961177Y-71957451D01*
X158051580Y-72163548D01*
X158174678Y-72351962D01*
X158327096Y-72517533D01*
X158504697Y-72655766D01*
X158702631Y-72762883D01*
X158915485Y-72835955D01*
X158996000Y-72849391D01*
X158996000Y-71948674D01*
X159107685Y-71999680D01*
X159214237Y-72015000D01*
X159285763Y-72015000D01*
X159392315Y-71999680D01*
X159504000Y-71948674D01*
X159504000Y-72849390D01*
X159584514Y-72835955D01*
X159797368Y-72762883D01*
X159995302Y-72655766D01*
X160172903Y-72517533D01*
X160325321Y-72351962D01*
X160448419Y-72163548D01*
X160538822Y-71957451D01*
X160586544Y-71769000D01*
X159681116Y-71769000D01*
X159709493Y-71724844D01*
X159750000Y-71586889D01*
X159750000Y-71443111D01*
X159709493Y-71305156D01*
X159681116Y-71261000D01*
X160586544Y-71261000D01*
X160586544Y-71260999D01*
X160538822Y-71072548D01*
X160448419Y-70866451D01*
X160325321Y-70678037D01*
X160182018Y-70522367D01*
X160150597Y-70458702D01*
X160158584Y-70388156D01*
X160203443Y-70333127D01*
X160230679Y-70318977D01*
X160346204Y-70275889D01*
X160463261Y-70188261D01*
X160550889Y-70071204D01*
X160601989Y-69934201D01*
X160608500Y-69873638D01*
X160608500Y-68076362D01*
X160601989Y-68015799D01*
X160550889Y-67878796D01*
X160550888Y-67878794D01*
X160463261Y-67761738D01*
X160346205Y-67674111D01*
X160271855Y-67646380D01*
X160209201Y-67623011D01*
X160148638Y-67616500D01*
X158351362Y-67616500D01*
X158348013Y-67616859D01*
X158348013Y-67616860D01*
X158290799Y-67623011D01*
X158153794Y-67674111D01*
X158036738Y-67761738D01*
X157949111Y-67878794D01*
X157907289Y-67990923D01*
X157898011Y-68015799D01*
X157891500Y-68076362D01*
X157891500Y-68079730D01*
X157891500Y-68364369D01*
X157871498Y-68432490D01*
X157844342Y-68458657D01*
X157844891Y-68459206D01*
X157819312Y-68484783D01*
X157804283Y-68497618D01*
X157787894Y-68509525D01*
X157759701Y-68543604D01*
X157751713Y-68552381D01*
X156427635Y-69876458D01*
X156365323Y-69910484D01*
X156294507Y-69905419D01*
X156237672Y-69862872D01*
X156212971Y-69797771D01*
X156194564Y-69575632D01*
X156139296Y-69357384D01*
X156048860Y-69151209D01*
X155925722Y-68962732D01*
X155773240Y-68797094D01*
X155773239Y-68797093D01*
X155773237Y-68797091D01*
X155595578Y-68658812D01*
X155397573Y-68551657D01*
X155223193Y-68491793D01*
X155184635Y-68478556D01*
X154962569Y-68441500D01*
X154737431Y-68441500D01*
X154515365Y-68478556D01*
X154515362Y-68478556D01*
X154515362Y-68478557D01*
X154302426Y-68551657D01*
X154104421Y-68658812D01*
X153926758Y-68797094D01*
X153865754Y-68863362D01*
X153804901Y-68899933D01*
X153733937Y-68897798D01*
X153675392Y-68857636D01*
X153654998Y-68822056D01*
X153645688Y-68797094D01*
X153610889Y-68703796D01*
X153580066Y-68662621D01*
X153523261Y-68586738D01*
X153406205Y-68499111D01*
X153337702Y-68473560D01*
X153269201Y-68448011D01*
X153208638Y-68441500D01*
X151411362Y-68441500D01*
X151408013Y-68441859D01*
X151408013Y-68441860D01*
X151350799Y-68448011D01*
X151213794Y-68499111D01*
X151096738Y-68586738D01*
X151009111Y-68703794D01*
X150974313Y-68797091D01*
X150958011Y-68840799D01*
X150951500Y-68901362D01*
X150951500Y-70698638D01*
X146344542Y-70698638D01*
X142815224Y-67169319D01*
X142802151Y-67153001D01*
X142750328Y-67104336D01*
X142747486Y-67101581D01*
X142730554Y-67084649D01*
X142730553Y-67084649D01*
X142727750Y-67081845D01*
X142724555Y-67079366D01*
X142715534Y-67071662D01*
X142683300Y-67041393D01*
X142665547Y-67031633D01*
X142649021Y-67020777D01*
X142633021Y-67008366D01*
X142592446Y-66990808D01*
X142581784Y-66985584D01*
X142543043Y-66964285D01*
X142529293Y-66960755D01*
X142523417Y-66959246D01*
X142504711Y-66952842D01*
X142486125Y-66944799D01*
X142442455Y-66937882D01*
X142430833Y-66935475D01*
X142421030Y-66932958D01*
X142388010Y-66924480D01*
X142388009Y-66924480D01*
X142367756Y-66924480D01*
X142348046Y-66922929D01*
X142328037Y-66919759D01*
X142284019Y-66923921D01*
X142272161Y-66924480D01*
X139758373Y-66924480D01*
X139737584Y-66922184D01*
X139666534Y-66924418D01*
X139662575Y-66924480D01*
X139634664Y-66924480D01*
X139630738Y-66924975D01*
X139630720Y-66924977D01*
X139630628Y-66924989D01*
X139618823Y-66925917D01*
X139574631Y-66927306D01*
X139555178Y-66932958D01*
X139535824Y-66936966D01*
X139515725Y-66939505D01*
X139502354Y-66944799D01*
X139474611Y-66955782D01*
X139463394Y-66959623D01*
X139420927Y-66971962D01*
X139403484Y-66982277D01*
X139385737Y-66990970D01*
X139366904Y-66998426D01*
X139331131Y-67024417D01*
X139321213Y-67030931D01*
X139283159Y-67053437D01*
X139268832Y-67067763D01*
X139253803Y-67080598D01*
X139237414Y-67092505D01*
X139209221Y-67126584D01*
X139201233Y-67135361D01*
X138636161Y-67700433D01*
X138573849Y-67734459D01*
X138503034Y-67729394D01*
X138472142Y-67712641D01*
X138291161Y-67578787D01*
X138077063Y-67470841D01*
X137847813Y-67400635D01*
X137609994Y-67370181D01*
X137370451Y-67380356D01*
X137136068Y-67430869D01*
X136913595Y-67520267D01*
X136709428Y-67645977D01*
X136529450Y-67804378D01*
X136378825Y-67990923D01*
X136261893Y-68200241D01*
X136182021Y-68426301D01*
X136182020Y-68426305D01*
X136182020Y-68426306D01*
X136141500Y-68662619D01*
X136141500Y-70642327D01*
X135148500Y-70642327D01*
X135148500Y-68722673D01*
X135133259Y-68543602D01*
X135121674Y-68499111D01*
X135097322Y-68405586D01*
X135072844Y-68311576D01*
X134974086Y-68093098D01*
X134839825Y-67894453D01*
X134673925Y-67721356D01*
X134673924Y-67721355D01*
X134673922Y-67721353D01*
X134481161Y-67578787D01*
X134267063Y-67470841D01*
X134037813Y-67400635D01*
X133799994Y-67370181D01*
X133560451Y-67380356D01*
X133326068Y-67430869D01*
X133103595Y-67520267D01*
X132899428Y-67645977D01*
X132719450Y-67804378D01*
X132568825Y-67990923D01*
X132451893Y-68200241D01*
X132372021Y-68426301D01*
X132372020Y-68426305D01*
X132372020Y-68426306D01*
X132331500Y-68662619D01*
X132331500Y-70642327D01*
X131338000Y-70642327D01*
X131338000Y-69936500D01*
X130474225Y-69936500D01*
X130514556Y-69839131D01*
X130535177Y-69682500D01*
X130514556Y-69525869D01*
X130474225Y-69428500D01*
X131338000Y-69428500D01*
X131338000Y-68725349D01*
X131337773Y-68720026D01*
X131322765Y-68543684D01*
X131262373Y-68311747D01*
X131163646Y-68093340D01*
X131029435Y-67894768D01*
X130863594Y-67721732D01*
X130670894Y-67579212D01*
X130456878Y-67471307D01*
X130227708Y-67401124D01*
X130183999Y-67395526D01*
X130183999Y-69138275D01*
X130086631Y-69097944D01*
X129969323Y-69082500D01*
X129890677Y-69082500D01*
X129773369Y-69097944D01*
X129676000Y-69138275D01*
X129676000Y-67396912D01*
X129516213Y-67431350D01*
X129293823Y-67520714D01*
X129089728Y-67646380D01*
X128909811Y-67804725D01*
X128759237Y-67991208D01*
X128642352Y-68200442D01*
X128562505Y-68426432D01*
X128522000Y-68662664D01*
X128522000Y-69428500D01*
X129385775Y-69428500D01*
X129345444Y-69525869D01*
X129324823Y-69682500D01*
X129345444Y-69839131D01*
X129385775Y-69936500D01*
X128522000Y-69936500D01*
X128522000Y-70639650D01*
X125110499Y-70639650D01*
X125110499Y-66111683D01*
X125130501Y-66043563D01*
X125184157Y-65997070D01*
X125236666Y-65985684D01*
X161963673Y-66035315D01*
G37*
%TD.AperFunction*%
%TD*%
M02*
