%TF.GenerationSoftware,KiCad,Pcbnew,7.0.2-6a45011f42~172~ubuntu22.10.1*%
%TF.CreationDate,2023-04-24T11:56:09+02:00*%
%TF.ProjectId,vscp-din-esp32-can-z102,76736370-2d64-4696-9e2d-65737033322d,B*%
%TF.SameCoordinates,Original*%
%TF.FileFunction,Copper,L1,Top*%
%TF.FilePolarity,Positive*%
%FSLAX46Y46*%
G04 Gerber Fmt 4.6, Leading zero omitted, Abs format (unit mm)*
G04 Created by KiCad (PCBNEW 7.0.2-6a45011f42~172~ubuntu22.10.1) date 2023-04-24 11:56:09*
%MOMM*%
%LPD*%
G01*
G04 APERTURE LIST*
G04 Aperture macros list*
%AMRoundRect*
0 Rectangle with rounded corners*
0 $1 Rounding radius*
0 $2 $3 $4 $5 $6 $7 $8 $9 X,Y pos of 4 corners*
0 Add a 4 corners polygon primitive as box body*
4,1,4,$2,$3,$4,$5,$6,$7,$8,$9,$2,$3,0*
0 Add four circle primitives for the rounded corners*
1,1,$1+$1,$2,$3*
1,1,$1+$1,$4,$5*
1,1,$1+$1,$6,$7*
1,1,$1+$1,$8,$9*
0 Add four rect primitives between the rounded corners*
20,1,$1+$1,$2,$3,$4,$5,0*
20,1,$1+$1,$4,$5,$6,$7,0*
20,1,$1+$1,$6,$7,$8,$9,0*
20,1,$1+$1,$8,$9,$2,$3,0*%
G04 Aperture macros list end*
%TA.AperFunction,SMDPad,CuDef*%
%ADD10RoundRect,0.225000X-0.375000X0.225000X-0.375000X-0.225000X0.375000X-0.225000X0.375000X0.225000X0*%
%TD*%
%TA.AperFunction,SMDPad,CuDef*%
%ADD11R,0.800000X1.900000*%
%TD*%
%TA.AperFunction,ComponentPad*%
%ADD12R,1.700000X2.500000*%
%TD*%
%TA.AperFunction,ComponentPad*%
%ADD13O,1.700000X2.500000*%
%TD*%
%TA.AperFunction,SMDPad,CuDef*%
%ADD14RoundRect,0.250000X-0.450000X0.262500X-0.450000X-0.262500X0.450000X-0.262500X0.450000X0.262500X0*%
%TD*%
%TA.AperFunction,SMDPad,CuDef*%
%ADD15RoundRect,0.250000X0.450000X-0.262500X0.450000X0.262500X-0.450000X0.262500X-0.450000X-0.262500X0*%
%TD*%
%TA.AperFunction,ComponentPad*%
%ADD16R,1.700000X1.700000*%
%TD*%
%TA.AperFunction,ComponentPad*%
%ADD17O,1.700000X1.700000*%
%TD*%
%TA.AperFunction,SMDPad,CuDef*%
%ADD18RoundRect,0.250000X-1.500000X-0.550000X1.500000X-0.550000X1.500000X0.550000X-1.500000X0.550000X0*%
%TD*%
%TA.AperFunction,SMDPad,CuDef*%
%ADD19RoundRect,0.250000X0.450000X-0.350000X0.450000X0.350000X-0.450000X0.350000X-0.450000X-0.350000X0*%
%TD*%
%TA.AperFunction,SMDPad,CuDef*%
%ADD20RoundRect,0.250000X-0.337500X-0.475000X0.337500X-0.475000X0.337500X0.475000X-0.337500X0.475000X0*%
%TD*%
%TA.AperFunction,SMDPad,CuDef*%
%ADD21RoundRect,0.250000X-2.050000X-0.300000X2.050000X-0.300000X2.050000X0.300000X-2.050000X0.300000X0*%
%TD*%
%TA.AperFunction,SMDPad,CuDef*%
%ADD22RoundRect,0.250000X-2.025000X-2.375000X2.025000X-2.375000X2.025000X2.375000X-2.025000X2.375000X0*%
%TD*%
%TA.AperFunction,SMDPad,CuDef*%
%ADD23RoundRect,0.250002X-4.449998X-5.149998X4.449998X-5.149998X4.449998X5.149998X-4.449998X5.149998X0*%
%TD*%
%TA.AperFunction,SMDPad,CuDef*%
%ADD24RoundRect,0.250000X0.475000X-0.337500X0.475000X0.337500X-0.475000X0.337500X-0.475000X-0.337500X0*%
%TD*%
%TA.AperFunction,SMDPad,CuDef*%
%ADD25RoundRect,0.250000X-0.450000X0.350000X-0.450000X-0.350000X0.450000X-0.350000X0.450000X0.350000X0*%
%TD*%
%TA.AperFunction,SMDPad,CuDef*%
%ADD26RoundRect,0.250000X0.337500X0.475000X-0.337500X0.475000X-0.337500X-0.475000X0.337500X-0.475000X0*%
%TD*%
%TA.AperFunction,SMDPad,CuDef*%
%ADD27R,0.900000X1.500000*%
%TD*%
%TA.AperFunction,SMDPad,CuDef*%
%ADD28R,4.000000X4.000000*%
%TD*%
%TA.AperFunction,SMDPad,CuDef*%
%ADD29RoundRect,0.250000X-0.350000X-0.450000X0.350000X-0.450000X0.350000X0.450000X-0.350000X0.450000X0*%
%TD*%
%TA.AperFunction,SMDPad,CuDef*%
%ADD30RoundRect,0.150000X-0.825000X-0.150000X0.825000X-0.150000X0.825000X0.150000X-0.825000X0.150000X0*%
%TD*%
%TA.AperFunction,SMDPad,CuDef*%
%ADD31RoundRect,0.250000X0.650000X-1.500000X0.650000X1.500000X-0.650000X1.500000X-0.650000X-1.500000X0*%
%TD*%
%TA.AperFunction,SMDPad,CuDef*%
%ADD32R,2.900000X5.400000*%
%TD*%
%TA.AperFunction,ComponentPad*%
%ADD33RoundRect,0.250000X0.650000X1.550000X-0.650000X1.550000X-0.650000X-1.550000X0.650000X-1.550000X0*%
%TD*%
%TA.AperFunction,ComponentPad*%
%ADD34O,1.800000X3.600000*%
%TD*%
%TA.AperFunction,SMDPad,CuDef*%
%ADD35RoundRect,0.250000X0.350000X0.450000X-0.350000X0.450000X-0.350000X-0.450000X0.350000X-0.450000X0*%
%TD*%
%TA.AperFunction,SMDPad,CuDef*%
%ADD36RoundRect,0.225000X0.225000X0.375000X-0.225000X0.375000X-0.225000X-0.375000X0.225000X-0.375000X0*%
%TD*%
%TA.AperFunction,ViaPad*%
%ADD37C,0.800000*%
%TD*%
%TA.AperFunction,Conductor*%
%ADD38C,1.000000*%
%TD*%
%TA.AperFunction,Conductor*%
%ADD39C,0.250000*%
%TD*%
%TA.AperFunction,Conductor*%
%ADD40C,0.500000*%
%TD*%
%TA.AperFunction,Conductor*%
%ADD41C,0.200000*%
%TD*%
G04 APERTURE END LIST*
D10*
%TO.P,D4,1,K*%
%TO.N,+28V*%
X159820000Y-135362500D03*
%TO.P,D4,2,A*%
%TO.N,Net-(D4-A)*%
X159820000Y-138662500D03*
%TD*%
D11*
%TO.P,D3,1,K*%
%TO.N,Net-(J4-Pin_3)*%
X137500000Y-82550000D03*
%TO.P,D3,2,K*%
%TO.N,Net-(J2-Pin_2)*%
X139400000Y-82550000D03*
%TO.P,D3,3,A*%
%TO.N,GND*%
X138450000Y-79550000D03*
%TD*%
D12*
%TO.P,U4,1,IN*%
%TO.N,+28V*%
X157602500Y-80492500D03*
D13*
%TO.P,U4,2,GND*%
%TO.N,GND*%
X160142500Y-80492500D03*
%TO.P,U4,3,OUT*%
%TO.N,+3V3*%
X162682500Y-80492500D03*
%TD*%
D14*
%TO.P,R7,1*%
%TO.N,Net-(J6-Pin_3)*%
X130200000Y-88487500D03*
%TO.P,R7,2*%
%TO.N,/ledb*%
X130200000Y-90312500D03*
%TD*%
D15*
%TO.P,R11,1*%
%TO.N,/leda*%
X128150000Y-90312500D03*
%TO.P,R11,2*%
%TO.N,Net-(J6-Pin_1)*%
X128150000Y-88487500D03*
%TD*%
D16*
%TO.P,J8,1,Pin_1*%
%TO.N,Net-(J8-Pin_1)*%
X159250000Y-68975000D03*
D17*
%TO.P,J8,2,Pin_2*%
%TO.N,GND*%
X159250000Y-71515000D03*
%TD*%
D18*
%TO.P,C10,1*%
%TO.N,+3V3*%
X158650000Y-124750000D03*
%TO.P,C10,2*%
%TO.N,GND*%
X164250000Y-124750000D03*
%TD*%
D19*
%TO.P,R9,1*%
%TO.N,Net-(J3-Pin_4)*%
X151900000Y-144312500D03*
%TO.P,R9,2*%
%TO.N,/reset*%
X151900000Y-142312500D03*
%TD*%
D18*
%TO.P,C8,1*%
%TO.N,+28V*%
X158400000Y-88450000D03*
%TO.P,C8,2*%
%TO.N,GND*%
X164000000Y-88450000D03*
%TD*%
D16*
%TO.P,J6,1,Pin_1*%
%TO.N,Net-(J6-Pin_1)*%
X123250000Y-85100000D03*
D17*
%TO.P,J6,2,Pin_2*%
%TO.N,GND*%
X123250000Y-82560000D03*
%TO.P,J6,3,Pin_3*%
%TO.N,Net-(J6-Pin_3)*%
X123250000Y-80020000D03*
%TD*%
D20*
%TO.P,C5,1*%
%TO.N,/USB D+*%
X137262500Y-144750000D03*
%TO.P,C5,2*%
%TO.N,GND*%
X139337500Y-144750000D03*
%TD*%
D16*
%TO.P,J7,1,Pin_1*%
%TO.N,/io4*%
X142050000Y-135250000D03*
D17*
%TO.P,J7,2,Pin_2*%
%TO.N,/io5*%
X144590000Y-135250000D03*
%TO.P,J7,3,Pin_3*%
%TO.N,/io3*%
X147130000Y-135250000D03*
%TO.P,J7,4,Pin_4*%
%TO.N,/rx*%
X149670000Y-135250000D03*
%TO.P,J7,5,Pin_5*%
%TO.N,/tx*%
X152210000Y-135250000D03*
%TD*%
D20*
%TO.P,C2,1*%
%TO.N,+3V3*%
X127862500Y-116350000D03*
%TO.P,C2,2*%
%TO.N,GND*%
X129937500Y-116350000D03*
%TD*%
D21*
%TO.P,U2,1,VIN*%
%TO.N,+28V*%
X149950000Y-95500000D03*
%TO.P,U2,2,OUT*%
%TO.N,Net-(D2-K)*%
X149950000Y-97200000D03*
%TO.P,U2,3,GND*%
%TO.N,GND*%
X149950000Y-98900000D03*
D22*
X156675000Y-96125000D03*
X156675000Y-101675000D03*
D23*
X159100000Y-98900000D03*
D22*
X161525000Y-96125000D03*
X161525000Y-101675000D03*
D21*
%TO.P,U2,4,FB*%
%TO.N,+3V3*%
X149950000Y-100600000D03*
%TO.P,U2,5,~{ON}/OFF*%
%TO.N,GND*%
X149950000Y-102300000D03*
%TD*%
D24*
%TO.P,C6,1*%
%TO.N,+28V*%
X154400000Y-77037500D03*
%TO.P,C6,2*%
%TO.N,GND*%
X154400000Y-74962500D03*
%TD*%
D25*
%TO.P,R1,1*%
%TO.N,Net-(U1-IO18)*%
X132850000Y-142200000D03*
%TO.P,R1,2*%
%TO.N,/USB D-*%
X132850000Y-144200000D03*
%TD*%
D20*
%TO.P,C3,1*%
%TO.N,/reset*%
X134412500Y-114550000D03*
%TO.P,C3,2*%
%TO.N,GND*%
X136487500Y-114550000D03*
%TD*%
D16*
%TO.P,J2,1,Pin_1*%
%TO.N,Net-(J2-Pin_1)*%
X152310000Y-69800000D03*
D17*
%TO.P,J2,2,Pin_2*%
%TO.N,Net-(J2-Pin_2)*%
X154850000Y-69800000D03*
%TD*%
D19*
%TO.P,R3,1*%
%TO.N,+3V3*%
X132250000Y-116400000D03*
%TO.P,R3,2*%
%TO.N,/reset*%
X132250000Y-114400000D03*
%TD*%
D16*
%TO.P,J3,1,Pin_1*%
%TO.N,Net-(J3-Pin_1)*%
X144200000Y-147850000D03*
D17*
%TO.P,J3,2,Pin_2*%
%TO.N,/rx*%
X146740000Y-147850000D03*
%TO.P,J3,3,Pin_3*%
%TO.N,/tx*%
X149280000Y-147850000D03*
%TO.P,J3,4,Pin_4*%
%TO.N,Net-(J3-Pin_4)*%
X151820000Y-147850000D03*
%TO.P,J3,5,Pin_5*%
%TO.N,+3V3*%
X154360000Y-147850000D03*
%TO.P,J3,6,Pin_6*%
%TO.N,GND*%
X156900000Y-147850000D03*
%TD*%
D26*
%TO.P,C7,1*%
%TO.N,+3V3*%
X160587500Y-76050000D03*
%TO.P,C7,2*%
%TO.N,GND*%
X158512500Y-76050000D03*
%TD*%
D27*
%TO.P,U1,1,3V3*%
%TO.N,+3V3*%
X127750000Y-110750000D03*
%TO.P,U1,2,EN*%
%TO.N,/reset*%
X129250000Y-110750000D03*
%TO.P,U1,3,IO4*%
%TO.N,/io4*%
X130750000Y-110750000D03*
%TO.P,U1,4,IO5*%
%TO.N,/io5*%
X132250000Y-110750000D03*
%TO.P,U1,5,IO6*%
%TO.N,/SCK*%
X133750000Y-110750000D03*
%TO.P,U1,6,IO7*%
%TO.N,/MOSI*%
X135250000Y-110750000D03*
%TO.P,U1,7,IO8*%
%TO.N,/boff*%
X136750000Y-110750000D03*
%TO.P,U1,8,IO9*%
%TO.N,/txcan*%
X138250000Y-110750000D03*
%TO.P,U1,9,GND*%
%TO.N,GND*%
X139750000Y-110750000D03*
%TO.P,U1,10,IO10*%
%TO.N,/rxcan*%
X139750000Y-93250000D03*
%TO.P,U1,11,RXD*%
%TO.N,/rx*%
X138250000Y-93250000D03*
%TO.P,U1,12,TXD*%
%TO.N,/tx*%
X136750000Y-93250000D03*
%TO.P,U1,13,IO18*%
%TO.N,Net-(U1-IO18)*%
X135250000Y-93250000D03*
%TO.P,U1,14,IO19*%
%TO.N,Net-(U1-IO19)*%
X133750000Y-93250000D03*
%TO.P,U1,15,IO3*%
%TO.N,/io3*%
X132250000Y-93250000D03*
%TO.P,U1,16,IO2*%
%TO.N,/MISO*%
X130750000Y-93250000D03*
%TO.P,U1,17,IO1*%
%TO.N,/ledb*%
X129250000Y-93250000D03*
%TO.P,U1,18,IO0*%
%TO.N,/leda*%
X127750000Y-93250000D03*
D28*
%TO.P,U1,19,GND*%
%TO.N,GND*%
X134360000Y-100900000D03*
%TD*%
D20*
%TO.P,C1,1*%
%TO.N,+3V3*%
X127862500Y-114250000D03*
%TO.P,C1,2*%
%TO.N,GND*%
X129937500Y-114250000D03*
%TD*%
D29*
%TO.P,R5,1*%
%TO.N,+3V3*%
X130450000Y-85850000D03*
%TO.P,R5,2*%
%TO.N,/MISO*%
X132450000Y-85850000D03*
%TD*%
D19*
%TO.P,R4,1*%
%TO.N,Net-(J3-Pin_1)*%
X144200000Y-144300000D03*
%TO.P,R4,2*%
%TO.N,/txcan*%
X144200000Y-142300000D03*
%TD*%
D30*
%TO.P,U3,1,D*%
%TO.N,/txcan*%
X129725000Y-79095000D03*
%TO.P,U3,2,GND*%
%TO.N,GND*%
X129725000Y-80365000D03*
%TO.P,U3,3,VCC*%
%TO.N,+3V3*%
X129725000Y-81635000D03*
%TO.P,U3,4,R*%
%TO.N,/rxcan*%
X129725000Y-82905000D03*
%TO.P,U3,5,NC*%
%TO.N,unconnected-(U3-NC-Pad5)*%
X134675000Y-82905000D03*
%TO.P,U3,6,CANL*%
%TO.N,Net-(J4-Pin_3)*%
X134675000Y-81635000D03*
%TO.P,U3,7,CANH*%
%TO.N,Net-(J2-Pin_2)*%
X134675000Y-80365000D03*
%TO.P,U3,8,NC*%
%TO.N,unconnected-(U3-NC-Pad8)*%
X134675000Y-79095000D03*
%TD*%
D31*
%TO.P,D2,1,K*%
%TO.N,Net-(D2-K)*%
X149550000Y-113400000D03*
%TO.P,D2,2,A*%
%TO.N,GND*%
X149550000Y-108400000D03*
%TD*%
D16*
%TO.P,J5,1,Pin_1*%
%TO.N,Net-(D4-A)*%
X130350000Y-148000000D03*
D17*
%TO.P,J5,2,Pin_2*%
%TO.N,/USB D-*%
X132890000Y-148000000D03*
%TO.P,J5,3,Pin_3*%
%TO.N,/USB D+*%
X135430000Y-148000000D03*
%TO.P,J5,4,Pin_4*%
%TO.N,GND*%
X137970000Y-148000000D03*
%TD*%
D25*
%TO.P,R8,1*%
%TO.N,Net-(J2-Pin_1)*%
X147800000Y-68700000D03*
%TO.P,R8,2*%
%TO.N,Net-(J4-Pin_3)*%
X147800000Y-70700000D03*
%TD*%
D32*
%TO.P,L1,1,1*%
%TO.N,Net-(D2-K)*%
X154400000Y-112800000D03*
%TO.P,L1,2,2*%
%TO.N,+3V3*%
X164100000Y-112800000D03*
%TD*%
D33*
%TO.P,J4,1,Pin_1*%
%TO.N,Net-(D1-A)*%
X141360000Y-69682500D03*
D34*
%TO.P,J4,2,Pin_2*%
%TO.N,Net-(J2-Pin_2)*%
X137550000Y-69682500D03*
%TO.P,J4,3,Pin_3*%
%TO.N,Net-(J4-Pin_3)*%
X133740000Y-69682500D03*
%TO.P,J4,4,Pin_4*%
%TO.N,GND*%
X129930000Y-69682500D03*
%TD*%
D16*
%TO.P,J1,1,Pin_1*%
%TO.N,/MISO*%
X142075000Y-81250000D03*
D17*
%TO.P,J1,2,Pin_2*%
%TO.N,/SCK*%
X144615000Y-81250000D03*
%TO.P,J1,3,Pin_3*%
%TO.N,/MOSI*%
X147155000Y-81250000D03*
%TO.P,J1,4,Pin_4*%
%TO.N,+3V3*%
X149695000Y-81250000D03*
%TO.P,J1,5,Pin_5*%
%TO.N,GND*%
X152235000Y-81250000D03*
%TD*%
D19*
%TO.P,R6,1*%
%TO.N,+3V3*%
X138700000Y-117100000D03*
%TO.P,R6,2*%
%TO.N,/boff*%
X138700000Y-115100000D03*
%TD*%
D24*
%TO.P,C9,1*%
%TO.N,+3V3*%
X126850000Y-82837500D03*
%TO.P,C9,2*%
%TO.N,GND*%
X126850000Y-80762500D03*
%TD*%
D35*
%TO.P,R10,1*%
%TO.N,Net-(J8-Pin_1)*%
X156150000Y-72850000D03*
%TO.P,R10,2*%
%TO.N,/boff*%
X154150000Y-72850000D03*
%TD*%
D16*
%TO.P,J9,1,Pin_1*%
%TO.N,GND*%
X135110000Y-124600000D03*
D17*
%TO.P,J9,2,Pin_2*%
%TO.N,/reset*%
X137650000Y-124600000D03*
%TD*%
D25*
%TO.P,R2,1*%
%TO.N,Net-(U1-IO19)*%
X134950000Y-142200000D03*
%TO.P,R2,2*%
%TO.N,/USB D+*%
X134950000Y-144200000D03*
%TD*%
D26*
%TO.P,C4,1*%
%TO.N,/USB D-*%
X130587500Y-143150000D03*
%TO.P,C4,2*%
%TO.N,GND*%
X128512500Y-143150000D03*
%TD*%
D36*
%TO.P,D1,1,K*%
%TO.N,+28V*%
X149950000Y-75400000D03*
%TO.P,D1,2,A*%
%TO.N,Net-(D1-A)*%
X146650000Y-75400000D03*
%TD*%
D37*
%TO.N,+3V3*%
X161800000Y-77850000D03*
X152100000Y-78700000D03*
%TO.N,GND*%
X140650000Y-109200000D03*
X135400000Y-106350000D03*
X138400000Y-141150000D03*
X132900000Y-88800000D03*
X151500000Y-140100000D03*
X148000000Y-145250000D03*
X142750000Y-139250000D03*
X137050000Y-119900000D03*
X137450000Y-108200000D03*
X130500000Y-101900000D03*
X132600000Y-124000000D03*
X131800000Y-83000000D03*
X121950000Y-81250000D03*
X153500000Y-78850000D03*
X147750000Y-141500000D03*
X126300000Y-135000000D03*
X138100000Y-97500000D03*
X145800000Y-108100000D03*
X149650000Y-116900000D03*
X132700000Y-96950000D03*
X134100000Y-145950000D03*
X135300000Y-112400000D03*
X139450000Y-80900000D03*
X139200000Y-77200000D03*
X127950000Y-145200000D03*
X141700000Y-88600000D03*
X157700000Y-74050000D03*
X124200000Y-116900000D03*
X166150000Y-76750000D03*
X135350000Y-77100000D03*
X166000000Y-140650000D03*
X151750000Y-74700000D03*
X128300000Y-80900000D03*
X131400000Y-77100000D03*
X161950000Y-83350000D03*
X126750000Y-123050000D03*
X141000000Y-78700000D03*
X141250000Y-111850000D03*
X155350000Y-85050000D03*
X127900000Y-78100000D03*
X158600000Y-110200000D03*
X123750000Y-77250000D03*
X136000000Y-89700000D03*
X132650000Y-118050000D03*
X155600000Y-75900000D03*
X161400000Y-79050000D03*
X127650000Y-95100000D03*
X141150000Y-146800000D03*
X155250000Y-81600000D03*
X150600000Y-145700000D03*
X158250000Y-146000000D03*
%TO.N,/reset*%
X132500000Y-112600000D03*
X135500000Y-117900000D03*
%TO.N,Net-(D1-A)*%
X145150000Y-77400000D03*
%TO.N,Net-(D2-K)*%
X152100000Y-109050000D03*
X147000000Y-97550000D03*
%TO.N,/txcan*%
X140600000Y-113200000D03*
X141050000Y-118750000D03*
%TO.N,/SCK*%
X139300000Y-104650000D03*
%TO.N,/MOSI*%
X139350000Y-105800000D03*
%TO.N,/MISO*%
X138550000Y-85474500D03*
%TO.N,Net-(J2-Pin_2)*%
X147350000Y-72600000D03*
%TO.N,+28V*%
X166250000Y-108100000D03*
X165350000Y-92250000D03*
%TO.N,/rx*%
X124650000Y-121700000D03*
X146050000Y-137675500D03*
X129000000Y-109250000D03*
%TO.N,/tx*%
X126400000Y-118900000D03*
X149250000Y-141950000D03*
X123550000Y-121650000D03*
%TO.N,Net-(J8-Pin_1)*%
X156600000Y-74800000D03*
%TO.N,Net-(U1-IO18)*%
X121950000Y-118300000D03*
X127100000Y-96900000D03*
%TO.N,Net-(U1-IO19)*%
X121950000Y-119700000D03*
X133100000Y-94950000D03*
%TO.N,/io3*%
X138500000Y-91000000D03*
X142050000Y-91000000D03*
X139900000Y-120300000D03*
X140250000Y-114750000D03*
%TO.N,/io4*%
X130250000Y-109250000D03*
X130300000Y-121750000D03*
%TO.N,/io5*%
X131550000Y-109250000D03*
X131550000Y-121700000D03*
%TD*%
D38*
%TO.N,Net-(D4-A)*%
X159950671Y-146990671D02*
X159950671Y-138793171D01*
D39*
X159950671Y-138793171D02*
X159820000Y-138662500D01*
%TO.N,+28V*%
X160150000Y-132242824D02*
X159820000Y-132572824D01*
D38*
X159820000Y-132572824D02*
X159820000Y-135362500D01*
%TO.N,Net-(D4-A)*%
X157391830Y-149549511D02*
X159950671Y-146990671D01*
%TO.N,+3V3*%
X127862500Y-114250000D02*
X127862500Y-116350000D01*
X138700000Y-117100000D02*
X137100000Y-117100000D01*
X151825000Y-100600000D02*
X145850000Y-100600000D01*
X133950000Y-118700000D02*
X133950000Y-116400000D01*
X166750000Y-84560000D02*
X166750000Y-104624022D01*
X126850000Y-82837500D02*
X126769676Y-82837500D01*
X127662500Y-114200000D02*
X127662500Y-110837500D01*
X126769676Y-82837500D02*
X125425480Y-81493304D01*
X128500000Y-119450000D02*
X133200000Y-119450000D01*
X127662500Y-110837500D02*
X127750000Y-110750000D01*
X125425480Y-76174520D02*
X126850000Y-74750000D01*
X156399511Y-70856543D02*
X159542968Y-74000000D01*
X162682500Y-77482500D02*
X162682500Y-80492500D01*
X127750000Y-110750000D02*
X127700000Y-110750000D01*
X158650000Y-124750000D02*
X154360000Y-129040000D01*
X127862500Y-118812500D02*
X128500000Y-119450000D01*
X133950000Y-116400000D02*
X132250000Y-116400000D01*
X159542968Y-74000000D02*
X160750000Y-74000000D01*
X125425480Y-81493304D02*
X125425480Y-76174520D01*
D39*
X128052500Y-81635000D02*
X129725000Y-81635000D01*
D38*
X156399511Y-68899511D02*
X156399511Y-70856543D01*
X145850000Y-100600000D02*
X143899511Y-102550489D01*
X160750000Y-74000000D02*
X160750000Y-75887500D01*
X127862500Y-116350000D02*
X127862500Y-118462500D01*
D40*
X149995000Y-81250000D02*
X152100000Y-79145000D01*
D38*
X162682500Y-80492500D02*
X162682500Y-77132500D01*
X127650000Y-66950000D02*
X154450000Y-66950000D01*
D39*
X127862500Y-118462500D02*
X127862500Y-118812500D01*
D38*
X161250000Y-76050000D02*
X162682500Y-77482500D01*
X165423533Y-105950489D02*
X143899511Y-105950489D01*
X154450000Y-66950000D02*
X156399511Y-68899511D01*
X164100000Y-112800000D02*
X158650000Y-118250000D01*
X166750000Y-104624022D02*
X165423533Y-105950489D01*
D39*
X126850000Y-82837500D02*
X128052500Y-81635000D01*
D38*
X160750000Y-75887500D02*
X160587500Y-76050000D01*
D39*
X130450000Y-85850000D02*
X127437500Y-82837500D01*
D38*
X138700000Y-117100000D02*
X142050000Y-117100000D01*
X154360000Y-129040000D02*
X154360000Y-147850000D01*
X133200000Y-119450000D02*
X133950000Y-118700000D01*
X142050000Y-117100000D02*
X143899511Y-115250489D01*
D40*
X152100000Y-79145000D02*
X152100000Y-78700000D01*
D38*
X126850000Y-74750000D02*
X126850000Y-67750000D01*
X158650000Y-118250000D02*
X158650000Y-124750000D01*
D39*
X162682500Y-78732500D02*
X162682500Y-80492500D01*
D38*
X162682500Y-80492500D02*
X166750000Y-84560000D01*
X143899511Y-102550489D02*
X143899511Y-105950489D01*
X164100000Y-112800000D02*
X164100000Y-107274022D01*
D39*
X127437500Y-82837500D02*
X126850000Y-82837500D01*
D38*
X143899511Y-115250489D02*
X143899511Y-105950489D01*
X136400000Y-116400000D02*
X133950000Y-116400000D01*
X164100000Y-107274022D02*
X165423533Y-105950489D01*
X160587500Y-76050000D02*
X161250000Y-76050000D01*
X137100000Y-117100000D02*
X136400000Y-116400000D01*
X126850000Y-67750000D02*
X127650000Y-66950000D01*
D40*
X161800000Y-77850000D02*
X162682500Y-78732500D01*
D39*
%TO.N,GND*%
X129348249Y-80365000D02*
X127900000Y-78916751D01*
X126987500Y-80900000D02*
X126850000Y-80762500D01*
X128300000Y-80900000D02*
X126987500Y-80900000D01*
X129937500Y-117137500D02*
X130600000Y-117800000D01*
X155337500Y-75900000D02*
X154400000Y-74962500D01*
X154400000Y-74962500D02*
X152012500Y-74962500D01*
X130600000Y-117800000D02*
X132400000Y-117800000D01*
X158250000Y-146500000D02*
X156900000Y-147850000D01*
X129937500Y-116350000D02*
X129937500Y-117137500D01*
X121950000Y-81260000D02*
X123250000Y-82560000D01*
X155600000Y-75900000D02*
X155337500Y-75900000D01*
X138450000Y-79900000D02*
X139450000Y-80900000D01*
X132400000Y-117800000D02*
X132650000Y-118050000D01*
X127900000Y-78916751D02*
X127900000Y-78100000D01*
X129937500Y-116350000D02*
X129937500Y-114250000D01*
X158250000Y-146000000D02*
X158250000Y-146500000D01*
X136487500Y-113587500D02*
X136487500Y-114550000D01*
X138450000Y-79550000D02*
X138450000Y-79900000D01*
X152012500Y-74962500D02*
X151750000Y-74700000D01*
X121950000Y-81250000D02*
X121950000Y-81260000D01*
X129725000Y-80365000D02*
X129348249Y-80365000D01*
X135300000Y-112400000D02*
X136487500Y-113587500D01*
%TO.N,/reset*%
X142475480Y-143224520D02*
X150987980Y-143224520D01*
X131499520Y-142437027D02*
X131499520Y-142462013D01*
X132500000Y-112600000D02*
X131650000Y-112600000D01*
X132312987Y-143275480D02*
X136237973Y-143275480D01*
X136462973Y-143050480D02*
X142301440Y-143050480D01*
X129250000Y-112750000D02*
X129700000Y-113200000D01*
X129700000Y-113200000D02*
X131050000Y-113200000D01*
X142301440Y-143050480D02*
X142475480Y-143224520D01*
X129250000Y-110750000D02*
X129250000Y-112750000D01*
X131650000Y-112600000D02*
X131050000Y-113200000D01*
X136237973Y-143275480D02*
X136462973Y-143050480D01*
X150987980Y-143224520D02*
X151900000Y-142312500D01*
X135500000Y-117900000D02*
X135550000Y-117950000D01*
X122575020Y-116525020D02*
X121074980Y-116525020D01*
X120274980Y-117325020D02*
X120274980Y-140260697D01*
X135550000Y-118913604D02*
X134188604Y-120275000D01*
X121074980Y-116525020D02*
X120274980Y-117325020D01*
X129762013Y-140699520D02*
X131499520Y-142437027D01*
X132250000Y-114400000D02*
X134262500Y-114400000D01*
X134188604Y-120275000D02*
X126325000Y-120275000D01*
X134262500Y-114400000D02*
X134412500Y-114550000D01*
X120274980Y-140260697D02*
X120713803Y-140699520D01*
X135550000Y-117950000D02*
X135550000Y-118913604D01*
X131499520Y-142462013D02*
X132312987Y-143275480D01*
X120713803Y-140699520D02*
X129762013Y-140699520D01*
X131050000Y-113200000D02*
X132250000Y-114400000D01*
X126325000Y-120275000D02*
X122575020Y-116525020D01*
D41*
%TO.N,/USB D-*%
X130587500Y-143387500D02*
X131400000Y-144200000D01*
X132850000Y-144200000D02*
X132890000Y-144240000D01*
X130587500Y-143150000D02*
X130587500Y-143387500D01*
X131400000Y-144200000D02*
X132850000Y-144200000D01*
X132890000Y-144240000D02*
X132890000Y-148000000D01*
%TO.N,/USB D+*%
X134950000Y-144200000D02*
X134950000Y-145000000D01*
X135430000Y-145480000D02*
X135430000Y-148000000D01*
X134950000Y-145000000D02*
X135430000Y-145480000D01*
X135500000Y-144750000D02*
X134950000Y-144200000D01*
X137262500Y-144750000D02*
X135500000Y-144750000D01*
D39*
%TO.N,/ledb*%
X129250000Y-91262500D02*
X129250000Y-93250000D01*
X130200000Y-90312500D02*
X129250000Y-91262500D01*
%TO.N,/leda*%
X127750000Y-90712500D02*
X127750000Y-93250000D01*
X128150000Y-90312500D02*
X127750000Y-90712500D01*
D38*
%TO.N,Net-(D1-A)*%
X146650000Y-75900000D02*
X145150000Y-77400000D01*
D39*
X146650000Y-75400000D02*
X146650000Y-75900000D01*
D38*
%TO.N,Net-(D2-K)*%
X147650000Y-97200000D02*
X147300000Y-97550000D01*
X154400000Y-112800000D02*
X150150000Y-112800000D01*
X147300000Y-97550000D02*
X147000000Y-97550000D01*
X150150000Y-112800000D02*
X149550000Y-113400000D01*
X151825000Y-97200000D02*
X147650000Y-97200000D01*
X154400000Y-112800000D02*
X152050000Y-110450000D01*
X152050000Y-110450000D02*
X152050000Y-109100000D01*
X152050000Y-109100000D02*
X152100000Y-109050000D01*
D39*
%TO.N,Net-(J4-Pin_3)*%
X140200000Y-78300000D02*
X140200000Y-83650000D01*
X134298928Y-81635000D02*
X134675000Y-81635000D01*
X138800000Y-83850000D02*
X137500000Y-82550000D01*
X133340000Y-80676072D02*
X134298928Y-81635000D01*
X136585000Y-81635000D02*
X134675000Y-81635000D01*
X137500000Y-82550000D02*
X136585000Y-81635000D01*
X147800000Y-70700000D02*
X140200000Y-78300000D01*
X133340000Y-70082500D02*
X133740000Y-69682500D01*
X140000000Y-83850000D02*
X138800000Y-83850000D01*
X140200000Y-83650000D02*
X140000000Y-83850000D01*
X133340000Y-80676072D02*
X133340000Y-70082500D01*
%TO.N,/txcan*%
X122650000Y-121150000D02*
X122650000Y-137950000D01*
X132275000Y-121399695D02*
X131800305Y-120925000D01*
X138250000Y-110750000D02*
X138250000Y-106800000D01*
X122650000Y-137950000D02*
X123850000Y-139150000D01*
X131745000Y-79095000D02*
X131745000Y-81621072D01*
X131800305Y-120925000D02*
X122875000Y-120925000D01*
X139375305Y-106800000D02*
X140550000Y-105625305D01*
X141050000Y-139150000D02*
X144200000Y-142300000D01*
X138250000Y-110750000D02*
X138250000Y-112600000D01*
X139186198Y-84300480D02*
X140550000Y-85664282D01*
X131745000Y-81621072D02*
X134424408Y-84300480D01*
X138850000Y-113200000D02*
X140600000Y-113200000D01*
X134424408Y-84300480D02*
X139186198Y-84300480D01*
X138250000Y-106800000D02*
X139375305Y-106800000D01*
X133700305Y-121399695D02*
X132275000Y-121399695D01*
X129725000Y-79095000D02*
X131745000Y-79095000D01*
X136350000Y-118750000D02*
X133700305Y-121399695D01*
X138250000Y-112600000D02*
X138850000Y-113200000D01*
X123850000Y-139150000D02*
X141050000Y-139150000D01*
X122875000Y-120925000D02*
X122650000Y-121150000D01*
X141050000Y-118750000D02*
X136350000Y-118750000D01*
X140550000Y-105625305D02*
X140550000Y-85664282D01*
%TO.N,/rxcan*%
X138999989Y-84749989D02*
X139750000Y-85500000D01*
X131569989Y-84749989D02*
X138999989Y-84749989D01*
X139750000Y-85500000D02*
X139750000Y-93250000D01*
X129725000Y-82905000D02*
X131569989Y-84749989D01*
%TO.N,/SCK*%
X135700000Y-104650000D02*
X139300000Y-104650000D01*
X133750000Y-106600000D02*
X135700000Y-104650000D01*
X133750000Y-110750000D02*
X133750000Y-106600000D01*
%TO.N,/MOSI*%
X135250000Y-110750000D02*
X135250000Y-107800000D01*
X135250000Y-107800000D02*
X137250000Y-105800000D01*
X137250000Y-105800000D02*
X139350000Y-105800000D01*
%TO.N,/MISO*%
X130750000Y-91950000D02*
X131800000Y-90900000D01*
X131800000Y-86500000D02*
X132450000Y-85850000D01*
X138100000Y-85850000D02*
X138475500Y-85474500D01*
X138475500Y-85474500D02*
X138550000Y-85474500D01*
X131800000Y-90900000D02*
X131800000Y-86500000D01*
X130750000Y-93250000D02*
X130750000Y-91950000D01*
X132450000Y-85850000D02*
X138100000Y-85850000D01*
%TO.N,Net-(J2-Pin_2)*%
X137550000Y-78000000D02*
X137550000Y-77900000D01*
X137550000Y-80700000D02*
X137550000Y-77900000D01*
X134675000Y-80365000D02*
X135185000Y-80365000D01*
X137550000Y-80700000D02*
X139400000Y-82550000D01*
X151925480Y-72724520D02*
X147399888Y-72724520D01*
X147399888Y-72649888D02*
X147350000Y-72600000D01*
X147399888Y-72724520D02*
X147399888Y-72649888D01*
X151925480Y-72724520D02*
X154850000Y-69800000D01*
X137550000Y-77900000D02*
X137550000Y-69682500D01*
X135185000Y-80365000D02*
X137550000Y-78000000D01*
%TO.N,Net-(J2-Pin_1)*%
X148900000Y-69800000D02*
X147800000Y-68700000D01*
X152310000Y-69800000D02*
X148900000Y-69800000D01*
D38*
%TO.N,+28V*%
X157602500Y-80492500D02*
X157602500Y-86952500D01*
X157602500Y-86952500D02*
X158500000Y-87850000D01*
X155900000Y-90450000D02*
X151825000Y-94525000D01*
D39*
X149950000Y-75400000D02*
X149950000Y-75600000D01*
D38*
X151825000Y-94525000D02*
X151825000Y-95500000D01*
X151387500Y-77037500D02*
X154400000Y-77037500D01*
%TO.N,Net-(D4-A)*%
X131899511Y-149549511D02*
X157391830Y-149549511D01*
%TO.N,+28V*%
X160150000Y-132242824D02*
X166700000Y-125692824D01*
X154400000Y-77290000D02*
X157602500Y-80492500D01*
X149950000Y-75600000D02*
X151387500Y-77037500D01*
%TO.N,Net-(D4-A)*%
X130350000Y-148000000D02*
X131899511Y-149549511D01*
%TO.N,+28V*%
X166400000Y-108100000D02*
X166250000Y-108100000D01*
X163550000Y-90450000D02*
X155900000Y-90450000D01*
D39*
X154400000Y-77037500D02*
X154400000Y-77290000D01*
D38*
X166700000Y-125692824D02*
X166700000Y-108400000D01*
X165350000Y-92250000D02*
X163550000Y-90450000D01*
X166700000Y-108400000D02*
X166400000Y-108100000D01*
X158200000Y-88200000D02*
X155600000Y-90800000D01*
D39*
%TO.N,/rx*%
X133224511Y-98575489D02*
X128999051Y-98575489D01*
X149670000Y-137153604D02*
X149148104Y-137675500D01*
X124650000Y-137200000D02*
X124700000Y-137250000D01*
X138250000Y-93250000D02*
X138250000Y-93550000D01*
X127224540Y-100311178D02*
X127224540Y-107474540D01*
X149670000Y-135250000D02*
X149670000Y-137153604D01*
X124700000Y-137250000D02*
X125125500Y-137675500D01*
X128960229Y-98575489D02*
X127224540Y-100311178D01*
X149148104Y-137675500D02*
X146050000Y-137675500D01*
X125125500Y-137675500D02*
X146050000Y-137675500D01*
X127224540Y-107474540D02*
X129000000Y-109250000D01*
X124650000Y-121700000D02*
X124650000Y-137200000D01*
X138250000Y-93550000D02*
X133224511Y-98575489D01*
X128999051Y-98575489D02*
X128960229Y-98575489D01*
%TO.N,/tx*%
X146100000Y-138400000D02*
X149250000Y-141550000D01*
X149250000Y-138210000D02*
X149250000Y-141950000D01*
X123550000Y-137750000D02*
X124200000Y-138400000D01*
X132900000Y-97900000D02*
X132750000Y-98050000D01*
X136750000Y-93250000D02*
X136750000Y-94050000D01*
X132950000Y-97850000D02*
X132900000Y-97900000D01*
X132700000Y-98100000D02*
X128800000Y-98100000D01*
X126775020Y-100124980D02*
X126775020Y-118524980D01*
X132750000Y-98050000D02*
X132700000Y-98100000D01*
X136750000Y-94050000D02*
X132950000Y-97850000D01*
X124200000Y-138400000D02*
X141900000Y-138400000D01*
X152210000Y-135250000D02*
X149250000Y-138210000D01*
X123550000Y-121650000D02*
X123550000Y-137750000D01*
X149250000Y-141550000D02*
X149250000Y-141950000D01*
X126775020Y-118524980D02*
X126400000Y-118900000D01*
X141900000Y-138400000D02*
X146100000Y-138400000D01*
X128800000Y-98100000D02*
X126775020Y-100124980D01*
%TO.N,Net-(J3-Pin_1)*%
X144200000Y-144300000D02*
X144200000Y-147850000D01*
%TO.N,Net-(J3-Pin_4)*%
X151820000Y-144392500D02*
X151820000Y-147850000D01*
X151900000Y-144312500D02*
X151820000Y-144392500D01*
%TO.N,Net-(J6-Pin_1)*%
X128150000Y-88487500D02*
X124762500Y-85100000D01*
X124762500Y-85100000D02*
X123250000Y-85100000D01*
%TO.N,Net-(J6-Pin_3)*%
X130200000Y-87848299D02*
X124450000Y-82098299D01*
X130200000Y-88487500D02*
X130200000Y-87848299D01*
X124450000Y-81220000D02*
X123250000Y-80020000D01*
X124450000Y-82098299D02*
X124450000Y-81220000D01*
%TO.N,Net-(J8-Pin_1)*%
X156600000Y-73300000D02*
X156150000Y-72850000D01*
X156600000Y-74800000D02*
X156600000Y-73300000D01*
%TO.N,Net-(U1-IO18)*%
X135250000Y-94550000D02*
X135250000Y-93250000D01*
X127100000Y-96900000D02*
X128300000Y-95700000D01*
X130900000Y-140250000D02*
X122200000Y-140250000D01*
X134100000Y-95700000D02*
X135250000Y-94550000D01*
X128300000Y-95700000D02*
X134100000Y-95700000D01*
X121000000Y-139050000D02*
X121000000Y-119250000D01*
X122200000Y-140250000D02*
X121000000Y-139050000D01*
X121000000Y-119250000D02*
X121100000Y-119150000D01*
X132850000Y-142200000D02*
X130900000Y-140250000D01*
X121950000Y-118300000D02*
X121100000Y-119150000D01*
%TO.N,Net-(U1-IO19)*%
X131399520Y-139800480D02*
X122400480Y-139800480D01*
X122400480Y-139800480D02*
X121950000Y-139350000D01*
X134350000Y-140450000D02*
X134950000Y-141050000D01*
X131399520Y-139800480D02*
X132049040Y-140450000D01*
X132049040Y-140450000D02*
X134350000Y-140450000D01*
X134950000Y-141050000D02*
X134950000Y-142200000D01*
X121950000Y-139350000D02*
X121950000Y-119700000D01*
X133750000Y-93250000D02*
X133750000Y-94300000D01*
X133750000Y-94300000D02*
X133100000Y-94950000D01*
%TO.N,/io3*%
X142050000Y-112950000D02*
X140250000Y-114750000D01*
X140950000Y-133250000D02*
X145130000Y-133250000D01*
X131200000Y-132500000D02*
X133000000Y-134300000D01*
X145130000Y-133250000D02*
X147130000Y-135250000D01*
X131450000Y-122700000D02*
X131200000Y-122950000D01*
X132250000Y-93250000D02*
X132250000Y-92150000D01*
X137500000Y-122700000D02*
X131450000Y-122700000D01*
X139900000Y-134300000D02*
X140950000Y-133250000D01*
X133000000Y-134300000D02*
X139900000Y-134300000D01*
X131200000Y-122950000D02*
X131200000Y-132500000D01*
X132250000Y-92150000D02*
X133400000Y-91000000D01*
X133400000Y-91000000D02*
X138500000Y-91000000D01*
X139900000Y-120300000D02*
X137500000Y-122700000D01*
X142050000Y-91000000D02*
X142050000Y-112950000D01*
%TO.N,/io4*%
X130300000Y-133200000D02*
X132350000Y-135250000D01*
X130750000Y-109750000D02*
X130250000Y-109250000D01*
X130750000Y-110750000D02*
X130750000Y-109750000D01*
X130300000Y-121750000D02*
X130300000Y-133200000D01*
X132350000Y-135250000D02*
X142050000Y-135250000D01*
%TO.N,/io5*%
X143040000Y-133700000D02*
X144590000Y-135250000D01*
X130750000Y-132950000D02*
X132600000Y-134800000D01*
X132250000Y-109950000D02*
X131550000Y-109250000D01*
X132600000Y-134800000D02*
X140200000Y-134800000D01*
X140200000Y-134800000D02*
X141300000Y-133700000D01*
X131550000Y-121700000D02*
X130750000Y-122500000D01*
X141300000Y-133700000D02*
X143040000Y-133700000D01*
X132250000Y-110750000D02*
X132250000Y-109950000D01*
X130750000Y-122500000D02*
X130750000Y-132950000D01*
%TO.N,/boff*%
X143418198Y-82256802D02*
X143418198Y-76731803D01*
X146550001Y-73600000D02*
X153400000Y-73600000D01*
X142775000Y-114350305D02*
X142775000Y-82900000D01*
X153400000Y-73600000D02*
X154150000Y-72850000D01*
X139075000Y-115475000D02*
X141650305Y-115475000D01*
X138700000Y-115100000D02*
X139075000Y-115475000D01*
X141650305Y-115475000D02*
X142775000Y-114350305D01*
X136750000Y-110750000D02*
X136750000Y-113150000D01*
X143418198Y-76731803D02*
X146550001Y-73600000D01*
X136750000Y-113150000D02*
X138700000Y-115100000D01*
X142775000Y-82900000D02*
X143418198Y-82256802D01*
%TD*%
%TA.AperFunction,Conductor*%
%TO.N,GND*%
G36*
X119919012Y-140801087D02*
G01*
X119925595Y-140807216D01*
X120206554Y-141088175D01*
X120219638Y-141104505D01*
X120271469Y-141153177D01*
X120274312Y-141155933D01*
X120294033Y-141175654D01*
X120297154Y-141178075D01*
X120297162Y-141178082D01*
X120297228Y-141178133D01*
X120306248Y-141185837D01*
X120338482Y-141216106D01*
X120356238Y-141225867D01*
X120372754Y-141236716D01*
X120388762Y-141249133D01*
X120429328Y-141266687D01*
X120439991Y-141271911D01*
X120478741Y-141293214D01*
X120478743Y-141293215D01*
X120498365Y-141298253D01*
X120517070Y-141304657D01*
X120535658Y-141312701D01*
X120579325Y-141319616D01*
X120590932Y-141322020D01*
X120633773Y-141333020D01*
X120654034Y-141333020D01*
X120673742Y-141334570D01*
X120693746Y-141337739D01*
X120693746Y-141337738D01*
X120693747Y-141337739D01*
X120737757Y-141333579D01*
X120749614Y-141333020D01*
X129447418Y-141333020D01*
X129515539Y-141353022D01*
X129536514Y-141369925D01*
X129952021Y-141785433D01*
X129986046Y-141847745D01*
X129980981Y-141918561D01*
X129938434Y-141975396D01*
X129929072Y-141981769D01*
X129927263Y-141982884D01*
X129927262Y-141982885D01*
X129856508Y-142026526D01*
X129776344Y-142075972D01*
X129640556Y-142211761D01*
X129637735Y-142208940D01*
X129604126Y-142239152D01*
X129534047Y-142250534D01*
X129468940Y-142222222D01*
X129459639Y-142211483D01*
X129459049Y-142212074D01*
X129323342Y-142076367D01*
X129172522Y-141983340D01*
X129004327Y-141927606D01*
X128903692Y-141917325D01*
X128897303Y-141917000D01*
X128766500Y-141917000D01*
X128766500Y-144383000D01*
X128897303Y-144383000D01*
X128903692Y-144382674D01*
X129004327Y-144372393D01*
X129172522Y-144316659D01*
X129323342Y-144223632D01*
X129459049Y-144087926D01*
X129461945Y-144090822D01*
X129495205Y-144060884D01*
X129565276Y-144049454D01*
X129630403Y-144077721D01*
X129640001Y-144088793D01*
X129640556Y-144088239D01*
X129776344Y-144224027D01*
X129776346Y-144224028D01*
X129776348Y-144224030D01*
X129927262Y-144317115D01*
X130095574Y-144372887D01*
X130171637Y-144380658D01*
X130196253Y-144383173D01*
X130196255Y-144383173D01*
X130199455Y-144383500D01*
X130670760Y-144383499D01*
X130738881Y-144403501D01*
X130759855Y-144420404D01*
X130935681Y-144596230D01*
X130946547Y-144608619D01*
X130966013Y-144633987D01*
X130997925Y-144658474D01*
X130997929Y-144658478D01*
X131093124Y-144731524D01*
X131241150Y-144792838D01*
X131400000Y-144813751D01*
X131431698Y-144809577D01*
X131448144Y-144808500D01*
X131597940Y-144808500D01*
X131666061Y-144828502D01*
X131705181Y-144868353D01*
X131707884Y-144872735D01*
X131707885Y-144872738D01*
X131800000Y-145022079D01*
X131800972Y-145023655D01*
X131926344Y-145149027D01*
X131926346Y-145149028D01*
X131926348Y-145149030D01*
X132077262Y-145242115D01*
X132195134Y-145281173D01*
X132253503Y-145321585D01*
X132280759Y-145387141D01*
X132281499Y-145400776D01*
X132281499Y-146709549D01*
X132261497Y-146777670D01*
X132215470Y-146820362D01*
X132144421Y-146858812D01*
X131966758Y-146997094D01*
X131905754Y-147063362D01*
X131844901Y-147099933D01*
X131773937Y-147097798D01*
X131715392Y-147057636D01*
X131694998Y-147022056D01*
X131685688Y-146997094D01*
X131650889Y-146903796D01*
X131627129Y-146872056D01*
X131563261Y-146786738D01*
X131446205Y-146699111D01*
X131356377Y-146665607D01*
X131309201Y-146648011D01*
X131248638Y-146641500D01*
X129451362Y-146641500D01*
X129448013Y-146641859D01*
X129448013Y-146641860D01*
X129390799Y-146648011D01*
X129253794Y-146699111D01*
X129136738Y-146786738D01*
X129049111Y-146903794D01*
X129008479Y-147012733D01*
X128998011Y-147040799D01*
X128991500Y-147101362D01*
X128991500Y-148898638D01*
X128991860Y-148901986D01*
X128998011Y-148959200D01*
X129049111Y-149096205D01*
X129136738Y-149213261D01*
X129253794Y-149300888D01*
X129253795Y-149300888D01*
X129253796Y-149300889D01*
X129390799Y-149351989D01*
X129451362Y-149358500D01*
X130230075Y-149358500D01*
X130298196Y-149378502D01*
X130319171Y-149395405D01*
X131146982Y-150223217D01*
X131155285Y-150232378D01*
X131182943Y-150266079D01*
X131336507Y-150392106D01*
X131496039Y-150477378D01*
X131546687Y-150527130D01*
X131562397Y-150596367D01*
X131538181Y-150663106D01*
X131481727Y-150706158D01*
X131436643Y-150714500D01*
X126836500Y-150714500D01*
X126768379Y-150694498D01*
X126721886Y-150640842D01*
X126710500Y-150588500D01*
X126710500Y-143404000D01*
X127417000Y-143404000D01*
X127417000Y-143672302D01*
X127417325Y-143678692D01*
X127427606Y-143779327D01*
X127483340Y-143947522D01*
X127576367Y-144098342D01*
X127701657Y-144223632D01*
X127852477Y-144316659D01*
X128020672Y-144372393D01*
X128121307Y-144382674D01*
X128127697Y-144383000D01*
X128258500Y-144383000D01*
X128258500Y-143404000D01*
X127417000Y-143404000D01*
X126710500Y-143404000D01*
X126710500Y-142896000D01*
X127417000Y-142896000D01*
X128258500Y-142896000D01*
X128258500Y-141917000D01*
X128127697Y-141917000D01*
X128121307Y-141917325D01*
X128020672Y-141927606D01*
X127852477Y-141983340D01*
X127701657Y-142076367D01*
X127576367Y-142201657D01*
X127483340Y-142352477D01*
X127427606Y-142520672D01*
X127417325Y-142621307D01*
X127417000Y-142627697D01*
X127417000Y-142896000D01*
X126710500Y-142896000D01*
X126710500Y-142252154D01*
X126711365Y-142247807D01*
X126711365Y-142224999D01*
X126708036Y-142216963D01*
X126702089Y-142214500D01*
X126700001Y-142213635D01*
X126677194Y-142213635D01*
X126672846Y-142214500D01*
X119836500Y-142214500D01*
X119768379Y-142194498D01*
X119721886Y-142140842D01*
X119710500Y-142088500D01*
X119710500Y-140896311D01*
X119730502Y-140828190D01*
X119784158Y-140781697D01*
X119854432Y-140771593D01*
X119919012Y-140801087D01*
G37*
%TD.AperFunction*%
%TA.AperFunction,Conductor*%
G36*
X142057560Y-143703982D02*
G01*
X142075686Y-143718125D01*
X142100159Y-143741106D01*
X142117906Y-143750862D01*
X142134430Y-143761716D01*
X142150439Y-143774134D01*
X142191022Y-143791695D01*
X142201673Y-143796913D01*
X142240420Y-143818215D01*
X142260040Y-143823252D01*
X142278747Y-143829657D01*
X142280120Y-143830251D01*
X142297334Y-143837701D01*
X142307985Y-143839387D01*
X142341010Y-143844618D01*
X142352605Y-143847018D01*
X142395450Y-143858020D01*
X142415704Y-143858020D01*
X142435414Y-143859571D01*
X142455422Y-143862740D01*
X142455422Y-143862739D01*
X142455423Y-143862740D01*
X142499441Y-143858578D01*
X142511299Y-143858020D01*
X142865500Y-143858020D01*
X142933621Y-143878022D01*
X142980114Y-143931678D01*
X142991500Y-143984020D01*
X142991500Y-144697338D01*
X142991500Y-144697357D01*
X142991501Y-144700544D01*
X142991825Y-144703721D01*
X142991826Y-144703729D01*
X143000081Y-144784531D01*
X143002113Y-144804426D01*
X143057885Y-144972738D01*
X143150970Y-145123652D01*
X143150972Y-145123655D01*
X143276344Y-145249027D01*
X143276346Y-145249028D01*
X143276348Y-145249030D01*
X143427262Y-145342115D01*
X143480134Y-145359634D01*
X143538503Y-145400046D01*
X143565760Y-145465602D01*
X143566500Y-145479238D01*
X143566500Y-146365500D01*
X143546498Y-146433621D01*
X143492842Y-146480114D01*
X143440500Y-146491500D01*
X143301362Y-146491500D01*
X143298013Y-146491859D01*
X143298013Y-146491860D01*
X143240799Y-146498011D01*
X143103794Y-146549111D01*
X142986738Y-146636738D01*
X142899111Y-146753794D01*
X142855002Y-146872056D01*
X142848011Y-146890799D01*
X142841500Y-146951362D01*
X142841500Y-146954729D01*
X142841500Y-146954730D01*
X142841500Y-148415011D01*
X142821498Y-148483132D01*
X142767842Y-148529625D01*
X142715500Y-148541011D01*
X139395748Y-148541011D01*
X139327627Y-148521009D01*
X139281134Y-148467353D01*
X139271030Y-148397079D01*
X139273604Y-148384080D01*
X139306544Y-148254000D01*
X138401116Y-148254000D01*
X138429493Y-148209844D01*
X138470000Y-148071889D01*
X138470000Y-147928111D01*
X138429493Y-147790156D01*
X138401116Y-147746000D01*
X139306544Y-147746000D01*
X139306544Y-147745999D01*
X139258822Y-147557548D01*
X139168419Y-147351451D01*
X139045321Y-147163037D01*
X138892903Y-146997466D01*
X138715302Y-146859233D01*
X138517368Y-146752116D01*
X138304510Y-146679042D01*
X138224000Y-146665606D01*
X138224000Y-147566325D01*
X138112315Y-147515320D01*
X138005763Y-147500000D01*
X137934237Y-147500000D01*
X137827685Y-147515320D01*
X137716000Y-147566325D01*
X137716000Y-146665607D01*
X137715999Y-146665606D01*
X137635489Y-146679042D01*
X137422631Y-146752116D01*
X137224697Y-146859233D01*
X137047096Y-146997466D01*
X136894678Y-147163037D01*
X136805782Y-147299102D01*
X136751778Y-147345190D01*
X136681430Y-147354765D01*
X136617073Y-147324787D01*
X136594816Y-147299101D01*
X136563312Y-147250880D01*
X136505722Y-147162732D01*
X136353240Y-146997094D01*
X136353239Y-146997093D01*
X136353237Y-146997091D01*
X136175576Y-146858811D01*
X136104530Y-146820362D01*
X136054140Y-146770349D01*
X136038500Y-146709549D01*
X136038500Y-145676879D01*
X136058502Y-145608758D01*
X136112158Y-145562265D01*
X136182432Y-145552161D01*
X136247012Y-145581655D01*
X136271738Y-145610728D01*
X136321288Y-145691061D01*
X136325972Y-145698655D01*
X136451344Y-145824027D01*
X136451346Y-145824028D01*
X136451348Y-145824030D01*
X136602262Y-145917115D01*
X136770574Y-145972887D01*
X136846637Y-145980658D01*
X136871253Y-145983173D01*
X136871255Y-145983173D01*
X136874455Y-145983500D01*
X137650544Y-145983499D01*
X137754426Y-145972887D01*
X137922738Y-145917115D01*
X138073652Y-145824030D01*
X138140226Y-145757456D01*
X138209444Y-145688239D01*
X138212266Y-145691061D01*
X138245826Y-145660869D01*
X138315900Y-145649458D01*
X138381019Y-145677744D01*
X138390356Y-145688520D01*
X138390951Y-145687926D01*
X138526657Y-145823632D01*
X138677477Y-145916659D01*
X138845672Y-145972393D01*
X138946307Y-145982674D01*
X138952697Y-145983000D01*
X139083500Y-145983000D01*
X139083500Y-145004000D01*
X139591500Y-145004000D01*
X139591500Y-145983000D01*
X139722303Y-145983000D01*
X139728692Y-145982674D01*
X139829327Y-145972393D01*
X139997522Y-145916659D01*
X140148342Y-145823632D01*
X140273632Y-145698342D01*
X140366659Y-145547522D01*
X140422393Y-145379327D01*
X140432674Y-145278692D01*
X140433000Y-145272302D01*
X140433000Y-145004000D01*
X139591500Y-145004000D01*
X139083500Y-145004000D01*
X139083500Y-144622000D01*
X139103502Y-144553879D01*
X139157158Y-144507386D01*
X139209500Y-144496000D01*
X140433000Y-144496000D01*
X140433000Y-144227697D01*
X140432674Y-144221307D01*
X140422393Y-144120672D01*
X140366658Y-143952475D01*
X140319566Y-143876126D01*
X140300829Y-143807647D01*
X140322089Y-143739908D01*
X140376596Y-143694417D01*
X140426807Y-143683980D01*
X141989439Y-143683980D01*
X142057560Y-143703982D01*
G37*
%TD.AperFunction*%
%TA.AperFunction,Conductor*%
G36*
X126858512Y-94263569D02*
G01*
X126876868Y-94283284D01*
X126936738Y-94363261D01*
X127053794Y-94450888D01*
X127053795Y-94450888D01*
X127053796Y-94450889D01*
X127190799Y-94501989D01*
X127251362Y-94508500D01*
X127254731Y-94508500D01*
X128245269Y-94508500D01*
X128248638Y-94508500D01*
X128309201Y-94501989D01*
X128446204Y-94450889D01*
X128446206Y-94450886D01*
X128455966Y-94447247D01*
X128526782Y-94442182D01*
X128544031Y-94447247D01*
X128567874Y-94456139D01*
X128690799Y-94501989D01*
X128751362Y-94508500D01*
X128754731Y-94508500D01*
X129745269Y-94508500D01*
X129748638Y-94508500D01*
X129809201Y-94501989D01*
X129946204Y-94450889D01*
X129946205Y-94450887D01*
X129955967Y-94447247D01*
X130026782Y-94442181D01*
X130044033Y-94447247D01*
X130053794Y-94450887D01*
X130053796Y-94450889D01*
X130190799Y-94501989D01*
X130251362Y-94508500D01*
X130254731Y-94508500D01*
X131245269Y-94508500D01*
X131248638Y-94508500D01*
X131309201Y-94501989D01*
X131446204Y-94450889D01*
X131446206Y-94450887D01*
X131455966Y-94447247D01*
X131526781Y-94442181D01*
X131544032Y-94447247D01*
X131553795Y-94450888D01*
X131553796Y-94450889D01*
X131690799Y-94501989D01*
X131751362Y-94508500D01*
X132114775Y-94508500D01*
X132182896Y-94528502D01*
X132229389Y-94582158D01*
X132239493Y-94652432D01*
X132234608Y-94673436D01*
X132206458Y-94760070D01*
X132186110Y-94953671D01*
X132159096Y-95019328D01*
X132100875Y-95059957D01*
X132060800Y-95066500D01*
X128383853Y-95066500D01*
X128363064Y-95064204D01*
X128292014Y-95066438D01*
X128288055Y-95066500D01*
X128260144Y-95066500D01*
X128256218Y-95066995D01*
X128256200Y-95066997D01*
X128256108Y-95067009D01*
X128244303Y-95067937D01*
X128200110Y-95069326D01*
X128180657Y-95074978D01*
X128161303Y-95078986D01*
X128141204Y-95081525D01*
X128100096Y-95097801D01*
X128088870Y-95101644D01*
X128046408Y-95113981D01*
X128028964Y-95124297D01*
X128011215Y-95132991D01*
X127992384Y-95140446D01*
X127956625Y-95166427D01*
X127946706Y-95172943D01*
X127908636Y-95195457D01*
X127894309Y-95209785D01*
X127879279Y-95222622D01*
X127862894Y-95234526D01*
X127834716Y-95268587D01*
X127826729Y-95277364D01*
X127149500Y-95954595D01*
X127087187Y-95988620D01*
X127060404Y-95991500D01*
X127004513Y-95991500D01*
X126817712Y-96031206D01*
X126817708Y-96031207D01*
X126804759Y-96033960D01*
X126803935Y-96030088D01*
X126756854Y-96036390D01*
X126692564Y-96006269D01*
X126654764Y-95946172D01*
X126650000Y-95911853D01*
X126650000Y-94358793D01*
X126670002Y-94290672D01*
X126723658Y-94244179D01*
X126793932Y-94234075D01*
X126858512Y-94263569D01*
G37*
%TD.AperFunction*%
%TA.AperFunction,Conductor*%
G36*
X139044033Y-94447247D02*
G01*
X139053794Y-94450887D01*
X139053796Y-94450889D01*
X139190799Y-94501989D01*
X139251362Y-94508500D01*
X139790500Y-94508500D01*
X139858621Y-94528502D01*
X139905114Y-94582158D01*
X139916500Y-94634500D01*
X139916500Y-103735983D01*
X139896498Y-103804104D01*
X139842842Y-103850597D01*
X139772568Y-103860701D01*
X139739252Y-103851090D01*
X139582290Y-103781207D01*
X139582288Y-103781206D01*
X139395487Y-103741500D01*
X139204513Y-103741500D01*
X139079978Y-103767970D01*
X139017711Y-103781206D01*
X138843246Y-103858883D01*
X138688746Y-103971133D01*
X138685435Y-103974812D01*
X138624988Y-104012051D01*
X138591800Y-104016500D01*
X135783849Y-104016500D01*
X135763064Y-104014205D01*
X135692033Y-104016438D01*
X135688075Y-104016500D01*
X135660144Y-104016500D01*
X135656232Y-104016993D01*
X135656199Y-104016996D01*
X135656101Y-104017009D01*
X135644300Y-104017937D01*
X135600110Y-104019326D01*
X135580657Y-104024978D01*
X135561303Y-104028986D01*
X135541201Y-104031526D01*
X135500084Y-104047804D01*
X135488859Y-104051647D01*
X135446408Y-104063980D01*
X135428967Y-104074295D01*
X135411219Y-104082989D01*
X135392383Y-104090447D01*
X135356614Y-104116434D01*
X135346697Y-104122948D01*
X135308637Y-104145457D01*
X135294305Y-104159788D01*
X135279281Y-104172619D01*
X135262896Y-104184524D01*
X135234711Y-104218593D01*
X135226723Y-104227370D01*
X133361336Y-106092757D01*
X133345016Y-106105833D01*
X133296370Y-106157635D01*
X133293621Y-106160472D01*
X133276667Y-106177427D01*
X133276660Y-106177434D01*
X133273865Y-106180230D01*
X133271442Y-106183352D01*
X133271426Y-106183371D01*
X133271365Y-106183451D01*
X133263689Y-106192436D01*
X133233414Y-106224677D01*
X133223652Y-106242434D01*
X133212801Y-106258952D01*
X133200385Y-106274959D01*
X133182824Y-106315539D01*
X133177604Y-106326195D01*
X133156304Y-106364940D01*
X133151267Y-106384559D01*
X133144864Y-106403261D01*
X133136818Y-106421855D01*
X133129901Y-106465524D01*
X133127495Y-106477143D01*
X133116500Y-106519969D01*
X133116499Y-106540234D01*
X133114949Y-106559932D01*
X133111780Y-106579944D01*
X133115940Y-106623959D01*
X133116499Y-106635814D01*
X133116499Y-109431153D01*
X133096497Y-109499274D01*
X133042841Y-109545767D01*
X132972567Y-109555871D01*
X132946467Y-109549209D01*
X132862369Y-109517842D01*
X132809201Y-109498011D01*
X132748638Y-109491500D01*
X132745269Y-109491500D01*
X132739595Y-109491500D01*
X132671474Y-109471498D01*
X132650500Y-109454595D01*
X132497121Y-109301216D01*
X132463095Y-109238904D01*
X132460908Y-109225309D01*
X132443542Y-109060072D01*
X132405371Y-108942595D01*
X132384527Y-108878443D01*
X132289041Y-108713057D01*
X132161252Y-108571133D01*
X132052606Y-108492197D01*
X132006752Y-108458882D01*
X131832288Y-108381206D01*
X131645487Y-108341500D01*
X131454513Y-108341500D01*
X131329979Y-108367970D01*
X131267711Y-108381206D01*
X131093246Y-108458883D01*
X130974059Y-108545477D01*
X130907191Y-108569335D01*
X130838040Y-108553254D01*
X130825938Y-108545476D01*
X130752606Y-108492197D01*
X130706752Y-108458882D01*
X130532288Y-108381206D01*
X130345487Y-108341500D01*
X130154513Y-108341500D01*
X130029978Y-108367970D01*
X129967711Y-108381206D01*
X129793246Y-108458883D01*
X129699060Y-108527313D01*
X129632192Y-108551171D01*
X129563041Y-108535090D01*
X129550940Y-108527313D01*
X129456753Y-108458883D01*
X129456752Y-108458882D01*
X129282288Y-108381206D01*
X129095487Y-108341500D01*
X129095485Y-108341500D01*
X129039594Y-108341500D01*
X128971473Y-108321498D01*
X128950499Y-108304595D01*
X127894945Y-107249040D01*
X127860919Y-107186728D01*
X127858040Y-107159945D01*
X127858040Y-101154000D01*
X131852000Y-101154000D01*
X131852000Y-102945222D01*
X131852359Y-102951936D01*
X131858505Y-103009093D01*
X131909554Y-103145962D01*
X131997095Y-103262904D01*
X132114037Y-103350445D01*
X132250906Y-103401494D01*
X132308063Y-103407640D01*
X132314777Y-103408000D01*
X134106000Y-103408000D01*
X134106000Y-101154000D01*
X134614000Y-101154000D01*
X134614000Y-103408000D01*
X136405223Y-103408000D01*
X136411936Y-103407640D01*
X136469093Y-103401494D01*
X136605962Y-103350445D01*
X136722904Y-103262904D01*
X136810445Y-103145962D01*
X136861494Y-103009093D01*
X136867640Y-102951936D01*
X136868000Y-102945222D01*
X136868000Y-101154000D01*
X134614000Y-101154000D01*
X134106000Y-101154000D01*
X131852000Y-101154000D01*
X127858040Y-101154000D01*
X127858040Y-100625772D01*
X127878042Y-100557651D01*
X127894945Y-100536677D01*
X129185729Y-99245894D01*
X129248041Y-99211868D01*
X129274824Y-99208989D01*
X131726000Y-99208989D01*
X131794121Y-99228991D01*
X131840614Y-99282647D01*
X131852000Y-99334989D01*
X131852000Y-100646000D01*
X136868000Y-100646000D01*
X136868000Y-98854777D01*
X136867640Y-98848063D01*
X136861494Y-98790906D01*
X136810445Y-98654037D01*
X136722904Y-98537095D01*
X136605962Y-98449554D01*
X136469093Y-98398505D01*
X136411936Y-98392359D01*
X136405223Y-98392000D01*
X134608093Y-98392000D01*
X134539972Y-98371998D01*
X134493479Y-98318342D01*
X134483375Y-98248068D01*
X134512869Y-98183488D01*
X134518998Y-98176905D01*
X135950330Y-96745574D01*
X138150498Y-94545405D01*
X138212811Y-94511379D01*
X138239594Y-94508500D01*
X138745269Y-94508500D01*
X138748638Y-94508500D01*
X138809201Y-94501989D01*
X138946204Y-94450889D01*
X138946205Y-94450887D01*
X138955967Y-94447247D01*
X139026782Y-94442181D01*
X139044033Y-94447247D01*
G37*
%TD.AperFunction*%
%TA.AperFunction,Conductor*%
G36*
X136634526Y-105303502D02*
G01*
X136681019Y-105357158D01*
X136691123Y-105427432D01*
X136661629Y-105492012D01*
X136655514Y-105498580D01*
X135307622Y-106846472D01*
X134861336Y-107292758D01*
X134845015Y-107305834D01*
X134796370Y-107357635D01*
X134793621Y-107360472D01*
X134776667Y-107377427D01*
X134776660Y-107377434D01*
X134773865Y-107380230D01*
X134771442Y-107383352D01*
X134771426Y-107383371D01*
X134771365Y-107383451D01*
X134763689Y-107392436D01*
X134733414Y-107424677D01*
X134723652Y-107442434D01*
X134712801Y-107458952D01*
X134700385Y-107474959D01*
X134682824Y-107515539D01*
X134677604Y-107526195D01*
X134656304Y-107564940D01*
X134651267Y-107584559D01*
X134644864Y-107603261D01*
X134636817Y-107621855D01*
X134633948Y-107639974D01*
X134603535Y-107704127D01*
X134543267Y-107741653D01*
X134472277Y-107740638D01*
X134413106Y-107701405D01*
X134384539Y-107636409D01*
X134383500Y-107620262D01*
X134383500Y-106914593D01*
X134403502Y-106846472D01*
X134420405Y-106825498D01*
X135925499Y-105320405D01*
X135987811Y-105286379D01*
X136014594Y-105283500D01*
X136566405Y-105283500D01*
X136634526Y-105303502D01*
G37*
%TD.AperFunction*%
%TA.AperFunction,Conductor*%
G36*
X141327719Y-105684660D02*
G01*
X141386892Y-105723891D01*
X141415461Y-105788886D01*
X141416500Y-105805037D01*
X141416500Y-112422965D01*
X141396498Y-112491086D01*
X141342842Y-112537579D01*
X141272568Y-112547683D01*
X141216439Y-112524901D01*
X141093256Y-112435404D01*
X141056752Y-112408882D01*
X140882288Y-112331206D01*
X140695487Y-112291500D01*
X140504513Y-112291500D01*
X140407189Y-112312187D01*
X140317711Y-112331206D01*
X140143246Y-112408883D01*
X139988746Y-112521133D01*
X139985435Y-112524812D01*
X139924988Y-112562051D01*
X139891800Y-112566500D01*
X139164595Y-112566500D01*
X139096474Y-112546498D01*
X139075499Y-112529595D01*
X138920404Y-112374499D01*
X138886379Y-112312187D01*
X138883500Y-112285404D01*
X138883500Y-112068313D01*
X138903502Y-112000192D01*
X138957158Y-111953699D01*
X139027432Y-111943595D01*
X139053532Y-111950257D01*
X139190906Y-112001494D01*
X139248063Y-112007640D01*
X139254777Y-112008000D01*
X139496000Y-112008000D01*
X139496000Y-111004000D01*
X140004000Y-111004000D01*
X140004000Y-112008000D01*
X140245223Y-112008000D01*
X140251936Y-112007640D01*
X140309093Y-112001494D01*
X140445962Y-111950445D01*
X140562904Y-111862904D01*
X140650445Y-111745962D01*
X140701494Y-111609093D01*
X140707640Y-111551936D01*
X140708000Y-111545222D01*
X140708000Y-111004000D01*
X140004000Y-111004000D01*
X139496000Y-111004000D01*
X139496000Y-109492000D01*
X140004000Y-109492000D01*
X140004000Y-110496000D01*
X140708000Y-110496000D01*
X140708000Y-109954777D01*
X140707640Y-109948063D01*
X140701494Y-109890906D01*
X140650445Y-109754037D01*
X140562904Y-109637095D01*
X140445962Y-109549554D01*
X140309093Y-109498505D01*
X140251936Y-109492359D01*
X140245223Y-109492000D01*
X140004000Y-109492000D01*
X139496000Y-109492000D01*
X139254777Y-109492000D01*
X139248063Y-109492359D01*
X139190906Y-109498505D01*
X139053532Y-109549742D01*
X138982716Y-109554806D01*
X138920404Y-109520781D01*
X138886379Y-109458468D01*
X138883500Y-109431686D01*
X138883500Y-107559500D01*
X138903502Y-107491379D01*
X138957158Y-107444886D01*
X139009500Y-107433500D01*
X139291452Y-107433500D01*
X139312240Y-107435795D01*
X139315212Y-107435701D01*
X139315214Y-107435702D01*
X139383290Y-107433562D01*
X139387250Y-107433500D01*
X139411199Y-107433500D01*
X139415161Y-107433500D01*
X139419161Y-107432994D01*
X139431004Y-107432061D01*
X139475194Y-107430673D01*
X139494643Y-107425021D01*
X139514003Y-107421012D01*
X139534102Y-107418474D01*
X139575220Y-107402193D01*
X139586422Y-107398357D01*
X139628898Y-107386018D01*
X139646344Y-107375699D01*
X139664085Y-107367009D01*
X139682922Y-107359552D01*
X139718697Y-107333558D01*
X139728608Y-107327048D01*
X139766667Y-107304542D01*
X139780996Y-107290212D01*
X139796024Y-107277377D01*
X139812412Y-107265472D01*
X139840608Y-107231386D01*
X139848577Y-107222630D01*
X140938658Y-106132549D01*
X140954979Y-106119475D01*
X140957014Y-106117307D01*
X140957018Y-106117305D01*
X141003676Y-106067617D01*
X141006368Y-106064839D01*
X141026135Y-106045074D01*
X141028597Y-106041898D01*
X141036318Y-106032856D01*
X141066586Y-106000626D01*
X141076345Y-105982872D01*
X141087198Y-105966350D01*
X141099614Y-105950345D01*
X141117174Y-105909764D01*
X141122388Y-105899120D01*
X141143695Y-105860365D01*
X141148732Y-105840744D01*
X141155138Y-105822035D01*
X141163181Y-105803449D01*
X141165488Y-105788886D01*
X141166051Y-105785327D01*
X141196462Y-105721175D01*
X141256730Y-105683647D01*
X141327719Y-105684660D01*
G37*
%TD.AperFunction*%
%TA.AperFunction,Conductor*%
G36*
X148084121Y-106978991D02*
G01*
X148130614Y-107032647D01*
X148142000Y-107084989D01*
X148142000Y-108146000D01*
X150958000Y-108146000D01*
X150958000Y-107084989D01*
X150978002Y-107016868D01*
X151031658Y-106970375D01*
X151084000Y-106958989D01*
X162978628Y-106958989D01*
X163046749Y-106978991D01*
X163093242Y-107032647D01*
X163104021Y-107097339D01*
X163086619Y-107274020D01*
X163090893Y-107317407D01*
X163091500Y-107329758D01*
X163091500Y-109465500D01*
X163071498Y-109533621D01*
X163017842Y-109580114D01*
X162965500Y-109591500D01*
X162601362Y-109591500D01*
X162598013Y-109591859D01*
X162598013Y-109591860D01*
X162540799Y-109598011D01*
X162403794Y-109649111D01*
X162286738Y-109736738D01*
X162199111Y-109853794D01*
X162148010Y-109990798D01*
X162148011Y-109990799D01*
X162141500Y-110051362D01*
X162141500Y-110054729D01*
X162141500Y-110054730D01*
X162141500Y-113280075D01*
X162121498Y-113348196D01*
X162104595Y-113369170D01*
X157976301Y-117497463D01*
X157967142Y-117505765D01*
X157933433Y-117533430D01*
X157807404Y-117686995D01*
X157749431Y-117795458D01*
X157713758Y-117862197D01*
X157656090Y-118052298D01*
X157636619Y-118249998D01*
X157640893Y-118293385D01*
X157641500Y-118305736D01*
X157641500Y-123315500D01*
X157621498Y-123383621D01*
X157567842Y-123430114D01*
X157515500Y-123441500D01*
X157102661Y-123441500D01*
X157102641Y-123441500D01*
X157099456Y-123441501D01*
X157096279Y-123441825D01*
X157096270Y-123441826D01*
X156995573Y-123452113D01*
X156827262Y-123507885D01*
X156676344Y-123600972D01*
X156550972Y-123726344D01*
X156528528Y-123762732D01*
X156457885Y-123877262D01*
X156402113Y-124045574D01*
X156402112Y-124045578D01*
X156391826Y-124146253D01*
X156391825Y-124146270D01*
X156391500Y-124149455D01*
X156391500Y-124152659D01*
X156391500Y-124152660D01*
X156391500Y-125347338D01*
X156391500Y-125347357D01*
X156391501Y-125350544D01*
X156391825Y-125353721D01*
X156391826Y-125353729D01*
X156402113Y-125454428D01*
X156406844Y-125468704D01*
X156409283Y-125539659D01*
X156376334Y-125597430D01*
X153686301Y-128287463D01*
X153677142Y-128295765D01*
X153643433Y-128323430D01*
X153517404Y-128476996D01*
X153412820Y-128672657D01*
X153412910Y-128673000D01*
X153407545Y-128705644D01*
X153366090Y-128842298D01*
X153346619Y-129039998D01*
X153350893Y-129083385D01*
X153351500Y-129095736D01*
X153351500Y-134161277D01*
X153331498Y-134229398D01*
X153277842Y-134275891D01*
X153207568Y-134285995D01*
X153142988Y-134256501D01*
X153133502Y-134247297D01*
X152955578Y-134108812D01*
X152757573Y-134001657D01*
X152612305Y-133951787D01*
X152544635Y-133928556D01*
X152322569Y-133891500D01*
X152097431Y-133891500D01*
X151875365Y-133928556D01*
X151875362Y-133928556D01*
X151875362Y-133928557D01*
X151662426Y-134001657D01*
X151464421Y-134108812D01*
X151286762Y-134247091D01*
X151134278Y-134412731D01*
X151045483Y-134548643D01*
X150991479Y-134594731D01*
X150921131Y-134604306D01*
X150856774Y-134574328D01*
X150834517Y-134548643D01*
X150745721Y-134412731D01*
X150593237Y-134247091D01*
X150415578Y-134108812D01*
X150217573Y-134001657D01*
X150072305Y-133951787D01*
X150004635Y-133928556D01*
X149782569Y-133891500D01*
X149557431Y-133891500D01*
X149335365Y-133928556D01*
X149335362Y-133928556D01*
X149335362Y-133928557D01*
X149122426Y-134001657D01*
X148924421Y-134108812D01*
X148746762Y-134247091D01*
X148594278Y-134412731D01*
X148505483Y-134548643D01*
X148451479Y-134594731D01*
X148381131Y-134604306D01*
X148316774Y-134574328D01*
X148294517Y-134548643D01*
X148205721Y-134412731D01*
X148053237Y-134247091D01*
X147875578Y-134108812D01*
X147677573Y-134001657D01*
X147532305Y-133951787D01*
X147464635Y-133928556D01*
X147242569Y-133891500D01*
X147017431Y-133891500D01*
X146795365Y-133928556D01*
X146795361Y-133928557D01*
X146785067Y-133930275D01*
X146784528Y-133927046D01*
X146731118Y-133929440D01*
X146672075Y-133896171D01*
X146175807Y-133399903D01*
X145637244Y-132861339D01*
X145624171Y-132845021D01*
X145572347Y-132796355D01*
X145569505Y-132793600D01*
X145552574Y-132776669D01*
X145549770Y-132773865D01*
X145546575Y-132771386D01*
X145537554Y-132763682D01*
X145505320Y-132733413D01*
X145487567Y-132723653D01*
X145471041Y-132712797D01*
X145455041Y-132700386D01*
X145414466Y-132682828D01*
X145403804Y-132677604D01*
X145365063Y-132656305D01*
X145351313Y-132652775D01*
X145345437Y-132651266D01*
X145326731Y-132644862D01*
X145308145Y-132636819D01*
X145264475Y-132629902D01*
X145252853Y-132627495D01*
X145243050Y-132624978D01*
X145210030Y-132616500D01*
X145210029Y-132616500D01*
X145189776Y-132616500D01*
X145170066Y-132614949D01*
X145150057Y-132611779D01*
X145106039Y-132615941D01*
X145094181Y-132616500D01*
X141033853Y-132616500D01*
X141013064Y-132614204D01*
X140942014Y-132616438D01*
X140938055Y-132616500D01*
X140910144Y-132616500D01*
X140906218Y-132616995D01*
X140906200Y-132616997D01*
X140906108Y-132617009D01*
X140894303Y-132617937D01*
X140850110Y-132619326D01*
X140830657Y-132624978D01*
X140811303Y-132628986D01*
X140791204Y-132631525D01*
X140750096Y-132647801D01*
X140738870Y-132651644D01*
X140696408Y-132663981D01*
X140678964Y-132674297D01*
X140661215Y-132682991D01*
X140642384Y-132690446D01*
X140606625Y-132716427D01*
X140596706Y-132722943D01*
X140558636Y-132745457D01*
X140544309Y-132759785D01*
X140529279Y-132772622D01*
X140512894Y-132784526D01*
X140484716Y-132818587D01*
X140476729Y-132827364D01*
X139674500Y-133629595D01*
X139612187Y-133663620D01*
X139585404Y-133666500D01*
X133314595Y-133666500D01*
X133246474Y-133646498D01*
X133225500Y-133629595D01*
X131870405Y-132274499D01*
X131836379Y-132212187D01*
X131833500Y-132185404D01*
X131833500Y-123459500D01*
X131853502Y-123391379D01*
X131907158Y-123344886D01*
X131959500Y-123333500D01*
X133691687Y-123333500D01*
X133759808Y-123353502D01*
X133806301Y-123407158D01*
X133816405Y-123477432D01*
X133809743Y-123503532D01*
X133758505Y-123640906D01*
X133752359Y-123698063D01*
X133752000Y-123704777D01*
X133752000Y-124346000D01*
X134678884Y-124346000D01*
X134650507Y-124390156D01*
X134610000Y-124528111D01*
X134610000Y-124671889D01*
X134650507Y-124809844D01*
X134678884Y-124854000D01*
X133752000Y-124854000D01*
X133752000Y-125495222D01*
X133752359Y-125501936D01*
X133758505Y-125559093D01*
X133809554Y-125695962D01*
X133897095Y-125812904D01*
X134014037Y-125900445D01*
X134150906Y-125951494D01*
X134208063Y-125957640D01*
X134214777Y-125958000D01*
X134856000Y-125958000D01*
X134856000Y-125033674D01*
X134967685Y-125084680D01*
X135074237Y-125100000D01*
X135145763Y-125100000D01*
X135252315Y-125084680D01*
X135364000Y-125033674D01*
X135364000Y-125958000D01*
X136005223Y-125958000D01*
X136011936Y-125957640D01*
X136069093Y-125951494D01*
X136205962Y-125900445D01*
X136322904Y-125812904D01*
X136410445Y-125695962D01*
X136454618Y-125577530D01*
X136497164Y-125520694D01*
X136563685Y-125495883D01*
X136633059Y-125510974D01*
X136665372Y-125536222D01*
X136671130Y-125542476D01*
X136726762Y-125602908D01*
X136778624Y-125643274D01*
X136904424Y-125741189D01*
X137102426Y-125848342D01*
X137315365Y-125921444D01*
X137537431Y-125958500D01*
X137537434Y-125958500D01*
X137762566Y-125958500D01*
X137762569Y-125958500D01*
X137984635Y-125921444D01*
X138197574Y-125848342D01*
X138395576Y-125741189D01*
X138573240Y-125602906D01*
X138725722Y-125437268D01*
X138848860Y-125248791D01*
X138939296Y-125042616D01*
X138994564Y-124824368D01*
X139013156Y-124600000D01*
X138994564Y-124375632D01*
X138939296Y-124157384D01*
X138848860Y-123951209D01*
X138725722Y-123762732D01*
X138573240Y-123597094D01*
X138573239Y-123597093D01*
X138573237Y-123597091D01*
X138395578Y-123458812D01*
X138197574Y-123351658D01*
X138051010Y-123301342D01*
X137993075Y-123260304D01*
X137966524Y-123194460D01*
X137979786Y-123124713D01*
X138002822Y-123093080D01*
X139850501Y-121245402D01*
X139912811Y-121211379D01*
X139939594Y-121208500D01*
X139995485Y-121208500D01*
X139995487Y-121208500D01*
X140182288Y-121168794D01*
X140356752Y-121091118D01*
X140511253Y-120978866D01*
X140639040Y-120836944D01*
X140734527Y-120671556D01*
X140793542Y-120489928D01*
X140813504Y-120300000D01*
X140793542Y-120110072D01*
X140734527Y-119928444D01*
X140667600Y-119812523D01*
X140650862Y-119743528D01*
X140674082Y-119676436D01*
X140729889Y-119632549D01*
X140800564Y-119625800D01*
X140802829Y-119626258D01*
X140954513Y-119658500D01*
X140954515Y-119658500D01*
X141145485Y-119658500D01*
X141145487Y-119658500D01*
X141332288Y-119618794D01*
X141506752Y-119541118D01*
X141661253Y-119428866D01*
X141789040Y-119286944D01*
X141884527Y-119121556D01*
X141943542Y-118939928D01*
X141963504Y-118750000D01*
X141943542Y-118560072D01*
X141884527Y-118378444D01*
X141837794Y-118297500D01*
X141821056Y-118228505D01*
X141844276Y-118161413D01*
X141900083Y-118117526D01*
X141946913Y-118108500D01*
X141994263Y-118108500D01*
X142006612Y-118109106D01*
X142050000Y-118113380D01*
X142050000Y-118113379D01*
X142050001Y-118113380D01*
X142247701Y-118093909D01*
X142437802Y-118036242D01*
X142486690Y-118010111D01*
X142486689Y-118010110D01*
X142613004Y-117942595D01*
X142766568Y-117816568D01*
X142794247Y-117782838D01*
X142802524Y-117773708D01*
X144573224Y-116003009D01*
X144582354Y-115994732D01*
X144616079Y-115967057D01*
X144742106Y-115813493D01*
X144795724Y-115713181D01*
X144835753Y-115638292D01*
X144893420Y-115448189D01*
X144912892Y-115250489D01*
X144908618Y-115207094D01*
X144908011Y-115194743D01*
X144908011Y-114947357D01*
X148141500Y-114947357D01*
X148141501Y-114950544D01*
X148152113Y-115054426D01*
X148207885Y-115222738D01*
X148228383Y-115255970D01*
X148300972Y-115373655D01*
X148426344Y-115499027D01*
X148426346Y-115499028D01*
X148426348Y-115499030D01*
X148577262Y-115592115D01*
X148745574Y-115647887D01*
X148821637Y-115655658D01*
X148846253Y-115658173D01*
X148846255Y-115658173D01*
X148849455Y-115658500D01*
X150250544Y-115658499D01*
X150354426Y-115647887D01*
X150522738Y-115592115D01*
X150673652Y-115499030D01*
X150799030Y-115373652D01*
X150892115Y-115222738D01*
X150947887Y-115054426D01*
X150958500Y-114950545D01*
X150958500Y-113934500D01*
X150978502Y-113866379D01*
X151032158Y-113819886D01*
X151084500Y-113808500D01*
X152315500Y-113808500D01*
X152383621Y-113828502D01*
X152430114Y-113882158D01*
X152441500Y-113934500D01*
X152441500Y-115548638D01*
X152448011Y-115609201D01*
X152459924Y-115641141D01*
X152499111Y-115746205D01*
X152586738Y-115863261D01*
X152703794Y-115950888D01*
X152703795Y-115950888D01*
X152703796Y-115950889D01*
X152840799Y-116001989D01*
X152901362Y-116008500D01*
X152904731Y-116008500D01*
X155895269Y-116008500D01*
X155898638Y-116008500D01*
X155959201Y-116001989D01*
X156096204Y-115950889D01*
X156213261Y-115863261D01*
X156300889Y-115746204D01*
X156351989Y-115609201D01*
X156358500Y-115548638D01*
X156358500Y-110051362D01*
X156351989Y-109990799D01*
X156300889Y-109853796D01*
X156300888Y-109853794D01*
X156213261Y-109736738D01*
X156096205Y-109649111D01*
X156027702Y-109623561D01*
X155959201Y-109598011D01*
X155898638Y-109591500D01*
X155895269Y-109591500D01*
X153184500Y-109591500D01*
X153116379Y-109571498D01*
X153069886Y-109517842D01*
X153058500Y-109465500D01*
X153058500Y-109383115D01*
X153063926Y-109346538D01*
X153093909Y-109247700D01*
X153113380Y-109050000D01*
X153093909Y-108852299D01*
X153036241Y-108662196D01*
X152942595Y-108486996D01*
X152942593Y-108486993D01*
X152816568Y-108333431D01*
X152663006Y-108207406D01*
X152487802Y-108113758D01*
X152297701Y-108056090D01*
X152100000Y-108036619D01*
X151902299Y-108056090D01*
X151712198Y-108113758D01*
X151536997Y-108207404D01*
X151424305Y-108299888D01*
X151424292Y-108299898D01*
X151421918Y-108301848D01*
X151419743Y-108304022D01*
X151419733Y-108304032D01*
X151376295Y-108347469D01*
X151367137Y-108355769D01*
X151333433Y-108383430D01*
X151207404Y-108536996D01*
X151159861Y-108625944D01*
X151110109Y-108676592D01*
X151040872Y-108692302D01*
X150974133Y-108668086D01*
X150959644Y-108655643D01*
X150958001Y-108654000D01*
X149804000Y-108654000D01*
X149804000Y-110658000D01*
X150247303Y-110658000D01*
X150253692Y-110657674D01*
X150354327Y-110647393D01*
X150522522Y-110591659D01*
X150673342Y-110498632D01*
X150798633Y-110373341D01*
X150804787Y-110363365D01*
X150857572Y-110315887D01*
X150927647Y-110304483D01*
X150992763Y-110332775D01*
X151032246Y-110391780D01*
X151037421Y-110441861D01*
X151036619Y-110450000D01*
X151056090Y-110647700D01*
X151087124Y-110750000D01*
X151113758Y-110837802D01*
X151207404Y-111013004D01*
X151333433Y-111166569D01*
X151367135Y-111194227D01*
X151376298Y-111202532D01*
X151750171Y-111576405D01*
X151784197Y-111638717D01*
X151779132Y-111709532D01*
X151736585Y-111766368D01*
X151670065Y-111791179D01*
X151661076Y-111791500D01*
X151054091Y-111791500D01*
X150985970Y-111771498D01*
X150939477Y-111717842D01*
X150934486Y-111705133D01*
X150892115Y-111577262D01*
X150799030Y-111426348D01*
X150799028Y-111426346D01*
X150799027Y-111426344D01*
X150673655Y-111300972D01*
X150673652Y-111300970D01*
X150522738Y-111207885D01*
X150354426Y-111152113D01*
X150354423Y-111152112D01*
X150354421Y-111152112D01*
X150253746Y-111141826D01*
X150253725Y-111141824D01*
X150250545Y-111141500D01*
X150247339Y-111141500D01*
X148852661Y-111141500D01*
X148852641Y-111141500D01*
X148849456Y-111141501D01*
X148846279Y-111141825D01*
X148846270Y-111141826D01*
X148745573Y-111152113D01*
X148577262Y-111207885D01*
X148426344Y-111300972D01*
X148300972Y-111426344D01*
X148300970Y-111426348D01*
X148207885Y-111577262D01*
X148152113Y-111745574D01*
X148152112Y-111745578D01*
X148141826Y-111846253D01*
X148141824Y-111846275D01*
X148141500Y-111849455D01*
X148141500Y-111852659D01*
X148141500Y-111852660D01*
X148141500Y-114947338D01*
X148141500Y-114947357D01*
X144908011Y-114947357D01*
X144908011Y-108654000D01*
X148142000Y-108654000D01*
X148142000Y-109947302D01*
X148142325Y-109953692D01*
X148152606Y-110054327D01*
X148208340Y-110222522D01*
X148301367Y-110373342D01*
X148426657Y-110498632D01*
X148577477Y-110591659D01*
X148745672Y-110647393D01*
X148846307Y-110657674D01*
X148852697Y-110658000D01*
X149296000Y-110658000D01*
X149296000Y-108654000D01*
X148142000Y-108654000D01*
X144908011Y-108654000D01*
X144908011Y-107084989D01*
X144928013Y-107016868D01*
X144981669Y-106970375D01*
X145034011Y-106958989D01*
X148016000Y-106958989D01*
X148084121Y-106978991D01*
G37*
%TD.AperFunction*%
%TA.AperFunction,Conductor*%
G36*
X162458940Y-115971456D02*
G01*
X162540799Y-116001989D01*
X162601362Y-116008500D01*
X162604731Y-116008500D01*
X165565500Y-116008500D01*
X165633621Y-116028502D01*
X165680114Y-116082158D01*
X165691500Y-116134500D01*
X165691500Y-123316000D01*
X165671498Y-123384121D01*
X165617842Y-123430614D01*
X165565500Y-123442000D01*
X164504000Y-123442000D01*
X164504000Y-126058000D01*
X164604400Y-126058000D01*
X164672521Y-126078002D01*
X164719014Y-126131658D01*
X164729118Y-126201932D01*
X164699624Y-126266512D01*
X164693495Y-126273095D01*
X159404044Y-131562545D01*
X159404034Y-131562555D01*
X159401848Y-131564742D01*
X159399886Y-131567131D01*
X159399882Y-131567137D01*
X159299533Y-131689413D01*
X159298462Y-131688534D01*
X159265971Y-131721606D01*
X159266587Y-131722357D01*
X159259601Y-131728090D01*
X159258104Y-131729614D01*
X159257030Y-131730199D01*
X159103431Y-131856255D01*
X158977406Y-132009816D01*
X158883758Y-132185021D01*
X158826091Y-132375122D01*
X158811803Y-132520196D01*
X158811500Y-132523277D01*
X158811500Y-132526369D01*
X158811500Y-134731621D01*
X158792742Y-134797767D01*
X158775698Y-134825398D01*
X158721763Y-134988168D01*
X158711826Y-135085426D01*
X158711824Y-135085448D01*
X158711500Y-135088628D01*
X158711500Y-135636372D01*
X158711824Y-135639552D01*
X158711826Y-135639573D01*
X158721763Y-135736831D01*
X158721764Y-135736836D01*
X158775698Y-135899601D01*
X158843485Y-136009500D01*
X158865717Y-136045543D01*
X158986956Y-136166782D01*
X158986958Y-136166783D01*
X158986960Y-136166785D01*
X159132899Y-136256802D01*
X159295664Y-136310736D01*
X159368725Y-136318200D01*
X159392926Y-136320673D01*
X159392928Y-136320673D01*
X159396128Y-136321000D01*
X159486882Y-136321000D01*
X159523457Y-136326425D01*
X159554128Y-136335728D01*
X159622299Y-136356408D01*
X159754099Y-136369389D01*
X159819999Y-136375880D01*
X159819999Y-136375879D01*
X159820000Y-136375880D01*
X160017701Y-136356408D01*
X160093736Y-136333343D01*
X160116543Y-136326425D01*
X160153118Y-136321000D01*
X160240667Y-136321000D01*
X160243872Y-136321000D01*
X160344336Y-136310736D01*
X160507101Y-136256802D01*
X160653040Y-136166785D01*
X160774285Y-136045540D01*
X160864302Y-135899601D01*
X160918236Y-135736836D01*
X160928500Y-135636372D01*
X160928500Y-135088628D01*
X160918236Y-134988164D01*
X160864302Y-134825399D01*
X160847257Y-134797765D01*
X160828500Y-134731621D01*
X160828500Y-133042747D01*
X160848502Y-132974626D01*
X160865400Y-132953657D01*
X167274405Y-126544651D01*
X167336717Y-126510626D01*
X167407532Y-126515691D01*
X167464368Y-126558238D01*
X167489179Y-126624758D01*
X167489500Y-126633747D01*
X167489500Y-142088500D01*
X167469498Y-142156621D01*
X167415842Y-142203114D01*
X167363500Y-142214500D01*
X161085171Y-142214500D01*
X161017050Y-142194498D01*
X160970557Y-142140842D01*
X160959171Y-142088500D01*
X160959171Y-138746716D01*
X160959171Y-138746715D01*
X160959171Y-138743624D01*
X160944579Y-138595470D01*
X160933925Y-138560348D01*
X160928500Y-138523773D01*
X160928500Y-138391833D01*
X160928500Y-138391832D01*
X160928500Y-138388628D01*
X160918236Y-138288164D01*
X160864302Y-138125399D01*
X160774285Y-137979460D01*
X160774283Y-137979458D01*
X160774282Y-137979456D01*
X160653043Y-137858217D01*
X160653040Y-137858215D01*
X160507101Y-137768198D01*
X160344336Y-137714264D01*
X160344333Y-137714263D01*
X160344331Y-137714263D01*
X160247073Y-137704326D01*
X160247052Y-137704324D01*
X160243872Y-137704000D01*
X159396128Y-137704000D01*
X159392948Y-137704324D01*
X159392926Y-137704326D01*
X159295668Y-137714263D01*
X159295665Y-137714263D01*
X159295664Y-137714264D01*
X159132899Y-137768198D01*
X159067139Y-137808759D01*
X158986956Y-137858217D01*
X158865717Y-137979456D01*
X158865715Y-137979460D01*
X158775698Y-138125399D01*
X158721764Y-138288164D01*
X158721763Y-138288168D01*
X158711826Y-138385426D01*
X158711824Y-138385448D01*
X158711500Y-138388628D01*
X158711500Y-138936372D01*
X158711824Y-138939552D01*
X158711826Y-138939573D01*
X158721763Y-139036831D01*
X158721764Y-139036836D01*
X158775698Y-139199601D01*
X158865715Y-139345540D01*
X158905267Y-139385092D01*
X158939291Y-139447402D01*
X158942171Y-139474186D01*
X158942171Y-146520744D01*
X158922169Y-146588865D01*
X158905266Y-146609839D01*
X158293186Y-147221919D01*
X158230874Y-147255945D01*
X158160059Y-147250880D01*
X158103223Y-147208333D01*
X158098608Y-147201740D01*
X157975321Y-147013037D01*
X157822903Y-146847466D01*
X157645302Y-146709233D01*
X157447368Y-146602116D01*
X157234510Y-146529042D01*
X157154000Y-146515606D01*
X157154000Y-147416325D01*
X157042315Y-147365320D01*
X156935763Y-147350000D01*
X156864237Y-147350000D01*
X156757685Y-147365320D01*
X156646000Y-147416325D01*
X156646000Y-146515607D01*
X156645999Y-146515606D01*
X156565489Y-146529042D01*
X156352631Y-146602116D01*
X156154697Y-146709233D01*
X155977096Y-146847466D01*
X155824678Y-147013037D01*
X155735782Y-147149102D01*
X155681778Y-147195190D01*
X155611430Y-147204765D01*
X155547073Y-147174787D01*
X155524816Y-147149101D01*
X155435723Y-147012733D01*
X155401798Y-146975881D01*
X155370378Y-146912215D01*
X155368500Y-146890544D01*
X155368500Y-129509923D01*
X155388502Y-129441802D01*
X155405400Y-129420833D01*
X158730829Y-126095403D01*
X158793141Y-126061378D01*
X158819924Y-126058499D01*
X160197338Y-126058499D01*
X160200544Y-126058499D01*
X160304426Y-126047887D01*
X160472738Y-125992115D01*
X160623652Y-125899030D01*
X160749030Y-125773652D01*
X160842115Y-125622738D01*
X160897887Y-125454426D01*
X160908500Y-125350545D01*
X160908500Y-125004000D01*
X161992000Y-125004000D01*
X161992000Y-125347302D01*
X161992325Y-125353692D01*
X162002606Y-125454327D01*
X162058340Y-125622522D01*
X162151367Y-125773342D01*
X162276657Y-125898632D01*
X162427477Y-125991659D01*
X162595672Y-126047393D01*
X162696307Y-126057674D01*
X162702697Y-126058000D01*
X163996000Y-126058000D01*
X163996000Y-125004000D01*
X161992000Y-125004000D01*
X160908500Y-125004000D01*
X160908499Y-124496000D01*
X161992000Y-124496000D01*
X163996000Y-124496000D01*
X163996000Y-123442000D01*
X162702697Y-123442000D01*
X162696307Y-123442325D01*
X162595672Y-123452606D01*
X162427477Y-123508340D01*
X162276657Y-123601367D01*
X162151367Y-123726657D01*
X162058340Y-123877477D01*
X162002606Y-124045672D01*
X161992325Y-124146307D01*
X161992000Y-124152697D01*
X161992000Y-124496000D01*
X160908499Y-124496000D01*
X160908499Y-124149456D01*
X160897887Y-124045574D01*
X160842115Y-123877262D01*
X160749030Y-123726348D01*
X160749028Y-123726346D01*
X160749027Y-123726344D01*
X160623655Y-123600972D01*
X160623652Y-123600970D01*
X160472738Y-123507885D01*
X160304426Y-123452113D01*
X160304423Y-123452112D01*
X160304421Y-123452112D01*
X160203746Y-123441826D01*
X160203725Y-123441824D01*
X160200545Y-123441500D01*
X160197340Y-123441500D01*
X159784500Y-123441500D01*
X159716379Y-123421498D01*
X159669886Y-123367842D01*
X159658500Y-123315500D01*
X159658500Y-118719923D01*
X159678502Y-118651802D01*
X159695400Y-118630833D01*
X162325816Y-116000416D01*
X162388126Y-115966392D01*
X162458940Y-115971456D01*
G37*
%TD.AperFunction*%
%TA.AperFunction,Conductor*%
G36*
X133944031Y-145082816D02*
G01*
X133989093Y-145111775D01*
X134026348Y-145149030D01*
X134177262Y-145242115D01*
X134345574Y-145297887D01*
X134363123Y-145299679D01*
X134428857Y-145326501D01*
X134450278Y-145348321D01*
X134491511Y-145402056D01*
X134487471Y-145397133D01*
X134488465Y-145399276D01*
X134491524Y-145402074D01*
X134516010Y-145433984D01*
X134516011Y-145433985D01*
X134516013Y-145433987D01*
X134537046Y-145450126D01*
X134541379Y-145453451D01*
X134553769Y-145464318D01*
X134784595Y-145695144D01*
X134818621Y-145757456D01*
X134821500Y-145784239D01*
X134821500Y-146709549D01*
X134801498Y-146777670D01*
X134755470Y-146820362D01*
X134684423Y-146858811D01*
X134506762Y-146997091D01*
X134354278Y-147162731D01*
X134265483Y-147298643D01*
X134211479Y-147344731D01*
X134141131Y-147354306D01*
X134076774Y-147324328D01*
X134054517Y-147298643D01*
X134004391Y-147221919D01*
X133965722Y-147162732D01*
X133813240Y-146997094D01*
X133813239Y-146997093D01*
X133813237Y-146997091D01*
X133635576Y-146858811D01*
X133564530Y-146820362D01*
X133514140Y-146770349D01*
X133498500Y-146709549D01*
X133498500Y-145374268D01*
X133518502Y-145306147D01*
X133572158Y-145259654D01*
X133584860Y-145254665D01*
X133622738Y-145242115D01*
X133773652Y-145149030D01*
X133810906Y-145111775D01*
X133873215Y-145077752D01*
X133944031Y-145082816D01*
G37*
%TD.AperFunction*%
%TA.AperFunction,Conductor*%
G36*
X150633621Y-143878022D02*
G01*
X150680114Y-143931678D01*
X150691500Y-143984020D01*
X150691500Y-144709838D01*
X150691500Y-144709857D01*
X150691501Y-144713044D01*
X150691825Y-144716221D01*
X150691826Y-144716229D01*
X150693389Y-144731524D01*
X150702113Y-144816926D01*
X150757885Y-144985238D01*
X150843260Y-145123652D01*
X150850972Y-145136155D01*
X150976344Y-145261527D01*
X150976346Y-145261528D01*
X150976348Y-145261530D01*
X151126648Y-145354236D01*
X151174125Y-145407021D01*
X151186500Y-145461476D01*
X151186500Y-146573078D01*
X151166498Y-146641199D01*
X151120471Y-146683891D01*
X151074421Y-146708812D01*
X150896762Y-146847091D01*
X150744278Y-147012731D01*
X150655483Y-147148643D01*
X150601479Y-147194731D01*
X150531131Y-147204306D01*
X150466774Y-147174328D01*
X150444517Y-147148643D01*
X150374059Y-147040799D01*
X150355722Y-147012732D01*
X150203240Y-146847094D01*
X150203239Y-146847093D01*
X150203237Y-146847091D01*
X150025578Y-146708812D01*
X149827573Y-146601657D01*
X149674510Y-146549111D01*
X149614635Y-146528556D01*
X149392569Y-146491500D01*
X149167431Y-146491500D01*
X148945365Y-146528556D01*
X148945362Y-146528556D01*
X148945362Y-146528557D01*
X148732426Y-146601657D01*
X148534421Y-146708812D01*
X148356762Y-146847091D01*
X148204278Y-147012731D01*
X148115483Y-147148643D01*
X148061479Y-147194731D01*
X147991131Y-147204306D01*
X147926774Y-147174328D01*
X147904517Y-147148643D01*
X147834059Y-147040799D01*
X147815722Y-147012732D01*
X147663240Y-146847094D01*
X147663239Y-146847093D01*
X147663237Y-146847091D01*
X147485578Y-146708812D01*
X147287573Y-146601657D01*
X147134510Y-146549111D01*
X147074635Y-146528556D01*
X146852569Y-146491500D01*
X146627431Y-146491500D01*
X146405365Y-146528556D01*
X146405362Y-146528556D01*
X146405362Y-146528557D01*
X146192426Y-146601657D01*
X145994421Y-146708812D01*
X145816758Y-146847094D01*
X145755754Y-146913362D01*
X145694901Y-146949933D01*
X145623937Y-146947798D01*
X145565392Y-146907636D01*
X145544998Y-146872056D01*
X145535688Y-146847094D01*
X145500889Y-146753796D01*
X145500888Y-146753794D01*
X145413261Y-146636738D01*
X145296205Y-146549111D01*
X145206377Y-146515607D01*
X145159201Y-146498011D01*
X145098638Y-146491500D01*
X145095269Y-146491500D01*
X144959500Y-146491500D01*
X144891379Y-146471498D01*
X144844886Y-146417842D01*
X144833500Y-146365500D01*
X144833500Y-145479238D01*
X144853502Y-145411117D01*
X144907158Y-145364624D01*
X144919851Y-145359639D01*
X144972738Y-145342115D01*
X145123652Y-145249030D01*
X145249030Y-145123652D01*
X145342115Y-144972738D01*
X145397887Y-144804426D01*
X145408500Y-144700545D01*
X145408499Y-143984019D01*
X145428501Y-143915899D01*
X145482157Y-143869406D01*
X145534499Y-143858020D01*
X150565500Y-143858020D01*
X150633621Y-143878022D01*
G37*
%TD.AperFunction*%
%TA.AperFunction,Conductor*%
G36*
X140803527Y-139803502D02*
G01*
X140824501Y-139820405D01*
X142954595Y-141950499D01*
X142988621Y-142012811D01*
X142991500Y-142039594D01*
X142991501Y-142465020D01*
X142971499Y-142533140D01*
X142917844Y-142579634D01*
X142865501Y-142591020D01*
X142787482Y-142591020D01*
X142719361Y-142571018D01*
X142701230Y-142556871D01*
X142676760Y-142533893D01*
X142659007Y-142524133D01*
X142642481Y-142513277D01*
X142626481Y-142500866D01*
X142600638Y-142489683D01*
X142585905Y-142483307D01*
X142575244Y-142478084D01*
X142536503Y-142456785D01*
X142522753Y-142453255D01*
X142516877Y-142451746D01*
X142498171Y-142445342D01*
X142479585Y-142437299D01*
X142435915Y-142430382D01*
X142424293Y-142427975D01*
X142414490Y-142425458D01*
X142381470Y-142416980D01*
X142381469Y-142416980D01*
X142361216Y-142416980D01*
X142341506Y-142415429D01*
X142321497Y-142412259D01*
X142277479Y-142416421D01*
X142265621Y-142416980D01*
X136546826Y-142416980D01*
X136526037Y-142414684D01*
X136454987Y-142416918D01*
X136451028Y-142416980D01*
X136423117Y-142416980D01*
X136419191Y-142417475D01*
X136419173Y-142417477D01*
X136419081Y-142417489D01*
X136407276Y-142418417D01*
X136363084Y-142419806D01*
X136343631Y-142425458D01*
X136324275Y-142429466D01*
X136300293Y-142432496D01*
X136230202Y-142421191D01*
X136177350Y-142373786D01*
X136158499Y-142307490D01*
X136158499Y-141802661D01*
X136158499Y-141802660D01*
X136158499Y-141799456D01*
X136147887Y-141695574D01*
X136092115Y-141527262D01*
X135999030Y-141376348D01*
X135999028Y-141376346D01*
X135999027Y-141376344D01*
X135873655Y-141250972D01*
X135867982Y-141247473D01*
X135722738Y-141157885D01*
X135722736Y-141157884D01*
X135722734Y-141157883D01*
X135669867Y-141140365D01*
X135611495Y-141099951D01*
X135584240Y-141034395D01*
X135583500Y-141020761D01*
X135583500Y-141014107D01*
X135583500Y-141014106D01*
X135583500Y-141010144D01*
X135582994Y-141006147D01*
X135582061Y-140994297D01*
X135580673Y-140950110D01*
X135575020Y-140930656D01*
X135571012Y-140911298D01*
X135568474Y-140891203D01*
X135552195Y-140850090D01*
X135548353Y-140838869D01*
X135536018Y-140796407D01*
X135536017Y-140796406D01*
X135536017Y-140796404D01*
X135525707Y-140778971D01*
X135517008Y-140761215D01*
X135509552Y-140742383D01*
X135483565Y-140706616D01*
X135477047Y-140696693D01*
X135463268Y-140673394D01*
X135454542Y-140658638D01*
X135440212Y-140644308D01*
X135427378Y-140629281D01*
X135415472Y-140612893D01*
X135410631Y-140608888D01*
X135381400Y-140584705D01*
X135372621Y-140576717D01*
X134857242Y-140061337D01*
X134844170Y-140045019D01*
X134797666Y-140001350D01*
X134761701Y-139940138D01*
X134764538Y-139869198D01*
X134805279Y-139811054D01*
X134870987Y-139784165D01*
X134883919Y-139783500D01*
X140735406Y-139783500D01*
X140803527Y-139803502D01*
G37*
%TD.AperFunction*%
%TA.AperFunction,Conductor*%
G36*
X145853527Y-139053502D02*
G01*
X145874501Y-139070405D01*
X148352798Y-141548703D01*
X148386824Y-141611015D01*
X148383536Y-141676734D01*
X148356458Y-141760069D01*
X148338850Y-141927606D01*
X148336496Y-141950000D01*
X148339165Y-141975396D01*
X148356458Y-142139929D01*
X148415472Y-142321555D01*
X148461929Y-142402020D01*
X148478667Y-142471015D01*
X148455447Y-142538107D01*
X148399640Y-142581994D01*
X148352810Y-142591020D01*
X145534500Y-142591020D01*
X145466379Y-142571018D01*
X145419886Y-142517362D01*
X145408500Y-142465020D01*
X145408499Y-141902661D01*
X145408499Y-141899456D01*
X145397887Y-141795574D01*
X145342115Y-141627262D01*
X145249030Y-141476348D01*
X145249028Y-141476346D01*
X145249027Y-141476344D01*
X145123655Y-141350972D01*
X145097065Y-141334571D01*
X144972738Y-141257885D01*
X144804426Y-141202113D01*
X144804423Y-141202112D01*
X144804421Y-141202112D01*
X144703746Y-141191826D01*
X144703725Y-141191824D01*
X144700545Y-141191500D01*
X144697340Y-141191500D01*
X144039594Y-141191500D01*
X143971473Y-141171498D01*
X143950499Y-141154595D01*
X142044500Y-139248595D01*
X142010474Y-139186283D01*
X142015539Y-139115467D01*
X142058086Y-139058632D01*
X142124606Y-139033821D01*
X142133595Y-139033500D01*
X145785406Y-139033500D01*
X145853527Y-139053502D01*
G37*
%TD.AperFunction*%
%TA.AperFunction,Conductor*%
G36*
X129334807Y-121578502D02*
G01*
X129381300Y-121632158D01*
X129391996Y-121697670D01*
X129386496Y-121749999D01*
X129406458Y-121939929D01*
X129465472Y-122121556D01*
X129560958Y-122286942D01*
X129560960Y-122286944D01*
X129634137Y-122368215D01*
X129664853Y-122432220D01*
X129666500Y-122452524D01*
X129666500Y-133116147D01*
X129664204Y-133136935D01*
X129666438Y-133207984D01*
X129666500Y-133211943D01*
X129666500Y-133239856D01*
X129666995Y-133243774D01*
X129666997Y-133243806D01*
X129667008Y-133243888D01*
X129667937Y-133255697D01*
X129669326Y-133299892D01*
X129674977Y-133319341D01*
X129678986Y-133338696D01*
X129681525Y-133358794D01*
X129697801Y-133399903D01*
X129701644Y-133411130D01*
X129713980Y-133453590D01*
X129724294Y-133471030D01*
X129732987Y-133488774D01*
X129740448Y-133507617D01*
X129740449Y-133507619D01*
X129766431Y-133543380D01*
X129772948Y-133553301D01*
X129795458Y-133591363D01*
X129809778Y-133605683D01*
X129822618Y-133620716D01*
X129834526Y-133637105D01*
X129868598Y-133665292D01*
X129877378Y-133673282D01*
X131842754Y-135638659D01*
X131855833Y-135654983D01*
X131907651Y-135703643D01*
X131910493Y-135706398D01*
X131930230Y-135726135D01*
X131933360Y-135728563D01*
X131933432Y-135728619D01*
X131942442Y-135736314D01*
X131974679Y-135766586D01*
X131992426Y-135776342D01*
X132008950Y-135787196D01*
X132024959Y-135799614D01*
X132065542Y-135817175D01*
X132076193Y-135822393D01*
X132114940Y-135843695D01*
X132134560Y-135848732D01*
X132153267Y-135855137D01*
X132159880Y-135857998D01*
X132171854Y-135863181D01*
X132182505Y-135864867D01*
X132215530Y-135870098D01*
X132227125Y-135872498D01*
X132269970Y-135883500D01*
X132290224Y-135883500D01*
X132309934Y-135885051D01*
X132329942Y-135888220D01*
X132329942Y-135888219D01*
X132329943Y-135888220D01*
X132373961Y-135884058D01*
X132385819Y-135883500D01*
X140565500Y-135883500D01*
X140633621Y-135903502D01*
X140680114Y-135957158D01*
X140691500Y-136009499D01*
X140691500Y-136148638D01*
X140698011Y-136209201D01*
X140716624Y-136259103D01*
X140749111Y-136346205D01*
X140836738Y-136463261D01*
X140953794Y-136550888D01*
X140953795Y-136550888D01*
X140953796Y-136550889D01*
X141090799Y-136601989D01*
X141151362Y-136608500D01*
X141154731Y-136608500D01*
X142945269Y-136608500D01*
X142948638Y-136608500D01*
X143009201Y-136601989D01*
X143146204Y-136550889D01*
X143263261Y-136463261D01*
X143350889Y-136346204D01*
X143394999Y-136227941D01*
X143437545Y-136171107D01*
X143504065Y-136146296D01*
X143573439Y-136161387D01*
X143605753Y-136186635D01*
X143643780Y-136227943D01*
X143666762Y-136252908D01*
X143824755Y-136375880D01*
X143844424Y-136391189D01*
X144042426Y-136498342D01*
X144255365Y-136571444D01*
X144477431Y-136608500D01*
X144477434Y-136608500D01*
X144702566Y-136608500D01*
X144702569Y-136608500D01*
X144924635Y-136571444D01*
X145137574Y-136498342D01*
X145335576Y-136391189D01*
X145513240Y-136252906D01*
X145665722Y-136087268D01*
X145754518Y-135951354D01*
X145808520Y-135905267D01*
X145878868Y-135895692D01*
X145943226Y-135925669D01*
X145965480Y-135951353D01*
X146054278Y-136087268D01*
X146183780Y-136227943D01*
X146206762Y-136252908D01*
X146364755Y-136375880D01*
X146384424Y-136391189D01*
X146582426Y-136498342D01*
X146795365Y-136571444D01*
X147017431Y-136608500D01*
X147017434Y-136608500D01*
X147242566Y-136608500D01*
X147242569Y-136608500D01*
X147464635Y-136571444D01*
X147677574Y-136498342D01*
X147875576Y-136391189D01*
X148053240Y-136252906D01*
X148205722Y-136087268D01*
X148294518Y-135951354D01*
X148348521Y-135905268D01*
X148418869Y-135895693D01*
X148483226Y-135925670D01*
X148505480Y-135951353D01*
X148594278Y-136087268D01*
X148715496Y-136218945D01*
X148746762Y-136252908D01*
X148924422Y-136391188D01*
X148924424Y-136391189D01*
X148970469Y-136416107D01*
X149020859Y-136466118D01*
X149036500Y-136526920D01*
X149036500Y-136839009D01*
X149016498Y-136907130D01*
X148999595Y-136928104D01*
X148922604Y-137005095D01*
X148860292Y-137039121D01*
X148833509Y-137042000D01*
X146758200Y-137042000D01*
X146690079Y-137021998D01*
X146664565Y-137000312D01*
X146661253Y-136996633D01*
X146538062Y-136907130D01*
X146506752Y-136884382D01*
X146332288Y-136806706D01*
X146145487Y-136767000D01*
X145954513Y-136767000D01*
X145829978Y-136793470D01*
X145767711Y-136806706D01*
X145593246Y-136884383D01*
X145438746Y-136996633D01*
X145435435Y-137000312D01*
X145374988Y-137037551D01*
X145341800Y-137042000D01*
X125440095Y-137042000D01*
X125371974Y-137021998D01*
X125350998Y-137005094D01*
X125320403Y-136974498D01*
X125286379Y-136912185D01*
X125283500Y-136885404D01*
X125283500Y-122402524D01*
X125303502Y-122334403D01*
X125315858Y-122318220D01*
X125389040Y-122236944D01*
X125484527Y-122071556D01*
X125543542Y-121889928D01*
X125563504Y-121700000D01*
X125563259Y-121697669D01*
X125564410Y-121691376D01*
X125564888Y-121686829D01*
X125565235Y-121686865D01*
X125576032Y-121627831D01*
X125624534Y-121575985D01*
X125688569Y-121558500D01*
X129266686Y-121558500D01*
X129334807Y-121578502D01*
G37*
%TD.AperFunction*%
%TA.AperFunction,Conductor*%
G36*
X153264609Y-136218945D02*
G01*
X153323157Y-136259103D01*
X153350699Y-136324539D01*
X153351500Y-136338722D01*
X153351500Y-141817445D01*
X153331498Y-141885566D01*
X153277842Y-141932059D01*
X153207568Y-141942163D01*
X153142988Y-141912669D01*
X153104604Y-141852943D01*
X153100152Y-141830251D01*
X153097887Y-141808078D01*
X153097887Y-141808074D01*
X153042115Y-141639762D01*
X152949030Y-141488848D01*
X152949028Y-141488846D01*
X152949027Y-141488844D01*
X152823655Y-141363472D01*
X152806713Y-141353022D01*
X152672738Y-141270385D01*
X152504426Y-141214613D01*
X152504423Y-141214612D01*
X152504421Y-141214612D01*
X152403746Y-141204326D01*
X152403725Y-141204324D01*
X152400545Y-141204000D01*
X152397339Y-141204000D01*
X151402661Y-141204000D01*
X151402641Y-141204000D01*
X151399456Y-141204001D01*
X151396279Y-141204325D01*
X151396270Y-141204326D01*
X151295573Y-141214613D01*
X151127262Y-141270385D01*
X150976344Y-141363472D01*
X150850972Y-141488844D01*
X150850970Y-141488848D01*
X150757885Y-141639762D01*
X150702113Y-141808074D01*
X150702112Y-141808078D01*
X150691826Y-141908753D01*
X150691824Y-141908775D01*
X150691500Y-141911955D01*
X150691500Y-142250534D01*
X150691501Y-142465020D01*
X150671499Y-142533141D01*
X150617843Y-142579634D01*
X150565501Y-142591020D01*
X150147190Y-142591020D01*
X150079069Y-142571018D01*
X150032576Y-142517362D01*
X150022472Y-142447088D01*
X150038071Y-142402020D01*
X150054372Y-142373786D01*
X150084527Y-142321556D01*
X150143542Y-142139928D01*
X150163504Y-141950000D01*
X150143542Y-141760072D01*
X150084527Y-141578444D01*
X150084527Y-141578443D01*
X149989041Y-141413057D01*
X149915863Y-141331783D01*
X149885146Y-141267775D01*
X149883500Y-141247473D01*
X149883500Y-138524593D01*
X149903502Y-138456472D01*
X149920405Y-138435498D01*
X150651903Y-137704000D01*
X151752076Y-136603826D01*
X151814386Y-136569803D01*
X151864564Y-136572727D01*
X151865066Y-136569725D01*
X151875362Y-136571443D01*
X151875365Y-136571444D01*
X152097431Y-136608500D01*
X152097434Y-136608500D01*
X152322566Y-136608500D01*
X152322569Y-136608500D01*
X152544635Y-136571444D01*
X152757574Y-136498342D01*
X152955576Y-136391189D01*
X153058941Y-136310736D01*
X153141479Y-136246494D01*
X153142367Y-136247635D01*
X153193644Y-136216815D01*
X153264609Y-136218945D01*
G37*
%TD.AperFunction*%
%TA.AperFunction,Conductor*%
G36*
X139296155Y-119403502D02*
G01*
X139342648Y-119457158D01*
X139352752Y-119527432D01*
X139323258Y-119592012D01*
X139302095Y-119611436D01*
X139288747Y-119621133D01*
X139160958Y-119763057D01*
X139065472Y-119928443D01*
X139006458Y-120110070D01*
X138989093Y-120275291D01*
X138962079Y-120340948D01*
X138952878Y-120351215D01*
X137274498Y-122029596D01*
X137212188Y-122063620D01*
X137185405Y-122066500D01*
X134238618Y-122066500D01*
X134170497Y-122046498D01*
X134124004Y-121992842D01*
X134113900Y-121922568D01*
X134141530Y-121860188D01*
X134165608Y-121831081D01*
X134173577Y-121822325D01*
X136575498Y-119420405D01*
X136637811Y-119386379D01*
X136664594Y-119383500D01*
X139228034Y-119383500D01*
X139296155Y-119403502D01*
G37*
%TD.AperFunction*%
%TA.AperFunction,Conductor*%
G36*
X126083641Y-116020002D02*
G01*
X126130134Y-116073658D01*
X126141520Y-116126000D01*
X126141520Y-117938780D01*
X126121518Y-118006901D01*
X126067862Y-118053394D01*
X126066769Y-118053887D01*
X125943246Y-118108883D01*
X125788747Y-118221133D01*
X125660959Y-118363055D01*
X125614221Y-118444009D01*
X125562838Y-118493002D01*
X125493124Y-118506437D01*
X125427213Y-118480050D01*
X125416007Y-118470103D01*
X124303454Y-117357550D01*
X123161000Y-116215095D01*
X123126974Y-116152783D01*
X123132039Y-116081967D01*
X123174586Y-116025132D01*
X123241106Y-116000321D01*
X123250095Y-116000000D01*
X126015520Y-116000000D01*
X126083641Y-116020002D01*
G37*
%TD.AperFunction*%
%TA.AperFunction,Conductor*%
G36*
X130133621Y-114016002D02*
G01*
X130180114Y-114069658D01*
X130191500Y-114122000D01*
X130191500Y-117583000D01*
X130322303Y-117583000D01*
X130328692Y-117582674D01*
X130429327Y-117572393D01*
X130597522Y-117516659D01*
X130748342Y-117423632D01*
X130873633Y-117298341D01*
X130953095Y-117169513D01*
X131005880Y-117122034D01*
X131075955Y-117110631D01*
X131141071Y-117138923D01*
X131167575Y-117169511D01*
X131175260Y-117181970D01*
X131200971Y-117223654D01*
X131326344Y-117349027D01*
X131326346Y-117349028D01*
X131326348Y-117349030D01*
X131477262Y-117442115D01*
X131645574Y-117497887D01*
X131721637Y-117505658D01*
X131746253Y-117508173D01*
X131746255Y-117508173D01*
X131749455Y-117508500D01*
X132750544Y-117508499D01*
X132802696Y-117503171D01*
X132872495Y-117516146D01*
X132924200Y-117564799D01*
X132941500Y-117628519D01*
X132941500Y-118230076D01*
X132921498Y-118298197D01*
X132904595Y-118319171D01*
X132819171Y-118404595D01*
X132756859Y-118438621D01*
X132730076Y-118441500D01*
X128997000Y-118441500D01*
X128928879Y-118421498D01*
X128882386Y-118367842D01*
X128871000Y-118315500D01*
X128871000Y-117900000D01*
X128870999Y-117472163D01*
X128891001Y-117404043D01*
X128944657Y-117357550D01*
X129014931Y-117347446D01*
X129079511Y-117376939D01*
X129086094Y-117383069D01*
X129126657Y-117423632D01*
X129277477Y-117516659D01*
X129445672Y-117572393D01*
X129546307Y-117582674D01*
X129552697Y-117583000D01*
X129683500Y-117583000D01*
X129683500Y-114122000D01*
X129703502Y-114053879D01*
X129757158Y-114007386D01*
X129809500Y-113996000D01*
X130065500Y-113996000D01*
X130133621Y-114016002D01*
G37*
%TD.AperFunction*%
%TA.AperFunction,Conductor*%
G36*
X134544033Y-111947247D02*
G01*
X134553794Y-111950887D01*
X134553796Y-111950889D01*
X134690799Y-112001989D01*
X134751362Y-112008500D01*
X134754731Y-112008500D01*
X135745269Y-112008500D01*
X135748638Y-112008500D01*
X135809201Y-112001989D01*
X135946204Y-111950889D01*
X135946207Y-111950886D01*
X135946466Y-111950790D01*
X136017282Y-111945724D01*
X136079595Y-111979749D01*
X136113620Y-112042061D01*
X136116500Y-112068845D01*
X136116500Y-113066147D01*
X136114204Y-113086935D01*
X136116438Y-113157984D01*
X136116500Y-113161943D01*
X136116500Y-113189856D01*
X136116966Y-113193548D01*
X136101289Y-113262740D01*
X136050656Y-113312508D01*
X136004037Y-113326751D01*
X135995676Y-113327605D01*
X135827477Y-113383340D01*
X135676657Y-113476367D01*
X135540951Y-113612074D01*
X135538055Y-113609178D01*
X135504741Y-113639140D01*
X135434665Y-113650538D01*
X135369552Y-113622241D01*
X135359994Y-113611210D01*
X135359444Y-113611761D01*
X135223655Y-113475972D01*
X135185215Y-113452262D01*
X135072738Y-113382885D01*
X134904426Y-113327113D01*
X134904423Y-113327112D01*
X134904421Y-113327112D01*
X134803746Y-113316826D01*
X134803725Y-113316824D01*
X134800545Y-113316500D01*
X134797339Y-113316500D01*
X134027661Y-113316500D01*
X134027641Y-113316500D01*
X134024456Y-113316501D01*
X134021279Y-113316825D01*
X134021270Y-113316826D01*
X133920573Y-113327113D01*
X133752262Y-113382885D01*
X133601346Y-113475971D01*
X133488748Y-113588569D01*
X133426436Y-113622594D01*
X133355620Y-113617528D01*
X133311616Y-113584588D01*
X133309444Y-113586761D01*
X133173655Y-113450972D01*
X133162465Y-113444070D01*
X133114987Y-113391284D01*
X133103584Y-113321209D01*
X133131877Y-113256093D01*
X133134954Y-113252542D01*
X133239040Y-113136944D01*
X133334527Y-112971556D01*
X133393542Y-112789928D01*
X133413504Y-112600000D01*
X133393542Y-112410072D01*
X133334527Y-112228444D01*
X133334527Y-112228443D01*
X133316662Y-112197500D01*
X133299924Y-112128504D01*
X133323145Y-112061413D01*
X133378952Y-112017526D01*
X133425781Y-112008500D01*
X134245269Y-112008500D01*
X134248638Y-112008500D01*
X134309201Y-112001989D01*
X134446204Y-111950889D01*
X134446205Y-111950887D01*
X134455967Y-111947247D01*
X134526782Y-111942181D01*
X134544033Y-111947247D01*
G37*
%TD.AperFunction*%
%TA.AperFunction,Conductor*%
G36*
X137556833Y-106493237D02*
G01*
X137613669Y-106535784D01*
X137638480Y-106602304D01*
X137636569Y-106634903D01*
X137632193Y-106657843D01*
X137630467Y-106665565D01*
X137616500Y-106719968D01*
X137616500Y-106728206D01*
X137614268Y-106751816D01*
X137612724Y-106759906D01*
X137616251Y-106815949D01*
X137616500Y-106823862D01*
X137616500Y-109431153D01*
X137596498Y-109499274D01*
X137542842Y-109545767D01*
X137472568Y-109555871D01*
X137446468Y-109549209D01*
X137362369Y-109517842D01*
X137309201Y-109498011D01*
X137248638Y-109491500D01*
X136251362Y-109491500D01*
X136248013Y-109491859D01*
X136248013Y-109491860D01*
X136190799Y-109498011D01*
X136053532Y-109549209D01*
X135982716Y-109554273D01*
X135920404Y-109520248D01*
X135886379Y-109457936D01*
X135883500Y-109431153D01*
X135883500Y-108114594D01*
X135903502Y-108046473D01*
X135920405Y-108025499D01*
X136696864Y-107249040D01*
X137423708Y-106522196D01*
X137486018Y-106488172D01*
X137556833Y-106493237D01*
G37*
%TD.AperFunction*%
%TA.AperFunction,Conductor*%
G36*
X128630916Y-67978502D02*
G01*
X128677409Y-68032158D01*
X128687513Y-68102432D01*
X128672795Y-68145950D01*
X128642351Y-68200445D01*
X128562505Y-68426432D01*
X128522000Y-68662664D01*
X128522000Y-69428500D01*
X129385775Y-69428500D01*
X129345444Y-69525869D01*
X129324823Y-69682500D01*
X129345444Y-69839131D01*
X129385775Y-69936500D01*
X128522000Y-69936500D01*
X128522000Y-70639650D01*
X128522226Y-70644973D01*
X128537234Y-70821315D01*
X128597626Y-71053252D01*
X128696353Y-71271659D01*
X128830564Y-71470231D01*
X128996405Y-71643267D01*
X129189105Y-71785787D01*
X129403123Y-71893693D01*
X129632292Y-71963875D01*
X129676000Y-71969472D01*
X129676000Y-70226724D01*
X129773369Y-70267056D01*
X129890677Y-70282500D01*
X129969323Y-70282500D01*
X130086631Y-70267056D01*
X130183999Y-70226724D01*
X130183999Y-71968086D01*
X130343782Y-71933651D01*
X130566178Y-71844284D01*
X130770271Y-71718619D01*
X130950188Y-71560274D01*
X131100762Y-71373791D01*
X131217647Y-71164557D01*
X131297494Y-70938567D01*
X131338000Y-70702335D01*
X131338000Y-69936500D01*
X130474225Y-69936500D01*
X130514556Y-69839131D01*
X130535177Y-69682500D01*
X130514556Y-69525869D01*
X130474225Y-69428500D01*
X131338000Y-69428500D01*
X131338000Y-68725349D01*
X131337773Y-68720026D01*
X131322765Y-68543684D01*
X131262373Y-68311746D01*
X131183111Y-68136400D01*
X131173279Y-68066088D01*
X131203020Y-68001621D01*
X131262894Y-67963468D01*
X131297926Y-67958500D01*
X132372223Y-67958500D01*
X132440344Y-67978502D01*
X132486837Y-68032158D01*
X132496941Y-68102432D01*
X132482223Y-68145949D01*
X132451894Y-68200241D01*
X132372021Y-68426301D01*
X132372020Y-68426305D01*
X132372020Y-68426306D01*
X132331500Y-68662619D01*
X132331500Y-70642327D01*
X132331725Y-70644980D01*
X132331726Y-70644984D01*
X132346740Y-70821398D01*
X132407155Y-71053422D01*
X132505914Y-71271902D01*
X132640173Y-71470545D01*
X132640175Y-71470547D01*
X132671466Y-71503195D01*
X132704161Y-71566213D01*
X132706500Y-71590379D01*
X132706500Y-80592219D01*
X132704204Y-80613007D01*
X132706438Y-80684056D01*
X132706500Y-80688015D01*
X132706500Y-80715928D01*
X132706995Y-80719846D01*
X132706997Y-80719878D01*
X132707008Y-80719960D01*
X132707937Y-80731769D01*
X132709326Y-80775964D01*
X132714977Y-80795413D01*
X132718986Y-80814768D01*
X132721525Y-80834866D01*
X132737801Y-80875975D01*
X132741644Y-80887202D01*
X132753980Y-80929662D01*
X132764294Y-80947102D01*
X132772987Y-80964846D01*
X132780448Y-80983689D01*
X132780449Y-80983691D01*
X132806431Y-81019452D01*
X132812948Y-81029373D01*
X132835458Y-81067435D01*
X132849778Y-81081755D01*
X132862618Y-81096788D01*
X132874526Y-81113177D01*
X132874527Y-81113178D01*
X132874528Y-81113179D01*
X132908592Y-81141359D01*
X132917372Y-81149349D01*
X133154594Y-81386571D01*
X133188620Y-81448883D01*
X133191499Y-81475666D01*
X133191499Y-81849032D01*
X133191499Y-81849057D01*
X133191500Y-81851502D01*
X133191691Y-81853940D01*
X133191693Y-81853968D01*
X133192053Y-81858535D01*
X133177455Y-81928014D01*
X133127611Y-81978572D01*
X133058346Y-81994157D01*
X132991651Y-81969820D01*
X132977346Y-81957512D01*
X132415404Y-81395570D01*
X132381378Y-81333258D01*
X132378499Y-81306475D01*
X132378499Y-79166796D01*
X132380732Y-79143179D01*
X132382275Y-79135092D01*
X132378749Y-79079048D01*
X132378500Y-79071136D01*
X132378500Y-79059102D01*
X132378500Y-79055144D01*
X132376494Y-79039269D01*
X132375751Y-79031401D01*
X132373569Y-78996724D01*
X132372225Y-78975350D01*
X132369678Y-78967513D01*
X132364505Y-78944368D01*
X132363474Y-78936203D01*
X132345153Y-78889929D01*
X132342800Y-78883986D01*
X132340119Y-78876539D01*
X132328626Y-78841167D01*
X132322764Y-78823125D01*
X132322763Y-78823123D01*
X132318350Y-78816169D01*
X132307583Y-78795038D01*
X132304551Y-78787381D01*
X132271544Y-78741950D01*
X132267095Y-78735404D01*
X132237000Y-78687982D01*
X132230992Y-78682340D01*
X132215309Y-78664551D01*
X132213092Y-78661500D01*
X132210472Y-78657893D01*
X132210471Y-78657892D01*
X132167201Y-78622096D01*
X132161264Y-78616862D01*
X132120322Y-78578415D01*
X132120321Y-78578414D01*
X132113099Y-78574443D01*
X132093488Y-78561115D01*
X132087144Y-78555866D01*
X132036328Y-78531954D01*
X132029278Y-78528361D01*
X131980062Y-78501305D01*
X131972078Y-78499255D01*
X131949774Y-78491225D01*
X131942317Y-78487716D01*
X131887154Y-78477193D01*
X131879432Y-78475467D01*
X131825030Y-78461500D01*
X131816793Y-78461500D01*
X131793184Y-78459268D01*
X131789824Y-78458627D01*
X131785091Y-78457724D01*
X131729049Y-78461251D01*
X131721137Y-78461500D01*
X131049951Y-78461500D01*
X130981830Y-78441498D01*
X130960856Y-78424595D01*
X130956810Y-78420549D01*
X130911764Y-78393909D01*
X130813601Y-78335855D01*
X130813600Y-78335854D01*
X130813599Y-78335854D01*
X130653832Y-78289438D01*
X130618958Y-78286693D01*
X130618950Y-78286692D01*
X130616502Y-78286500D01*
X128833498Y-78286500D01*
X128831050Y-78286692D01*
X128831041Y-78286693D01*
X128796167Y-78289438D01*
X128636400Y-78335854D01*
X128493189Y-78420549D01*
X128375549Y-78538189D01*
X128290854Y-78681400D01*
X128244438Y-78841167D01*
X128244437Y-78841169D01*
X128244438Y-78841169D01*
X128241500Y-78878498D01*
X128241500Y-79311502D01*
X128241692Y-79313950D01*
X128241693Y-79313958D01*
X128244438Y-79348832D01*
X128268843Y-79432837D01*
X128290855Y-79508601D01*
X128374537Y-79650100D01*
X128383650Y-79665508D01*
X128379559Y-79667926D01*
X128399023Y-79703570D01*
X128393958Y-79774385D01*
X128381737Y-79793434D01*
X128384048Y-79794801D01*
X128291318Y-79951600D01*
X128252744Y-80084370D01*
X128214530Y-80144205D01*
X128150034Y-80173882D01*
X128079731Y-80163978D01*
X128025943Y-80117638D01*
X128024615Y-80114869D01*
X128024389Y-80115010D01*
X127923632Y-79951657D01*
X127798342Y-79826367D01*
X127647522Y-79733340D01*
X127479327Y-79677606D01*
X127378692Y-79667325D01*
X127372303Y-79667000D01*
X127104000Y-79667000D01*
X127104000Y-80890500D01*
X127083998Y-80958621D01*
X127030342Y-81005114D01*
X126978000Y-81016500D01*
X126722000Y-81016500D01*
X126653879Y-80996498D01*
X126607386Y-80942842D01*
X126596000Y-80890500D01*
X126596000Y-79667000D01*
X126559980Y-79667000D01*
X126491859Y-79646998D01*
X126445366Y-79593342D01*
X126433980Y-79541000D01*
X126433980Y-76644443D01*
X126453982Y-76576322D01*
X126470880Y-76555353D01*
X127523713Y-75502520D01*
X127532853Y-75494236D01*
X127566568Y-75466568D01*
X127598969Y-75427088D01*
X127672904Y-75336997D01*
X127692595Y-75313004D01*
X127749039Y-75207405D01*
X127786242Y-75137803D01*
X127843909Y-74947700D01*
X127863381Y-74750000D01*
X127859107Y-74706600D01*
X127858500Y-74694254D01*
X127858500Y-68219924D01*
X127878502Y-68151803D01*
X127895405Y-68130829D01*
X128030829Y-67995405D01*
X128093141Y-67961379D01*
X128119924Y-67958500D01*
X128562795Y-67958500D01*
X128630916Y-67978502D01*
G37*
%TD.AperFunction*%
%TA.AperFunction,Conductor*%
G36*
X136250344Y-67978502D02*
G01*
X136296837Y-68032158D01*
X136306941Y-68102432D01*
X136292223Y-68145949D01*
X136261894Y-68200241D01*
X136182021Y-68426301D01*
X136182020Y-68426305D01*
X136182020Y-68426306D01*
X136141500Y-68662619D01*
X136141500Y-70642327D01*
X136141725Y-70644980D01*
X136141726Y-70644984D01*
X136156740Y-70821398D01*
X136217155Y-71053422D01*
X136231709Y-71085620D01*
X136315914Y-71271902D01*
X136450175Y-71470547D01*
X136616075Y-71643644D01*
X136808843Y-71786215D01*
X136847226Y-71805567D01*
X136899046Y-71854093D01*
X136916500Y-71918075D01*
X136916500Y-77685403D01*
X136896498Y-77753524D01*
X136879595Y-77774498D01*
X136159272Y-78494821D01*
X136096960Y-78528847D01*
X136026145Y-78523782D01*
X135981082Y-78494821D01*
X135906810Y-78420549D01*
X135861764Y-78393909D01*
X135763601Y-78335855D01*
X135763600Y-78335854D01*
X135763599Y-78335854D01*
X135603832Y-78289438D01*
X135568958Y-78286693D01*
X135568950Y-78286692D01*
X135566502Y-78286500D01*
X135564033Y-78286500D01*
X134099500Y-78286500D01*
X134031379Y-78266498D01*
X133984886Y-78212842D01*
X133973500Y-78160500D01*
X133973500Y-72074754D01*
X133993502Y-72006633D01*
X134047158Y-71960140D01*
X134072955Y-71951582D01*
X134106600Y-71944330D01*
X134153932Y-71934130D01*
X134376404Y-71844733D01*
X134580569Y-71719024D01*
X134730703Y-71586889D01*
X134760549Y-71560621D01*
X134760551Y-71560619D01*
X134911175Y-71374076D01*
X135028105Y-71164760D01*
X135030445Y-71158139D01*
X135067443Y-71053424D01*
X135107980Y-70938694D01*
X135148500Y-70702381D01*
X135148500Y-68722673D01*
X135133945Y-68551658D01*
X135133259Y-68543601D01*
X135092924Y-68388694D01*
X135072844Y-68311576D01*
X134993658Y-68136398D01*
X134983827Y-68066087D01*
X135013569Y-68001621D01*
X135073443Y-67963468D01*
X135108474Y-67958500D01*
X136182223Y-67958500D01*
X136250344Y-67978502D01*
G37*
%TD.AperFunction*%
%TA.AperFunction,Conductor*%
G36*
X139893621Y-67978502D02*
G01*
X139940114Y-68032158D01*
X139951500Y-68084500D01*
X139951500Y-71279838D01*
X139951500Y-71279857D01*
X139951501Y-71283044D01*
X139951825Y-71286221D01*
X139951826Y-71286229D01*
X139960079Y-71367012D01*
X139962113Y-71386926D01*
X140017885Y-71555238D01*
X140096811Y-71683197D01*
X140110972Y-71706155D01*
X140236344Y-71831527D01*
X140236346Y-71831528D01*
X140236348Y-71831530D01*
X140387262Y-71924615D01*
X140555574Y-71980387D01*
X140631637Y-71988158D01*
X140656253Y-71990673D01*
X140656255Y-71990673D01*
X140659455Y-71991000D01*
X142060544Y-71990999D01*
X142164426Y-71980387D01*
X142332738Y-71924615D01*
X142483652Y-71831530D01*
X142609030Y-71706152D01*
X142702115Y-71555238D01*
X142757887Y-71386926D01*
X142768500Y-71283045D01*
X142768499Y-68084499D01*
X142788501Y-68016379D01*
X142842157Y-67969886D01*
X142894499Y-67958500D01*
X146506181Y-67958500D01*
X146574302Y-67978502D01*
X146620795Y-68032158D01*
X146630899Y-68102432D01*
X146625786Y-68124132D01*
X146602112Y-68195576D01*
X146591826Y-68296253D01*
X146591825Y-68296270D01*
X146591500Y-68299455D01*
X146591500Y-68302659D01*
X146591500Y-68302660D01*
X146591500Y-69097338D01*
X146591500Y-69097357D01*
X146591501Y-69100544D01*
X146591825Y-69103721D01*
X146591826Y-69103729D01*
X146597411Y-69158401D01*
X146602113Y-69204426D01*
X146657885Y-69372738D01*
X146750970Y-69523652D01*
X146838223Y-69610905D01*
X146872247Y-69673215D01*
X146867183Y-69744031D01*
X146838223Y-69789094D01*
X146750971Y-69876346D01*
X146750969Y-69876348D01*
X146750970Y-69876348D01*
X146657885Y-70027262D01*
X146602113Y-70195574D01*
X146602112Y-70195578D01*
X146591826Y-70296253D01*
X146591824Y-70296275D01*
X146591500Y-70299455D01*
X146591500Y-70302660D01*
X146591500Y-70960404D01*
X146571498Y-71028525D01*
X146554595Y-71049499D01*
X139811336Y-77792757D01*
X139795016Y-77805833D01*
X139746370Y-77857635D01*
X139743621Y-77860472D01*
X139726667Y-77877427D01*
X139726660Y-77877434D01*
X139723865Y-77880230D01*
X139721442Y-77883352D01*
X139721426Y-77883371D01*
X139721365Y-77883451D01*
X139713689Y-77892436D01*
X139683414Y-77924677D01*
X139673652Y-77942434D01*
X139662801Y-77958952D01*
X139650385Y-77974959D01*
X139632824Y-78015539D01*
X139627604Y-78026195D01*
X139606304Y-78064940D01*
X139601267Y-78084559D01*
X139594864Y-78103261D01*
X139586818Y-78121855D01*
X139579901Y-78165524D01*
X139577495Y-78177144D01*
X139566500Y-78219969D01*
X139566500Y-78240223D01*
X139564949Y-78259933D01*
X139561779Y-78279942D01*
X139565941Y-78323961D01*
X139566500Y-78335819D01*
X139566500Y-78368985D01*
X139546498Y-78437106D01*
X139492842Y-78483599D01*
X139422568Y-78493703D01*
X139357988Y-78464209D01*
X139322444Y-78413017D01*
X139300445Y-78354037D01*
X139212904Y-78237095D01*
X139095962Y-78149554D01*
X138959093Y-78098505D01*
X138901936Y-78092359D01*
X138895223Y-78092000D01*
X138704000Y-78092000D01*
X138704000Y-79678000D01*
X138683998Y-79746121D01*
X138630342Y-79792614D01*
X138578000Y-79804000D01*
X138322000Y-79804000D01*
X138253879Y-79783998D01*
X138207386Y-79730342D01*
X138196000Y-79678000D01*
X138196000Y-78068020D01*
X138190818Y-78058531D01*
X138190171Y-78035861D01*
X138189718Y-78035904D01*
X138184059Y-77976036D01*
X138183500Y-77964179D01*
X138183500Y-71916909D01*
X138203502Y-71848788D01*
X138243438Y-71809616D01*
X138263519Y-71797251D01*
X138390569Y-71719024D01*
X138540703Y-71586889D01*
X138570549Y-71560621D01*
X138570551Y-71560619D01*
X138721175Y-71374076D01*
X138838105Y-71164760D01*
X138840445Y-71158139D01*
X138877443Y-71053424D01*
X138917980Y-70938694D01*
X138958500Y-70702381D01*
X138958500Y-68722673D01*
X138943945Y-68551658D01*
X138943259Y-68543601D01*
X138902924Y-68388694D01*
X138882844Y-68311576D01*
X138803658Y-68136398D01*
X138793827Y-68066087D01*
X138823569Y-68001621D01*
X138883443Y-67963468D01*
X138918474Y-67958500D01*
X139825500Y-67958500D01*
X139893621Y-67978502D01*
G37*
%TD.AperFunction*%
%TA.AperFunction,Conductor*%
G36*
X153598439Y-78064757D02*
G01*
X153602262Y-78067115D01*
X153770574Y-78122887D01*
X153770576Y-78122887D01*
X153783673Y-78127227D01*
X153782986Y-78129299D01*
X153831900Y-78149258D01*
X153842455Y-78158689D01*
X156207095Y-80523328D01*
X156241120Y-80585640D01*
X156244000Y-80612422D01*
X156244000Y-81791138D01*
X156250511Y-81851701D01*
X156270490Y-81905267D01*
X156301611Y-81988705D01*
X156389238Y-82105761D01*
X156432512Y-82138155D01*
X156506296Y-82193389D01*
X156512031Y-82195528D01*
X156568867Y-82238073D01*
X156593679Y-82304593D01*
X156594000Y-82313584D01*
X156594000Y-86896762D01*
X156593393Y-86909113D01*
X156589119Y-86952501D01*
X156604441Y-87108072D01*
X156591212Y-87177826D01*
X156545196Y-87227662D01*
X156426345Y-87300971D01*
X156300972Y-87426344D01*
X156288870Y-87445965D01*
X156207885Y-87577262D01*
X156152113Y-87745574D01*
X156152112Y-87745578D01*
X156141826Y-87846253D01*
X156141825Y-87846270D01*
X156141500Y-87849455D01*
X156141500Y-87852660D01*
X156141500Y-88780075D01*
X156121498Y-88848196D01*
X156104599Y-88869165D01*
X155750113Y-89223652D01*
X155413297Y-89560468D01*
X155383600Y-89582493D01*
X155336996Y-89607404D01*
X155183430Y-89733433D01*
X155155765Y-89767142D01*
X155147463Y-89776301D01*
X151151301Y-93772463D01*
X151142142Y-93780765D01*
X151108433Y-93808430D01*
X150982404Y-93961996D01*
X150892589Y-94130030D01*
X150888757Y-94137199D01*
X150831090Y-94327297D01*
X150831036Y-94327853D01*
X150830578Y-94328985D01*
X150827488Y-94339174D01*
X150826576Y-94338897D01*
X150804452Y-94393684D01*
X150746497Y-94434693D01*
X150705643Y-94441500D01*
X147852661Y-94441500D01*
X147852641Y-94441500D01*
X147849456Y-94441501D01*
X147846279Y-94441825D01*
X147846270Y-94441826D01*
X147745573Y-94452113D01*
X147577262Y-94507885D01*
X147426344Y-94600972D01*
X147300972Y-94726344D01*
X147249829Y-94809259D01*
X147207885Y-94877262D01*
X147168897Y-94994923D01*
X147152112Y-95045578D01*
X147141826Y-95146253D01*
X147141824Y-95146275D01*
X147141500Y-95149455D01*
X147141500Y-95152659D01*
X147141500Y-95152660D01*
X147141500Y-95847338D01*
X147141500Y-95847357D01*
X147141501Y-95850544D01*
X147141825Y-95853721D01*
X147141826Y-95853729D01*
X147146564Y-95900104D01*
X147152113Y-95954426D01*
X147207885Y-96122738D01*
X147216400Y-96136543D01*
X147235136Y-96205022D01*
X147213876Y-96272761D01*
X147168555Y-96313810D01*
X147086994Y-96357405D01*
X146933433Y-96483430D01*
X146913197Y-96508088D01*
X146854519Y-96548055D01*
X146828151Y-96553545D01*
X146802297Y-96556091D01*
X146612197Y-96613758D01*
X146436992Y-96707406D01*
X146283431Y-96833431D01*
X146157406Y-96986992D01*
X146063758Y-97162197D01*
X146006091Y-97352298D01*
X145986619Y-97550000D01*
X146006091Y-97747701D01*
X146063758Y-97937802D01*
X146157406Y-98113007D01*
X146283431Y-98266568D01*
X146436992Y-98392593D01*
X146436996Y-98392595D01*
X146612196Y-98486241D01*
X146707247Y-98515074D01*
X146802298Y-98543908D01*
X146824474Y-98546092D01*
X146950453Y-98558500D01*
X147016000Y-98558500D01*
X147084121Y-98578502D01*
X147130614Y-98632158D01*
X147131297Y-98635298D01*
X147141999Y-98646000D01*
X152758000Y-98646000D01*
X152758000Y-98552697D01*
X152757674Y-98546307D01*
X152747393Y-98445672D01*
X152691659Y-98277477D01*
X152592443Y-98116623D01*
X152573706Y-98048143D01*
X152592443Y-97984329D01*
X152599026Y-97973655D01*
X152599030Y-97973652D01*
X152692115Y-97822738D01*
X152747887Y-97654426D01*
X152750623Y-97627641D01*
X152759034Y-97600104D01*
X152757638Y-97599681D01*
X152765749Y-97572943D01*
X152818908Y-97397701D01*
X152838380Y-97200000D01*
X152818908Y-97002299D01*
X152761241Y-96812196D01*
X152761239Y-96812193D01*
X152757638Y-96800320D01*
X152759033Y-96799896D01*
X152750622Y-96772353D01*
X152747887Y-96745574D01*
X152692115Y-96577262D01*
X152599030Y-96426348D01*
X152599027Y-96426345D01*
X152592737Y-96416147D01*
X152582573Y-96379000D01*
X153892000Y-96379000D01*
X153892000Y-98646000D01*
X156421000Y-98646000D01*
X156421000Y-96379000D01*
X156929000Y-96379000D01*
X156929000Y-98646000D01*
X158846000Y-98646000D01*
X158846000Y-96379000D01*
X159354000Y-96379000D01*
X159354000Y-98646000D01*
X161271000Y-98646000D01*
X161271000Y-96379000D01*
X161779000Y-96379000D01*
X161779000Y-98646000D01*
X164308000Y-98646000D01*
X164308000Y-96379000D01*
X161779000Y-96379000D01*
X161271000Y-96379000D01*
X159354000Y-96379000D01*
X158846000Y-96379000D01*
X156929000Y-96379000D01*
X156421000Y-96379000D01*
X153892000Y-96379000D01*
X152582573Y-96379000D01*
X152574000Y-96347668D01*
X152592737Y-96283853D01*
X152599027Y-96273654D01*
X152599030Y-96273652D01*
X152692115Y-96122738D01*
X152747887Y-95954426D01*
X152750623Y-95927641D01*
X152759034Y-95900104D01*
X152757638Y-95899681D01*
X152766338Y-95871000D01*
X152818908Y-95697701D01*
X152833500Y-95549547D01*
X152833500Y-94994922D01*
X152853502Y-94926802D01*
X152870400Y-94905833D01*
X153676906Y-94099327D01*
X153739217Y-94065302D01*
X153810032Y-94070367D01*
X153866868Y-94112914D01*
X153891679Y-94179434D01*
X153892000Y-94188423D01*
X153892000Y-95871000D01*
X156421000Y-95871000D01*
X156421000Y-92992000D01*
X156929000Y-92992000D01*
X156929000Y-95871000D01*
X158846000Y-95871000D01*
X158846000Y-92992000D01*
X159354000Y-92992000D01*
X159354000Y-95871000D01*
X161271000Y-95871000D01*
X161271000Y-92992000D01*
X161779000Y-92992000D01*
X161779000Y-95871000D01*
X164308000Y-95871000D01*
X164308000Y-93702699D01*
X164307674Y-93696309D01*
X164297393Y-93595677D01*
X164242520Y-93430078D01*
X164241782Y-93427677D01*
X164148632Y-93276657D01*
X164023342Y-93151367D01*
X163872522Y-93058340D01*
X163704327Y-93002606D01*
X163603692Y-92992325D01*
X163597303Y-92992000D01*
X161779000Y-92992000D01*
X161271000Y-92992000D01*
X159354000Y-92992000D01*
X158846000Y-92992000D01*
X156929000Y-92992000D01*
X156421000Y-92992000D01*
X155088423Y-92992000D01*
X155020302Y-92971998D01*
X154973809Y-92918342D01*
X154963705Y-92848068D01*
X154993199Y-92783488D01*
X154999328Y-92776905D01*
X155522437Y-92253796D01*
X156086706Y-91689526D01*
X156116397Y-91667505D01*
X156163003Y-91642595D01*
X156278082Y-91548152D01*
X156330828Y-91495404D01*
X156393141Y-91461379D01*
X156419924Y-91458500D01*
X163080076Y-91458500D01*
X163148197Y-91478502D01*
X163169171Y-91495405D01*
X164671918Y-92998152D01*
X164786996Y-93092595D01*
X164962196Y-93186241D01*
X165057247Y-93215074D01*
X165152298Y-93243908D01*
X165349999Y-93263380D01*
X165349999Y-93263379D01*
X165350000Y-93263380D01*
X165547700Y-93243908D01*
X165578925Y-93234435D01*
X165649916Y-93233801D01*
X165709983Y-93271649D01*
X165740052Y-93335964D01*
X165741500Y-93355010D01*
X165741500Y-104154098D01*
X165721498Y-104222219D01*
X165704595Y-104243193D01*
X165042704Y-104905084D01*
X164980392Y-104939110D01*
X164953609Y-104941989D01*
X163992027Y-104941989D01*
X163923906Y-104921987D01*
X163877413Y-104868331D01*
X163867309Y-104798057D01*
X163896803Y-104733477D01*
X163925880Y-104708748D01*
X164023342Y-104648632D01*
X164148632Y-104523342D01*
X164241659Y-104372522D01*
X164297393Y-104204327D01*
X164307674Y-104103692D01*
X164308000Y-104097302D01*
X164308000Y-101929000D01*
X153892000Y-101929000D01*
X153892000Y-104097302D01*
X153892325Y-104103692D01*
X153902606Y-104204327D01*
X153958340Y-104372522D01*
X154051367Y-104523342D01*
X154176657Y-104648632D01*
X154274120Y-104708748D01*
X154321598Y-104761534D01*
X154333001Y-104831609D01*
X154304709Y-104896725D01*
X154245703Y-104936207D01*
X154207973Y-104941989D01*
X145034011Y-104941989D01*
X144965890Y-104921987D01*
X144919397Y-104868331D01*
X144908011Y-104815989D01*
X144908011Y-103020412D01*
X144928013Y-102952291D01*
X144944911Y-102931322D01*
X145322233Y-102554000D01*
X147142000Y-102554000D01*
X147142000Y-102647302D01*
X147142325Y-102653692D01*
X147152606Y-102754327D01*
X147208340Y-102922522D01*
X147301367Y-103073342D01*
X147426657Y-103198632D01*
X147577477Y-103291659D01*
X147745672Y-103347393D01*
X147846307Y-103357674D01*
X147852697Y-103358000D01*
X149696000Y-103358000D01*
X149696000Y-102554000D01*
X150204000Y-102554000D01*
X150204000Y-103358000D01*
X152047303Y-103358000D01*
X152053692Y-103357674D01*
X152154327Y-103347393D01*
X152322522Y-103291659D01*
X152473342Y-103198632D01*
X152598632Y-103073342D01*
X152691659Y-102922522D01*
X152747393Y-102754327D01*
X152757674Y-102653692D01*
X152758000Y-102647302D01*
X152758000Y-102554000D01*
X150204000Y-102554000D01*
X149696000Y-102554000D01*
X147142000Y-102554000D01*
X145322233Y-102554000D01*
X146230829Y-101645405D01*
X146293141Y-101611379D01*
X146319924Y-101608500D01*
X147056709Y-101608500D01*
X147124830Y-101628502D01*
X147171323Y-101682158D01*
X147181427Y-101752432D01*
X147176313Y-101774134D01*
X147152606Y-101845673D01*
X147142325Y-101946307D01*
X147142000Y-101952697D01*
X147142000Y-102046000D01*
X152758000Y-102046000D01*
X152758000Y-101952697D01*
X152757674Y-101946307D01*
X152747393Y-101845672D01*
X152691659Y-101677477D01*
X152592443Y-101516623D01*
X152573706Y-101448143D01*
X152592443Y-101384329D01*
X152599026Y-101373655D01*
X152599030Y-101373652D01*
X152692115Y-101222738D01*
X152747887Y-101054426D01*
X152750623Y-101027641D01*
X152759034Y-101000104D01*
X152757638Y-100999681D01*
X152761241Y-100987804D01*
X152818908Y-100797701D01*
X152838380Y-100600000D01*
X152818908Y-100402299D01*
X152761241Y-100212196D01*
X152761239Y-100212193D01*
X152757638Y-100200320D01*
X152759033Y-100199896D01*
X152750622Y-100172353D01*
X152747887Y-100145574D01*
X152692115Y-99977262D01*
X152599030Y-99826348D01*
X152599028Y-99826346D01*
X152592443Y-99815670D01*
X152573706Y-99747191D01*
X152592443Y-99683376D01*
X152691659Y-99522521D01*
X152747393Y-99354327D01*
X152757674Y-99253692D01*
X152758000Y-99247302D01*
X152758000Y-99154000D01*
X153892000Y-99154000D01*
X153892000Y-101421000D01*
X156421000Y-101421000D01*
X156421000Y-99154000D01*
X156929000Y-99154000D01*
X156929000Y-101421000D01*
X161271000Y-101421000D01*
X161271000Y-99154000D01*
X161779000Y-99154000D01*
X161779000Y-101421000D01*
X164308000Y-101421000D01*
X164308000Y-99154000D01*
X161779000Y-99154000D01*
X161271000Y-99154000D01*
X156929000Y-99154000D01*
X156421000Y-99154000D01*
X153892000Y-99154000D01*
X152758000Y-99154000D01*
X147142000Y-99154000D01*
X147142000Y-99247302D01*
X147142325Y-99253692D01*
X147152606Y-99354326D01*
X147176313Y-99425866D01*
X147178754Y-99496821D01*
X147142446Y-99557832D01*
X147078918Y-99589527D01*
X147056709Y-99591500D01*
X145905737Y-99591500D01*
X145893387Y-99590893D01*
X145889905Y-99590550D01*
X145849998Y-99586619D01*
X145652298Y-99606090D01*
X145447557Y-99668198D01*
X145437242Y-99677096D01*
X145286996Y-99757404D01*
X145133430Y-99883433D01*
X145105765Y-99917142D01*
X145097463Y-99926301D01*
X143623595Y-101400169D01*
X143561283Y-101434195D01*
X143490468Y-101429130D01*
X143433632Y-101386583D01*
X143408821Y-101320063D01*
X143408500Y-101311074D01*
X143408500Y-83214594D01*
X143428502Y-83146473D01*
X143445400Y-83125503D01*
X143806858Y-82764044D01*
X143823179Y-82750970D01*
X143825213Y-82748803D01*
X143825216Y-82748802D01*
X143871874Y-82699114D01*
X143874566Y-82696336D01*
X143894332Y-82676572D01*
X143896799Y-82673390D01*
X143904506Y-82664364D01*
X143934784Y-82632123D01*
X143944541Y-82614372D01*
X143955397Y-82597845D01*
X143967811Y-82581843D01*
X143967811Y-82581841D01*
X143977570Y-82569262D01*
X143979095Y-82570445D01*
X144011266Y-82531779D01*
X144078973Y-82510416D01*
X144122409Y-82517218D01*
X144162086Y-82530838D01*
X144280365Y-82571444D01*
X144502431Y-82608500D01*
X144502434Y-82608500D01*
X144727566Y-82608500D01*
X144727569Y-82608500D01*
X144949635Y-82571444D01*
X145162574Y-82498342D01*
X145360576Y-82391189D01*
X145538240Y-82252906D01*
X145690722Y-82087268D01*
X145779518Y-81951354D01*
X145833521Y-81905268D01*
X145903869Y-81895693D01*
X145968226Y-81925670D01*
X145990480Y-81951353D01*
X146079278Y-82087268D01*
X146199394Y-82217748D01*
X146231762Y-82252908D01*
X146409421Y-82391187D01*
X146409424Y-82391189D01*
X146607426Y-82498342D01*
X146820365Y-82571444D01*
X147042431Y-82608500D01*
X147042434Y-82608500D01*
X147267566Y-82608500D01*
X147267569Y-82608500D01*
X147489635Y-82571444D01*
X147702574Y-82498342D01*
X147900576Y-82391189D01*
X148078240Y-82252906D01*
X148230722Y-82087268D01*
X148319518Y-81951354D01*
X148373520Y-81905267D01*
X148443868Y-81895692D01*
X148508226Y-81925669D01*
X148530480Y-81951353D01*
X148619278Y-82087268D01*
X148764908Y-82245463D01*
X148771762Y-82252908D01*
X148949421Y-82391187D01*
X148949424Y-82391189D01*
X149147426Y-82498342D01*
X149360365Y-82571444D01*
X149582431Y-82608500D01*
X149582434Y-82608500D01*
X149807566Y-82608500D01*
X149807569Y-82608500D01*
X150029635Y-82571444D01*
X150242574Y-82498342D01*
X150440576Y-82391189D01*
X150618240Y-82252906D01*
X150770722Y-82087268D01*
X150859817Y-81950896D01*
X150913819Y-81904809D01*
X150984167Y-81895234D01*
X151048524Y-81925211D01*
X151070782Y-81950897D01*
X151159678Y-82086962D01*
X151312096Y-82252533D01*
X151489697Y-82390766D01*
X151687631Y-82497883D01*
X151900485Y-82570955D01*
X151981000Y-82584391D01*
X151981000Y-81683674D01*
X152092685Y-81734680D01*
X152199237Y-81750000D01*
X152270763Y-81750000D01*
X152377315Y-81734680D01*
X152489000Y-81683674D01*
X152489000Y-82584390D01*
X152569514Y-82570955D01*
X152782368Y-82497883D01*
X152980302Y-82390766D01*
X153157903Y-82252533D01*
X153310321Y-82086962D01*
X153433419Y-81898548D01*
X153523822Y-81692451D01*
X153571544Y-81504000D01*
X152666116Y-81504000D01*
X152694493Y-81459844D01*
X152735000Y-81321889D01*
X152735000Y-81178111D01*
X152694493Y-81040156D01*
X152666116Y-80996000D01*
X153571544Y-80996000D01*
X153571544Y-80995999D01*
X153523822Y-80807548D01*
X153433419Y-80601451D01*
X153310321Y-80413037D01*
X153157903Y-80247466D01*
X152980302Y-80109233D01*
X152782369Y-80002117D01*
X152625773Y-79948357D01*
X152567838Y-79907320D01*
X152541287Y-79841475D01*
X152554549Y-79771728D01*
X152577591Y-79740089D01*
X152590774Y-79726906D01*
X152604628Y-79714933D01*
X152624058Y-79700469D01*
X152651364Y-79667926D01*
X152656221Y-79662138D01*
X152663660Y-79654020D01*
X152667581Y-79650100D01*
X152687012Y-79625523D01*
X152689286Y-79622731D01*
X152738032Y-79564640D01*
X152738033Y-79564636D01*
X152738890Y-79563616D01*
X152749402Y-79547117D01*
X152753155Y-79539068D01*
X152782036Y-79477131D01*
X152783544Y-79474015D01*
X152817609Y-79406188D01*
X152817610Y-79406179D01*
X152818212Y-79404983D01*
X152824634Y-79386509D01*
X152832413Y-79348832D01*
X152840241Y-79310919D01*
X152841022Y-79307397D01*
X152858500Y-79233656D01*
X152858500Y-79233655D01*
X152861897Y-79219324D01*
X152863156Y-79219622D01*
X152875380Y-79173999D01*
X152934527Y-79071556D01*
X152993542Y-78889928D01*
X153013504Y-78700000D01*
X152993542Y-78510072D01*
X152934527Y-78328444D01*
X152884962Y-78242595D01*
X152880577Y-78235000D01*
X152863839Y-78166005D01*
X152887059Y-78098913D01*
X152942866Y-78055026D01*
X152989696Y-78046000D01*
X153532296Y-78046000D01*
X153598439Y-78064757D01*
G37*
%TD.AperFunction*%
%TA.AperFunction,Conductor*%
G36*
X133334526Y-96353502D02*
G01*
X133381019Y-96407158D01*
X133391123Y-96477432D01*
X133361629Y-96542012D01*
X133355500Y-96548595D01*
X132474500Y-97429595D01*
X132412188Y-97463621D01*
X132385405Y-97466500D01*
X128883853Y-97466500D01*
X128863064Y-97464204D01*
X128792014Y-97466438D01*
X128788055Y-97466500D01*
X128760144Y-97466500D01*
X128756218Y-97466995D01*
X128756200Y-97466997D01*
X128756108Y-97467009D01*
X128744303Y-97467937D01*
X128700110Y-97469326D01*
X128680657Y-97474978D01*
X128661303Y-97478986D01*
X128641204Y-97481525D01*
X128600096Y-97497801D01*
X128588870Y-97501644D01*
X128546408Y-97513981D01*
X128528964Y-97524297D01*
X128511215Y-97532991D01*
X128492384Y-97540446D01*
X128456625Y-97566427D01*
X128446706Y-97572943D01*
X128408636Y-97595457D01*
X128394309Y-97609785D01*
X128379279Y-97622622D01*
X128362894Y-97634526D01*
X128334711Y-97668593D01*
X128326723Y-97677370D01*
X126865094Y-99138999D01*
X126802782Y-99173025D01*
X126731967Y-99167960D01*
X126675131Y-99125413D01*
X126650320Y-99058893D01*
X126650000Y-99049932D01*
X126650000Y-97888145D01*
X126670002Y-97820025D01*
X126723658Y-97773532D01*
X126793932Y-97763429D01*
X126804655Y-97766523D01*
X126804758Y-97766040D01*
X126817709Y-97768793D01*
X126817712Y-97768794D01*
X127004513Y-97808500D01*
X127004515Y-97808500D01*
X127195485Y-97808500D01*
X127195487Y-97808500D01*
X127382288Y-97768794D01*
X127556752Y-97691118D01*
X127711253Y-97578866D01*
X127839040Y-97436944D01*
X127934527Y-97271556D01*
X127993542Y-97089928D01*
X128010907Y-96924703D01*
X128037919Y-96859050D01*
X128047111Y-96848791D01*
X128525499Y-96370404D01*
X128587812Y-96336379D01*
X128614595Y-96333500D01*
X133266405Y-96333500D01*
X133334526Y-96353502D01*
G37*
%TD.AperFunction*%
%TA.AperFunction,Conductor*%
G36*
X124534871Y-75455502D02*
G01*
X124581364Y-75509158D01*
X124591468Y-75579432D01*
X124577873Y-75620892D01*
X124546264Y-75680030D01*
X124513522Y-75741285D01*
X124489237Y-75786719D01*
X124431570Y-75976818D01*
X124412099Y-76174518D01*
X124416373Y-76217905D01*
X124416980Y-76230256D01*
X124416980Y-78958955D01*
X124396978Y-79027076D01*
X124343322Y-79073569D01*
X124273048Y-79083673D01*
X124208468Y-79054179D01*
X124198280Y-79044293D01*
X124173241Y-79017094D01*
X123995578Y-78878812D01*
X123797573Y-78771657D01*
X123629616Y-78713998D01*
X123584635Y-78698556D01*
X123362569Y-78661500D01*
X123137431Y-78661500D01*
X122915365Y-78698556D01*
X122915362Y-78698556D01*
X122915362Y-78698557D01*
X122702426Y-78771657D01*
X122504421Y-78878812D01*
X122326762Y-79017091D01*
X122174278Y-79182731D01*
X122051139Y-79371209D01*
X121960702Y-79577388D01*
X121905646Y-79794801D01*
X121905436Y-79795632D01*
X121886844Y-80020000D01*
X121905436Y-80244368D01*
X121905436Y-80244371D01*
X121905437Y-80244372D01*
X121960702Y-80462611D01*
X122051139Y-80668790D01*
X122146511Y-80814768D01*
X122174278Y-80857268D01*
X122325758Y-81021818D01*
X122326762Y-81022908D01*
X122504422Y-81161188D01*
X122504424Y-81161189D01*
X122538205Y-81179470D01*
X122588596Y-81229482D01*
X122603949Y-81298799D01*
X122579389Y-81365413D01*
X122538209Y-81401096D01*
X122504702Y-81419229D01*
X122327096Y-81557466D01*
X122174678Y-81723037D01*
X122051580Y-81911451D01*
X121961177Y-82117548D01*
X121913455Y-82305999D01*
X121913456Y-82306000D01*
X122818884Y-82306000D01*
X122790507Y-82350156D01*
X122750000Y-82488111D01*
X122750000Y-82631889D01*
X122790507Y-82769844D01*
X122818884Y-82814000D01*
X121913455Y-82814000D01*
X121961177Y-83002451D01*
X122051580Y-83208548D01*
X122174678Y-83396962D01*
X122317981Y-83552632D01*
X122349402Y-83616297D01*
X122341415Y-83686843D01*
X122296556Y-83741872D01*
X122269313Y-83756025D01*
X122153793Y-83799111D01*
X122036738Y-83886738D01*
X121949111Y-84003794D01*
X121907198Y-84116168D01*
X121898011Y-84140799D01*
X121891500Y-84201362D01*
X121891500Y-85998638D01*
X121898011Y-86059201D01*
X121923561Y-86127702D01*
X121949111Y-86196205D01*
X122036738Y-86313261D01*
X122153794Y-86400888D01*
X122153795Y-86400888D01*
X122153796Y-86400889D01*
X122290799Y-86451989D01*
X122351362Y-86458500D01*
X122354731Y-86458500D01*
X124145269Y-86458500D01*
X124148638Y-86458500D01*
X124209201Y-86451989D01*
X124346204Y-86400889D01*
X124463261Y-86313261D01*
X124463261Y-86313260D01*
X124550889Y-86196205D01*
X124560429Y-86170624D01*
X124594273Y-86079886D01*
X124636817Y-86023054D01*
X124703337Y-85998242D01*
X124772711Y-86013333D01*
X124801422Y-86034826D01*
X126551501Y-87784905D01*
X126585527Y-87847217D01*
X126580462Y-87918032D01*
X126537915Y-87974868D01*
X126471395Y-87999679D01*
X126462406Y-88000000D01*
X119836500Y-88000000D01*
X119768379Y-87979998D01*
X119721886Y-87926342D01*
X119710500Y-87874000D01*
X119710500Y-75561500D01*
X119730502Y-75493379D01*
X119784158Y-75446886D01*
X119836500Y-75435500D01*
X124466750Y-75435500D01*
X124534871Y-75455502D01*
G37*
%TD.AperFunction*%
%TA.AperFunction,Conductor*%
G36*
X139073915Y-86316342D02*
G01*
X139111728Y-86376431D01*
X139116500Y-86410777D01*
X139116500Y-90085983D01*
X139096498Y-90154104D01*
X139042842Y-90200597D01*
X138972568Y-90210701D01*
X138939252Y-90201090D01*
X138782290Y-90131207D01*
X138782288Y-90131206D01*
X138595487Y-90091500D01*
X138404513Y-90091500D01*
X138279978Y-90117970D01*
X138217711Y-90131206D01*
X138043246Y-90208883D01*
X137888746Y-90321133D01*
X137885435Y-90324812D01*
X137824988Y-90362051D01*
X137791800Y-90366500D01*
X133483854Y-90366500D01*
X133463064Y-90364204D01*
X133392002Y-90366438D01*
X133388044Y-90366500D01*
X133360144Y-90366500D01*
X133356219Y-90366995D01*
X133356198Y-90366997D01*
X133356124Y-90367007D01*
X133344313Y-90367936D01*
X133300109Y-90369325D01*
X133280653Y-90374978D01*
X133261301Y-90378986D01*
X133241200Y-90381526D01*
X133200094Y-90397800D01*
X133188870Y-90401643D01*
X133146405Y-90413981D01*
X133128960Y-90424297D01*
X133111217Y-90432989D01*
X133092384Y-90440446D01*
X133056616Y-90466433D01*
X133046697Y-90472949D01*
X133008636Y-90495458D01*
X132994311Y-90509783D01*
X132979284Y-90522617D01*
X132962894Y-90534525D01*
X132934706Y-90568598D01*
X132926718Y-90577375D01*
X132648595Y-90855498D01*
X132586283Y-90889524D01*
X132515468Y-90884459D01*
X132458632Y-90841912D01*
X132433821Y-90775392D01*
X132433500Y-90766403D01*
X132433500Y-87184499D01*
X132453502Y-87116378D01*
X132507158Y-87069885D01*
X132559500Y-87058499D01*
X132847338Y-87058499D01*
X132850544Y-87058499D01*
X132954426Y-87047887D01*
X133122738Y-86992115D01*
X133273652Y-86899030D01*
X133399030Y-86773652D01*
X133492115Y-86622738D01*
X133498090Y-86604705D01*
X133509635Y-86569867D01*
X133550049Y-86511495D01*
X133615605Y-86484240D01*
X133629239Y-86483500D01*
X138016147Y-86483500D01*
X138036935Y-86485795D01*
X138039907Y-86485701D01*
X138039909Y-86485702D01*
X138107985Y-86483562D01*
X138111945Y-86483500D01*
X138135894Y-86483500D01*
X138139856Y-86483500D01*
X138143856Y-86482994D01*
X138155699Y-86482061D01*
X138199889Y-86480673D01*
X138219338Y-86475021D01*
X138238698Y-86471012D01*
X138258797Y-86468474D01*
X138299915Y-86452193D01*
X138311117Y-86448357D01*
X138353593Y-86436018D01*
X138371039Y-86425699D01*
X138388780Y-86417009D01*
X138407617Y-86409552D01*
X138411039Y-86407065D01*
X138477906Y-86383206D01*
X138485102Y-86383000D01*
X138645485Y-86383000D01*
X138645487Y-86383000D01*
X138832288Y-86343294D01*
X138939254Y-86295669D01*
X139009618Y-86286236D01*
X139073915Y-86316342D01*
G37*
%TD.AperFunction*%
%TA.AperFunction,Conductor*%
G36*
X131307165Y-82081059D02*
G01*
X131308501Y-82082148D01*
X131313607Y-82086372D01*
X131322378Y-82094354D01*
X133129418Y-83901394D01*
X133163444Y-83963706D01*
X133158379Y-84034521D01*
X133115832Y-84091357D01*
X133049312Y-84116168D01*
X133040323Y-84116489D01*
X131884584Y-84116489D01*
X131816463Y-84096487D01*
X131795489Y-84079584D01*
X131181936Y-83466031D01*
X131147910Y-83403719D01*
X131152975Y-83332904D01*
X131158118Y-83322133D01*
X131159143Y-83318603D01*
X131159145Y-83318601D01*
X131205562Y-83158831D01*
X131208500Y-83121502D01*
X131208500Y-82688498D01*
X131205562Y-82651169D01*
X131159145Y-82491399D01*
X131074453Y-82348193D01*
X131074452Y-82348192D01*
X131066350Y-82334492D01*
X131070566Y-82331998D01*
X131051368Y-82296957D01*
X131056332Y-82226135D01*
X131068696Y-82206896D01*
X131066350Y-82205509D01*
X131094686Y-82157595D01*
X131119793Y-82115140D01*
X131171683Y-82066690D01*
X131241534Y-82053984D01*
X131307165Y-82081059D01*
G37*
%TD.AperFunction*%
%TA.AperFunction,Conductor*%
G36*
X141003530Y-82560114D02*
G01*
X141115799Y-82601989D01*
X141176362Y-82608500D01*
X142032245Y-82608500D01*
X142100366Y-82628502D01*
X142146859Y-82682158D01*
X142156963Y-82752432D01*
X142156693Y-82754216D01*
X142154901Y-82765527D01*
X142152495Y-82777144D01*
X142141500Y-82819969D01*
X142141500Y-82840223D01*
X142139949Y-82859933D01*
X142136779Y-82879942D01*
X142140941Y-82923961D01*
X142141500Y-82935819D01*
X142141500Y-89965500D01*
X142121498Y-90033621D01*
X142067842Y-90080114D01*
X142015500Y-90091500D01*
X141954513Y-90091500D01*
X141829979Y-90117970D01*
X141767711Y-90131206D01*
X141593246Y-90208883D01*
X141438747Y-90321133D01*
X141403136Y-90360684D01*
X141342690Y-90397923D01*
X141271706Y-90396571D01*
X141212722Y-90357057D01*
X141184464Y-90291927D01*
X141183500Y-90276373D01*
X141183500Y-85748135D01*
X141185795Y-85727345D01*
X141183562Y-85656295D01*
X141183500Y-85652336D01*
X141183500Y-85628389D01*
X141183500Y-85624426D01*
X141182994Y-85620429D01*
X141182061Y-85608579D01*
X141181807Y-85600499D01*
X141180673Y-85564392D01*
X141175020Y-85544938D01*
X141171012Y-85525580D01*
X141168474Y-85505485D01*
X141152190Y-85464359D01*
X141148359Y-85453170D01*
X141136018Y-85410689D01*
X141125704Y-85393250D01*
X141117008Y-85375498D01*
X141109552Y-85356665D01*
X141083571Y-85320906D01*
X141077050Y-85310980D01*
X141054542Y-85272919D01*
X141040213Y-85258590D01*
X141027376Y-85243559D01*
X141015473Y-85227175D01*
X140981406Y-85198993D01*
X140972626Y-85191003D01*
X140345862Y-84564239D01*
X140311836Y-84501927D01*
X140316901Y-84431112D01*
X140359448Y-84374276D01*
X140370816Y-84366691D01*
X140391362Y-84354542D01*
X140405691Y-84340212D01*
X140420719Y-84327377D01*
X140437107Y-84315472D01*
X140465303Y-84281386D01*
X140473272Y-84272630D01*
X140588658Y-84157244D01*
X140604979Y-84144170D01*
X140607014Y-84142002D01*
X140607018Y-84142000D01*
X140653676Y-84092312D01*
X140656368Y-84089534D01*
X140676135Y-84069769D01*
X140678600Y-84066590D01*
X140686318Y-84057551D01*
X140716586Y-84025321D01*
X140726344Y-84007568D01*
X140737195Y-83991048D01*
X140749614Y-83975041D01*
X140767179Y-83934446D01*
X140772384Y-83923822D01*
X140793695Y-83885060D01*
X140798733Y-83865434D01*
X140805137Y-83846732D01*
X140813181Y-83828144D01*
X140820096Y-83784482D01*
X140822504Y-83772853D01*
X140833500Y-83730029D01*
X140833500Y-83709775D01*
X140835051Y-83690063D01*
X140835561Y-83686843D01*
X140838220Y-83670057D01*
X140834059Y-83626036D01*
X140833500Y-83614179D01*
X140833500Y-82678171D01*
X140853502Y-82610050D01*
X140907158Y-82563557D01*
X140977432Y-82553453D01*
X141003530Y-82560114D01*
G37*
%TD.AperFunction*%
%TA.AperFunction,Conductor*%
G36*
X160396500Y-82226937D02*
G01*
X160541591Y-82195669D01*
X160756085Y-82109479D01*
X160952933Y-81988275D01*
X161126461Y-81835548D01*
X161271682Y-81655698D01*
X161301732Y-81601904D01*
X161352415Y-81552188D01*
X161421932Y-81537765D01*
X161488210Y-81563216D01*
X161516125Y-81592795D01*
X161621717Y-81749023D01*
X161781728Y-81915976D01*
X161967653Y-82053485D01*
X162174143Y-82157595D01*
X162395257Y-82225311D01*
X162624635Y-82254684D01*
X162855678Y-82244869D01*
X162914412Y-82232210D01*
X162985217Y-82237411D01*
X163030053Y-82266287D01*
X165704595Y-84940829D01*
X165738621Y-85003141D01*
X165741500Y-85029924D01*
X165741500Y-87021983D01*
X165721498Y-87090104D01*
X165667842Y-87136597D01*
X165602695Y-87147331D01*
X165553695Y-87142325D01*
X165547303Y-87142000D01*
X164254000Y-87142000D01*
X164254000Y-88578000D01*
X164233998Y-88646121D01*
X164180342Y-88692614D01*
X164128000Y-88704000D01*
X161742000Y-88704000D01*
X161742000Y-89047302D01*
X161742325Y-89053692D01*
X161752606Y-89154327D01*
X161792881Y-89275867D01*
X161795322Y-89346822D01*
X161759014Y-89407832D01*
X161695485Y-89439527D01*
X161673277Y-89441500D01*
X160727250Y-89441500D01*
X160659129Y-89421498D01*
X160612636Y-89367842D01*
X160602532Y-89297568D01*
X160607646Y-89275867D01*
X160647887Y-89154426D01*
X160658500Y-89050545D01*
X160658499Y-88196000D01*
X161742000Y-88196000D01*
X163746000Y-88196000D01*
X163746000Y-87142000D01*
X162452697Y-87142000D01*
X162446307Y-87142325D01*
X162345672Y-87152606D01*
X162177477Y-87208340D01*
X162026657Y-87301367D01*
X161901367Y-87426657D01*
X161808340Y-87577477D01*
X161752606Y-87745672D01*
X161742325Y-87846307D01*
X161742000Y-87852697D01*
X161742000Y-88196000D01*
X160658499Y-88196000D01*
X160658499Y-87849456D01*
X160647887Y-87745574D01*
X160592115Y-87577262D01*
X160499030Y-87426348D01*
X160499028Y-87426346D01*
X160499027Y-87426344D01*
X160373655Y-87300972D01*
X160373652Y-87300970D01*
X160222738Y-87207885D01*
X160054426Y-87152113D01*
X160054423Y-87152112D01*
X160054421Y-87152112D01*
X159953746Y-87141826D01*
X159953725Y-87141824D01*
X159950545Y-87141500D01*
X159947340Y-87141500D01*
X159269925Y-87141500D01*
X159201804Y-87121498D01*
X159180829Y-87104595D01*
X158647904Y-86571669D01*
X158613879Y-86509357D01*
X158611000Y-86482574D01*
X158611000Y-82313584D01*
X158631002Y-82245463D01*
X158684658Y-82198970D01*
X158692969Y-82195528D01*
X158698704Y-82193389D01*
X158815761Y-82105761D01*
X158903389Y-81988704D01*
X158947752Y-81869763D01*
X158990296Y-81812929D01*
X159056816Y-81788118D01*
X159126190Y-81803209D01*
X159156772Y-81826612D01*
X159242062Y-81915601D01*
X159427913Y-82053057D01*
X159634330Y-82157129D01*
X159855359Y-82224818D01*
X159888500Y-82229062D01*
X159888500Y-81036724D01*
X159985869Y-81077056D01*
X160103177Y-81092500D01*
X160181823Y-81092500D01*
X160299131Y-81077056D01*
X160396500Y-81036724D01*
X160396500Y-82226937D01*
G37*
%TD.AperFunction*%
%TA.AperFunction,Conductor*%
G36*
X157465346Y-73348613D02*
G01*
X158761021Y-74644288D01*
X158795047Y-74706600D01*
X158789982Y-74777415D01*
X158766500Y-74813952D01*
X158766500Y-77283000D01*
X158897303Y-77283000D01*
X158903692Y-77282674D01*
X159004327Y-77272393D01*
X159172522Y-77216659D01*
X159323342Y-77123632D01*
X159459049Y-76987926D01*
X159461945Y-76990822D01*
X159495205Y-76960884D01*
X159565276Y-76949454D01*
X159630403Y-76977721D01*
X159640001Y-76988793D01*
X159640556Y-76988239D01*
X159776344Y-77124027D01*
X159776346Y-77124028D01*
X159776348Y-77124030D01*
X159927262Y-77217115D01*
X160095574Y-77272887D01*
X160171637Y-77280658D01*
X160196253Y-77283173D01*
X160196255Y-77283173D01*
X160199455Y-77283500D01*
X160859785Y-77283499D01*
X160927906Y-77303501D01*
X160974399Y-77357157D01*
X160984503Y-77427430D01*
X160968907Y-77472494D01*
X160965473Y-77478441D01*
X160906458Y-77660070D01*
X160886496Y-77850000D01*
X160906458Y-78039929D01*
X160965472Y-78221556D01*
X161060958Y-78386942D01*
X161124691Y-78457725D01*
X161188747Y-78528866D01*
X161343248Y-78641118D01*
X161517712Y-78718794D01*
X161517713Y-78718794D01*
X161517715Y-78718795D01*
X161574197Y-78730801D01*
X161636671Y-78764529D01*
X161670992Y-78826679D01*
X161674000Y-78854047D01*
X161674000Y-79134524D01*
X161653998Y-79202645D01*
X161646033Y-79213679D01*
X161552897Y-79329025D01*
X161522678Y-79383121D01*
X161471994Y-79432837D01*
X161402477Y-79447257D01*
X161336199Y-79421805D01*
X161308287Y-79392228D01*
X161202893Y-79236294D01*
X161042937Y-79069398D01*
X160857086Y-78931942D01*
X160650670Y-78827870D01*
X160429635Y-78760179D01*
X160396500Y-78755935D01*
X160396500Y-79948275D01*
X160299131Y-79907944D01*
X160181823Y-79892500D01*
X160103177Y-79892500D01*
X159985869Y-79907944D01*
X159888500Y-79948275D01*
X159888500Y-78758060D01*
X159743408Y-78789330D01*
X159528914Y-78875520D01*
X159332066Y-78996724D01*
X159150490Y-79156535D01*
X159148655Y-79154450D01*
X159103555Y-79185688D01*
X159032600Y-79188142D01*
X158971584Y-79151845D01*
X158945845Y-79110125D01*
X158903389Y-78996296D01*
X158903388Y-78996294D01*
X158815761Y-78879238D01*
X158698705Y-78791611D01*
X158603054Y-78755935D01*
X158561701Y-78740511D01*
X158501138Y-78734000D01*
X158497769Y-78734000D01*
X157322424Y-78734000D01*
X157254303Y-78713998D01*
X157233329Y-78697095D01*
X155670404Y-77134169D01*
X155636378Y-77071857D01*
X155633499Y-77045074D01*
X155633499Y-76652661D01*
X155633499Y-76649456D01*
X155622887Y-76545574D01*
X155567115Y-76377262D01*
X155521926Y-76304000D01*
X157417000Y-76304000D01*
X157417000Y-76572302D01*
X157417325Y-76578692D01*
X157427606Y-76679327D01*
X157483340Y-76847522D01*
X157576367Y-76998342D01*
X157701657Y-77123632D01*
X157852477Y-77216659D01*
X158020672Y-77272393D01*
X158121307Y-77282674D01*
X158127697Y-77283000D01*
X158258500Y-77283000D01*
X158258500Y-76304000D01*
X157417000Y-76304000D01*
X155521926Y-76304000D01*
X155474030Y-76226348D01*
X155474028Y-76226346D01*
X155474027Y-76226344D01*
X155338239Y-76090556D01*
X155341060Y-76087734D01*
X155310855Y-76054144D01*
X155299462Y-75984067D01*
X155327764Y-75918955D01*
X155338518Y-75909641D01*
X155337926Y-75909049D01*
X155473632Y-75773342D01*
X155566659Y-75622522D01*
X155622393Y-75454328D01*
X155628841Y-75391208D01*
X155655663Y-75325473D01*
X155713765Y-75284673D01*
X155784702Y-75281763D01*
X155845951Y-75317667D01*
X155857080Y-75332635D01*
X155949700Y-75435500D01*
X155988747Y-75478866D01*
X156143248Y-75591118D01*
X156317712Y-75668794D01*
X156504513Y-75708500D01*
X156504515Y-75708500D01*
X156695485Y-75708500D01*
X156695487Y-75708500D01*
X156882288Y-75668794D01*
X157056752Y-75591118D01*
X157211253Y-75478866D01*
X157211252Y-75478866D01*
X157216939Y-75474735D01*
X157283807Y-75450876D01*
X157352958Y-75466957D01*
X157402439Y-75517871D01*
X157417000Y-75576671D01*
X157417000Y-75796000D01*
X158258500Y-75796000D01*
X158258500Y-74817000D01*
X158127697Y-74817000D01*
X158121307Y-74817325D01*
X158020672Y-74827606D01*
X157852475Y-74883341D01*
X157698899Y-74978067D01*
X157630420Y-74996804D01*
X157562681Y-74975544D01*
X157517190Y-74921037D01*
X157507443Y-74857659D01*
X157513504Y-74800000D01*
X157493542Y-74610072D01*
X157434527Y-74428444D01*
X157434527Y-74428443D01*
X157339041Y-74263057D01*
X157265863Y-74181783D01*
X157235146Y-74117775D01*
X157233500Y-74097473D01*
X157233500Y-73518174D01*
X157239896Y-73478540D01*
X157247887Y-73454426D01*
X157249668Y-73436992D01*
X157250904Y-73424901D01*
X157277726Y-73359166D01*
X157335829Y-73318368D01*
X157406766Y-73315459D01*
X157465346Y-73348613D01*
G37*
%TD.AperFunction*%
%TA.AperFunction,Conductor*%
G36*
X167431621Y-75455502D02*
G01*
X167478114Y-75509158D01*
X167489500Y-75561500D01*
X167489500Y-83569075D01*
X167469498Y-83637196D01*
X167415842Y-83683689D01*
X167345568Y-83693793D01*
X167280988Y-83664299D01*
X167274405Y-83658170D01*
X164077905Y-80461670D01*
X164043879Y-80399358D01*
X164041000Y-80372575D01*
X164041000Y-80037452D01*
X164041000Y-80034787D01*
X164026301Y-79862082D01*
X164024234Y-79854145D01*
X163968030Y-79638293D01*
X163872778Y-79427570D01*
X163794329Y-79311502D01*
X163743283Y-79235977D01*
X163741059Y-79233656D01*
X163726031Y-79217975D01*
X163693338Y-79154954D01*
X163691000Y-79130794D01*
X163691000Y-77538236D01*
X163691607Y-77525885D01*
X163695880Y-77482499D01*
X163691607Y-77439113D01*
X163691000Y-77426762D01*
X163691000Y-77086045D01*
X163691000Y-77082953D01*
X163676408Y-76934799D01*
X163618741Y-76744696D01*
X163525095Y-76569496D01*
X163525093Y-76569492D01*
X163399068Y-76415931D01*
X163245507Y-76289906D01*
X163070302Y-76196258D01*
X162880202Y-76138591D01*
X162797085Y-76130405D01*
X162731253Y-76103822D01*
X162720341Y-76094107D01*
X162276829Y-75650595D01*
X162242803Y-75588283D01*
X162247868Y-75517468D01*
X162290415Y-75460632D01*
X162356935Y-75435821D01*
X162365924Y-75435500D01*
X167363500Y-75435500D01*
X167431621Y-75455502D01*
G37*
%TD.AperFunction*%
%TA.AperFunction,Conductor*%
G36*
X139500885Y-80620426D02*
G01*
X139551087Y-80670628D01*
X139566500Y-80731014D01*
X139566500Y-80965500D01*
X139546498Y-81033621D01*
X139492842Y-81080114D01*
X139440500Y-81091500D01*
X139286106Y-81091500D01*
X139217985Y-81071498D01*
X139171492Y-81017842D01*
X139161388Y-80947568D01*
X139190882Y-80882988D01*
X139210596Y-80864632D01*
X139212905Y-80862903D01*
X139300445Y-80745962D01*
X139322444Y-80686982D01*
X139364991Y-80630146D01*
X139431511Y-80605335D01*
X139500885Y-80620426D01*
G37*
%TD.AperFunction*%
%TA.AperFunction,Conductor*%
G36*
X142702730Y-76797339D02*
G01*
X142759566Y-76839886D01*
X142784377Y-76906406D01*
X142784698Y-76915395D01*
X142784698Y-79765500D01*
X142764696Y-79833621D01*
X142711040Y-79880114D01*
X142658698Y-79891500D01*
X141176362Y-79891500D01*
X141173013Y-79891859D01*
X141173013Y-79891860D01*
X141115799Y-79898011D01*
X141003532Y-79939884D01*
X140932716Y-79944948D01*
X140870404Y-79910923D01*
X140836379Y-79848610D01*
X140833500Y-79821828D01*
X140833500Y-78614593D01*
X140853502Y-78546472D01*
X140870400Y-78525503D01*
X142569603Y-76826299D01*
X142631915Y-76792274D01*
X142702730Y-76797339D01*
G37*
%TD.AperFunction*%
%TA.AperFunction,Conductor*%
G36*
X153149830Y-74253502D02*
G01*
X153196323Y-74307158D01*
X153206427Y-74377432D01*
X153201313Y-74399134D01*
X153177606Y-74470673D01*
X153167325Y-74571307D01*
X153167000Y-74577697D01*
X153167000Y-74708500D01*
X154528000Y-74708500D01*
X154596121Y-74728502D01*
X154642614Y-74782158D01*
X154654000Y-74834500D01*
X154654000Y-75090500D01*
X154633998Y-75158621D01*
X154580342Y-75205114D01*
X154528000Y-75216500D01*
X153167000Y-75216500D01*
X153167000Y-75347302D01*
X153167325Y-75353692D01*
X153177606Y-75454327D01*
X153233340Y-75622522D01*
X153326367Y-75773342D01*
X153366930Y-75813905D01*
X153400956Y-75876217D01*
X153395891Y-75947032D01*
X153353344Y-76003868D01*
X153286824Y-76028679D01*
X153277835Y-76029000D01*
X151857424Y-76029000D01*
X151789303Y-76008998D01*
X151768333Y-75992099D01*
X150945404Y-75169169D01*
X150911379Y-75106858D01*
X150908500Y-75080075D01*
X150908500Y-74979333D01*
X150908500Y-74976128D01*
X150898236Y-74875664D01*
X150844302Y-74712899D01*
X150754285Y-74566960D01*
X150754283Y-74566958D01*
X150754282Y-74566956D01*
X150635921Y-74448595D01*
X150601895Y-74386283D01*
X150606960Y-74315468D01*
X150649507Y-74258632D01*
X150716027Y-74233821D01*
X150725016Y-74233500D01*
X153081709Y-74233500D01*
X153149830Y-74253502D01*
G37*
%TD.AperFunction*%
%TA.AperFunction,Conductor*%
G36*
X161963673Y-66035315D02*
G01*
X162031764Y-66055409D01*
X162078184Y-66109128D01*
X162089500Y-66161315D01*
X162089500Y-75167914D01*
X162069498Y-75236035D01*
X162015842Y-75282528D01*
X161945568Y-75292632D01*
X161883566Y-75265313D01*
X161804566Y-75200479D01*
X161764597Y-75141802D01*
X161758500Y-75103080D01*
X161758500Y-74055734D01*
X161759107Y-74043382D01*
X161763380Y-73999998D01*
X161743908Y-73802298D01*
X161686241Y-73612197D01*
X161686241Y-73612196D01*
X161611813Y-73472951D01*
X161592593Y-73436992D01*
X161466568Y-73283431D01*
X161313007Y-73157406D01*
X161137802Y-73063758D01*
X160947701Y-73006091D01*
X160799547Y-72991500D01*
X160749999Y-72986619D01*
X160706616Y-72990893D01*
X160694265Y-72991500D01*
X160012893Y-72991500D01*
X159944772Y-72971498D01*
X159923798Y-72954595D01*
X159874494Y-72905291D01*
X159840468Y-72842979D01*
X159845533Y-72772164D01*
X159888080Y-72715328D01*
X159903620Y-72705382D01*
X159995300Y-72655767D01*
X160172903Y-72517533D01*
X160325321Y-72351962D01*
X160448419Y-72163548D01*
X160538822Y-71957451D01*
X160586544Y-71769000D01*
X159681116Y-71769000D01*
X159709493Y-71724844D01*
X159750000Y-71586889D01*
X159750000Y-71443111D01*
X159709493Y-71305156D01*
X159681116Y-71261000D01*
X160586544Y-71261000D01*
X160586544Y-71260999D01*
X160538822Y-71072548D01*
X160448419Y-70866451D01*
X160325321Y-70678037D01*
X160182018Y-70522367D01*
X160150597Y-70458702D01*
X160158584Y-70388156D01*
X160203443Y-70333127D01*
X160230679Y-70318977D01*
X160346204Y-70275889D01*
X160463261Y-70188261D01*
X160550889Y-70071204D01*
X160601989Y-69934201D01*
X160608500Y-69873638D01*
X160608500Y-68076362D01*
X160601989Y-68015799D01*
X160550889Y-67878796D01*
X160496197Y-67805736D01*
X160463261Y-67761738D01*
X160346205Y-67674111D01*
X160277702Y-67648560D01*
X160209201Y-67623011D01*
X160148638Y-67616500D01*
X158351362Y-67616500D01*
X158348013Y-67616859D01*
X158348013Y-67616860D01*
X158290799Y-67623011D01*
X158153794Y-67674111D01*
X158036738Y-67761738D01*
X157949111Y-67878794D01*
X157898011Y-68015799D01*
X157892605Y-68066088D01*
X157891500Y-68076362D01*
X157891500Y-69873638D01*
X157898011Y-69934201D01*
X157923561Y-70002702D01*
X157949111Y-70071205D01*
X158036738Y-70188261D01*
X158153794Y-70275888D01*
X158153795Y-70275888D01*
X158153796Y-70275889D01*
X158269313Y-70318975D01*
X158326148Y-70361521D01*
X158350959Y-70428041D01*
X158335868Y-70497415D01*
X158317982Y-70522367D01*
X158174675Y-70678040D01*
X158051118Y-70867158D01*
X157997114Y-70913246D01*
X157926766Y-70922821D01*
X157862409Y-70892843D01*
X157856555Y-70887352D01*
X157444914Y-70475711D01*
X157410890Y-70413400D01*
X157408011Y-70386617D01*
X157408011Y-68955247D01*
X157408618Y-68942896D01*
X157412891Y-68899509D01*
X157395213Y-68720015D01*
X157393420Y-68701810D01*
X157336645Y-68514652D01*
X157335914Y-68512010D01*
X157242104Y-68336503D01*
X157116082Y-68182945D01*
X157082368Y-68155277D01*
X157073206Y-68146972D01*
X155202532Y-66276298D01*
X155194239Y-66267149D01*
X155166568Y-66233432D01*
X155166566Y-66233431D01*
X155165550Y-66232192D01*
X155137798Y-66166844D01*
X155149781Y-66096866D01*
X155197694Y-66044475D01*
X155263119Y-66026260D01*
X161963673Y-66035315D01*
G37*
%TD.AperFunction*%
%TD*%
M02*
