%TF.GenerationSoftware,KiCad,Pcbnew,7.0.2-6a45011f42~172~ubuntu22.10.1*%
%TF.CreationDate,2023-04-24T10:08:01+02:00*%
%TF.ProjectId,him-card,68696d2d-6361-4726-942e-6b696361645f,rev?*%
%TF.SameCoordinates,Original*%
%TF.FileFunction,Copper,L1,Top*%
%TF.FilePolarity,Positive*%
%FSLAX46Y46*%
G04 Gerber Fmt 4.6, Leading zero omitted, Abs format (unit mm)*
G04 Created by KiCad (PCBNEW 7.0.2-6a45011f42~172~ubuntu22.10.1) date 2023-04-24 10:08:01*
%MOMM*%
%LPD*%
G01*
G04 APERTURE LIST*
G04 Aperture macros list*
%AMRoundRect*
0 Rectangle with rounded corners*
0 $1 Rounding radius*
0 $2 $3 $4 $5 $6 $7 $8 $9 X,Y pos of 4 corners*
0 Add a 4 corners polygon primitive as box body*
4,1,4,$2,$3,$4,$5,$6,$7,$8,$9,$2,$3,0*
0 Add four circle primitives for the rounded corners*
1,1,$1+$1,$2,$3*
1,1,$1+$1,$4,$5*
1,1,$1+$1,$6,$7*
1,1,$1+$1,$8,$9*
0 Add four rect primitives between the rounded corners*
20,1,$1+$1,$2,$3,$4,$5,0*
20,1,$1+$1,$4,$5,$6,$7,0*
20,1,$1+$1,$6,$7,$8,$9,0*
20,1,$1+$1,$8,$9,$2,$3,0*%
G04 Aperture macros list end*
%TA.AperFunction,SMDPad,CuDef*%
%ADD10RoundRect,0.250000X-0.350000X-0.450000X0.350000X-0.450000X0.350000X0.450000X-0.350000X0.450000X0*%
%TD*%
%TA.AperFunction,ComponentPad*%
%ADD11R,1.800000X1.800000*%
%TD*%
%TA.AperFunction,ComponentPad*%
%ADD12C,1.800000*%
%TD*%
%TA.AperFunction,ComponentPad*%
%ADD13C,1.397000*%
%TD*%
%TA.AperFunction,SMDPad,CuDef*%
%ADD14RoundRect,0.250000X0.350000X0.450000X-0.350000X0.450000X-0.350000X-0.450000X0.350000X-0.450000X0*%
%TD*%
%TA.AperFunction,ComponentPad*%
%ADD15R,1.700000X1.700000*%
%TD*%
%TA.AperFunction,ComponentPad*%
%ADD16O,1.700000X1.700000*%
%TD*%
%TA.AperFunction,SMDPad,CuDef*%
%ADD17RoundRect,0.250000X-0.337500X-0.475000X0.337500X-0.475000X0.337500X0.475000X-0.337500X0.475000X0*%
%TD*%
%TA.AperFunction,ViaPad*%
%ADD18C,0.800000*%
%TD*%
%TA.AperFunction,Conductor*%
%ADD19C,0.250000*%
%TD*%
%TA.AperFunction,Conductor*%
%ADD20C,0.500000*%
%TD*%
G04 APERTURE END LIST*
D10*
%TO.P,R3,1*%
%TO.N,Net-(D3-A)*%
X136000000Y-83830000D03*
%TO.P,R3,2*%
%TO.N,+3.3V*%
X138000000Y-83830000D03*
%TD*%
D11*
%TO.P,D3,1,K*%
%TO.N,GND*%
X137305000Y-79450000D03*
D12*
%TO.P,D3,2,A*%
%TO.N,Net-(D3-A)*%
X134765000Y-79450000D03*
%TD*%
D13*
%TO.P,SW2,1,1*%
%TO.N,Net-(J3-Pin_3)*%
X139810000Y-99460000D03*
X132190000Y-99460000D03*
%TO.P,SW2,2,2*%
%TO.N,GND*%
X132190000Y-104540000D03*
X139810000Y-104540000D03*
%TD*%
%TO.P,SW1,1,1*%
%TO.N,Net-(J3-Pin_4)*%
X113620000Y-99460000D03*
X106000000Y-99460000D03*
%TO.P,SW1,2,2*%
%TO.N,GND*%
X106000000Y-104540000D03*
X113620000Y-104540000D03*
%TD*%
D10*
%TO.P,R2,1*%
%TO.N,+3.3V*%
X127000000Y-98000000D03*
%TO.P,R2,2*%
%TO.N,Net-(J3-Pin_3)*%
X129000000Y-98000000D03*
%TD*%
D14*
%TO.P,R1,1*%
%TO.N,+3.3V*%
X118330000Y-98000000D03*
%TO.P,R1,2*%
%TO.N,Net-(J3-Pin_4)*%
X116330000Y-98000000D03*
%TD*%
D15*
%TO.P,J3,1,Pin_1*%
%TO.N,GND*%
X119200000Y-94000000D03*
D16*
%TO.P,J3,2,Pin_2*%
%TO.N,+3.3V*%
X121740000Y-94000000D03*
%TO.P,J3,3,Pin_3*%
%TO.N,Net-(J3-Pin_3)*%
X124280000Y-94000000D03*
%TO.P,J3,4,Pin_4*%
%TO.N,Net-(J3-Pin_4)*%
X126820000Y-94000000D03*
%TD*%
D15*
%TO.P,J1,1,Pin_1*%
%TO.N,Net-(D2-A)*%
X112525000Y-86000000D03*
D16*
%TO.P,J1,2,Pin_2*%
%TO.N,GND*%
X109985000Y-86000000D03*
%TO.P,J1,3,Pin_3*%
%TO.N,Net-(D1-A)*%
X107445000Y-86000000D03*
%TD*%
D11*
%TO.P,D2,1,K*%
%TO.N,GND*%
X121285000Y-80000000D03*
D12*
%TO.P,D2,2,A*%
%TO.N,Net-(D2-A)*%
X118745000Y-80000000D03*
%TD*%
D11*
%TO.P,D1,1,K*%
%TO.N,GND*%
X111275000Y-80000000D03*
D12*
%TO.P,D1,2,A*%
%TO.N,Net-(D1-A)*%
X108735000Y-80000000D03*
%TD*%
D17*
%TO.P,C2,1*%
%TO.N,Net-(J3-Pin_3)*%
X126972500Y-100550000D03*
%TO.P,C2,2*%
%TO.N,GND*%
X129047500Y-100550000D03*
%TD*%
%TO.P,C1,1*%
%TO.N,Net-(J3-Pin_4)*%
X116312500Y-100390000D03*
%TO.P,C1,2*%
%TO.N,GND*%
X118387500Y-100390000D03*
%TD*%
D18*
%TO.N,Net-(J3-Pin_4)*%
X117000000Y-96000000D03*
%TD*%
D19*
%TO.N,Net-(D1-A)*%
X108735000Y-80000000D02*
X107445000Y-81290000D01*
X107445000Y-81290000D02*
X107445000Y-86000000D01*
%TO.N,Net-(D3-A)*%
X136000000Y-83830000D02*
X134765000Y-82595000D01*
X134765000Y-82595000D02*
X134765000Y-79450000D01*
%TO.N,Net-(D2-A)*%
X112525000Y-86000000D02*
X112745000Y-86000000D01*
X112745000Y-86000000D02*
X118745000Y-80000000D01*
%TO.N,Net-(J3-Pin_3)*%
X132190000Y-99460000D02*
X130730000Y-98000000D01*
X139810000Y-99460000D02*
X132190000Y-99460000D01*
%TO.N,Net-(J3-Pin_4)*%
X113620000Y-99460000D02*
X106000000Y-99460000D01*
D20*
%TO.N,+3.3V*%
X127000000Y-98000000D02*
X121250000Y-98000000D01*
X121250000Y-98000000D02*
X118330000Y-98000000D01*
X121740000Y-94000000D02*
X121740000Y-97510000D01*
X121740000Y-97510000D02*
X121250000Y-98000000D01*
D19*
%TO.N,Net-(J3-Pin_4)*%
X113620000Y-99460000D02*
X115382500Y-99460000D01*
X115382500Y-99460000D02*
X116312500Y-100390000D01*
X116330000Y-98000000D02*
X116330000Y-100372500D01*
X116330000Y-100372500D02*
X116312500Y-100390000D01*
X117000000Y-96000000D02*
X117000000Y-97330000D01*
X117000000Y-97330000D02*
X116330000Y-98000000D01*
D20*
%TO.N,+3.3V*%
X121740000Y-94000000D02*
X121740000Y-90170000D01*
X121740000Y-90170000D02*
X125410000Y-86500000D01*
X125410000Y-86500000D02*
X137140000Y-86500000D01*
X137140000Y-86500000D02*
X138000000Y-85640000D01*
X138000000Y-85640000D02*
X138000000Y-83830000D01*
D19*
%TO.N,Net-(J3-Pin_3)*%
X128150000Y-96130000D02*
X124940000Y-96130000D01*
X129000000Y-98000000D02*
X129000000Y-96980000D01*
X129000000Y-96980000D02*
X128150000Y-96130000D01*
X124940000Y-96130000D02*
X124280000Y-95470000D01*
X124280000Y-95470000D02*
X124280000Y-94000000D01*
X126972500Y-100550000D02*
X126972500Y-100027500D01*
X126972500Y-100027500D02*
X129000000Y-98000000D01*
X130730000Y-98000000D02*
X129000000Y-98000000D01*
%TD*%
%TA.AperFunction,Conductor*%
%TO.N,GND*%
G36*
X145942539Y-60020185D02*
G01*
X145988294Y-60072989D01*
X145999500Y-60124500D01*
X145999500Y-121875500D01*
X145979815Y-121942539D01*
X145927011Y-121988294D01*
X145875500Y-121999500D01*
X100124500Y-121999500D01*
X100057461Y-121979815D01*
X100011706Y-121927011D01*
X100000500Y-121875500D01*
X100000500Y-104539999D01*
X104796366Y-104539999D01*
X104816859Y-104761169D01*
X104877643Y-104974801D01*
X104976650Y-105173632D01*
X104992209Y-105194235D01*
X105596452Y-104589994D01*
X105608673Y-104667150D01*
X105667117Y-104781854D01*
X105758146Y-104872883D01*
X105872850Y-104931327D01*
X105950005Y-104943547D01*
X105347760Y-105545790D01*
X105347761Y-105545791D01*
X105463490Y-105617447D01*
X105670610Y-105697685D01*
X105888945Y-105738500D01*
X106111055Y-105738500D01*
X106329389Y-105697685D01*
X106536506Y-105617448D01*
X106652238Y-105545790D01*
X106049995Y-104943547D01*
X106127150Y-104931327D01*
X106241854Y-104872883D01*
X106332883Y-104781854D01*
X106391327Y-104667150D01*
X106403547Y-104589994D01*
X107007788Y-105194235D01*
X107007789Y-105194235D01*
X107023349Y-105173631D01*
X107122356Y-104974801D01*
X107183140Y-104761169D01*
X107203633Y-104539999D01*
X112416366Y-104539999D01*
X112436859Y-104761169D01*
X112497643Y-104974801D01*
X112596650Y-105173632D01*
X112612209Y-105194235D01*
X113216452Y-104589994D01*
X113228673Y-104667150D01*
X113287117Y-104781854D01*
X113378146Y-104872883D01*
X113492850Y-104931327D01*
X113570005Y-104943547D01*
X112967760Y-105545790D01*
X112967761Y-105545791D01*
X113083490Y-105617447D01*
X113290610Y-105697685D01*
X113508945Y-105738500D01*
X113731055Y-105738500D01*
X113949389Y-105697685D01*
X114156506Y-105617448D01*
X114272238Y-105545790D01*
X113669995Y-104943547D01*
X113747150Y-104931327D01*
X113861854Y-104872883D01*
X113952883Y-104781854D01*
X114011327Y-104667150D01*
X114023547Y-104589994D01*
X114627788Y-105194235D01*
X114627789Y-105194235D01*
X114643349Y-105173631D01*
X114742356Y-104974801D01*
X114803140Y-104761169D01*
X114823633Y-104540000D01*
X130986366Y-104540000D01*
X131006859Y-104761169D01*
X131067643Y-104974801D01*
X131166650Y-105173632D01*
X131182209Y-105194235D01*
X131786452Y-104589994D01*
X131798673Y-104667150D01*
X131857117Y-104781854D01*
X131948146Y-104872883D01*
X132062850Y-104931327D01*
X132140005Y-104943547D01*
X131537760Y-105545790D01*
X131537761Y-105545791D01*
X131653490Y-105617447D01*
X131860610Y-105697685D01*
X132078945Y-105738500D01*
X132301055Y-105738500D01*
X132519389Y-105697685D01*
X132726506Y-105617448D01*
X132842238Y-105545790D01*
X132239995Y-104943547D01*
X132317150Y-104931327D01*
X132431854Y-104872883D01*
X132522883Y-104781854D01*
X132581327Y-104667150D01*
X132593547Y-104589994D01*
X133197788Y-105194235D01*
X133197789Y-105194235D01*
X133213349Y-105173631D01*
X133312356Y-104974801D01*
X133373140Y-104761169D01*
X133393633Y-104539999D01*
X138606366Y-104539999D01*
X138626859Y-104761169D01*
X138687643Y-104974801D01*
X138786650Y-105173632D01*
X138802209Y-105194235D01*
X139406452Y-104589994D01*
X139418673Y-104667150D01*
X139477117Y-104781854D01*
X139568146Y-104872883D01*
X139682850Y-104931327D01*
X139760005Y-104943547D01*
X139157760Y-105545790D01*
X139157761Y-105545791D01*
X139273490Y-105617447D01*
X139480610Y-105697685D01*
X139698945Y-105738500D01*
X139921055Y-105738500D01*
X140139389Y-105697685D01*
X140346506Y-105617448D01*
X140462238Y-105545790D01*
X139859995Y-104943547D01*
X139937150Y-104931327D01*
X140051854Y-104872883D01*
X140142883Y-104781854D01*
X140201327Y-104667150D01*
X140213547Y-104589994D01*
X140817788Y-105194235D01*
X140817789Y-105194235D01*
X140833349Y-105173631D01*
X140932356Y-104974801D01*
X140993140Y-104761169D01*
X141013633Y-104540000D01*
X140993140Y-104318830D01*
X140932355Y-104105196D01*
X140833350Y-103906368D01*
X140817789Y-103885762D01*
X140213547Y-104490004D01*
X140201327Y-104412850D01*
X140142883Y-104298146D01*
X140051854Y-104207117D01*
X139937150Y-104148673D01*
X139859995Y-104136452D01*
X140462238Y-103534208D01*
X140462237Y-103534207D01*
X140346509Y-103462552D01*
X140139389Y-103382314D01*
X139921055Y-103341500D01*
X139698945Y-103341500D01*
X139480610Y-103382314D01*
X139273492Y-103462552D01*
X139157760Y-103534208D01*
X139760005Y-104136452D01*
X139682850Y-104148673D01*
X139568146Y-104207117D01*
X139477117Y-104298146D01*
X139418673Y-104412850D01*
X139406452Y-104490004D01*
X138802210Y-103885762D01*
X138802209Y-103885762D01*
X138786649Y-103906367D01*
X138687644Y-104105196D01*
X138626859Y-104318830D01*
X138606366Y-104539999D01*
X133393633Y-104539999D01*
X133373140Y-104318830D01*
X133312355Y-104105196D01*
X133213350Y-103906368D01*
X133197789Y-103885762D01*
X132593547Y-104490004D01*
X132581327Y-104412850D01*
X132522883Y-104298146D01*
X132431854Y-104207117D01*
X132317150Y-104148673D01*
X132239993Y-104136452D01*
X132842238Y-103534208D01*
X132842237Y-103534207D01*
X132726509Y-103462552D01*
X132519389Y-103382314D01*
X132301055Y-103341500D01*
X132078945Y-103341500D01*
X131860610Y-103382314D01*
X131653490Y-103462552D01*
X131537761Y-103534207D01*
X131537761Y-103534208D01*
X132140003Y-104136452D01*
X132062850Y-104148673D01*
X131948146Y-104207117D01*
X131857117Y-104298146D01*
X131798673Y-104412850D01*
X131786452Y-104490004D01*
X131182210Y-103885762D01*
X131182209Y-103885762D01*
X131166649Y-103906367D01*
X131067644Y-104105196D01*
X131006859Y-104318830D01*
X130986366Y-104540000D01*
X114823633Y-104540000D01*
X114823633Y-104539999D01*
X114803140Y-104318830D01*
X114742355Y-104105196D01*
X114643350Y-103906368D01*
X114627789Y-103885762D01*
X114023547Y-104490004D01*
X114011327Y-104412850D01*
X113952883Y-104298146D01*
X113861854Y-104207117D01*
X113747150Y-104148673D01*
X113669995Y-104136452D01*
X114272238Y-103534208D01*
X114272237Y-103534207D01*
X114156509Y-103462552D01*
X113949389Y-103382314D01*
X113731055Y-103341500D01*
X113508945Y-103341500D01*
X113290610Y-103382314D01*
X113083492Y-103462552D01*
X112967760Y-103534208D01*
X113570005Y-104136452D01*
X113492850Y-104148673D01*
X113378146Y-104207117D01*
X113287117Y-104298146D01*
X113228673Y-104412850D01*
X113216452Y-104490004D01*
X112612210Y-103885762D01*
X112612209Y-103885762D01*
X112596649Y-103906367D01*
X112497644Y-104105196D01*
X112436859Y-104318830D01*
X112416366Y-104539999D01*
X107203633Y-104539999D01*
X107183140Y-104318830D01*
X107122355Y-104105196D01*
X107023350Y-103906368D01*
X107007789Y-103885762D01*
X106403547Y-104490004D01*
X106391327Y-104412850D01*
X106332883Y-104298146D01*
X106241854Y-104207117D01*
X106127150Y-104148673D01*
X106049995Y-104136452D01*
X106652238Y-103534208D01*
X106652237Y-103534207D01*
X106536509Y-103462552D01*
X106329389Y-103382314D01*
X106111055Y-103341500D01*
X105888945Y-103341500D01*
X105670610Y-103382314D01*
X105463492Y-103462552D01*
X105347760Y-103534208D01*
X105950005Y-104136452D01*
X105872850Y-104148673D01*
X105758146Y-104207117D01*
X105667117Y-104298146D01*
X105608673Y-104412850D01*
X105596452Y-104490004D01*
X104992210Y-103885762D01*
X104992209Y-103885762D01*
X104976649Y-103906367D01*
X104877644Y-104105196D01*
X104816859Y-104318830D01*
X104796366Y-104539999D01*
X100000500Y-104539999D01*
X100000500Y-99460000D01*
X104795863Y-99460000D01*
X104816365Y-99681262D01*
X104877175Y-99894984D01*
X104976219Y-100093893D01*
X105110132Y-100271223D01*
X105274344Y-100420922D01*
X105427924Y-100516014D01*
X105463270Y-100537899D01*
X105670472Y-100618170D01*
X105888896Y-100659000D01*
X105888898Y-100659000D01*
X106111102Y-100659000D01*
X106111104Y-100659000D01*
X106329528Y-100618170D01*
X106536730Y-100537899D01*
X106725655Y-100420922D01*
X106889868Y-100271222D01*
X106981206Y-100150271D01*
X106992910Y-100134773D01*
X107049019Y-100093137D01*
X107091864Y-100085500D01*
X112528136Y-100085500D01*
X112595175Y-100105185D01*
X112627090Y-100134773D01*
X112730132Y-100271223D01*
X112894344Y-100420922D01*
X113047924Y-100516014D01*
X113083270Y-100537899D01*
X113290472Y-100618170D01*
X113508896Y-100659000D01*
X113508898Y-100659000D01*
X113731102Y-100659000D01*
X113731104Y-100659000D01*
X113949528Y-100618170D01*
X114156730Y-100537899D01*
X114345655Y-100420922D01*
X114509868Y-100271222D01*
X114601206Y-100150271D01*
X114612910Y-100134773D01*
X114669019Y-100093137D01*
X114711864Y-100085500D01*
X115072048Y-100085500D01*
X115139087Y-100105185D01*
X115159729Y-100121819D01*
X115188181Y-100150271D01*
X115221666Y-100211594D01*
X115224500Y-100237952D01*
X115224500Y-100911858D01*
X115224500Y-100911877D01*
X115224501Y-100915008D01*
X115224820Y-100918140D01*
X115224821Y-100918141D01*
X115235000Y-101017796D01*
X115290186Y-101184334D01*
X115382288Y-101333657D01*
X115506342Y-101457711D01*
X115506344Y-101457712D01*
X115655666Y-101549814D01*
X115767016Y-101586712D01*
X115822202Y-101604999D01*
X115921858Y-101615180D01*
X115921859Y-101615180D01*
X115924991Y-101615500D01*
X116700008Y-101615499D01*
X116802797Y-101604999D01*
X116969334Y-101549814D01*
X117118656Y-101457712D01*
X117242712Y-101333656D01*
X117244752Y-101330347D01*
X117296695Y-101283622D01*
X117365657Y-101272395D01*
X117429741Y-101300235D01*
X117455831Y-101330343D01*
X117457682Y-101333344D01*
X117581654Y-101457316D01*
X117730877Y-101549357D01*
X117897303Y-101604506D01*
X117996890Y-101614680D01*
X118003168Y-101614999D01*
X118137499Y-101614999D01*
X118137500Y-101614998D01*
X118137500Y-100640000D01*
X118637500Y-100640000D01*
X118637500Y-101614999D01*
X118771829Y-101614999D01*
X118778111Y-101614678D01*
X118877695Y-101604506D01*
X119044122Y-101549357D01*
X119193345Y-101457316D01*
X119317316Y-101333345D01*
X119409357Y-101184122D01*
X119464506Y-101017696D01*
X119474680Y-100918109D01*
X119475000Y-100911831D01*
X119475000Y-100640000D01*
X118637500Y-100640000D01*
X118137500Y-100640000D01*
X118137500Y-100264000D01*
X118157185Y-100196961D01*
X118209989Y-100151206D01*
X118261500Y-100140000D01*
X119474999Y-100140000D01*
X119474998Y-100139999D01*
X119474999Y-99868170D01*
X119474678Y-99861888D01*
X119464506Y-99762304D01*
X119409357Y-99595877D01*
X119317316Y-99446654D01*
X119193346Y-99322684D01*
X119115152Y-99274454D01*
X119068428Y-99222506D01*
X119057205Y-99153543D01*
X119085049Y-99089461D01*
X119115149Y-99063378D01*
X119148656Y-99042712D01*
X119272712Y-98918656D01*
X119340098Y-98809404D01*
X119392047Y-98762679D01*
X119445638Y-98750500D01*
X121162279Y-98750500D01*
X121186294Y-98750500D01*
X121204264Y-98751809D01*
X121208320Y-98752402D01*
X121228023Y-98755289D01*
X121277368Y-98750972D01*
X121288176Y-98750500D01*
X125884362Y-98750500D01*
X125951401Y-98770185D01*
X125989901Y-98809404D01*
X126057288Y-98918657D01*
X126181342Y-99042711D01*
X126214844Y-99063375D01*
X126330666Y-99134814D01*
X126353282Y-99142308D01*
X126410728Y-99182079D01*
X126437552Y-99246595D01*
X126425238Y-99315371D01*
X126377695Y-99366571D01*
X126353286Y-99377719D01*
X126315667Y-99390185D01*
X126166342Y-99482288D01*
X126042288Y-99606342D01*
X125950186Y-99755665D01*
X125895000Y-99922202D01*
X125884819Y-100021858D01*
X125884817Y-100021878D01*
X125884500Y-100024991D01*
X125884500Y-100028138D01*
X125884500Y-100028139D01*
X125884500Y-101071859D01*
X125884500Y-101071878D01*
X125884501Y-101075008D01*
X125884820Y-101078140D01*
X125884821Y-101078141D01*
X125895000Y-101177796D01*
X125950186Y-101344334D01*
X126042288Y-101493657D01*
X126166342Y-101617711D01*
X126166344Y-101617712D01*
X126315666Y-101709814D01*
X126427017Y-101746712D01*
X126482202Y-101764999D01*
X126581858Y-101775180D01*
X126581859Y-101775180D01*
X126584991Y-101775500D01*
X127360008Y-101775499D01*
X127462797Y-101764999D01*
X127629334Y-101709814D01*
X127778656Y-101617712D01*
X127902712Y-101493656D01*
X127904752Y-101490347D01*
X127956695Y-101443622D01*
X128025657Y-101432395D01*
X128089741Y-101460235D01*
X128115831Y-101490343D01*
X128117682Y-101493344D01*
X128241654Y-101617316D01*
X128390877Y-101709357D01*
X128557303Y-101764506D01*
X128656890Y-101774680D01*
X128663168Y-101774999D01*
X128797499Y-101774999D01*
X128797500Y-101774998D01*
X128797500Y-100800000D01*
X129297499Y-100800000D01*
X129297499Y-101774998D01*
X129297500Y-101774999D01*
X129431829Y-101774999D01*
X129438111Y-101774678D01*
X129537695Y-101764506D01*
X129704122Y-101709357D01*
X129853345Y-101617316D01*
X129977316Y-101493345D01*
X130069357Y-101344122D01*
X130124506Y-101177696D01*
X130134680Y-101078109D01*
X130135000Y-101071831D01*
X130135000Y-100800000D01*
X129297499Y-100800000D01*
X128797500Y-100800000D01*
X128797500Y-100424000D01*
X128817185Y-100356961D01*
X128869989Y-100311206D01*
X128921500Y-100300000D01*
X130134999Y-100300000D01*
X130134999Y-100028170D01*
X130134678Y-100021888D01*
X130124506Y-99922304D01*
X130069357Y-99755877D01*
X129977316Y-99606654D01*
X129853345Y-99482683D01*
X129704122Y-99390642D01*
X129655921Y-99374670D01*
X129598476Y-99334897D01*
X129571653Y-99270381D01*
X129583968Y-99201606D01*
X129631511Y-99150406D01*
X129655919Y-99139259D01*
X129669334Y-99134814D01*
X129818656Y-99042712D01*
X129942712Y-98918656D01*
X130034814Y-98769334D01*
X130054311Y-98710495D01*
X130094084Y-98653051D01*
X130158600Y-98626228D01*
X130172017Y-98625500D01*
X130419548Y-98625500D01*
X130486587Y-98645185D01*
X130507229Y-98661819D01*
X130972068Y-99126658D01*
X131005553Y-99187981D01*
X131004325Y-99227011D01*
X131007426Y-99227299D01*
X130985863Y-99460000D01*
X131006365Y-99681262D01*
X131067175Y-99894984D01*
X131166219Y-100093893D01*
X131300132Y-100271223D01*
X131464344Y-100420922D01*
X131617924Y-100516014D01*
X131653270Y-100537899D01*
X131860472Y-100618170D01*
X132078896Y-100659000D01*
X132078898Y-100659000D01*
X132301102Y-100659000D01*
X132301104Y-100659000D01*
X132519528Y-100618170D01*
X132726730Y-100537899D01*
X132915655Y-100420922D01*
X133079868Y-100271222D01*
X133171206Y-100150271D01*
X133182910Y-100134773D01*
X133239019Y-100093137D01*
X133281864Y-100085500D01*
X138718136Y-100085500D01*
X138785175Y-100105185D01*
X138817090Y-100134773D01*
X138920132Y-100271223D01*
X139084344Y-100420922D01*
X139237924Y-100516014D01*
X139273270Y-100537899D01*
X139480472Y-100618170D01*
X139698896Y-100659000D01*
X139698898Y-100659000D01*
X139921102Y-100659000D01*
X139921104Y-100659000D01*
X140139528Y-100618170D01*
X140346730Y-100537899D01*
X140535655Y-100420922D01*
X140699868Y-100271222D01*
X140833778Y-100093896D01*
X140833778Y-100093894D01*
X140833780Y-100093893D01*
X140932824Y-99894984D01*
X140993634Y-99681262D01*
X141001546Y-99595877D01*
X141014137Y-99460000D01*
X140997813Y-99283834D01*
X140993634Y-99238737D01*
X140932824Y-99025015D01*
X140833780Y-98826106D01*
X140699867Y-98648776D01*
X140535655Y-98499077D01*
X140346732Y-98382102D01*
X140346730Y-98382101D01*
X140139528Y-98301830D01*
X139921104Y-98261000D01*
X139698896Y-98261000D01*
X139527613Y-98293018D01*
X139480472Y-98301830D01*
X139273267Y-98382102D01*
X139084344Y-98499077D01*
X138920132Y-98648776D01*
X138817090Y-98785227D01*
X138760981Y-98826863D01*
X138718136Y-98834500D01*
X133281864Y-98834500D01*
X133214825Y-98814815D01*
X133182910Y-98785227D01*
X133079867Y-98648776D01*
X132915655Y-98499077D01*
X132726732Y-98382102D01*
X132726730Y-98382101D01*
X132519528Y-98301830D01*
X132301104Y-98261000D01*
X132078896Y-98261000D01*
X132078895Y-98261000D01*
X131971855Y-98281008D01*
X131902341Y-98273976D01*
X131861391Y-98246800D01*
X131230802Y-97616211D01*
X131217906Y-97600113D01*
X131166775Y-97552098D01*
X131163978Y-97549387D01*
X131147227Y-97532636D01*
X131144471Y-97529880D01*
X131141290Y-97527412D01*
X131132422Y-97519837D01*
X131100582Y-97489938D01*
X131083024Y-97480285D01*
X131066764Y-97469604D01*
X131050936Y-97457327D01*
X131010851Y-97439980D01*
X131000361Y-97434841D01*
X130962091Y-97413802D01*
X130942691Y-97408821D01*
X130924284Y-97402519D01*
X130905897Y-97394562D01*
X130862758Y-97387729D01*
X130851324Y-97385361D01*
X130809019Y-97374500D01*
X130788984Y-97374500D01*
X130769586Y-97372973D01*
X130762162Y-97371797D01*
X130749805Y-97369840D01*
X130749804Y-97369840D01*
X130716751Y-97372964D01*
X130706325Y-97373950D01*
X130694656Y-97374500D01*
X130172017Y-97374500D01*
X130104978Y-97354815D01*
X130059223Y-97302011D01*
X130054311Y-97289504D01*
X130041055Y-97249500D01*
X130034814Y-97230666D01*
X129977592Y-97137895D01*
X129942711Y-97081342D01*
X129818657Y-96957288D01*
X129656999Y-96857578D01*
X129658426Y-96855263D01*
X129618455Y-96827585D01*
X129599617Y-96795307D01*
X129594586Y-96782601D01*
X129590808Y-96771568D01*
X129578618Y-96729610D01*
X129568414Y-96712355D01*
X129559861Y-96694895D01*
X129552486Y-96676269D01*
X129552486Y-96676268D01*
X129526808Y-96640925D01*
X129520401Y-96631171D01*
X129507976Y-96610161D01*
X129498170Y-96593580D01*
X129484006Y-96579416D01*
X129471367Y-96564617D01*
X129459595Y-96548413D01*
X129425941Y-96520573D01*
X129417299Y-96512709D01*
X128650802Y-95746211D01*
X128637906Y-95730113D01*
X128586775Y-95682098D01*
X128583978Y-95679387D01*
X128567227Y-95662636D01*
X128564471Y-95659880D01*
X128561290Y-95657412D01*
X128552422Y-95649837D01*
X128520582Y-95619938D01*
X128503024Y-95610285D01*
X128486764Y-95599604D01*
X128470936Y-95587327D01*
X128430851Y-95569980D01*
X128420361Y-95564841D01*
X128382091Y-95543802D01*
X128362691Y-95538821D01*
X128344284Y-95532519D01*
X128325897Y-95524562D01*
X128282758Y-95517729D01*
X128271324Y-95515361D01*
X128229019Y-95504500D01*
X128208984Y-95504500D01*
X128189586Y-95502973D01*
X128182162Y-95501797D01*
X128169805Y-95499840D01*
X128169804Y-95499840D01*
X128136751Y-95502964D01*
X128126325Y-95503950D01*
X128114656Y-95504500D01*
X127348473Y-95504500D01*
X127281434Y-95484815D01*
X127235679Y-95432011D01*
X127225735Y-95362853D01*
X127254760Y-95299297D01*
X127296066Y-95268119D01*
X127497830Y-95174035D01*
X127691401Y-95038495D01*
X127858495Y-94871401D01*
X127994035Y-94677830D01*
X128093903Y-94463663D01*
X128155063Y-94235408D01*
X128175659Y-94000000D01*
X128155063Y-93764592D01*
X128093903Y-93536337D01*
X127994035Y-93322171D01*
X127858495Y-93128599D01*
X127691401Y-92961505D01*
X127497830Y-92825965D01*
X127283663Y-92726097D01*
X127211074Y-92706647D01*
X127055407Y-92664936D01*
X126820000Y-92644340D01*
X126584592Y-92664936D01*
X126356336Y-92726097D01*
X126142170Y-92825965D01*
X125948598Y-92961505D01*
X125781505Y-93128598D01*
X125651575Y-93314159D01*
X125596998Y-93357784D01*
X125527500Y-93364978D01*
X125465145Y-93333455D01*
X125448425Y-93314159D01*
X125318494Y-93128598D01*
X125151404Y-92961508D01*
X125151401Y-92961505D01*
X124957830Y-92825965D01*
X124743663Y-92726097D01*
X124671074Y-92706647D01*
X124515407Y-92664936D01*
X124279999Y-92644340D01*
X124044592Y-92664936D01*
X123816336Y-92726097D01*
X123602170Y-92825965D01*
X123408598Y-92961505D01*
X123241505Y-93128598D01*
X123111575Y-93314159D01*
X123056998Y-93357784D01*
X122987500Y-93364978D01*
X122925145Y-93333455D01*
X122908425Y-93314159D01*
X122778494Y-93128598D01*
X122611400Y-92961504D01*
X122543375Y-92913872D01*
X122499750Y-92859295D01*
X122490499Y-92812302D01*
X122490499Y-90532228D01*
X122510184Y-90465190D01*
X122526813Y-90444553D01*
X125684548Y-87286819D01*
X125745872Y-87253334D01*
X125772230Y-87250500D01*
X137076294Y-87250500D01*
X137094264Y-87251809D01*
X137098320Y-87252402D01*
X137118023Y-87255289D01*
X137167368Y-87250972D01*
X137178176Y-87250500D01*
X137180100Y-87250500D01*
X137183709Y-87250500D01*
X137214550Y-87246894D01*
X137218031Y-87246539D01*
X137292797Y-87239999D01*
X137292797Y-87239998D01*
X137294052Y-87239889D01*
X137313062Y-87235674D01*
X137314250Y-87235241D01*
X137314255Y-87235241D01*
X137384820Y-87209557D01*
X137388095Y-87208419D01*
X137459334Y-87184814D01*
X137459336Y-87184812D01*
X137460536Y-87184415D01*
X137478063Y-87175929D01*
X137479112Y-87175238D01*
X137479117Y-87175237D01*
X137541806Y-87134005D01*
X137544798Y-87132099D01*
X137608656Y-87092712D01*
X137608656Y-87092711D01*
X137609729Y-87092050D01*
X137624824Y-87079753D01*
X137625692Y-87078832D01*
X137625696Y-87078830D01*
X137677186Y-87024252D01*
X137679632Y-87021734D01*
X138485641Y-86215725D01*
X138499258Y-86203957D01*
X138518530Y-86189610D01*
X138550372Y-86151661D01*
X138557686Y-86143681D01*
X138558264Y-86143102D01*
X138561591Y-86139776D01*
X138580853Y-86115413D01*
X138583076Y-86112686D01*
X138631302Y-86055214D01*
X138631303Y-86055211D01*
X138632115Y-86054244D01*
X138642573Y-86037828D01*
X138643107Y-86036680D01*
X138643111Y-86036677D01*
X138674845Y-85968621D01*
X138676371Y-85965470D01*
X138710040Y-85898433D01*
X138710040Y-85898431D01*
X138710609Y-85897299D01*
X138717002Y-85878906D01*
X138732431Y-85804184D01*
X138733212Y-85800660D01*
X138750791Y-85726493D01*
X138752770Y-85707120D01*
X138752733Y-85705858D01*
X138752734Y-85705855D01*
X138750552Y-85630868D01*
X138750500Y-85627262D01*
X138750500Y-84983957D01*
X138770185Y-84916918D01*
X138809402Y-84878419D01*
X138818656Y-84872712D01*
X138942712Y-84748656D01*
X139034814Y-84599334D01*
X139089999Y-84432797D01*
X139100500Y-84330009D01*
X139100499Y-83329992D01*
X139089999Y-83227203D01*
X139034814Y-83060666D01*
X138977592Y-82967895D01*
X138942711Y-82911342D01*
X138818657Y-82787288D01*
X138669334Y-82695186D01*
X138502797Y-82640000D01*
X138403141Y-82629819D01*
X138403122Y-82629818D01*
X138400009Y-82629500D01*
X138396860Y-82629500D01*
X137603141Y-82629500D01*
X137603121Y-82629500D01*
X137599992Y-82629501D01*
X137596860Y-82629820D01*
X137596858Y-82629821D01*
X137497203Y-82640000D01*
X137330665Y-82695186D01*
X137181342Y-82787288D01*
X137087681Y-82880950D01*
X137026358Y-82914435D01*
X136956666Y-82909451D01*
X136912319Y-82880950D01*
X136818657Y-82787288D01*
X136669334Y-82695186D01*
X136502797Y-82640000D01*
X136403141Y-82629819D01*
X136403122Y-82629818D01*
X136400009Y-82629500D01*
X136396860Y-82629500D01*
X135735453Y-82629500D01*
X135668414Y-82609815D01*
X135647772Y-82593181D01*
X135426819Y-82372228D01*
X135393334Y-82310905D01*
X135390500Y-82284547D01*
X135390500Y-80777814D01*
X135410185Y-80710775D01*
X135455482Y-80668760D01*
X135480144Y-80655412D01*
X135533626Y-80626470D01*
X135716784Y-80483913D01*
X135725511Y-80474432D01*
X135785394Y-80438441D01*
X135855233Y-80440538D01*
X135912850Y-80480060D01*
X135932924Y-80515079D01*
X135961647Y-80592088D01*
X136047811Y-80707188D01*
X136162910Y-80793352D01*
X136297628Y-80843599D01*
X136353867Y-80849645D01*
X136360482Y-80850000D01*
X137055000Y-80850000D01*
X137055000Y-79824189D01*
X137107547Y-79860016D01*
X137237173Y-79900000D01*
X137338724Y-79900000D01*
X137439138Y-79884865D01*
X137555000Y-79829068D01*
X137555000Y-80850000D01*
X138249518Y-80850000D01*
X138256132Y-80849645D01*
X138312371Y-80843599D01*
X138447089Y-80793352D01*
X138562188Y-80707188D01*
X138648352Y-80592089D01*
X138698599Y-80457371D01*
X138704645Y-80401132D01*
X138705000Y-80394518D01*
X138705000Y-79700000D01*
X137680278Y-79700000D01*
X137728625Y-79616260D01*
X137758810Y-79484008D01*
X137748673Y-79348735D01*
X137699113Y-79222459D01*
X137681203Y-79200000D01*
X138705000Y-79200000D01*
X138705000Y-78505481D01*
X138704645Y-78498867D01*
X138698599Y-78442628D01*
X138648352Y-78307910D01*
X138562188Y-78192811D01*
X138447089Y-78106647D01*
X138312371Y-78056400D01*
X138256132Y-78050354D01*
X138249518Y-78050000D01*
X137555000Y-78050000D01*
X137555000Y-79075810D01*
X137502453Y-79039984D01*
X137372827Y-79000000D01*
X137271276Y-79000000D01*
X137170862Y-79015135D01*
X137055000Y-79070931D01*
X137055000Y-78050000D01*
X136360482Y-78050000D01*
X136353867Y-78050354D01*
X136297628Y-78056400D01*
X136162910Y-78106647D01*
X136047811Y-78192811D01*
X135961645Y-78307913D01*
X135932923Y-78384920D01*
X135891052Y-78440854D01*
X135825587Y-78465270D01*
X135757314Y-78450418D01*
X135725513Y-78425570D01*
X135716784Y-78416087D01*
X135533626Y-78273530D01*
X135329503Y-78163064D01*
X135329499Y-78163062D01*
X135329498Y-78163062D01*
X135109984Y-78087702D01*
X134922398Y-78056400D01*
X134881049Y-78049500D01*
X134648951Y-78049500D01*
X134607602Y-78056400D01*
X134420015Y-78087702D01*
X134200501Y-78163062D01*
X134200497Y-78163063D01*
X134200497Y-78163064D01*
X134064414Y-78236708D01*
X133996372Y-78273531D01*
X133813215Y-78416087D01*
X133656020Y-78586848D01*
X133529076Y-78781150D01*
X133435844Y-78993696D01*
X133435842Y-78993700D01*
X133435843Y-78993700D01*
X133383601Y-79200000D01*
X133378865Y-79218700D01*
X133359699Y-79450000D01*
X133378865Y-79681299D01*
X133378865Y-79681301D01*
X133378866Y-79681305D01*
X133435843Y-79906300D01*
X133529076Y-80118849D01*
X133656021Y-80313153D01*
X133813216Y-80483913D01*
X133996374Y-80626470D01*
X134035593Y-80647694D01*
X134074518Y-80668760D01*
X134124108Y-80717980D01*
X134139499Y-80777814D01*
X134139500Y-82512256D01*
X134137235Y-82532766D01*
X134139439Y-82602872D01*
X134139500Y-82606767D01*
X134139500Y-82634350D01*
X134139988Y-82638219D01*
X134139989Y-82638225D01*
X134140004Y-82638343D01*
X134140918Y-82649967D01*
X134142290Y-82693626D01*
X134147879Y-82712860D01*
X134151825Y-82731916D01*
X134154335Y-82751792D01*
X134170414Y-82792404D01*
X134174197Y-82803451D01*
X134186382Y-82845391D01*
X134196580Y-82862635D01*
X134205136Y-82880100D01*
X134212514Y-82898732D01*
X134212515Y-82898733D01*
X134238180Y-82934059D01*
X134244593Y-82943822D01*
X134266826Y-82981416D01*
X134266829Y-82981419D01*
X134266830Y-82981420D01*
X134280995Y-82995585D01*
X134293627Y-83010375D01*
X134305406Y-83026587D01*
X134339058Y-83054426D01*
X134347699Y-83062289D01*
X134863181Y-83577771D01*
X134896666Y-83639094D01*
X134899500Y-83665452D01*
X134899500Y-84326858D01*
X134899500Y-84326877D01*
X134899501Y-84330008D01*
X134899820Y-84333140D01*
X134899821Y-84333141D01*
X134910000Y-84432796D01*
X134965186Y-84599334D01*
X135057288Y-84748657D01*
X135181342Y-84872711D01*
X135190593Y-84878417D01*
X135330666Y-84964814D01*
X135442017Y-85001712D01*
X135497202Y-85019999D01*
X135596858Y-85030180D01*
X135596859Y-85030180D01*
X135599991Y-85030500D01*
X136400008Y-85030499D01*
X136502797Y-85019999D01*
X136669334Y-84964814D01*
X136818656Y-84872712D01*
X136912320Y-84779047D01*
X136973641Y-84745564D01*
X137043333Y-84750548D01*
X137087681Y-84779049D01*
X137181344Y-84872712D01*
X137190596Y-84878419D01*
X137237320Y-84930364D01*
X137249500Y-84983957D01*
X137249500Y-85277770D01*
X137229815Y-85344809D01*
X137213181Y-85365451D01*
X136865451Y-85713181D01*
X136804128Y-85746666D01*
X136777770Y-85749500D01*
X125473706Y-85749500D01*
X125455736Y-85748191D01*
X125441853Y-85746157D01*
X125431977Y-85744711D01*
X125431976Y-85744711D01*
X125382631Y-85749028D01*
X125371824Y-85749500D01*
X125366291Y-85749500D01*
X125362730Y-85749916D01*
X125362715Y-85749917D01*
X125335501Y-85753098D01*
X125331916Y-85753464D01*
X125255961Y-85760109D01*
X125236921Y-85764330D01*
X125165232Y-85790421D01*
X125161831Y-85791603D01*
X125089474Y-85815580D01*
X125071927Y-85824075D01*
X125008221Y-85865975D01*
X125005181Y-85867912D01*
X124940280Y-85907944D01*
X124925164Y-85920257D01*
X124872831Y-85975726D01*
X124870319Y-85978312D01*
X121254358Y-89594272D01*
X121240727Y-89606053D01*
X121221468Y-89620391D01*
X121189635Y-89658328D01*
X121182338Y-89666292D01*
X121180972Y-89667657D01*
X121180950Y-89667681D01*
X121178409Y-89670223D01*
X121176173Y-89673050D01*
X121176171Y-89673053D01*
X121159176Y-89694546D01*
X121156902Y-89697337D01*
X121107894Y-89755744D01*
X121097418Y-89772187D01*
X121065192Y-89841294D01*
X121063622Y-89844536D01*
X121029393Y-89912692D01*
X121022996Y-89931098D01*
X121007573Y-90005788D01*
X121006793Y-90009305D01*
X120989208Y-90083506D01*
X120987229Y-90102879D01*
X120989448Y-90179129D01*
X120989500Y-90182735D01*
X120989499Y-92812298D01*
X120969814Y-92879338D01*
X120936624Y-92913872D01*
X120868600Y-92961504D01*
X120746285Y-93083819D01*
X120684962Y-93117303D01*
X120615270Y-93112319D01*
X120559337Y-93070447D01*
X120542422Y-93039471D01*
X120493352Y-92907911D01*
X120407188Y-92792811D01*
X120292089Y-92706647D01*
X120157371Y-92656400D01*
X120101132Y-92650354D01*
X120094518Y-92650000D01*
X119450000Y-92650000D01*
X119450000Y-93564498D01*
X119342315Y-93515320D01*
X119235763Y-93500000D01*
X119164237Y-93500000D01*
X119057685Y-93515320D01*
X118950000Y-93564498D01*
X118950000Y-92650000D01*
X118305482Y-92650000D01*
X118298867Y-92650354D01*
X118242628Y-92656400D01*
X118107910Y-92706647D01*
X117992811Y-92792811D01*
X117906647Y-92907910D01*
X117856400Y-93042628D01*
X117850354Y-93098867D01*
X117850000Y-93105481D01*
X117850000Y-93750000D01*
X118766314Y-93750000D01*
X118740507Y-93790156D01*
X118700000Y-93928111D01*
X118700000Y-94071889D01*
X118740507Y-94209844D01*
X118766314Y-94250000D01*
X117850000Y-94250000D01*
X117850000Y-94894518D01*
X117850354Y-94901132D01*
X117856400Y-94957371D01*
X117906647Y-95092089D01*
X117992811Y-95207188D01*
X118107910Y-95293352D01*
X118242628Y-95343599D01*
X118298867Y-95349645D01*
X118305482Y-95350000D01*
X118950000Y-95350000D01*
X118950000Y-94435501D01*
X119057685Y-94484680D01*
X119164237Y-94500000D01*
X119235763Y-94500000D01*
X119342315Y-94484680D01*
X119450000Y-94435501D01*
X119450000Y-95350000D01*
X120094518Y-95350000D01*
X120101132Y-95349645D01*
X120157371Y-95343599D01*
X120292089Y-95293352D01*
X120407188Y-95207188D01*
X120493352Y-95092088D01*
X120542421Y-94960529D01*
X120584292Y-94904595D01*
X120649756Y-94880178D01*
X120718029Y-94895029D01*
X120746284Y-94916181D01*
X120868596Y-95038493D01*
X120868599Y-95038495D01*
X120936623Y-95086125D01*
X120980248Y-95140700D01*
X120989500Y-95187700D01*
X120989500Y-97125500D01*
X120969815Y-97192539D01*
X120917011Y-97238294D01*
X120865500Y-97249500D01*
X119445638Y-97249500D01*
X119378599Y-97229815D01*
X119340099Y-97190596D01*
X119272711Y-97081342D01*
X119148657Y-96957288D01*
X118999334Y-96865186D01*
X118832797Y-96810000D01*
X118733141Y-96799819D01*
X118733122Y-96799818D01*
X118730009Y-96799500D01*
X118726860Y-96799500D01*
X117933141Y-96799500D01*
X117933121Y-96799500D01*
X117929992Y-96799501D01*
X117926860Y-96799820D01*
X117926858Y-96799821D01*
X117827201Y-96810001D01*
X117788503Y-96822824D01*
X117718674Y-96825225D01*
X117658633Y-96789493D01*
X117627441Y-96726972D01*
X117625500Y-96705118D01*
X117625500Y-96698687D01*
X117645185Y-96631648D01*
X117657350Y-96615714D01*
X117669187Y-96602568D01*
X117732533Y-96532216D01*
X117741407Y-96516847D01*
X117827179Y-96368284D01*
X117885674Y-96188256D01*
X117905460Y-96000000D01*
X117885674Y-95811744D01*
X117835528Y-95657412D01*
X117827179Y-95631715D01*
X117732533Y-95467783D01*
X117605870Y-95327110D01*
X117452730Y-95215848D01*
X117279802Y-95138855D01*
X117094648Y-95099500D01*
X117094646Y-95099500D01*
X116905354Y-95099500D01*
X116905352Y-95099500D01*
X116720197Y-95138855D01*
X116547269Y-95215848D01*
X116394129Y-95327110D01*
X116267466Y-95467783D01*
X116172820Y-95631715D01*
X116114326Y-95811742D01*
X116094540Y-96000000D01*
X116114326Y-96188257D01*
X116172820Y-96368284D01*
X116267466Y-96532215D01*
X116321772Y-96592528D01*
X116352002Y-96655519D01*
X116343377Y-96724854D01*
X116298636Y-96778520D01*
X116231983Y-96799478D01*
X116229622Y-96799500D01*
X115933141Y-96799500D01*
X115933121Y-96799500D01*
X115929992Y-96799501D01*
X115926860Y-96799820D01*
X115926858Y-96799821D01*
X115827203Y-96810000D01*
X115660665Y-96865186D01*
X115511342Y-96957288D01*
X115387288Y-97081342D01*
X115295186Y-97230665D01*
X115240000Y-97397202D01*
X115229819Y-97496858D01*
X115229817Y-97496878D01*
X115229500Y-97499991D01*
X115229500Y-97503138D01*
X115229500Y-97503139D01*
X115229500Y-98496859D01*
X115229500Y-98496878D01*
X115229501Y-98500008D01*
X115229820Y-98503140D01*
X115229821Y-98503141D01*
X115240000Y-98602796D01*
X115262766Y-98671496D01*
X115265168Y-98741324D01*
X115229436Y-98801366D01*
X115166916Y-98832559D01*
X115145060Y-98834500D01*
X114711864Y-98834500D01*
X114644825Y-98814815D01*
X114612910Y-98785227D01*
X114509867Y-98648776D01*
X114345655Y-98499077D01*
X114156732Y-98382102D01*
X114156730Y-98382101D01*
X113949528Y-98301830D01*
X113731104Y-98261000D01*
X113508896Y-98261000D01*
X113337613Y-98293018D01*
X113290472Y-98301830D01*
X113083267Y-98382102D01*
X112894344Y-98499077D01*
X112730132Y-98648776D01*
X112627090Y-98785227D01*
X112570981Y-98826863D01*
X112528136Y-98834500D01*
X107091864Y-98834500D01*
X107024825Y-98814815D01*
X106992910Y-98785227D01*
X106889867Y-98648776D01*
X106725655Y-98499077D01*
X106536732Y-98382102D01*
X106536730Y-98382101D01*
X106329528Y-98301830D01*
X106111104Y-98261000D01*
X105888896Y-98261000D01*
X105717613Y-98293018D01*
X105670472Y-98301830D01*
X105463267Y-98382102D01*
X105274344Y-98499077D01*
X105110132Y-98648776D01*
X104976219Y-98826106D01*
X104877175Y-99025015D01*
X104816365Y-99238737D01*
X104795863Y-99460000D01*
X100000500Y-99460000D01*
X100000500Y-86000000D01*
X106089340Y-86000000D01*
X106109936Y-86235407D01*
X106135496Y-86330798D01*
X106171097Y-86463663D01*
X106270965Y-86677830D01*
X106406505Y-86871401D01*
X106573599Y-87038495D01*
X106767170Y-87174035D01*
X106981337Y-87273903D01*
X107209592Y-87335063D01*
X107445000Y-87355659D01*
X107680408Y-87335063D01*
X107908663Y-87273903D01*
X108122830Y-87174035D01*
X108316401Y-87038495D01*
X108483495Y-86871401D01*
X108613732Y-86685403D01*
X108668307Y-86641780D01*
X108737805Y-86634586D01*
X108800160Y-86666109D01*
X108816880Y-86685404D01*
X108946893Y-86871081D01*
X109113918Y-87038106D01*
X109307423Y-87173600D01*
X109521509Y-87273430D01*
X109735000Y-87330634D01*
X109735000Y-86435501D01*
X109842685Y-86484680D01*
X109949237Y-86500000D01*
X110020763Y-86500000D01*
X110127315Y-86484680D01*
X110234999Y-86435501D01*
X110234999Y-87330633D01*
X110448491Y-87273430D01*
X110662576Y-87173600D01*
X110856077Y-87038109D01*
X110978133Y-86916053D01*
X111039456Y-86882568D01*
X111109148Y-86887552D01*
X111165082Y-86929423D01*
X111181996Y-86960399D01*
X111231204Y-87092331D01*
X111317454Y-87207546D01*
X111432669Y-87293796D01*
X111567517Y-87344091D01*
X111627127Y-87350500D01*
X113422872Y-87350499D01*
X113482483Y-87344091D01*
X113617331Y-87293796D01*
X113732546Y-87207546D01*
X113818796Y-87092331D01*
X113869091Y-86957483D01*
X113875500Y-86897873D01*
X113875499Y-85805450D01*
X113895184Y-85738412D01*
X113911813Y-85717775D01*
X118246480Y-81383108D01*
X118307801Y-81349625D01*
X118374423Y-81353510D01*
X118400019Y-81362298D01*
X118628951Y-81400500D01*
X118628952Y-81400500D01*
X118861048Y-81400500D01*
X118861049Y-81400500D01*
X119089981Y-81362298D01*
X119309503Y-81286936D01*
X119513626Y-81176470D01*
X119696784Y-81033913D01*
X119705511Y-81024432D01*
X119765394Y-80988441D01*
X119835233Y-80990538D01*
X119892850Y-81030060D01*
X119912924Y-81065079D01*
X119941647Y-81142088D01*
X120027811Y-81257188D01*
X120142910Y-81343352D01*
X120277628Y-81393599D01*
X120333867Y-81399645D01*
X120340482Y-81400000D01*
X121035000Y-81400000D01*
X121035000Y-80374189D01*
X121087547Y-80410016D01*
X121217173Y-80450000D01*
X121318724Y-80450000D01*
X121419138Y-80434865D01*
X121535000Y-80379068D01*
X121535000Y-81400000D01*
X122229518Y-81400000D01*
X122236132Y-81399645D01*
X122292371Y-81393599D01*
X122427089Y-81343352D01*
X122542188Y-81257188D01*
X122628352Y-81142089D01*
X122678599Y-81007371D01*
X122684645Y-80951132D01*
X122685000Y-80944518D01*
X122685000Y-80250000D01*
X121660278Y-80250000D01*
X121708625Y-80166260D01*
X121738810Y-80034008D01*
X121728673Y-79898735D01*
X121679113Y-79772459D01*
X121661203Y-79750000D01*
X122685000Y-79750000D01*
X122685000Y-79055481D01*
X122684645Y-79048867D01*
X122678599Y-78992628D01*
X122628352Y-78857910D01*
X122542188Y-78742811D01*
X122427089Y-78656647D01*
X122292371Y-78606400D01*
X122236132Y-78600354D01*
X122229518Y-78600000D01*
X121535000Y-78600000D01*
X121535000Y-79625810D01*
X121482453Y-79589984D01*
X121352827Y-79550000D01*
X121251276Y-79550000D01*
X121150862Y-79565135D01*
X121035000Y-79620931D01*
X121035000Y-78600000D01*
X120340482Y-78600000D01*
X120333867Y-78600354D01*
X120277628Y-78606400D01*
X120142910Y-78656647D01*
X120027811Y-78742811D01*
X119941645Y-78857913D01*
X119912923Y-78934920D01*
X119871052Y-78990854D01*
X119805587Y-79015270D01*
X119737314Y-79000418D01*
X119705513Y-78975570D01*
X119696784Y-78966087D01*
X119513626Y-78823530D01*
X119309503Y-78713064D01*
X119309499Y-78713062D01*
X119309498Y-78713062D01*
X119089984Y-78637702D01*
X118902398Y-78606400D01*
X118861049Y-78599500D01*
X118628951Y-78599500D01*
X118587602Y-78606400D01*
X118400015Y-78637702D01*
X118180501Y-78713062D01*
X118180497Y-78713063D01*
X118180497Y-78713064D01*
X118054685Y-78781150D01*
X117976372Y-78823531D01*
X117793215Y-78966087D01*
X117636020Y-79136848D01*
X117509076Y-79331150D01*
X117415844Y-79543696D01*
X117415842Y-79543700D01*
X117415843Y-79543700D01*
X117363601Y-79750000D01*
X117358865Y-79768700D01*
X117339699Y-79999999D01*
X117358865Y-80231300D01*
X117396175Y-80378636D01*
X117393549Y-80448457D01*
X117363650Y-80496757D01*
X113247226Y-84613181D01*
X113185903Y-84646666D01*
X113159545Y-84649500D01*
X111630439Y-84649500D01*
X111630420Y-84649500D01*
X111627128Y-84649501D01*
X111623848Y-84649853D01*
X111623840Y-84649854D01*
X111567515Y-84655909D01*
X111432669Y-84706204D01*
X111317454Y-84792454D01*
X111231204Y-84907669D01*
X111181997Y-85039599D01*
X111140125Y-85095532D01*
X111074661Y-85119949D01*
X111006388Y-85105097D01*
X110978134Y-85083946D01*
X110856081Y-84961893D01*
X110662576Y-84826399D01*
X110448492Y-84726569D01*
X110234999Y-84669364D01*
X110234999Y-85564498D01*
X110127315Y-85515320D01*
X110020763Y-85500000D01*
X109949237Y-85500000D01*
X109842685Y-85515320D01*
X109735000Y-85564498D01*
X109735000Y-84669364D01*
X109734999Y-84669364D01*
X109521507Y-84726569D01*
X109307421Y-84826400D01*
X109113921Y-84961890D01*
X108946893Y-85128918D01*
X108816880Y-85314596D01*
X108762303Y-85358220D01*
X108692804Y-85365413D01*
X108630450Y-85333891D01*
X108613730Y-85314595D01*
X108483494Y-85128598D01*
X108316404Y-84961508D01*
X108316401Y-84961505D01*
X108123374Y-84826346D01*
X108079752Y-84771771D01*
X108070500Y-84724773D01*
X108070500Y-81600451D01*
X108090185Y-81533412D01*
X108106815Y-81512774D01*
X108236478Y-81383110D01*
X108297801Y-81349626D01*
X108364423Y-81353511D01*
X108390018Y-81362298D01*
X108504485Y-81381398D01*
X108618951Y-81400500D01*
X108618952Y-81400500D01*
X108851048Y-81400500D01*
X108851049Y-81400500D01*
X109079981Y-81362298D01*
X109299503Y-81286936D01*
X109503626Y-81176470D01*
X109686784Y-81033913D01*
X109695511Y-81024432D01*
X109755394Y-80988441D01*
X109825233Y-80990538D01*
X109882850Y-81030060D01*
X109902924Y-81065079D01*
X109931647Y-81142088D01*
X110017811Y-81257188D01*
X110132910Y-81343352D01*
X110267628Y-81393599D01*
X110323867Y-81399645D01*
X110330482Y-81400000D01*
X111025000Y-81400000D01*
X111025000Y-80374189D01*
X111077547Y-80410016D01*
X111207173Y-80450000D01*
X111308724Y-80450000D01*
X111409138Y-80434865D01*
X111525000Y-80379068D01*
X111525000Y-81400000D01*
X112219518Y-81400000D01*
X112226132Y-81399645D01*
X112282371Y-81393599D01*
X112417089Y-81343352D01*
X112532188Y-81257188D01*
X112618352Y-81142089D01*
X112668599Y-81007371D01*
X112674645Y-80951132D01*
X112675000Y-80944518D01*
X112675000Y-80250000D01*
X111650278Y-80250000D01*
X111698625Y-80166260D01*
X111728810Y-80034008D01*
X111718673Y-79898735D01*
X111669113Y-79772459D01*
X111651203Y-79750000D01*
X112675000Y-79750000D01*
X112675000Y-79055481D01*
X112674645Y-79048867D01*
X112668599Y-78992628D01*
X112618352Y-78857910D01*
X112532188Y-78742811D01*
X112417089Y-78656647D01*
X112282371Y-78606400D01*
X112226132Y-78600354D01*
X112219518Y-78600000D01*
X111525000Y-78600000D01*
X111525000Y-79625810D01*
X111472453Y-79589984D01*
X111342827Y-79550000D01*
X111241276Y-79550000D01*
X111140862Y-79565135D01*
X111025000Y-79620931D01*
X111025000Y-78600000D01*
X110330482Y-78600000D01*
X110323867Y-78600354D01*
X110267628Y-78606400D01*
X110132910Y-78656647D01*
X110017811Y-78742811D01*
X109931645Y-78857913D01*
X109902923Y-78934920D01*
X109861052Y-78990854D01*
X109795587Y-79015270D01*
X109727314Y-79000418D01*
X109695513Y-78975570D01*
X109686784Y-78966087D01*
X109503626Y-78823530D01*
X109299503Y-78713064D01*
X109299499Y-78713062D01*
X109299498Y-78713062D01*
X109079984Y-78637702D01*
X108892398Y-78606400D01*
X108851049Y-78599500D01*
X108618951Y-78599500D01*
X108577602Y-78606400D01*
X108390015Y-78637702D01*
X108170501Y-78713062D01*
X108170497Y-78713063D01*
X108170497Y-78713064D01*
X108044685Y-78781150D01*
X107966372Y-78823531D01*
X107783215Y-78966087D01*
X107626020Y-79136848D01*
X107499076Y-79331150D01*
X107405844Y-79543696D01*
X107405842Y-79543700D01*
X107405843Y-79543700D01*
X107353601Y-79750000D01*
X107348865Y-79768700D01*
X107329699Y-79999999D01*
X107348865Y-80231300D01*
X107386175Y-80378636D01*
X107383549Y-80448457D01*
X107353650Y-80496757D01*
X107061208Y-80789199D01*
X107045110Y-80802096D01*
X106997096Y-80853225D01*
X106994392Y-80856016D01*
X106977628Y-80872780D01*
X106977621Y-80872787D01*
X106974880Y-80875529D01*
X106972499Y-80878597D01*
X106972490Y-80878608D01*
X106972411Y-80878711D01*
X106964842Y-80887572D01*
X106934935Y-80919420D01*
X106925285Y-80936974D01*
X106914609Y-80953228D01*
X106902326Y-80969063D01*
X106884975Y-81009158D01*
X106879838Y-81019644D01*
X106858802Y-81057907D01*
X106853821Y-81077309D01*
X106847520Y-81095711D01*
X106839561Y-81114102D01*
X106832728Y-81157243D01*
X106830361Y-81168675D01*
X106819500Y-81210982D01*
X106819499Y-81231020D01*
X106817973Y-81250405D01*
X106814839Y-81270193D01*
X106818950Y-81313673D01*
X106819500Y-81325343D01*
X106819500Y-84724773D01*
X106799815Y-84791812D01*
X106766623Y-84826348D01*
X106640373Y-84914750D01*
X106573595Y-84961508D01*
X106406505Y-85128598D01*
X106270965Y-85322170D01*
X106171097Y-85536336D01*
X106109936Y-85764592D01*
X106089340Y-86000000D01*
X100000500Y-86000000D01*
X100000500Y-60124500D01*
X100020185Y-60057461D01*
X100072989Y-60011706D01*
X100124500Y-60000500D01*
X145875500Y-60000500D01*
X145942539Y-60020185D01*
G37*
%TD.AperFunction*%
%TD*%
M02*
