%TF.GenerationSoftware,KiCad,Pcbnew,7.0.2-6a45011f42~172~ubuntu22.10.1*%
%TF.CreationDate,2023-04-24T10:08:01+02:00*%
%TF.ProjectId,him-card,68696d2d-6361-4726-942e-6b696361645f,rev?*%
%TF.SameCoordinates,Original*%
%TF.FileFunction,Legend,Top*%
%TF.FilePolarity,Positive*%
%FSLAX46Y46*%
G04 Gerber Fmt 4.6, Leading zero omitted, Abs format (unit mm)*
G04 Created by KiCad (PCBNEW 7.0.2-6a45011f42~172~ubuntu22.10.1) date 2023-04-24 10:08:01*
%MOMM*%
%LPD*%
G01*
G04 APERTURE LIST*
%ADD10C,0.300000*%
%ADD11C,0.150000*%
%ADD12C,0.010000*%
%ADD13C,0.120000*%
G04 APERTURE END LIST*
D10*
X128934285Y-71596428D02*
X128434285Y-70882142D01*
X128077142Y-71596428D02*
X128077142Y-70096428D01*
X128077142Y-70096428D02*
X128648571Y-70096428D01*
X128648571Y-70096428D02*
X128791428Y-70167857D01*
X128791428Y-70167857D02*
X128862857Y-70239285D01*
X128862857Y-70239285D02*
X128934285Y-70382142D01*
X128934285Y-70382142D02*
X128934285Y-70596428D01*
X128934285Y-70596428D02*
X128862857Y-70739285D01*
X128862857Y-70739285D02*
X128791428Y-70810714D01*
X128791428Y-70810714D02*
X128648571Y-70882142D01*
X128648571Y-70882142D02*
X128077142Y-70882142D01*
X130148571Y-71525000D02*
X130005714Y-71596428D01*
X130005714Y-71596428D02*
X129720000Y-71596428D01*
X129720000Y-71596428D02*
X129577142Y-71525000D01*
X129577142Y-71525000D02*
X129505714Y-71382142D01*
X129505714Y-71382142D02*
X129505714Y-70810714D01*
X129505714Y-70810714D02*
X129577142Y-70667857D01*
X129577142Y-70667857D02*
X129720000Y-70596428D01*
X129720000Y-70596428D02*
X130005714Y-70596428D01*
X130005714Y-70596428D02*
X130148571Y-70667857D01*
X130148571Y-70667857D02*
X130220000Y-70810714D01*
X130220000Y-70810714D02*
X130220000Y-70953571D01*
X130220000Y-70953571D02*
X129505714Y-71096428D01*
X130719999Y-70596428D02*
X131077142Y-71596428D01*
X131077142Y-71596428D02*
X131434285Y-70596428D01*
X133077142Y-71167857D02*
X133791428Y-71167857D01*
X132934285Y-71596428D02*
X133434285Y-70096428D01*
X133434285Y-70096428D02*
X133934285Y-71596428D01*
X103084285Y-70786428D02*
X103441428Y-71786428D01*
X103441428Y-71786428D02*
X103798571Y-70786428D01*
X104298571Y-71715000D02*
X104441428Y-71786428D01*
X104441428Y-71786428D02*
X104727142Y-71786428D01*
X104727142Y-71786428D02*
X104869999Y-71715000D01*
X104869999Y-71715000D02*
X104941428Y-71572142D01*
X104941428Y-71572142D02*
X104941428Y-71500714D01*
X104941428Y-71500714D02*
X104869999Y-71357857D01*
X104869999Y-71357857D02*
X104727142Y-71286428D01*
X104727142Y-71286428D02*
X104512857Y-71286428D01*
X104512857Y-71286428D02*
X104369999Y-71215000D01*
X104369999Y-71215000D02*
X104298571Y-71072142D01*
X104298571Y-71072142D02*
X104298571Y-71000714D01*
X104298571Y-71000714D02*
X104369999Y-70857857D01*
X104369999Y-70857857D02*
X104512857Y-70786428D01*
X104512857Y-70786428D02*
X104727142Y-70786428D01*
X104727142Y-70786428D02*
X104869999Y-70857857D01*
X106227143Y-71715000D02*
X106084285Y-71786428D01*
X106084285Y-71786428D02*
X105798571Y-71786428D01*
X105798571Y-71786428D02*
X105655714Y-71715000D01*
X105655714Y-71715000D02*
X105584285Y-71643571D01*
X105584285Y-71643571D02*
X105512857Y-71500714D01*
X105512857Y-71500714D02*
X105512857Y-71072142D01*
X105512857Y-71072142D02*
X105584285Y-70929285D01*
X105584285Y-70929285D02*
X105655714Y-70857857D01*
X105655714Y-70857857D02*
X105798571Y-70786428D01*
X105798571Y-70786428D02*
X106084285Y-70786428D01*
X106084285Y-70786428D02*
X106227143Y-70857857D01*
X106869999Y-70786428D02*
X106869999Y-72286428D01*
X106869999Y-70857857D02*
X107012857Y-70786428D01*
X107012857Y-70786428D02*
X107298571Y-70786428D01*
X107298571Y-70786428D02*
X107441428Y-70857857D01*
X107441428Y-70857857D02*
X107512857Y-70929285D01*
X107512857Y-70929285D02*
X107584285Y-71072142D01*
X107584285Y-71072142D02*
X107584285Y-71500714D01*
X107584285Y-71500714D02*
X107512857Y-71643571D01*
X107512857Y-71643571D02*
X107441428Y-71715000D01*
X107441428Y-71715000D02*
X107298571Y-71786428D01*
X107298571Y-71786428D02*
X107012857Y-71786428D01*
X107012857Y-71786428D02*
X106869999Y-71715000D01*
X108227142Y-71643571D02*
X108298571Y-71715000D01*
X108298571Y-71715000D02*
X108227142Y-71786428D01*
X108227142Y-71786428D02*
X108155714Y-71715000D01*
X108155714Y-71715000D02*
X108227142Y-71643571D01*
X108227142Y-71643571D02*
X108227142Y-71786428D01*
X109155714Y-71786428D02*
X109012857Y-71715000D01*
X109012857Y-71715000D02*
X108941428Y-71643571D01*
X108941428Y-71643571D02*
X108870000Y-71500714D01*
X108870000Y-71500714D02*
X108870000Y-71072142D01*
X108870000Y-71072142D02*
X108941428Y-70929285D01*
X108941428Y-70929285D02*
X109012857Y-70857857D01*
X109012857Y-70857857D02*
X109155714Y-70786428D01*
X109155714Y-70786428D02*
X109370000Y-70786428D01*
X109370000Y-70786428D02*
X109512857Y-70857857D01*
X109512857Y-70857857D02*
X109584286Y-70929285D01*
X109584286Y-70929285D02*
X109655714Y-71072142D01*
X109655714Y-71072142D02*
X109655714Y-71500714D01*
X109655714Y-71500714D02*
X109584286Y-71643571D01*
X109584286Y-71643571D02*
X109512857Y-71715000D01*
X109512857Y-71715000D02*
X109370000Y-71786428D01*
X109370000Y-71786428D02*
X109155714Y-71786428D01*
X110298571Y-71786428D02*
X110298571Y-70786428D01*
X110298571Y-71072142D02*
X110370000Y-70929285D01*
X110370000Y-70929285D02*
X110441429Y-70857857D01*
X110441429Y-70857857D02*
X110584286Y-70786428D01*
X110584286Y-70786428D02*
X110727143Y-70786428D01*
X111870000Y-70786428D02*
X111870000Y-72000714D01*
X111870000Y-72000714D02*
X111798571Y-72143571D01*
X111798571Y-72143571D02*
X111727142Y-72215000D01*
X111727142Y-72215000D02*
X111584285Y-72286428D01*
X111584285Y-72286428D02*
X111370000Y-72286428D01*
X111370000Y-72286428D02*
X111227142Y-72215000D01*
X111870000Y-71715000D02*
X111727142Y-71786428D01*
X111727142Y-71786428D02*
X111441428Y-71786428D01*
X111441428Y-71786428D02*
X111298571Y-71715000D01*
X111298571Y-71715000D02*
X111227142Y-71643571D01*
X111227142Y-71643571D02*
X111155714Y-71500714D01*
X111155714Y-71500714D02*
X111155714Y-71072142D01*
X111155714Y-71072142D02*
X111227142Y-70929285D01*
X111227142Y-70929285D02*
X111298571Y-70857857D01*
X111298571Y-70857857D02*
X111441428Y-70786428D01*
X111441428Y-70786428D02*
X111727142Y-70786428D01*
X111727142Y-70786428D02*
X111870000Y-70857857D01*
X103752857Y-67667857D02*
X103610000Y-67596428D01*
X103610000Y-67596428D02*
X103395714Y-67596428D01*
X103395714Y-67596428D02*
X103181428Y-67667857D01*
X103181428Y-67667857D02*
X103038571Y-67810714D01*
X103038571Y-67810714D02*
X102967142Y-67953571D01*
X102967142Y-67953571D02*
X102895714Y-68239285D01*
X102895714Y-68239285D02*
X102895714Y-68453571D01*
X102895714Y-68453571D02*
X102967142Y-68739285D01*
X102967142Y-68739285D02*
X103038571Y-68882142D01*
X103038571Y-68882142D02*
X103181428Y-69025000D01*
X103181428Y-69025000D02*
X103395714Y-69096428D01*
X103395714Y-69096428D02*
X103538571Y-69096428D01*
X103538571Y-69096428D02*
X103752857Y-69025000D01*
X103752857Y-69025000D02*
X103824285Y-68953571D01*
X103824285Y-68953571D02*
X103824285Y-68453571D01*
X103824285Y-68453571D02*
X103538571Y-68453571D01*
X104467142Y-69096428D02*
X104467142Y-68096428D01*
X104467142Y-68382142D02*
X104538571Y-68239285D01*
X104538571Y-68239285D02*
X104610000Y-68167857D01*
X104610000Y-68167857D02*
X104752857Y-68096428D01*
X104752857Y-68096428D02*
X104895714Y-68096428D01*
X105609999Y-69096428D02*
X105467142Y-69025000D01*
X105467142Y-69025000D02*
X105395713Y-68953571D01*
X105395713Y-68953571D02*
X105324285Y-68810714D01*
X105324285Y-68810714D02*
X105324285Y-68382142D01*
X105324285Y-68382142D02*
X105395713Y-68239285D01*
X105395713Y-68239285D02*
X105467142Y-68167857D01*
X105467142Y-68167857D02*
X105609999Y-68096428D01*
X105609999Y-68096428D02*
X105824285Y-68096428D01*
X105824285Y-68096428D02*
X105967142Y-68167857D01*
X105967142Y-68167857D02*
X106038571Y-68239285D01*
X106038571Y-68239285D02*
X106109999Y-68382142D01*
X106109999Y-68382142D02*
X106109999Y-68810714D01*
X106109999Y-68810714D02*
X106038571Y-68953571D01*
X106038571Y-68953571D02*
X105967142Y-69025000D01*
X105967142Y-69025000D02*
X105824285Y-69096428D01*
X105824285Y-69096428D02*
X105609999Y-69096428D01*
X107395714Y-69096428D02*
X107395714Y-67596428D01*
X107395714Y-69025000D02*
X107252856Y-69096428D01*
X107252856Y-69096428D02*
X106967142Y-69096428D01*
X106967142Y-69096428D02*
X106824285Y-69025000D01*
X106824285Y-69025000D02*
X106752856Y-68953571D01*
X106752856Y-68953571D02*
X106681428Y-68810714D01*
X106681428Y-68810714D02*
X106681428Y-68382142D01*
X106681428Y-68382142D02*
X106752856Y-68239285D01*
X106752856Y-68239285D02*
X106824285Y-68167857D01*
X106824285Y-68167857D02*
X106967142Y-68096428D01*
X106967142Y-68096428D02*
X107252856Y-68096428D01*
X107252856Y-68096428D02*
X107395714Y-68167857D01*
X108752857Y-69096428D02*
X108752857Y-68310714D01*
X108752857Y-68310714D02*
X108681428Y-68167857D01*
X108681428Y-68167857D02*
X108538571Y-68096428D01*
X108538571Y-68096428D02*
X108252857Y-68096428D01*
X108252857Y-68096428D02*
X108109999Y-68167857D01*
X108752857Y-69025000D02*
X108609999Y-69096428D01*
X108609999Y-69096428D02*
X108252857Y-69096428D01*
X108252857Y-69096428D02*
X108109999Y-69025000D01*
X108109999Y-69025000D02*
X108038571Y-68882142D01*
X108038571Y-68882142D02*
X108038571Y-68739285D01*
X108038571Y-68739285D02*
X108109999Y-68596428D01*
X108109999Y-68596428D02*
X108252857Y-68525000D01*
X108252857Y-68525000D02*
X108609999Y-68525000D01*
X108609999Y-68525000D02*
X108752857Y-68453571D01*
X109467142Y-68096428D02*
X109467142Y-69096428D01*
X109467142Y-68239285D02*
X109538571Y-68167857D01*
X109538571Y-68167857D02*
X109681428Y-68096428D01*
X109681428Y-68096428D02*
X109895714Y-68096428D01*
X109895714Y-68096428D02*
X110038571Y-68167857D01*
X110038571Y-68167857D02*
X110110000Y-68310714D01*
X110110000Y-68310714D02*
X110110000Y-69096428D01*
X110752857Y-69025000D02*
X110895714Y-69096428D01*
X110895714Y-69096428D02*
X111181428Y-69096428D01*
X111181428Y-69096428D02*
X111324285Y-69025000D01*
X111324285Y-69025000D02*
X111395714Y-68882142D01*
X111395714Y-68882142D02*
X111395714Y-68810714D01*
X111395714Y-68810714D02*
X111324285Y-68667857D01*
X111324285Y-68667857D02*
X111181428Y-68596428D01*
X111181428Y-68596428D02*
X110967143Y-68596428D01*
X110967143Y-68596428D02*
X110824285Y-68525000D01*
X110824285Y-68525000D02*
X110752857Y-68382142D01*
X110752857Y-68382142D02*
X110752857Y-68310714D01*
X110752857Y-68310714D02*
X110824285Y-68167857D01*
X110824285Y-68167857D02*
X110967143Y-68096428D01*
X110967143Y-68096428D02*
X111181428Y-68096428D01*
X111181428Y-68096428D02*
X111324285Y-68167857D01*
X113181428Y-69096428D02*
X113181428Y-67596428D01*
X113181428Y-67596428D02*
X113752857Y-67596428D01*
X113752857Y-67596428D02*
X113895714Y-67667857D01*
X113895714Y-67667857D02*
X113967143Y-67739285D01*
X113967143Y-67739285D02*
X114038571Y-67882142D01*
X114038571Y-67882142D02*
X114038571Y-68096428D01*
X114038571Y-68096428D02*
X113967143Y-68239285D01*
X113967143Y-68239285D02*
X113895714Y-68310714D01*
X113895714Y-68310714D02*
X113752857Y-68382142D01*
X113752857Y-68382142D02*
X113181428Y-68382142D01*
X115324286Y-69096428D02*
X115324286Y-68310714D01*
X115324286Y-68310714D02*
X115252857Y-68167857D01*
X115252857Y-68167857D02*
X115110000Y-68096428D01*
X115110000Y-68096428D02*
X114824286Y-68096428D01*
X114824286Y-68096428D02*
X114681428Y-68167857D01*
X115324286Y-69025000D02*
X115181428Y-69096428D01*
X115181428Y-69096428D02*
X114824286Y-69096428D01*
X114824286Y-69096428D02*
X114681428Y-69025000D01*
X114681428Y-69025000D02*
X114610000Y-68882142D01*
X114610000Y-68882142D02*
X114610000Y-68739285D01*
X114610000Y-68739285D02*
X114681428Y-68596428D01*
X114681428Y-68596428D02*
X114824286Y-68525000D01*
X114824286Y-68525000D02*
X115181428Y-68525000D01*
X115181428Y-68525000D02*
X115324286Y-68453571D01*
X116038571Y-69096428D02*
X116038571Y-68096428D01*
X116038571Y-68382142D02*
X116110000Y-68239285D01*
X116110000Y-68239285D02*
X116181429Y-68167857D01*
X116181429Y-68167857D02*
X116324286Y-68096428D01*
X116324286Y-68096428D02*
X116467143Y-68096428D01*
X117610000Y-69096428D02*
X117610000Y-68310714D01*
X117610000Y-68310714D02*
X117538571Y-68167857D01*
X117538571Y-68167857D02*
X117395714Y-68096428D01*
X117395714Y-68096428D02*
X117110000Y-68096428D01*
X117110000Y-68096428D02*
X116967142Y-68167857D01*
X117610000Y-69025000D02*
X117467142Y-69096428D01*
X117467142Y-69096428D02*
X117110000Y-69096428D01*
X117110000Y-69096428D02*
X116967142Y-69025000D01*
X116967142Y-69025000D02*
X116895714Y-68882142D01*
X116895714Y-68882142D02*
X116895714Y-68739285D01*
X116895714Y-68739285D02*
X116967142Y-68596428D01*
X116967142Y-68596428D02*
X117110000Y-68525000D01*
X117110000Y-68525000D02*
X117467142Y-68525000D01*
X117467142Y-68525000D02*
X117610000Y-68453571D01*
X118967143Y-69096428D02*
X118967143Y-67596428D01*
X118967143Y-69025000D02*
X118824285Y-69096428D01*
X118824285Y-69096428D02*
X118538571Y-69096428D01*
X118538571Y-69096428D02*
X118395714Y-69025000D01*
X118395714Y-69025000D02*
X118324285Y-68953571D01*
X118324285Y-68953571D02*
X118252857Y-68810714D01*
X118252857Y-68810714D02*
X118252857Y-68382142D01*
X118252857Y-68382142D02*
X118324285Y-68239285D01*
X118324285Y-68239285D02*
X118395714Y-68167857D01*
X118395714Y-68167857D02*
X118538571Y-68096428D01*
X118538571Y-68096428D02*
X118824285Y-68096428D01*
X118824285Y-68096428D02*
X118967143Y-68167857D01*
X119681428Y-69096428D02*
X119681428Y-68096428D01*
X119681428Y-67596428D02*
X119610000Y-67667857D01*
X119610000Y-67667857D02*
X119681428Y-67739285D01*
X119681428Y-67739285D02*
X119752857Y-67667857D01*
X119752857Y-67667857D02*
X119681428Y-67596428D01*
X119681428Y-67596428D02*
X119681428Y-67739285D01*
X120324286Y-69025000D02*
X120467143Y-69096428D01*
X120467143Y-69096428D02*
X120752857Y-69096428D01*
X120752857Y-69096428D02*
X120895714Y-69025000D01*
X120895714Y-69025000D02*
X120967143Y-68882142D01*
X120967143Y-68882142D02*
X120967143Y-68810714D01*
X120967143Y-68810714D02*
X120895714Y-68667857D01*
X120895714Y-68667857D02*
X120752857Y-68596428D01*
X120752857Y-68596428D02*
X120538572Y-68596428D01*
X120538572Y-68596428D02*
X120395714Y-68525000D01*
X120395714Y-68525000D02*
X120324286Y-68382142D01*
X120324286Y-68382142D02*
X120324286Y-68310714D01*
X120324286Y-68310714D02*
X120395714Y-68167857D01*
X120395714Y-68167857D02*
X120538572Y-68096428D01*
X120538572Y-68096428D02*
X120752857Y-68096428D01*
X120752857Y-68096428D02*
X120895714Y-68167857D01*
X122681429Y-68667857D02*
X123395715Y-68667857D01*
X122538572Y-69096428D02*
X123038572Y-67596428D01*
X123038572Y-67596428D02*
X123538572Y-69096428D01*
X124538571Y-68310714D02*
X124752857Y-68382142D01*
X124752857Y-68382142D02*
X124824286Y-68453571D01*
X124824286Y-68453571D02*
X124895714Y-68596428D01*
X124895714Y-68596428D02*
X124895714Y-68810714D01*
X124895714Y-68810714D02*
X124824286Y-68953571D01*
X124824286Y-68953571D02*
X124752857Y-69025000D01*
X124752857Y-69025000D02*
X124610000Y-69096428D01*
X124610000Y-69096428D02*
X124038571Y-69096428D01*
X124038571Y-69096428D02*
X124038571Y-67596428D01*
X124038571Y-67596428D02*
X124538571Y-67596428D01*
X124538571Y-67596428D02*
X124681429Y-67667857D01*
X124681429Y-67667857D02*
X124752857Y-67739285D01*
X124752857Y-67739285D02*
X124824286Y-67882142D01*
X124824286Y-67882142D02*
X124824286Y-68025000D01*
X124824286Y-68025000D02*
X124752857Y-68167857D01*
X124752857Y-68167857D02*
X124681429Y-68239285D01*
X124681429Y-68239285D02*
X124538571Y-68310714D01*
X124538571Y-68310714D02*
X124038571Y-68310714D01*
X102917142Y-64746428D02*
X102917142Y-65960714D01*
X102917142Y-65960714D02*
X102988571Y-66103571D01*
X102988571Y-66103571D02*
X103060000Y-66175000D01*
X103060000Y-66175000D02*
X103202857Y-66246428D01*
X103202857Y-66246428D02*
X103488571Y-66246428D01*
X103488571Y-66246428D02*
X103631428Y-66175000D01*
X103631428Y-66175000D02*
X103702857Y-66103571D01*
X103702857Y-66103571D02*
X103774285Y-65960714D01*
X103774285Y-65960714D02*
X103774285Y-64746428D01*
X104488571Y-65246428D02*
X104488571Y-66746428D01*
X104488571Y-65317857D02*
X104631429Y-65246428D01*
X104631429Y-65246428D02*
X104917143Y-65246428D01*
X104917143Y-65246428D02*
X105060000Y-65317857D01*
X105060000Y-65317857D02*
X105131429Y-65389285D01*
X105131429Y-65389285D02*
X105202857Y-65532142D01*
X105202857Y-65532142D02*
X105202857Y-65960714D01*
X105202857Y-65960714D02*
X105131429Y-66103571D01*
X105131429Y-66103571D02*
X105060000Y-66175000D01*
X105060000Y-66175000D02*
X104917143Y-66246428D01*
X104917143Y-66246428D02*
X104631429Y-66246428D01*
X104631429Y-66246428D02*
X104488571Y-66175000D01*
X105845714Y-65246428D02*
X105845714Y-66746428D01*
X105845714Y-65317857D02*
X105988572Y-65246428D01*
X105988572Y-65246428D02*
X106274286Y-65246428D01*
X106274286Y-65246428D02*
X106417143Y-65317857D01*
X106417143Y-65317857D02*
X106488572Y-65389285D01*
X106488572Y-65389285D02*
X106560000Y-65532142D01*
X106560000Y-65532142D02*
X106560000Y-65960714D01*
X106560000Y-65960714D02*
X106488572Y-66103571D01*
X106488572Y-66103571D02*
X106417143Y-66175000D01*
X106417143Y-66175000D02*
X106274286Y-66246428D01*
X106274286Y-66246428D02*
X105988572Y-66246428D01*
X105988572Y-66246428D02*
X105845714Y-66175000D01*
X107774286Y-66175000D02*
X107631429Y-66246428D01*
X107631429Y-66246428D02*
X107345715Y-66246428D01*
X107345715Y-66246428D02*
X107202857Y-66175000D01*
X107202857Y-66175000D02*
X107131429Y-66032142D01*
X107131429Y-66032142D02*
X107131429Y-65460714D01*
X107131429Y-65460714D02*
X107202857Y-65317857D01*
X107202857Y-65317857D02*
X107345715Y-65246428D01*
X107345715Y-65246428D02*
X107631429Y-65246428D01*
X107631429Y-65246428D02*
X107774286Y-65317857D01*
X107774286Y-65317857D02*
X107845715Y-65460714D01*
X107845715Y-65460714D02*
X107845715Y-65603571D01*
X107845715Y-65603571D02*
X107131429Y-65746428D01*
X108488571Y-66246428D02*
X108488571Y-65246428D01*
X108488571Y-65532142D02*
X108560000Y-65389285D01*
X108560000Y-65389285D02*
X108631429Y-65317857D01*
X108631429Y-65317857D02*
X108774286Y-65246428D01*
X108774286Y-65246428D02*
X108917143Y-65246428D01*
X110559999Y-66246428D02*
X110559999Y-65246428D01*
X110559999Y-64746428D02*
X110488571Y-64817857D01*
X110488571Y-64817857D02*
X110559999Y-64889285D01*
X110559999Y-64889285D02*
X110631428Y-64817857D01*
X110631428Y-64817857D02*
X110559999Y-64746428D01*
X110559999Y-64746428D02*
X110559999Y-64889285D01*
X111274285Y-65246428D02*
X111274285Y-66246428D01*
X111274285Y-65389285D02*
X111345714Y-65317857D01*
X111345714Y-65317857D02*
X111488571Y-65246428D01*
X111488571Y-65246428D02*
X111702857Y-65246428D01*
X111702857Y-65246428D02*
X111845714Y-65317857D01*
X111845714Y-65317857D02*
X111917143Y-65460714D01*
X111917143Y-65460714D02*
X111917143Y-66246428D01*
X112417143Y-65246428D02*
X112988571Y-65246428D01*
X112631428Y-64746428D02*
X112631428Y-66032142D01*
X112631428Y-66032142D02*
X112702857Y-66175000D01*
X112702857Y-66175000D02*
X112845714Y-66246428D01*
X112845714Y-66246428D02*
X112988571Y-66246428D01*
X114060000Y-66175000D02*
X113917143Y-66246428D01*
X113917143Y-66246428D02*
X113631429Y-66246428D01*
X113631429Y-66246428D02*
X113488571Y-66175000D01*
X113488571Y-66175000D02*
X113417143Y-66032142D01*
X113417143Y-66032142D02*
X113417143Y-65460714D01*
X113417143Y-65460714D02*
X113488571Y-65317857D01*
X113488571Y-65317857D02*
X113631429Y-65246428D01*
X113631429Y-65246428D02*
X113917143Y-65246428D01*
X113917143Y-65246428D02*
X114060000Y-65317857D01*
X114060000Y-65317857D02*
X114131429Y-65460714D01*
X114131429Y-65460714D02*
X114131429Y-65603571D01*
X114131429Y-65603571D02*
X113417143Y-65746428D01*
X114560000Y-65246428D02*
X115131428Y-65246428D01*
X114774285Y-66246428D02*
X114774285Y-64960714D01*
X114774285Y-64960714D02*
X114845714Y-64817857D01*
X114845714Y-64817857D02*
X114988571Y-64746428D01*
X114988571Y-64746428D02*
X115131428Y-64746428D01*
X116274286Y-66246428D02*
X116274286Y-65460714D01*
X116274286Y-65460714D02*
X116202857Y-65317857D01*
X116202857Y-65317857D02*
X116060000Y-65246428D01*
X116060000Y-65246428D02*
X115774286Y-65246428D01*
X115774286Y-65246428D02*
X115631428Y-65317857D01*
X116274286Y-66175000D02*
X116131428Y-66246428D01*
X116131428Y-66246428D02*
X115774286Y-66246428D01*
X115774286Y-66246428D02*
X115631428Y-66175000D01*
X115631428Y-66175000D02*
X115560000Y-66032142D01*
X115560000Y-66032142D02*
X115560000Y-65889285D01*
X115560000Y-65889285D02*
X115631428Y-65746428D01*
X115631428Y-65746428D02*
X115774286Y-65675000D01*
X115774286Y-65675000D02*
X116131428Y-65675000D01*
X116131428Y-65675000D02*
X116274286Y-65603571D01*
X117631429Y-66175000D02*
X117488571Y-66246428D01*
X117488571Y-66246428D02*
X117202857Y-66246428D01*
X117202857Y-66246428D02*
X117060000Y-66175000D01*
X117060000Y-66175000D02*
X116988571Y-66103571D01*
X116988571Y-66103571D02*
X116917143Y-65960714D01*
X116917143Y-65960714D02*
X116917143Y-65532142D01*
X116917143Y-65532142D02*
X116988571Y-65389285D01*
X116988571Y-65389285D02*
X117060000Y-65317857D01*
X117060000Y-65317857D02*
X117202857Y-65246428D01*
X117202857Y-65246428D02*
X117488571Y-65246428D01*
X117488571Y-65246428D02*
X117631429Y-65317857D01*
X118845714Y-66175000D02*
X118702857Y-66246428D01*
X118702857Y-66246428D02*
X118417143Y-66246428D01*
X118417143Y-66246428D02*
X118274285Y-66175000D01*
X118274285Y-66175000D02*
X118202857Y-66032142D01*
X118202857Y-66032142D02*
X118202857Y-65460714D01*
X118202857Y-65460714D02*
X118274285Y-65317857D01*
X118274285Y-65317857D02*
X118417143Y-65246428D01*
X118417143Y-65246428D02*
X118702857Y-65246428D01*
X118702857Y-65246428D02*
X118845714Y-65317857D01*
X118845714Y-65317857D02*
X118917143Y-65460714D01*
X118917143Y-65460714D02*
X118917143Y-65603571D01*
X118917143Y-65603571D02*
X118202857Y-65746428D01*
X121345714Y-66175000D02*
X121202856Y-66246428D01*
X121202856Y-66246428D02*
X120917142Y-66246428D01*
X120917142Y-66246428D02*
X120774285Y-66175000D01*
X120774285Y-66175000D02*
X120702856Y-66103571D01*
X120702856Y-66103571D02*
X120631428Y-65960714D01*
X120631428Y-65960714D02*
X120631428Y-65532142D01*
X120631428Y-65532142D02*
X120702856Y-65389285D01*
X120702856Y-65389285D02*
X120774285Y-65317857D01*
X120774285Y-65317857D02*
X120917142Y-65246428D01*
X120917142Y-65246428D02*
X121202856Y-65246428D01*
X121202856Y-65246428D02*
X121345714Y-65317857D01*
X122631428Y-66246428D02*
X122631428Y-65460714D01*
X122631428Y-65460714D02*
X122559999Y-65317857D01*
X122559999Y-65317857D02*
X122417142Y-65246428D01*
X122417142Y-65246428D02*
X122131428Y-65246428D01*
X122131428Y-65246428D02*
X121988570Y-65317857D01*
X122631428Y-66175000D02*
X122488570Y-66246428D01*
X122488570Y-66246428D02*
X122131428Y-66246428D01*
X122131428Y-66246428D02*
X121988570Y-66175000D01*
X121988570Y-66175000D02*
X121917142Y-66032142D01*
X121917142Y-66032142D02*
X121917142Y-65889285D01*
X121917142Y-65889285D02*
X121988570Y-65746428D01*
X121988570Y-65746428D02*
X122131428Y-65675000D01*
X122131428Y-65675000D02*
X122488570Y-65675000D01*
X122488570Y-65675000D02*
X122631428Y-65603571D01*
X123345713Y-66246428D02*
X123345713Y-65246428D01*
X123345713Y-65532142D02*
X123417142Y-65389285D01*
X123417142Y-65389285D02*
X123488571Y-65317857D01*
X123488571Y-65317857D02*
X123631428Y-65246428D01*
X123631428Y-65246428D02*
X123774285Y-65246428D01*
X124917142Y-66246428D02*
X124917142Y-64746428D01*
X124917142Y-66175000D02*
X124774284Y-66246428D01*
X124774284Y-66246428D02*
X124488570Y-66246428D01*
X124488570Y-66246428D02*
X124345713Y-66175000D01*
X124345713Y-66175000D02*
X124274284Y-66103571D01*
X124274284Y-66103571D02*
X124202856Y-65960714D01*
X124202856Y-65960714D02*
X124202856Y-65532142D01*
X124202856Y-65532142D02*
X124274284Y-65389285D01*
X124274284Y-65389285D02*
X124345713Y-65317857D01*
X124345713Y-65317857D02*
X124488570Y-65246428D01*
X124488570Y-65246428D02*
X124774284Y-65246428D01*
X124774284Y-65246428D02*
X124917142Y-65317857D01*
X126631427Y-64746428D02*
X127631427Y-64746428D01*
X127631427Y-64746428D02*
X126631427Y-66246428D01*
X126631427Y-66246428D02*
X127631427Y-66246428D01*
X128202855Y-65675000D02*
X129345713Y-65675000D01*
X130845713Y-66246428D02*
X129988570Y-66246428D01*
X130417141Y-66246428D02*
X130417141Y-64746428D01*
X130417141Y-64746428D02*
X130274284Y-64960714D01*
X130274284Y-64960714D02*
X130131427Y-65103571D01*
X130131427Y-65103571D02*
X129988570Y-65175000D01*
X131774284Y-64746428D02*
X131917141Y-64746428D01*
X131917141Y-64746428D02*
X132059998Y-64817857D01*
X132059998Y-64817857D02*
X132131427Y-64889285D01*
X132131427Y-64889285D02*
X132202855Y-65032142D01*
X132202855Y-65032142D02*
X132274284Y-65317857D01*
X132274284Y-65317857D02*
X132274284Y-65675000D01*
X132274284Y-65675000D02*
X132202855Y-65960714D01*
X132202855Y-65960714D02*
X132131427Y-66103571D01*
X132131427Y-66103571D02*
X132059998Y-66175000D01*
X132059998Y-66175000D02*
X131917141Y-66246428D01*
X131917141Y-66246428D02*
X131774284Y-66246428D01*
X131774284Y-66246428D02*
X131631427Y-66175000D01*
X131631427Y-66175000D02*
X131559998Y-66103571D01*
X131559998Y-66103571D02*
X131488569Y-65960714D01*
X131488569Y-65960714D02*
X131417141Y-65675000D01*
X131417141Y-65675000D02*
X131417141Y-65317857D01*
X131417141Y-65317857D02*
X131488569Y-65032142D01*
X131488569Y-65032142D02*
X131559998Y-64889285D01*
X131559998Y-64889285D02*
X131631427Y-64817857D01*
X131631427Y-64817857D02*
X131774284Y-64746428D01*
X132845712Y-64889285D02*
X132917140Y-64817857D01*
X132917140Y-64817857D02*
X133059998Y-64746428D01*
X133059998Y-64746428D02*
X133417140Y-64746428D01*
X133417140Y-64746428D02*
X133559998Y-64817857D01*
X133559998Y-64817857D02*
X133631426Y-64889285D01*
X133631426Y-64889285D02*
X133702855Y-65032142D01*
X133702855Y-65032142D02*
X133702855Y-65175000D01*
X133702855Y-65175000D02*
X133631426Y-65389285D01*
X133631426Y-65389285D02*
X132774283Y-66246428D01*
X132774283Y-66246428D02*
X133702855Y-66246428D01*
D11*
%TO.C,R3*%
X136833333Y-82642619D02*
X136500000Y-82166428D01*
X136261905Y-82642619D02*
X136261905Y-81642619D01*
X136261905Y-81642619D02*
X136642857Y-81642619D01*
X136642857Y-81642619D02*
X136738095Y-81690238D01*
X136738095Y-81690238D02*
X136785714Y-81737857D01*
X136785714Y-81737857D02*
X136833333Y-81833095D01*
X136833333Y-81833095D02*
X136833333Y-81975952D01*
X136833333Y-81975952D02*
X136785714Y-82071190D01*
X136785714Y-82071190D02*
X136738095Y-82118809D01*
X136738095Y-82118809D02*
X136642857Y-82166428D01*
X136642857Y-82166428D02*
X136261905Y-82166428D01*
X137166667Y-81642619D02*
X137785714Y-81642619D01*
X137785714Y-81642619D02*
X137452381Y-82023571D01*
X137452381Y-82023571D02*
X137595238Y-82023571D01*
X137595238Y-82023571D02*
X137690476Y-82071190D01*
X137690476Y-82071190D02*
X137738095Y-82118809D01*
X137738095Y-82118809D02*
X137785714Y-82214047D01*
X137785714Y-82214047D02*
X137785714Y-82452142D01*
X137785714Y-82452142D02*
X137738095Y-82547380D01*
X137738095Y-82547380D02*
X137690476Y-82595000D01*
X137690476Y-82595000D02*
X137595238Y-82642619D01*
X137595238Y-82642619D02*
X137309524Y-82642619D01*
X137309524Y-82642619D02*
X137214286Y-82595000D01*
X137214286Y-82595000D02*
X137166667Y-82547380D01*
%TO.C,R2*%
X124833333Y-98502619D02*
X124500000Y-98026428D01*
X124261905Y-98502619D02*
X124261905Y-97502619D01*
X124261905Y-97502619D02*
X124642857Y-97502619D01*
X124642857Y-97502619D02*
X124738095Y-97550238D01*
X124738095Y-97550238D02*
X124785714Y-97597857D01*
X124785714Y-97597857D02*
X124833333Y-97693095D01*
X124833333Y-97693095D02*
X124833333Y-97835952D01*
X124833333Y-97835952D02*
X124785714Y-97931190D01*
X124785714Y-97931190D02*
X124738095Y-97978809D01*
X124738095Y-97978809D02*
X124642857Y-98026428D01*
X124642857Y-98026428D02*
X124261905Y-98026428D01*
X125214286Y-97597857D02*
X125261905Y-97550238D01*
X125261905Y-97550238D02*
X125357143Y-97502619D01*
X125357143Y-97502619D02*
X125595238Y-97502619D01*
X125595238Y-97502619D02*
X125690476Y-97550238D01*
X125690476Y-97550238D02*
X125738095Y-97597857D01*
X125738095Y-97597857D02*
X125785714Y-97693095D01*
X125785714Y-97693095D02*
X125785714Y-97788333D01*
X125785714Y-97788333D02*
X125738095Y-97931190D01*
X125738095Y-97931190D02*
X125166667Y-98502619D01*
X125166667Y-98502619D02*
X125785714Y-98502619D01*
%TO.C,R1*%
X120283333Y-98112619D02*
X119950000Y-97636428D01*
X119711905Y-98112619D02*
X119711905Y-97112619D01*
X119711905Y-97112619D02*
X120092857Y-97112619D01*
X120092857Y-97112619D02*
X120188095Y-97160238D01*
X120188095Y-97160238D02*
X120235714Y-97207857D01*
X120235714Y-97207857D02*
X120283333Y-97303095D01*
X120283333Y-97303095D02*
X120283333Y-97445952D01*
X120283333Y-97445952D02*
X120235714Y-97541190D01*
X120235714Y-97541190D02*
X120188095Y-97588809D01*
X120188095Y-97588809D02*
X120092857Y-97636428D01*
X120092857Y-97636428D02*
X119711905Y-97636428D01*
X121235714Y-98112619D02*
X120664286Y-98112619D01*
X120950000Y-98112619D02*
X120950000Y-97112619D01*
X120950000Y-97112619D02*
X120854762Y-97255476D01*
X120854762Y-97255476D02*
X120759524Y-97350714D01*
X120759524Y-97350714D02*
X120664286Y-97398333D01*
%TO.C,J3*%
X127666666Y-90462619D02*
X127666666Y-91176904D01*
X127666666Y-91176904D02*
X127619047Y-91319761D01*
X127619047Y-91319761D02*
X127523809Y-91415000D01*
X127523809Y-91415000D02*
X127380952Y-91462619D01*
X127380952Y-91462619D02*
X127285714Y-91462619D01*
X128047619Y-90462619D02*
X128666666Y-90462619D01*
X128666666Y-90462619D02*
X128333333Y-90843571D01*
X128333333Y-90843571D02*
X128476190Y-90843571D01*
X128476190Y-90843571D02*
X128571428Y-90891190D01*
X128571428Y-90891190D02*
X128619047Y-90938809D01*
X128619047Y-90938809D02*
X128666666Y-91034047D01*
X128666666Y-91034047D02*
X128666666Y-91272142D01*
X128666666Y-91272142D02*
X128619047Y-91367380D01*
X128619047Y-91367380D02*
X128571428Y-91415000D01*
X128571428Y-91415000D02*
X128476190Y-91462619D01*
X128476190Y-91462619D02*
X128190476Y-91462619D01*
X128190476Y-91462619D02*
X128095238Y-91415000D01*
X128095238Y-91415000D02*
X128047619Y-91367380D01*
%TO.C,J1*%
X115666666Y-83462619D02*
X115666666Y-84176904D01*
X115666666Y-84176904D02*
X115619047Y-84319761D01*
X115619047Y-84319761D02*
X115523809Y-84415000D01*
X115523809Y-84415000D02*
X115380952Y-84462619D01*
X115380952Y-84462619D02*
X115285714Y-84462619D01*
X116666666Y-84462619D02*
X116095238Y-84462619D01*
X116380952Y-84462619D02*
X116380952Y-83462619D01*
X116380952Y-83462619D02*
X116285714Y-83605476D01*
X116285714Y-83605476D02*
X116190476Y-83700714D01*
X116190476Y-83700714D02*
X116095238Y-83748333D01*
%TO.C,C2*%
X124833333Y-100847380D02*
X124785714Y-100895000D01*
X124785714Y-100895000D02*
X124642857Y-100942619D01*
X124642857Y-100942619D02*
X124547619Y-100942619D01*
X124547619Y-100942619D02*
X124404762Y-100895000D01*
X124404762Y-100895000D02*
X124309524Y-100799761D01*
X124309524Y-100799761D02*
X124261905Y-100704523D01*
X124261905Y-100704523D02*
X124214286Y-100514047D01*
X124214286Y-100514047D02*
X124214286Y-100371190D01*
X124214286Y-100371190D02*
X124261905Y-100180714D01*
X124261905Y-100180714D02*
X124309524Y-100085476D01*
X124309524Y-100085476D02*
X124404762Y-99990238D01*
X124404762Y-99990238D02*
X124547619Y-99942619D01*
X124547619Y-99942619D02*
X124642857Y-99942619D01*
X124642857Y-99942619D02*
X124785714Y-99990238D01*
X124785714Y-99990238D02*
X124833333Y-100037857D01*
X125214286Y-100037857D02*
X125261905Y-99990238D01*
X125261905Y-99990238D02*
X125357143Y-99942619D01*
X125357143Y-99942619D02*
X125595238Y-99942619D01*
X125595238Y-99942619D02*
X125690476Y-99990238D01*
X125690476Y-99990238D02*
X125738095Y-100037857D01*
X125738095Y-100037857D02*
X125785714Y-100133095D01*
X125785714Y-100133095D02*
X125785714Y-100228333D01*
X125785714Y-100228333D02*
X125738095Y-100371190D01*
X125738095Y-100371190D02*
X125166667Y-100942619D01*
X125166667Y-100942619D02*
X125785714Y-100942619D01*
%TO.C,C1*%
X120093333Y-100667380D02*
X120045714Y-100715000D01*
X120045714Y-100715000D02*
X119902857Y-100762619D01*
X119902857Y-100762619D02*
X119807619Y-100762619D01*
X119807619Y-100762619D02*
X119664762Y-100715000D01*
X119664762Y-100715000D02*
X119569524Y-100619761D01*
X119569524Y-100619761D02*
X119521905Y-100524523D01*
X119521905Y-100524523D02*
X119474286Y-100334047D01*
X119474286Y-100334047D02*
X119474286Y-100191190D01*
X119474286Y-100191190D02*
X119521905Y-100000714D01*
X119521905Y-100000714D02*
X119569524Y-99905476D01*
X119569524Y-99905476D02*
X119664762Y-99810238D01*
X119664762Y-99810238D02*
X119807619Y-99762619D01*
X119807619Y-99762619D02*
X119902857Y-99762619D01*
X119902857Y-99762619D02*
X120045714Y-99810238D01*
X120045714Y-99810238D02*
X120093333Y-99857857D01*
X121045714Y-100762619D02*
X120474286Y-100762619D01*
X120760000Y-100762619D02*
X120760000Y-99762619D01*
X120760000Y-99762619D02*
X120664762Y-99905476D01*
X120664762Y-99905476D02*
X120569524Y-100000714D01*
X120569524Y-100000714D02*
X120474286Y-100048333D01*
%TO.C,REF\u002A\u002A*%
D12*
X128506873Y-117746400D02*
X128514299Y-117874422D01*
X128520118Y-118068985D01*
X128523859Y-118314702D01*
X128525058Y-118572426D01*
X128525058Y-119444545D01*
X128371075Y-119598528D01*
X128264963Y-119693412D01*
X128171816Y-119731845D01*
X128044504Y-119729413D01*
X127993968Y-119723223D01*
X127836017Y-119705210D01*
X127705371Y-119694888D01*
X127673525Y-119693935D01*
X127566166Y-119700171D01*
X127412619Y-119715824D01*
X127353083Y-119723223D01*
X127206857Y-119734668D01*
X127108589Y-119709808D01*
X127011150Y-119633058D01*
X126975976Y-119598528D01*
X126821993Y-119444545D01*
X126821993Y-117813246D01*
X126945930Y-117756776D01*
X127052650Y-117714950D01*
X127115087Y-117700307D01*
X127131096Y-117746583D01*
X127146058Y-117875884D01*
X127158978Y-118073914D01*
X127168857Y-118326380D01*
X127173622Y-118539675D01*
X127186935Y-119379042D01*
X127303080Y-119395464D01*
X127408716Y-119383982D01*
X127460477Y-119346805D01*
X127474945Y-119277298D01*
X127487298Y-119129240D01*
X127496552Y-118921391D01*
X127501728Y-118672512D01*
X127502474Y-118544435D01*
X127503219Y-117807145D01*
X127656457Y-117753726D01*
X127764916Y-117717406D01*
X127823913Y-117700468D01*
X127825614Y-117700307D01*
X127831533Y-117746349D01*
X127838039Y-117874018D01*
X127844586Y-118067632D01*
X127850627Y-118311507D01*
X127854848Y-118539675D01*
X127868161Y-119379042D01*
X128160115Y-119379042D01*
X128173513Y-118613275D01*
X128186910Y-117847508D01*
X128329238Y-117773908D01*
X128434322Y-117723366D01*
X128496517Y-117700431D01*
X128498312Y-117700307D01*
X128506873Y-117746400D01*
G36*
X128506873Y-117746400D02*
G01*
X128514299Y-117874422D01*
X128520118Y-118068985D01*
X128523859Y-118314702D01*
X128525058Y-118572426D01*
X128525058Y-119444545D01*
X128371075Y-119598528D01*
X128264963Y-119693412D01*
X128171816Y-119731845D01*
X128044504Y-119729413D01*
X127993968Y-119723223D01*
X127836017Y-119705210D01*
X127705371Y-119694888D01*
X127673525Y-119693935D01*
X127566166Y-119700171D01*
X127412619Y-119715824D01*
X127353083Y-119723223D01*
X127206857Y-119734668D01*
X127108589Y-119709808D01*
X127011150Y-119633058D01*
X126975976Y-119598528D01*
X126821993Y-119444545D01*
X126821993Y-117813246D01*
X126945930Y-117756776D01*
X127052650Y-117714950D01*
X127115087Y-117700307D01*
X127131096Y-117746583D01*
X127146058Y-117875884D01*
X127158978Y-118073914D01*
X127168857Y-118326380D01*
X127173622Y-118539675D01*
X127186935Y-119379042D01*
X127303080Y-119395464D01*
X127408716Y-119383982D01*
X127460477Y-119346805D01*
X127474945Y-119277298D01*
X127487298Y-119129240D01*
X127496552Y-118921391D01*
X127501728Y-118672512D01*
X127502474Y-118544435D01*
X127503219Y-117807145D01*
X127656457Y-117753726D01*
X127764916Y-117717406D01*
X127823913Y-117700468D01*
X127825614Y-117700307D01*
X127831533Y-117746349D01*
X127838039Y-117874018D01*
X127844586Y-118067632D01*
X127850627Y-118311507D01*
X127854848Y-118539675D01*
X127868161Y-119379042D01*
X128160115Y-119379042D01*
X128173513Y-118613275D01*
X128186910Y-117847508D01*
X128329238Y-117773908D01*
X128434322Y-117723366D01*
X128496517Y-117700431D01*
X128498312Y-117700307D01*
X128506873Y-117746400D01*
G37*
X129730678Y-117738594D02*
X129870782Y-117802323D01*
X129980750Y-117879543D01*
X130061324Y-117965887D01*
X130116954Y-118077272D01*
X130152089Y-118229616D01*
X130171179Y-118438835D01*
X130178672Y-118720846D01*
X130179464Y-118906555D01*
X130179464Y-119631046D01*
X130055527Y-119687515D01*
X129957910Y-119728787D01*
X129909550Y-119743985D01*
X129900298Y-119698762D01*
X129892958Y-119576824D01*
X129888464Y-119398772D01*
X129887510Y-119257395D01*
X129883410Y-119053146D01*
X129872354Y-118891113D01*
X129856211Y-118791891D01*
X129843387Y-118770805D01*
X129757186Y-118792338D01*
X129621862Y-118847566D01*
X129465170Y-118922436D01*
X129314863Y-119002892D01*
X129198693Y-119074880D01*
X129144413Y-119124346D01*
X129144198Y-119124881D01*
X129148867Y-119216428D01*
X129190732Y-119303820D01*
X129264235Y-119374802D01*
X129371516Y-119398543D01*
X129463202Y-119395777D01*
X129593058Y-119393741D01*
X129661221Y-119424164D01*
X129702159Y-119504543D01*
X129707321Y-119519700D01*
X129725067Y-119634331D01*
X129677609Y-119703934D01*
X129553907Y-119737105D01*
X129420281Y-119743240D01*
X129179817Y-119697763D01*
X129055338Y-119632817D01*
X128901605Y-119480246D01*
X128820073Y-119292971D01*
X128812756Y-119095085D01*
X128881669Y-118910685D01*
X128985328Y-118795134D01*
X129088823Y-118730442D01*
X129251492Y-118648542D01*
X129441054Y-118565486D01*
X129472650Y-118552795D01*
X129680869Y-118460908D01*
X129800898Y-118379923D01*
X129839501Y-118299413D01*
X129803440Y-118208950D01*
X129741533Y-118138238D01*
X129595213Y-118051170D01*
X129434217Y-118044640D01*
X129286573Y-118111735D01*
X129180310Y-118245544D01*
X129166362Y-118280067D01*
X129085160Y-118407042D01*
X128966608Y-118501309D01*
X128817012Y-118578668D01*
X128817012Y-118359307D01*
X128825817Y-118225280D01*
X128863570Y-118119644D01*
X128947279Y-118006939D01*
X129027636Y-117920127D01*
X129152591Y-117797204D01*
X129249677Y-117731171D01*
X129353954Y-117704684D01*
X129471989Y-117700307D01*
X129730678Y-117738594D01*
G36*
X129730678Y-117738594D02*
G01*
X129870782Y-117802323D01*
X129980750Y-117879543D01*
X130061324Y-117965887D01*
X130116954Y-118077272D01*
X130152089Y-118229616D01*
X130171179Y-118438835D01*
X130178672Y-118720846D01*
X130179464Y-118906555D01*
X130179464Y-119631046D01*
X130055527Y-119687515D01*
X129957910Y-119728787D01*
X129909550Y-119743985D01*
X129900298Y-119698762D01*
X129892958Y-119576824D01*
X129888464Y-119398772D01*
X129887510Y-119257395D01*
X129883410Y-119053146D01*
X129872354Y-118891113D01*
X129856211Y-118791891D01*
X129843387Y-118770805D01*
X129757186Y-118792338D01*
X129621862Y-118847566D01*
X129465170Y-118922436D01*
X129314863Y-119002892D01*
X129198693Y-119074880D01*
X129144413Y-119124346D01*
X129144198Y-119124881D01*
X129148867Y-119216428D01*
X129190732Y-119303820D01*
X129264235Y-119374802D01*
X129371516Y-119398543D01*
X129463202Y-119395777D01*
X129593058Y-119393741D01*
X129661221Y-119424164D01*
X129702159Y-119504543D01*
X129707321Y-119519700D01*
X129725067Y-119634331D01*
X129677609Y-119703934D01*
X129553907Y-119737105D01*
X129420281Y-119743240D01*
X129179817Y-119697763D01*
X129055338Y-119632817D01*
X128901605Y-119480246D01*
X128820073Y-119292971D01*
X128812756Y-119095085D01*
X128881669Y-118910685D01*
X128985328Y-118795134D01*
X129088823Y-118730442D01*
X129251492Y-118648542D01*
X129441054Y-118565486D01*
X129472650Y-118552795D01*
X129680869Y-118460908D01*
X129800898Y-118379923D01*
X129839501Y-118299413D01*
X129803440Y-118208950D01*
X129741533Y-118138238D01*
X129595213Y-118051170D01*
X129434217Y-118044640D01*
X129286573Y-118111735D01*
X129180310Y-118245544D01*
X129166362Y-118280067D01*
X129085160Y-118407042D01*
X128966608Y-118501309D01*
X128817012Y-118578668D01*
X128817012Y-118359307D01*
X128825817Y-118225280D01*
X128863570Y-118119644D01*
X128947279Y-118006939D01*
X129027636Y-117920127D01*
X129152591Y-117797204D01*
X129249677Y-117731171D01*
X129353954Y-117704684D01*
X129471989Y-117700307D01*
X129730678Y-117738594D01*
G37*
X126529857Y-118104093D02*
X126529239Y-118467769D01*
X126526847Y-118747532D01*
X126521671Y-118956784D01*
X126512704Y-119108926D01*
X126498936Y-119217359D01*
X126479361Y-119295485D01*
X126452968Y-119356707D01*
X126432984Y-119391652D01*
X126267483Y-119581157D01*
X126057648Y-119699942D01*
X125825486Y-119742564D01*
X125593008Y-119703583D01*
X125454572Y-119633532D01*
X125309242Y-119512353D01*
X125210195Y-119364354D01*
X125150435Y-119170534D01*
X125122969Y-118911892D01*
X125119079Y-118722146D01*
X125119603Y-118708510D01*
X125459541Y-118708510D01*
X125461617Y-118926096D01*
X125471130Y-119070134D01*
X125493008Y-119164364D01*
X125532176Y-119232523D01*
X125578976Y-119283936D01*
X125736146Y-119383175D01*
X125904900Y-119391653D01*
X126064393Y-119308799D01*
X126076807Y-119297572D01*
X126129791Y-119239171D01*
X126163014Y-119169686D01*
X126181000Y-119066270D01*
X126188275Y-118906073D01*
X126189426Y-118728965D01*
X126186932Y-118506467D01*
X126176608Y-118358037D01*
X126154191Y-118260489D01*
X126115418Y-118190637D01*
X126083626Y-118153539D01*
X125935939Y-118059975D01*
X125765846Y-118048725D01*
X125603492Y-118120190D01*
X125572160Y-118146720D01*
X125518822Y-118205636D01*
X125485531Y-118275837D01*
X125467656Y-118380418D01*
X125460566Y-118542479D01*
X125459541Y-118708510D01*
X125119603Y-118708510D01*
X125130840Y-118416579D01*
X125170787Y-118186993D01*
X125245913Y-118014387D01*
X125363214Y-117879760D01*
X125454572Y-117810759D01*
X125620627Y-117736214D01*
X125813092Y-117701613D01*
X125991999Y-117710875D01*
X126092108Y-117748238D01*
X126131393Y-117758872D01*
X126157461Y-117719225D01*
X126175658Y-117612981D01*
X126189426Y-117451145D01*
X126204499Y-117270902D01*
X126225436Y-117162458D01*
X126263532Y-117100446D01*
X126330085Y-117059499D01*
X126371897Y-117041366D01*
X126530039Y-116975120D01*
X126529857Y-118104093D01*
G36*
X126529857Y-118104093D02*
G01*
X126529239Y-118467769D01*
X126526847Y-118747532D01*
X126521671Y-118956784D01*
X126512704Y-119108926D01*
X126498936Y-119217359D01*
X126479361Y-119295485D01*
X126452968Y-119356707D01*
X126432984Y-119391652D01*
X126267483Y-119581157D01*
X126057648Y-119699942D01*
X125825486Y-119742564D01*
X125593008Y-119703583D01*
X125454572Y-119633532D01*
X125309242Y-119512353D01*
X125210195Y-119364354D01*
X125150435Y-119170534D01*
X125122969Y-118911892D01*
X125119079Y-118722146D01*
X125119603Y-118708510D01*
X125459541Y-118708510D01*
X125461617Y-118926096D01*
X125471130Y-119070134D01*
X125493008Y-119164364D01*
X125532176Y-119232523D01*
X125578976Y-119283936D01*
X125736146Y-119383175D01*
X125904900Y-119391653D01*
X126064393Y-119308799D01*
X126076807Y-119297572D01*
X126129791Y-119239171D01*
X126163014Y-119169686D01*
X126181000Y-119066270D01*
X126188275Y-118906073D01*
X126189426Y-118728965D01*
X126186932Y-118506467D01*
X126176608Y-118358037D01*
X126154191Y-118260489D01*
X126115418Y-118190637D01*
X126083626Y-118153539D01*
X125935939Y-118059975D01*
X125765846Y-118048725D01*
X125603492Y-118120190D01*
X125572160Y-118146720D01*
X125518822Y-118205636D01*
X125485531Y-118275837D01*
X125467656Y-118380418D01*
X125460566Y-118542479D01*
X125459541Y-118708510D01*
X125119603Y-118708510D01*
X125130840Y-118416579D01*
X125170787Y-118186993D01*
X125245913Y-118014387D01*
X125363214Y-117879760D01*
X125454572Y-117810759D01*
X125620627Y-117736214D01*
X125813092Y-117701613D01*
X125991999Y-117710875D01*
X126092108Y-117748238D01*
X126131393Y-117758872D01*
X126157461Y-117719225D01*
X126175658Y-117612981D01*
X126189426Y-117451145D01*
X126204499Y-117270902D01*
X126225436Y-117162458D01*
X126263532Y-117100446D01*
X126330085Y-117059499D01*
X126371897Y-117041366D01*
X126530039Y-116975120D01*
X126529857Y-118104093D01*
G37*
X120447663Y-117386429D02*
X120461923Y-117585313D01*
X120478302Y-117702511D01*
X120500998Y-117753632D01*
X120534212Y-117754286D01*
X120544981Y-117748183D01*
X120688233Y-117703997D01*
X120874575Y-117706577D01*
X121064024Y-117751999D01*
X121182517Y-117810759D01*
X121304009Y-117904631D01*
X121392823Y-118010865D01*
X121453792Y-118145850D01*
X121491750Y-118325976D01*
X121511532Y-118567633D01*
X121517970Y-118887211D01*
X121518086Y-118948516D01*
X121518161Y-119637147D01*
X121364923Y-119690566D01*
X121256087Y-119726908D01*
X121196374Y-119743828D01*
X121194617Y-119743985D01*
X121188736Y-119698100D01*
X121183732Y-119571539D01*
X121179984Y-119380941D01*
X121177873Y-119142948D01*
X121177548Y-118998252D01*
X121176871Y-118712955D01*
X121173386Y-118508480D01*
X121164912Y-118368334D01*
X121149266Y-118276023D01*
X121124269Y-118215053D01*
X121087738Y-118168931D01*
X121064929Y-118146720D01*
X120908249Y-118057214D01*
X120737274Y-118050511D01*
X120582150Y-118126208D01*
X120553463Y-118153539D01*
X120511387Y-118204929D01*
X120482201Y-118265886D01*
X120463571Y-118354025D01*
X120453161Y-118486961D01*
X120448637Y-118682309D01*
X120447663Y-118951652D01*
X120447663Y-119637147D01*
X120294425Y-119690566D01*
X120185589Y-119726908D01*
X120125876Y-119743828D01*
X120124119Y-119743985D01*
X120119625Y-119697414D01*
X120115575Y-119566051D01*
X120112130Y-119362422D01*
X120109453Y-119099054D01*
X120107706Y-118788471D01*
X120107051Y-118443201D01*
X120107050Y-118427843D01*
X120107050Y-117111701D01*
X120423334Y-116978289D01*
X120447663Y-117386429D01*
G36*
X120447663Y-117386429D02*
G01*
X120461923Y-117585313D01*
X120478302Y-117702511D01*
X120500998Y-117753632D01*
X120534212Y-117754286D01*
X120544981Y-117748183D01*
X120688233Y-117703997D01*
X120874575Y-117706577D01*
X121064024Y-117751999D01*
X121182517Y-117810759D01*
X121304009Y-117904631D01*
X121392823Y-118010865D01*
X121453792Y-118145850D01*
X121491750Y-118325976D01*
X121511532Y-118567633D01*
X121517970Y-118887211D01*
X121518086Y-118948516D01*
X121518161Y-119637147D01*
X121364923Y-119690566D01*
X121256087Y-119726908D01*
X121196374Y-119743828D01*
X121194617Y-119743985D01*
X121188736Y-119698100D01*
X121183732Y-119571539D01*
X121179984Y-119380941D01*
X121177873Y-119142948D01*
X121177548Y-118998252D01*
X121176871Y-118712955D01*
X121173386Y-118508480D01*
X121164912Y-118368334D01*
X121149266Y-118276023D01*
X121124269Y-118215053D01*
X121087738Y-118168931D01*
X121064929Y-118146720D01*
X120908249Y-118057214D01*
X120737274Y-118050511D01*
X120582150Y-118126208D01*
X120553463Y-118153539D01*
X120511387Y-118204929D01*
X120482201Y-118265886D01*
X120463571Y-118354025D01*
X120453161Y-118486961D01*
X120448637Y-118682309D01*
X120447663Y-118951652D01*
X120447663Y-119637147D01*
X120294425Y-119690566D01*
X120185589Y-119726908D01*
X120125876Y-119743828D01*
X120124119Y-119743985D01*
X120119625Y-119697414D01*
X120115575Y-119566051D01*
X120112130Y-119362422D01*
X120109453Y-119099054D01*
X120107706Y-118788471D01*
X120107051Y-118443201D01*
X120107050Y-118427843D01*
X120107050Y-117111701D01*
X120423334Y-116978289D01*
X120447663Y-117386429D01*
G37*
X116399253Y-117654461D02*
X116591097Y-117783519D01*
X116739352Y-117969915D01*
X116827916Y-118207109D01*
X116845828Y-118381691D01*
X116843794Y-118454544D01*
X116826760Y-118510324D01*
X116779936Y-118560298D01*
X116688527Y-118615733D01*
X116537742Y-118687896D01*
X116312787Y-118788055D01*
X116311648Y-118788558D01*
X116104585Y-118883396D01*
X115934788Y-118967609D01*
X115819612Y-119032133D01*
X115776410Y-119067900D01*
X115776399Y-119068188D01*
X115814475Y-119146074D01*
X115903516Y-119231924D01*
X116005737Y-119293769D01*
X116057526Y-119306054D01*
X116198816Y-119263564D01*
X116320488Y-119157152D01*
X116379855Y-119040156D01*
X116436967Y-118953905D01*
X116548839Y-118855681D01*
X116680346Y-118770827D01*
X116796368Y-118724681D01*
X116820629Y-118722146D01*
X116847938Y-118763868D01*
X116849584Y-118870519D01*
X116829514Y-119014321D01*
X116791678Y-119167501D01*
X116740023Y-119302283D01*
X116737414Y-119307516D01*
X116581969Y-119524557D01*
X116380507Y-119672185D01*
X116151712Y-119744644D01*
X115914267Y-119736177D01*
X115686854Y-119641027D01*
X115676743Y-119634337D01*
X115497850Y-119472211D01*
X115380220Y-119260682D01*
X115315123Y-118982543D01*
X115306387Y-118904398D01*
X115290914Y-118535549D01*
X115309463Y-118363541D01*
X115776399Y-118363541D01*
X115782466Y-118470838D01*
X115815649Y-118502152D01*
X115898377Y-118478725D01*
X116028779Y-118423348D01*
X116174543Y-118353932D01*
X116178166Y-118352094D01*
X116301717Y-118287108D01*
X116351303Y-118243740D01*
X116339075Y-118198275D01*
X116287588Y-118138536D01*
X116156601Y-118052085D01*
X116015538Y-118045733D01*
X115889005Y-118108649D01*
X115801608Y-118230003D01*
X115776399Y-118363541D01*
X115309463Y-118363541D01*
X115322740Y-118240435D01*
X115404391Y-118006382D01*
X115518061Y-117842413D01*
X115723225Y-117676716D01*
X115949214Y-117594519D01*
X116179925Y-117589281D01*
X116399253Y-117654461D01*
G36*
X116399253Y-117654461D02*
G01*
X116591097Y-117783519D01*
X116739352Y-117969915D01*
X116827916Y-118207109D01*
X116845828Y-118381691D01*
X116843794Y-118454544D01*
X116826760Y-118510324D01*
X116779936Y-118560298D01*
X116688527Y-118615733D01*
X116537742Y-118687896D01*
X116312787Y-118788055D01*
X116311648Y-118788558D01*
X116104585Y-118883396D01*
X115934788Y-118967609D01*
X115819612Y-119032133D01*
X115776410Y-119067900D01*
X115776399Y-119068188D01*
X115814475Y-119146074D01*
X115903516Y-119231924D01*
X116005737Y-119293769D01*
X116057526Y-119306054D01*
X116198816Y-119263564D01*
X116320488Y-119157152D01*
X116379855Y-119040156D01*
X116436967Y-118953905D01*
X116548839Y-118855681D01*
X116680346Y-118770827D01*
X116796368Y-118724681D01*
X116820629Y-118722146D01*
X116847938Y-118763868D01*
X116849584Y-118870519D01*
X116829514Y-119014321D01*
X116791678Y-119167501D01*
X116740023Y-119302283D01*
X116737414Y-119307516D01*
X116581969Y-119524557D01*
X116380507Y-119672185D01*
X116151712Y-119744644D01*
X115914267Y-119736177D01*
X115686854Y-119641027D01*
X115676743Y-119634337D01*
X115497850Y-119472211D01*
X115380220Y-119260682D01*
X115315123Y-118982543D01*
X115306387Y-118904398D01*
X115290914Y-118535549D01*
X115309463Y-118363541D01*
X115776399Y-118363541D01*
X115782466Y-118470838D01*
X115815649Y-118502152D01*
X115898377Y-118478725D01*
X116028779Y-118423348D01*
X116174543Y-118353932D01*
X116178166Y-118352094D01*
X116301717Y-118287108D01*
X116351303Y-118243740D01*
X116339075Y-118198275D01*
X116287588Y-118138536D01*
X116156601Y-118052085D01*
X116015538Y-118045733D01*
X115889005Y-118108649D01*
X115801608Y-118230003D01*
X115776399Y-118363541D01*
X115309463Y-118363541D01*
X115322740Y-118240435D01*
X115404391Y-118006382D01*
X115518061Y-117842413D01*
X115723225Y-117676716D01*
X115949214Y-117594519D01*
X116179925Y-117589281D01*
X116399253Y-117654461D01*
G37*
X118235716Y-117642865D02*
X118391872Y-117733190D01*
X118500441Y-117822845D01*
X118579845Y-117916776D01*
X118634546Y-118031646D01*
X118669010Y-118184114D01*
X118687701Y-118390844D01*
X118695081Y-118668496D01*
X118695939Y-118868086D01*
X118695939Y-119602766D01*
X118489138Y-119695472D01*
X118282338Y-119788179D01*
X118258008Y-118983492D01*
X118247955Y-118682966D01*
X118237409Y-118464835D01*
X118224343Y-118314186D01*
X118206729Y-118216107D01*
X118182539Y-118155688D01*
X118149746Y-118118016D01*
X118139225Y-118109862D01*
X117979813Y-118046178D01*
X117818679Y-118071378D01*
X117722759Y-118138238D01*
X117683741Y-118185616D01*
X117656733Y-118247787D01*
X117639568Y-118342039D01*
X117630082Y-118485657D01*
X117626107Y-118695931D01*
X117625441Y-118915070D01*
X117625310Y-119189999D01*
X117620603Y-119384602D01*
X117604846Y-119515851D01*
X117571567Y-119600718D01*
X117514293Y-119656177D01*
X117426553Y-119699201D01*
X117309362Y-119743907D01*
X117181368Y-119792571D01*
X117196604Y-118928910D01*
X117202739Y-118617565D01*
X117209918Y-118387483D01*
X117220205Y-118222614D01*
X117235670Y-118106909D01*
X117258379Y-118024316D01*
X117290399Y-117958788D01*
X117329003Y-117900974D01*
X117515253Y-117716283D01*
X117742521Y-117609481D01*
X117989709Y-117583898D01*
X118235716Y-117642865D01*
G36*
X118235716Y-117642865D02*
G01*
X118391872Y-117733190D01*
X118500441Y-117822845D01*
X118579845Y-117916776D01*
X118634546Y-118031646D01*
X118669010Y-118184114D01*
X118687701Y-118390844D01*
X118695081Y-118668496D01*
X118695939Y-118868086D01*
X118695939Y-119602766D01*
X118489138Y-119695472D01*
X118282338Y-119788179D01*
X118258008Y-118983492D01*
X118247955Y-118682966D01*
X118237409Y-118464835D01*
X118224343Y-118314186D01*
X118206729Y-118216107D01*
X118182539Y-118155688D01*
X118149746Y-118118016D01*
X118139225Y-118109862D01*
X117979813Y-118046178D01*
X117818679Y-118071378D01*
X117722759Y-118138238D01*
X117683741Y-118185616D01*
X117656733Y-118247787D01*
X117639568Y-118342039D01*
X117630082Y-118485657D01*
X117626107Y-118695931D01*
X117625441Y-118915070D01*
X117625310Y-119189999D01*
X117620603Y-119384602D01*
X117604846Y-119515851D01*
X117571567Y-119600718D01*
X117514293Y-119656177D01*
X117426553Y-119699201D01*
X117309362Y-119743907D01*
X117181368Y-119792571D01*
X117196604Y-118928910D01*
X117202739Y-118617565D01*
X117209918Y-118387483D01*
X117220205Y-118222614D01*
X117235670Y-118106909D01*
X117258379Y-118024316D01*
X117290399Y-117958788D01*
X117329003Y-117900974D01*
X117515253Y-117716283D01*
X117742521Y-117609481D01*
X117989709Y-117583898D01*
X118235716Y-117642865D01*
G37*
X114493166Y-117616506D02*
X114679084Y-117709204D01*
X114843180Y-117879885D01*
X114888372Y-117943107D01*
X114937604Y-118025834D01*
X114969547Y-118115687D01*
X114987822Y-118235608D01*
X114996048Y-118408537D01*
X114997855Y-118636835D01*
X114989697Y-118949693D01*
X114961341Y-119184598D01*
X114906962Y-119359847D01*
X114820737Y-119493738D01*
X114696841Y-119604569D01*
X114687737Y-119611131D01*
X114565634Y-119678256D01*
X114418600Y-119711467D01*
X114231604Y-119719655D01*
X113927613Y-119719655D01*
X113927485Y-120014762D01*
X113924656Y-120179117D01*
X113907418Y-120275523D01*
X113862370Y-120333343D01*
X113776114Y-120381941D01*
X113755399Y-120391869D01*
X113658462Y-120438398D01*
X113583407Y-120467786D01*
X113527598Y-120470324D01*
X113488397Y-120436302D01*
X113463168Y-120356012D01*
X113449272Y-120219743D01*
X113444073Y-120017787D01*
X113444934Y-119740434D01*
X113449216Y-119377976D01*
X113450553Y-119269560D01*
X113455371Y-118895837D01*
X113459687Y-118651369D01*
X113927357Y-118651369D01*
X113929985Y-118858877D01*
X113941667Y-118994645D01*
X113968097Y-119084192D01*
X114014969Y-119153039D01*
X114046793Y-119186618D01*
X114176892Y-119284869D01*
X114292079Y-119292866D01*
X114410934Y-119211730D01*
X114413947Y-119208736D01*
X114462305Y-119146030D01*
X114491722Y-119060808D01*
X114506560Y-118929564D01*
X114511181Y-118728793D01*
X114511265Y-118684314D01*
X114500098Y-118407639D01*
X114463747Y-118215842D01*
X114397941Y-118098757D01*
X114298407Y-118046215D01*
X114240881Y-118040920D01*
X114104351Y-118065767D01*
X114010702Y-118147581D01*
X113954330Y-118297270D01*
X113929633Y-118525743D01*
X113927357Y-118651369D01*
X113459687Y-118651369D01*
X113460478Y-118606587D01*
X113467078Y-118388970D01*
X113476377Y-118230146D01*
X113489577Y-118117274D01*
X113507885Y-118037513D01*
X113532503Y-117978023D01*
X113564637Y-117925963D01*
X113578415Y-117906373D01*
X113761188Y-117721328D01*
X113992276Y-117616412D01*
X114259590Y-117587163D01*
X114493166Y-117616506D01*
G36*
X114493166Y-117616506D02*
G01*
X114679084Y-117709204D01*
X114843180Y-117879885D01*
X114888372Y-117943107D01*
X114937604Y-118025834D01*
X114969547Y-118115687D01*
X114987822Y-118235608D01*
X114996048Y-118408537D01*
X114997855Y-118636835D01*
X114989697Y-118949693D01*
X114961341Y-119184598D01*
X114906962Y-119359847D01*
X114820737Y-119493738D01*
X114696841Y-119604569D01*
X114687737Y-119611131D01*
X114565634Y-119678256D01*
X114418600Y-119711467D01*
X114231604Y-119719655D01*
X113927613Y-119719655D01*
X113927485Y-120014762D01*
X113924656Y-120179117D01*
X113907418Y-120275523D01*
X113862370Y-120333343D01*
X113776114Y-120381941D01*
X113755399Y-120391869D01*
X113658462Y-120438398D01*
X113583407Y-120467786D01*
X113527598Y-120470324D01*
X113488397Y-120436302D01*
X113463168Y-120356012D01*
X113449272Y-120219743D01*
X113444073Y-120017787D01*
X113444934Y-119740434D01*
X113449216Y-119377976D01*
X113450553Y-119269560D01*
X113455371Y-118895837D01*
X113459687Y-118651369D01*
X113927357Y-118651369D01*
X113929985Y-118858877D01*
X113941667Y-118994645D01*
X113968097Y-119084192D01*
X114014969Y-119153039D01*
X114046793Y-119186618D01*
X114176892Y-119284869D01*
X114292079Y-119292866D01*
X114410934Y-119211730D01*
X114413947Y-119208736D01*
X114462305Y-119146030D01*
X114491722Y-119060808D01*
X114506560Y-118929564D01*
X114511181Y-118728793D01*
X114511265Y-118684314D01*
X114500098Y-118407639D01*
X114463747Y-118215842D01*
X114397941Y-118098757D01*
X114298407Y-118046215D01*
X114240881Y-118040920D01*
X114104351Y-118065767D01*
X114010702Y-118147581D01*
X113954330Y-118297270D01*
X113929633Y-118525743D01*
X113927357Y-118651369D01*
X113459687Y-118651369D01*
X113460478Y-118606587D01*
X113467078Y-118388970D01*
X113476377Y-118230146D01*
X113489577Y-118117274D01*
X113507885Y-118037513D01*
X113532503Y-117978023D01*
X113564637Y-117925963D01*
X113578415Y-117906373D01*
X113761188Y-117721328D01*
X113992276Y-117616412D01*
X114259590Y-117587163D01*
X114493166Y-117616506D01*
G37*
X124316572Y-117716534D02*
X124537609Y-117798099D01*
X124716683Y-117942366D01*
X124786720Y-118043920D01*
X124863071Y-118230268D01*
X124861485Y-118365010D01*
X124781347Y-118455631D01*
X124751696Y-118471040D01*
X124623674Y-118519084D01*
X124558294Y-118506776D01*
X124536148Y-118426098D01*
X124535020Y-118381533D01*
X124494477Y-118217581D01*
X124388802Y-118102891D01*
X124241924Y-118047497D01*
X124077773Y-118061435D01*
X123944337Y-118133827D01*
X123899269Y-118175120D01*
X123867323Y-118225216D01*
X123845744Y-118300942D01*
X123831773Y-118419128D01*
X123822655Y-118596600D01*
X123815631Y-118850186D01*
X123813812Y-118930479D01*
X123807178Y-119205158D01*
X123799636Y-119398481D01*
X123788325Y-119526388D01*
X123770385Y-119604822D01*
X123742955Y-119649725D01*
X123703177Y-119677038D01*
X123677710Y-119689105D01*
X123569556Y-119730367D01*
X123505890Y-119743985D01*
X123484854Y-119698505D01*
X123472013Y-119561006D01*
X123467300Y-119329902D01*
X123470644Y-119003604D01*
X123471686Y-118953276D01*
X123479035Y-118655581D01*
X123487726Y-118438205D01*
X123500092Y-118284153D01*
X123518470Y-118176430D01*
X123545195Y-118098042D01*
X123582602Y-118031994D01*
X123602170Y-118003691D01*
X123714366Y-117878467D01*
X123839850Y-117781063D01*
X123855213Y-117772561D01*
X124080223Y-117705433D01*
X124316572Y-117716534D01*
G36*
X124316572Y-117716534D02*
G01*
X124537609Y-117798099D01*
X124716683Y-117942366D01*
X124786720Y-118043920D01*
X124863071Y-118230268D01*
X124861485Y-118365010D01*
X124781347Y-118455631D01*
X124751696Y-118471040D01*
X124623674Y-118519084D01*
X124558294Y-118506776D01*
X124536148Y-118426098D01*
X124535020Y-118381533D01*
X124494477Y-118217581D01*
X124388802Y-118102891D01*
X124241924Y-118047497D01*
X124077773Y-118061435D01*
X123944337Y-118133827D01*
X123899269Y-118175120D01*
X123867323Y-118225216D01*
X123845744Y-118300942D01*
X123831773Y-118419128D01*
X123822655Y-118596600D01*
X123815631Y-118850186D01*
X123813812Y-118930479D01*
X123807178Y-119205158D01*
X123799636Y-119398481D01*
X123788325Y-119526388D01*
X123770385Y-119604822D01*
X123742955Y-119649725D01*
X123703177Y-119677038D01*
X123677710Y-119689105D01*
X123569556Y-119730367D01*
X123505890Y-119743985D01*
X123484854Y-119698505D01*
X123472013Y-119561006D01*
X123467300Y-119329902D01*
X123470644Y-119003604D01*
X123471686Y-118953276D01*
X123479035Y-118655581D01*
X123487726Y-118438205D01*
X123500092Y-118284153D01*
X123518470Y-118176430D01*
X123545195Y-118098042D01*
X123582602Y-118031994D01*
X123602170Y-118003691D01*
X123714366Y-117878467D01*
X123839850Y-117781063D01*
X123855213Y-117772561D01*
X124080223Y-117705433D01*
X124316572Y-117716534D01*
G37*
X131432816Y-117746697D02*
X131490976Y-117772116D01*
X131629795Y-117882059D01*
X131748505Y-118041030D01*
X131821921Y-118210677D01*
X131833870Y-118294313D01*
X131793809Y-118411078D01*
X131705935Y-118472862D01*
X131611718Y-118510273D01*
X131568577Y-118517167D01*
X131547571Y-118467138D01*
X131506090Y-118358269D01*
X131487892Y-118309076D01*
X131385848Y-118138913D01*
X131238103Y-118054038D01*
X131048655Y-118056648D01*
X131034623Y-118059991D01*
X130933481Y-118107945D01*
X130859124Y-118201432D01*
X130808338Y-118351939D01*
X130777908Y-118570951D01*
X130764618Y-118869956D01*
X130763372Y-119029056D01*
X130762754Y-119279855D01*
X130758705Y-119450825D01*
X130747933Y-119559454D01*
X130727147Y-119623230D01*
X130693055Y-119659643D01*
X130642365Y-119686179D01*
X130639435Y-119687515D01*
X130541818Y-119728787D01*
X130493458Y-119743985D01*
X130486027Y-119698037D01*
X130479666Y-119571034D01*
X130474832Y-119379235D01*
X130471985Y-119138902D01*
X130471418Y-118963024D01*
X130474313Y-118622688D01*
X130485637Y-118364495D01*
X130509346Y-118173374D01*
X130549397Y-118034253D01*
X130609747Y-117932060D01*
X130694353Y-117851724D01*
X130777899Y-117795655D01*
X130978791Y-117721032D01*
X131212596Y-117704202D01*
X131432816Y-117746697D01*
G36*
X131432816Y-117746697D02*
G01*
X131490976Y-117772116D01*
X131629795Y-117882059D01*
X131748505Y-118041030D01*
X131821921Y-118210677D01*
X131833870Y-118294313D01*
X131793809Y-118411078D01*
X131705935Y-118472862D01*
X131611718Y-118510273D01*
X131568577Y-118517167D01*
X131547571Y-118467138D01*
X131506090Y-118358269D01*
X131487892Y-118309076D01*
X131385848Y-118138913D01*
X131238103Y-118054038D01*
X131048655Y-118056648D01*
X131034623Y-118059991D01*
X130933481Y-118107945D01*
X130859124Y-118201432D01*
X130808338Y-118351939D01*
X130777908Y-118570951D01*
X130764618Y-118869956D01*
X130763372Y-119029056D01*
X130762754Y-119279855D01*
X130758705Y-119450825D01*
X130747933Y-119559454D01*
X130727147Y-119623230D01*
X130693055Y-119659643D01*
X130642365Y-119686179D01*
X130639435Y-119687515D01*
X130541818Y-119728787D01*
X130493458Y-119743985D01*
X130486027Y-119698037D01*
X130479666Y-119571034D01*
X130474832Y-119379235D01*
X130471985Y-119138902D01*
X130471418Y-118963024D01*
X130474313Y-118622688D01*
X130485637Y-118364495D01*
X130509346Y-118173374D01*
X130549397Y-118034253D01*
X130609747Y-117932060D01*
X130694353Y-117851724D01*
X130777899Y-117795655D01*
X130978791Y-117721032D01*
X131212596Y-117704202D01*
X131432816Y-117746697D01*
G37*
X112620368Y-117623358D02*
X112848436Y-117743280D01*
X113016752Y-117936278D01*
X113076541Y-118060355D01*
X113123066Y-118246653D01*
X113146882Y-118482045D01*
X113149140Y-118738952D01*
X113130992Y-118989799D01*
X113093589Y-119207009D01*
X113038084Y-119363005D01*
X113021025Y-119389871D01*
X112818970Y-119590415D01*
X112578978Y-119710529D01*
X112318566Y-119745680D01*
X112055247Y-119691337D01*
X111981967Y-119658756D01*
X111839261Y-119558353D01*
X111714014Y-119425225D01*
X111702177Y-119408341D01*
X111654065Y-119326969D01*
X111622262Y-119239984D01*
X111603474Y-119125475D01*
X111594408Y-118961530D01*
X111591771Y-118726240D01*
X111591725Y-118673487D01*
X111591846Y-118656699D01*
X112078315Y-118656699D01*
X112081146Y-118878761D01*
X112092288Y-119026123D01*
X112115709Y-119121308D01*
X112155381Y-119186837D01*
X112175633Y-119208736D01*
X112292060Y-119291953D01*
X112405098Y-119288158D01*
X112519391Y-119215973D01*
X112587559Y-119138911D01*
X112627930Y-119026429D01*
X112650602Y-118849055D01*
X112652157Y-118828367D01*
X112656027Y-118506911D01*
X112615583Y-118268167D01*
X112531374Y-118113600D01*
X112403947Y-118044678D01*
X112358460Y-118040920D01*
X112239019Y-118059821D01*
X112157317Y-118125306D01*
X112107363Y-118250544D01*
X112083166Y-118448704D01*
X112078315Y-118656699D01*
X111591846Y-118656699D01*
X111593537Y-118422765D01*
X111601147Y-118247582D01*
X111617814Y-118126191D01*
X111646799Y-118036847D01*
X111691360Y-117957803D01*
X111701207Y-117943107D01*
X111866720Y-117745011D01*
X112047070Y-117630014D01*
X112266635Y-117584365D01*
X112341195Y-117582135D01*
X112620368Y-117623358D01*
G36*
X112620368Y-117623358D02*
G01*
X112848436Y-117743280D01*
X113016752Y-117936278D01*
X113076541Y-118060355D01*
X113123066Y-118246653D01*
X113146882Y-118482045D01*
X113149140Y-118738952D01*
X113130992Y-118989799D01*
X113093589Y-119207009D01*
X113038084Y-119363005D01*
X113021025Y-119389871D01*
X112818970Y-119590415D01*
X112578978Y-119710529D01*
X112318566Y-119745680D01*
X112055247Y-119691337D01*
X111981967Y-119658756D01*
X111839261Y-119558353D01*
X111714014Y-119425225D01*
X111702177Y-119408341D01*
X111654065Y-119326969D01*
X111622262Y-119239984D01*
X111603474Y-119125475D01*
X111594408Y-118961530D01*
X111591771Y-118726240D01*
X111591725Y-118673487D01*
X111591846Y-118656699D01*
X112078315Y-118656699D01*
X112081146Y-118878761D01*
X112092288Y-119026123D01*
X112115709Y-119121308D01*
X112155381Y-119186837D01*
X112175633Y-119208736D01*
X112292060Y-119291953D01*
X112405098Y-119288158D01*
X112519391Y-119215973D01*
X112587559Y-119138911D01*
X112627930Y-119026429D01*
X112650602Y-118849055D01*
X112652157Y-118828367D01*
X112656027Y-118506911D01*
X112615583Y-118268167D01*
X112531374Y-118113600D01*
X112403947Y-118044678D01*
X112358460Y-118040920D01*
X112239019Y-118059821D01*
X112157317Y-118125306D01*
X112107363Y-118250544D01*
X112083166Y-118448704D01*
X112078315Y-118656699D01*
X111591846Y-118656699D01*
X111593537Y-118422765D01*
X111601147Y-118247582D01*
X111617814Y-118126191D01*
X111646799Y-118036847D01*
X111691360Y-117957803D01*
X111701207Y-117943107D01*
X111866720Y-117745011D01*
X112047070Y-117630014D01*
X112266635Y-117584365D01*
X112341195Y-117582135D01*
X112620368Y-117623358D01*
G37*
X133112399Y-117774233D02*
X133304917Y-117900057D01*
X133397774Y-118012696D01*
X133471340Y-118217092D01*
X133477183Y-118378830D01*
X133463947Y-118595094D01*
X132965192Y-118813398D01*
X132722685Y-118924930D01*
X132564229Y-119014650D01*
X132481836Y-119092361D01*
X132467518Y-119167867D01*
X132513287Y-119250971D01*
X132563755Y-119306054D01*
X132710605Y-119394389D01*
X132870328Y-119400579D01*
X133017020Y-119331735D01*
X133124781Y-119194972D01*
X133144055Y-119146680D01*
X133236376Y-118995848D01*
X133342588Y-118931567D01*
X133488276Y-118876576D01*
X133488276Y-119085057D01*
X133475396Y-119226926D01*
X133424943Y-119346563D01*
X133319197Y-119483927D01*
X133303480Y-119501777D01*
X133185855Y-119623986D01*
X133084746Y-119689570D01*
X132958250Y-119719742D01*
X132853384Y-119729623D01*
X132665811Y-119732085D01*
X132532284Y-119700892D01*
X132448983Y-119654579D01*
X132318063Y-119552735D01*
X132227439Y-119442591D01*
X132170087Y-119304069D01*
X132138980Y-119117090D01*
X132127094Y-118861577D01*
X132126145Y-118731894D01*
X132129371Y-118576421D01*
X132423166Y-118576421D01*
X132426573Y-118659827D01*
X132435066Y-118673487D01*
X132491110Y-118654931D01*
X132611718Y-118605822D01*
X132772913Y-118536002D01*
X132806622Y-118520995D01*
X133010339Y-118417404D01*
X133122579Y-118326359D01*
X133147247Y-118241081D01*
X133088245Y-118154794D01*
X133039518Y-118116667D01*
X132863694Y-118040417D01*
X132699127Y-118053014D01*
X132561354Y-118146086D01*
X132465913Y-118311256D01*
X132435314Y-118442357D01*
X132423166Y-118576421D01*
X132129371Y-118576421D01*
X132132432Y-118428919D01*
X132155599Y-118204756D01*
X132201490Y-118041526D01*
X132275954Y-117921352D01*
X132384836Y-117826355D01*
X132432305Y-117795655D01*
X132647938Y-117715703D01*
X132884021Y-117710672D01*
X133112399Y-117774233D01*
G36*
X133112399Y-117774233D02*
G01*
X133304917Y-117900057D01*
X133397774Y-118012696D01*
X133471340Y-118217092D01*
X133477183Y-118378830D01*
X133463947Y-118595094D01*
X132965192Y-118813398D01*
X132722685Y-118924930D01*
X132564229Y-119014650D01*
X132481836Y-119092361D01*
X132467518Y-119167867D01*
X132513287Y-119250971D01*
X132563755Y-119306054D01*
X132710605Y-119394389D01*
X132870328Y-119400579D01*
X133017020Y-119331735D01*
X133124781Y-119194972D01*
X133144055Y-119146680D01*
X133236376Y-118995848D01*
X133342588Y-118931567D01*
X133488276Y-118876576D01*
X133488276Y-119085057D01*
X133475396Y-119226926D01*
X133424943Y-119346563D01*
X133319197Y-119483927D01*
X133303480Y-119501777D01*
X133185855Y-119623986D01*
X133084746Y-119689570D01*
X132958250Y-119719742D01*
X132853384Y-119729623D01*
X132665811Y-119732085D01*
X132532284Y-119700892D01*
X132448983Y-119654579D01*
X132318063Y-119552735D01*
X132227439Y-119442591D01*
X132170087Y-119304069D01*
X132138980Y-119117090D01*
X132127094Y-118861577D01*
X132126145Y-118731894D01*
X132129371Y-118576421D01*
X132423166Y-118576421D01*
X132426573Y-118659827D01*
X132435066Y-118673487D01*
X132491110Y-118654931D01*
X132611718Y-118605822D01*
X132772913Y-118536002D01*
X132806622Y-118520995D01*
X133010339Y-118417404D01*
X133122579Y-118326359D01*
X133147247Y-118241081D01*
X133088245Y-118154794D01*
X133039518Y-118116667D01*
X132863694Y-118040417D01*
X132699127Y-118053014D01*
X132561354Y-118146086D01*
X132465913Y-118311256D01*
X132435314Y-118442357D01*
X132423166Y-118576421D01*
X132129371Y-118576421D01*
X132132432Y-118428919D01*
X132155599Y-118204756D01*
X132201490Y-118041526D01*
X132275954Y-117921352D01*
X132384836Y-117826355D01*
X132432305Y-117795655D01*
X132647938Y-117715703D01*
X132884021Y-117710672D01*
X133112399Y-117774233D01*
G37*
X122888357Y-101934997D02*
X123151677Y-101936439D01*
X123342246Y-101940342D01*
X123472345Y-101947937D01*
X123554257Y-101960450D01*
X123600266Y-101979111D01*
X123622653Y-102005148D01*
X123633702Y-102039788D01*
X123634776Y-102044272D01*
X123651559Y-102125189D01*
X123682625Y-102284842D01*
X123724742Y-102506238D01*
X123774679Y-102772385D01*
X123829203Y-103066290D01*
X123831107Y-103076612D01*
X123885723Y-103364636D01*
X123936822Y-103619115D01*
X123981106Y-103824785D01*
X124015279Y-103966385D01*
X124036043Y-104028650D01*
X124037033Y-104029753D01*
X124098199Y-104060159D01*
X124224310Y-104110828D01*
X124388131Y-104170822D01*
X124389043Y-104171142D01*
X124595388Y-104248704D01*
X124838660Y-104347507D01*
X125067969Y-104446848D01*
X125078822Y-104451760D01*
X125452317Y-104621276D01*
X126279365Y-104056495D01*
X126533077Y-103884320D01*
X126762902Y-103730395D01*
X126955525Y-103603474D01*
X127097632Y-103512309D01*
X127175907Y-103465655D01*
X127183340Y-103462195D01*
X127240224Y-103477600D01*
X127346469Y-103551927D01*
X127506219Y-103688681D01*
X127723616Y-103891368D01*
X127945548Y-104107008D01*
X128159491Y-104319503D01*
X128350969Y-104513410D01*
X128508455Y-104676754D01*
X128620422Y-104797561D01*
X128675343Y-104863855D01*
X128677386Y-104867268D01*
X128683458Y-104912761D01*
X128660584Y-104987056D01*
X128603115Y-105100186D01*
X128505399Y-105262185D01*
X128361784Y-105483086D01*
X128170333Y-105767460D01*
X128000423Y-106017759D01*
X127848538Y-106242250D01*
X127723455Y-106427900D01*
X127633949Y-106561675D01*
X127588800Y-106630542D01*
X127585958Y-106635218D01*
X127591470Y-106701201D01*
X127633255Y-106829448D01*
X127702997Y-106995720D01*
X127727854Y-107048819D01*
X127836311Y-107285377D01*
X127952020Y-107553789D01*
X128046015Y-107786035D01*
X128113745Y-107958407D01*
X128167543Y-108089403D01*
X128198631Y-108157867D01*
X128202496Y-108163142D01*
X128259671Y-108171880D01*
X128394448Y-108195823D01*
X128588906Y-108231562D01*
X128825125Y-108275689D01*
X129085184Y-108324795D01*
X129351163Y-108375472D01*
X129605143Y-108424313D01*
X129829201Y-108467909D01*
X130005420Y-108502851D01*
X130115877Y-108525732D01*
X130142970Y-108532201D01*
X130170956Y-108548167D01*
X130192081Y-108584227D01*
X130207297Y-108652552D01*
X130217553Y-108765315D01*
X130223800Y-108934686D01*
X130226988Y-109172838D01*
X130228067Y-109491942D01*
X130228123Y-109622741D01*
X130228123Y-110686511D01*
X129972663Y-110736933D01*
X129830537Y-110764273D01*
X129618450Y-110804182D01*
X129362193Y-110851845D01*
X129087558Y-110902446D01*
X129011648Y-110916344D01*
X128758221Y-110965617D01*
X128537447Y-111014070D01*
X128367857Y-111057215D01*
X128267980Y-111090563D01*
X128251343Y-111100502D01*
X128210489Y-111170891D01*
X128151913Y-111307283D01*
X128086955Y-111482805D01*
X128074071Y-111520613D01*
X127988934Y-111755030D01*
X127883256Y-112019524D01*
X127779840Y-112257041D01*
X127779330Y-112258144D01*
X127607112Y-112630733D01*
X128173524Y-113463893D01*
X128739935Y-114297053D01*
X128012702Y-115025500D01*
X127792748Y-115242302D01*
X127592132Y-115433414D01*
X127422122Y-115588636D01*
X127293985Y-115697764D01*
X127218989Y-115750595D01*
X127208231Y-115753947D01*
X127145067Y-115727549D01*
X127016180Y-115654160D01*
X126835649Y-115542484D01*
X126617554Y-115401224D01*
X126381754Y-115243027D01*
X126142436Y-115081664D01*
X125929059Y-114941252D01*
X125755175Y-114830431D01*
X125634334Y-114757838D01*
X125580263Y-114732108D01*
X125514294Y-114753880D01*
X125389198Y-114811251D01*
X125230780Y-114892300D01*
X125213987Y-114901309D01*
X125000652Y-115008300D01*
X124854364Y-115060772D01*
X124763380Y-115061330D01*
X124715959Y-115012580D01*
X124715683Y-115011897D01*
X124691980Y-114954164D01*
X124635449Y-114817115D01*
X124550474Y-114611357D01*
X124441438Y-114347498D01*
X124312724Y-114036144D01*
X124168715Y-113687904D01*
X124029251Y-113350744D01*
X123875980Y-112978666D01*
X123735251Y-112633987D01*
X123611282Y-112327271D01*
X123508291Y-112069085D01*
X123430496Y-111869994D01*
X123382114Y-111740565D01*
X123367204Y-111692261D01*
X123404594Y-111636850D01*
X123502398Y-111548538D01*
X123632815Y-111451174D01*
X124004223Y-111143253D01*
X124294530Y-110790304D01*
X124500256Y-110399761D01*
X124617923Y-109979057D01*
X124644051Y-109535629D01*
X124625060Y-109330958D01*
X124521583Y-108906323D01*
X124343373Y-108531336D01*
X124101482Y-108209696D01*
X123806963Y-107945101D01*
X123470871Y-107741250D01*
X123104258Y-107601842D01*
X122718177Y-107530574D01*
X122323681Y-107531145D01*
X121931825Y-107607254D01*
X121553660Y-107762599D01*
X121200240Y-108000879D01*
X121052727Y-108135639D01*
X120769816Y-108481679D01*
X120572832Y-108859826D01*
X120460464Y-109259055D01*
X120431401Y-109668345D01*
X120484331Y-110076672D01*
X120617943Y-110473013D01*
X120830925Y-110846345D01*
X121121966Y-111185645D01*
X121447186Y-111451174D01*
X121582652Y-111552671D01*
X121678349Y-111640025D01*
X121712797Y-111692343D01*
X121694760Y-111749398D01*
X121643462Y-111885698D01*
X121563124Y-112090678D01*
X121457964Y-112353772D01*
X121332204Y-112664416D01*
X121190063Y-113012043D01*
X121050365Y-113350826D01*
X120896241Y-113723222D01*
X120753482Y-114068307D01*
X120626471Y-114375477D01*
X120519589Y-114634125D01*
X120437220Y-114833647D01*
X120383747Y-114963435D01*
X120363933Y-115011897D01*
X120317124Y-115061129D01*
X120226583Y-115060985D01*
X120080658Y-115008877D01*
X119867698Y-114902216D01*
X119866014Y-114901309D01*
X119705670Y-114818536D01*
X119576052Y-114758242D01*
X119502963Y-114732346D01*
X119499737Y-114732108D01*
X119444716Y-114758374D01*
X119323243Y-114831416D01*
X119148871Y-114942595D01*
X118935150Y-115083273D01*
X118698247Y-115243027D01*
X118457055Y-115404779D01*
X118239674Y-115545450D01*
X118060184Y-115656335D01*
X117932664Y-115728730D01*
X117871770Y-115753947D01*
X117815697Y-115720803D01*
X117702960Y-115628173D01*
X117544823Y-115486257D01*
X117352551Y-115305255D01*
X117137409Y-115095369D01*
X117067048Y-115025249D01*
X116339566Y-114296552D01*
X116893295Y-113483900D01*
X117061577Y-113234342D01*
X117209271Y-113010366D01*
X117328090Y-112824949D01*
X117409750Y-112691065D01*
X117445964Y-112621690D01*
X117447025Y-112616755D01*
X117427933Y-112551364D01*
X117376582Y-112419825D01*
X117301860Y-112244181D01*
X117249412Y-112126591D01*
X117151346Y-111901461D01*
X117058993Y-111674015D01*
X116987394Y-111481839D01*
X116967944Y-111423295D01*
X116912686Y-111266956D01*
X116858669Y-111146158D01*
X116828999Y-111100502D01*
X116763524Y-111072561D01*
X116620624Y-111032951D01*
X116418839Y-110986162D01*
X116176712Y-110936683D01*
X116068353Y-110916344D01*
X115793189Y-110865781D01*
X115529254Y-110816822D01*
X115302341Y-110774281D01*
X115138239Y-110742975D01*
X115107338Y-110736933D01*
X114851878Y-110686511D01*
X114851878Y-109622741D01*
X114852452Y-109272950D01*
X114854807Y-109008300D01*
X114859893Y-108816622D01*
X114868661Y-108685744D01*
X114882062Y-108603493D01*
X114901046Y-108557698D01*
X114926562Y-108536188D01*
X114937031Y-108532201D01*
X115000174Y-108518056D01*
X115139675Y-108489834D01*
X115337611Y-108450943D01*
X115576065Y-108404792D01*
X115837114Y-108354788D01*
X116102839Y-108304341D01*
X116355319Y-108256858D01*
X116576635Y-108215748D01*
X116748866Y-108184419D01*
X116854092Y-108166278D01*
X116877505Y-108163142D01*
X116898716Y-108121173D01*
X116945668Y-108009370D01*
X117009581Y-107848888D01*
X117033986Y-107786035D01*
X117132420Y-107543203D01*
X117248334Y-107274918D01*
X117352147Y-107048819D01*
X117428535Y-106875935D01*
X117479356Y-106733877D01*
X117496321Y-106646878D01*
X117493616Y-106635218D01*
X117457761Y-106580170D01*
X117375892Y-106457739D01*
X117256795Y-106280962D01*
X117109258Y-106062877D01*
X116942069Y-105816520D01*
X116909010Y-105767891D01*
X116715020Y-105479773D01*
X116572421Y-105260377D01*
X116475527Y-105099602D01*
X116418654Y-104987346D01*
X116396116Y-104913510D01*
X116402228Y-104867990D01*
X116402384Y-104867700D01*
X116450489Y-104807910D01*
X116556889Y-104692319D01*
X116710052Y-104532909D01*
X116898445Y-104341665D01*
X117110535Y-104130568D01*
X117134453Y-104107008D01*
X117401738Y-103848172D01*
X117608008Y-103658117D01*
X117757408Y-103533337D01*
X117854080Y-103470327D01*
X117896661Y-103462195D01*
X117958804Y-103497672D01*
X118087763Y-103579623D01*
X118270222Y-103699292D01*
X118492867Y-103847926D01*
X118742384Y-104016772D01*
X118800636Y-104056495D01*
X119627684Y-104621276D01*
X120001179Y-104451760D01*
X120228316Y-104352971D01*
X120472128Y-104253617D01*
X120681725Y-104174401D01*
X120690958Y-104171142D01*
X120854905Y-104111129D01*
X120981285Y-104060382D01*
X121042863Y-104029841D01*
X121042968Y-104029753D01*
X121062507Y-103974548D01*
X121095721Y-103838779D01*
X121139313Y-103637709D01*
X121189984Y-103386599D01*
X121244439Y-103100713D01*
X121248894Y-103076612D01*
X121303518Y-102782059D01*
X121353664Y-102514684D01*
X121396102Y-102291480D01*
X121427598Y-102129439D01*
X121444923Y-102045553D01*
X121445225Y-102044272D01*
X121455768Y-102008588D01*
X121476269Y-101981646D01*
X121519011Y-101962218D01*
X121596276Y-101949075D01*
X121720348Y-101940989D01*
X121903509Y-101936732D01*
X122158042Y-101935075D01*
X122496231Y-101934790D01*
X122540000Y-101934790D01*
X122888357Y-101934997D01*
G36*
X122888357Y-101934997D02*
G01*
X123151677Y-101936439D01*
X123342246Y-101940342D01*
X123472345Y-101947937D01*
X123554257Y-101960450D01*
X123600266Y-101979111D01*
X123622653Y-102005148D01*
X123633702Y-102039788D01*
X123634776Y-102044272D01*
X123651559Y-102125189D01*
X123682625Y-102284842D01*
X123724742Y-102506238D01*
X123774679Y-102772385D01*
X123829203Y-103066290D01*
X123831107Y-103076612D01*
X123885723Y-103364636D01*
X123936822Y-103619115D01*
X123981106Y-103824785D01*
X124015279Y-103966385D01*
X124036043Y-104028650D01*
X124037033Y-104029753D01*
X124098199Y-104060159D01*
X124224310Y-104110828D01*
X124388131Y-104170822D01*
X124389043Y-104171142D01*
X124595388Y-104248704D01*
X124838660Y-104347507D01*
X125067969Y-104446848D01*
X125078822Y-104451760D01*
X125452317Y-104621276D01*
X126279365Y-104056495D01*
X126533077Y-103884320D01*
X126762902Y-103730395D01*
X126955525Y-103603474D01*
X127097632Y-103512309D01*
X127175907Y-103465655D01*
X127183340Y-103462195D01*
X127240224Y-103477600D01*
X127346469Y-103551927D01*
X127506219Y-103688681D01*
X127723616Y-103891368D01*
X127945548Y-104107008D01*
X128159491Y-104319503D01*
X128350969Y-104513410D01*
X128508455Y-104676754D01*
X128620422Y-104797561D01*
X128675343Y-104863855D01*
X128677386Y-104867268D01*
X128683458Y-104912761D01*
X128660584Y-104987056D01*
X128603115Y-105100186D01*
X128505399Y-105262185D01*
X128361784Y-105483086D01*
X128170333Y-105767460D01*
X128000423Y-106017759D01*
X127848538Y-106242250D01*
X127723455Y-106427900D01*
X127633949Y-106561675D01*
X127588800Y-106630542D01*
X127585958Y-106635218D01*
X127591470Y-106701201D01*
X127633255Y-106829448D01*
X127702997Y-106995720D01*
X127727854Y-107048819D01*
X127836311Y-107285377D01*
X127952020Y-107553789D01*
X128046015Y-107786035D01*
X128113745Y-107958407D01*
X128167543Y-108089403D01*
X128198631Y-108157867D01*
X128202496Y-108163142D01*
X128259671Y-108171880D01*
X128394448Y-108195823D01*
X128588906Y-108231562D01*
X128825125Y-108275689D01*
X129085184Y-108324795D01*
X129351163Y-108375472D01*
X129605143Y-108424313D01*
X129829201Y-108467909D01*
X130005420Y-108502851D01*
X130115877Y-108525732D01*
X130142970Y-108532201D01*
X130170956Y-108548167D01*
X130192081Y-108584227D01*
X130207297Y-108652552D01*
X130217553Y-108765315D01*
X130223800Y-108934686D01*
X130226988Y-109172838D01*
X130228067Y-109491942D01*
X130228123Y-109622741D01*
X130228123Y-110686511D01*
X129972663Y-110736933D01*
X129830537Y-110764273D01*
X129618450Y-110804182D01*
X129362193Y-110851845D01*
X129087558Y-110902446D01*
X129011648Y-110916344D01*
X128758221Y-110965617D01*
X128537447Y-111014070D01*
X128367857Y-111057215D01*
X128267980Y-111090563D01*
X128251343Y-111100502D01*
X128210489Y-111170891D01*
X128151913Y-111307283D01*
X128086955Y-111482805D01*
X128074071Y-111520613D01*
X127988934Y-111755030D01*
X127883256Y-112019524D01*
X127779840Y-112257041D01*
X127779330Y-112258144D01*
X127607112Y-112630733D01*
X128173524Y-113463893D01*
X128739935Y-114297053D01*
X128012702Y-115025500D01*
X127792748Y-115242302D01*
X127592132Y-115433414D01*
X127422122Y-115588636D01*
X127293985Y-115697764D01*
X127218989Y-115750595D01*
X127208231Y-115753947D01*
X127145067Y-115727549D01*
X127016180Y-115654160D01*
X126835649Y-115542484D01*
X126617554Y-115401224D01*
X126381754Y-115243027D01*
X126142436Y-115081664D01*
X125929059Y-114941252D01*
X125755175Y-114830431D01*
X125634334Y-114757838D01*
X125580263Y-114732108D01*
X125514294Y-114753880D01*
X125389198Y-114811251D01*
X125230780Y-114892300D01*
X125213987Y-114901309D01*
X125000652Y-115008300D01*
X124854364Y-115060772D01*
X124763380Y-115061330D01*
X124715959Y-115012580D01*
X124715683Y-115011897D01*
X124691980Y-114954164D01*
X124635449Y-114817115D01*
X124550474Y-114611357D01*
X124441438Y-114347498D01*
X124312724Y-114036144D01*
X124168715Y-113687904D01*
X124029251Y-113350744D01*
X123875980Y-112978666D01*
X123735251Y-112633987D01*
X123611282Y-112327271D01*
X123508291Y-112069085D01*
X123430496Y-111869994D01*
X123382114Y-111740565D01*
X123367204Y-111692261D01*
X123404594Y-111636850D01*
X123502398Y-111548538D01*
X123632815Y-111451174D01*
X124004223Y-111143253D01*
X124294530Y-110790304D01*
X124500256Y-110399761D01*
X124617923Y-109979057D01*
X124644051Y-109535629D01*
X124625060Y-109330958D01*
X124521583Y-108906323D01*
X124343373Y-108531336D01*
X124101482Y-108209696D01*
X123806963Y-107945101D01*
X123470871Y-107741250D01*
X123104258Y-107601842D01*
X122718177Y-107530574D01*
X122323681Y-107531145D01*
X121931825Y-107607254D01*
X121553660Y-107762599D01*
X121200240Y-108000879D01*
X121052727Y-108135639D01*
X120769816Y-108481679D01*
X120572832Y-108859826D01*
X120460464Y-109259055D01*
X120431401Y-109668345D01*
X120484331Y-110076672D01*
X120617943Y-110473013D01*
X120830925Y-110846345D01*
X121121966Y-111185645D01*
X121447186Y-111451174D01*
X121582652Y-111552671D01*
X121678349Y-111640025D01*
X121712797Y-111692343D01*
X121694760Y-111749398D01*
X121643462Y-111885698D01*
X121563124Y-112090678D01*
X121457964Y-112353772D01*
X121332204Y-112664416D01*
X121190063Y-113012043D01*
X121050365Y-113350826D01*
X120896241Y-113723222D01*
X120753482Y-114068307D01*
X120626471Y-114375477D01*
X120519589Y-114634125D01*
X120437220Y-114833647D01*
X120383747Y-114963435D01*
X120363933Y-115011897D01*
X120317124Y-115061129D01*
X120226583Y-115060985D01*
X120080658Y-115008877D01*
X119867698Y-114902216D01*
X119866014Y-114901309D01*
X119705670Y-114818536D01*
X119576052Y-114758242D01*
X119502963Y-114732346D01*
X119499737Y-114732108D01*
X119444716Y-114758374D01*
X119323243Y-114831416D01*
X119148871Y-114942595D01*
X118935150Y-115083273D01*
X118698247Y-115243027D01*
X118457055Y-115404779D01*
X118239674Y-115545450D01*
X118060184Y-115656335D01*
X117932664Y-115728730D01*
X117871770Y-115753947D01*
X117815697Y-115720803D01*
X117702960Y-115628173D01*
X117544823Y-115486257D01*
X117352551Y-115305255D01*
X117137409Y-115095369D01*
X117067048Y-115025249D01*
X116339566Y-114296552D01*
X116893295Y-113483900D01*
X117061577Y-113234342D01*
X117209271Y-113010366D01*
X117328090Y-112824949D01*
X117409750Y-112691065D01*
X117445964Y-112621690D01*
X117447025Y-112616755D01*
X117427933Y-112551364D01*
X117376582Y-112419825D01*
X117301860Y-112244181D01*
X117249412Y-112126591D01*
X117151346Y-111901461D01*
X117058993Y-111674015D01*
X116987394Y-111481839D01*
X116967944Y-111423295D01*
X116912686Y-111266956D01*
X116858669Y-111146158D01*
X116828999Y-111100502D01*
X116763524Y-111072561D01*
X116620624Y-111032951D01*
X116418839Y-110986162D01*
X116176712Y-110936683D01*
X116068353Y-110916344D01*
X115793189Y-110865781D01*
X115529254Y-110816822D01*
X115302341Y-110774281D01*
X115138239Y-110742975D01*
X115107338Y-110736933D01*
X114851878Y-110686511D01*
X114851878Y-109622741D01*
X114852452Y-109272950D01*
X114854807Y-109008300D01*
X114859893Y-108816622D01*
X114868661Y-108685744D01*
X114882062Y-108603493D01*
X114901046Y-108557698D01*
X114926562Y-108536188D01*
X114937031Y-108532201D01*
X115000174Y-108518056D01*
X115139675Y-108489834D01*
X115337611Y-108450943D01*
X115576065Y-108404792D01*
X115837114Y-108354788D01*
X116102839Y-108304341D01*
X116355319Y-108256858D01*
X116576635Y-108215748D01*
X116748866Y-108184419D01*
X116854092Y-108166278D01*
X116877505Y-108163142D01*
X116898716Y-108121173D01*
X116945668Y-108009370D01*
X117009581Y-107848888D01*
X117033986Y-107786035D01*
X117132420Y-107543203D01*
X117248334Y-107274918D01*
X117352147Y-107048819D01*
X117428535Y-106875935D01*
X117479356Y-106733877D01*
X117496321Y-106646878D01*
X117493616Y-106635218D01*
X117457761Y-106580170D01*
X117375892Y-106457739D01*
X117256795Y-106280962D01*
X117109258Y-106062877D01*
X116942069Y-105816520D01*
X116909010Y-105767891D01*
X116715020Y-105479773D01*
X116572421Y-105260377D01*
X116475527Y-105099602D01*
X116418654Y-104987346D01*
X116396116Y-104913510D01*
X116402228Y-104867990D01*
X116402384Y-104867700D01*
X116450489Y-104807910D01*
X116556889Y-104692319D01*
X116710052Y-104532909D01*
X116898445Y-104341665D01*
X117110535Y-104130568D01*
X117134453Y-104107008D01*
X117401738Y-103848172D01*
X117608008Y-103658117D01*
X117757408Y-103533337D01*
X117854080Y-103470327D01*
X117896661Y-103462195D01*
X117958804Y-103497672D01*
X118087763Y-103579623D01*
X118270222Y-103699292D01*
X118492867Y-103847926D01*
X118742384Y-104016772D01*
X118800636Y-104056495D01*
X119627684Y-104621276D01*
X120001179Y-104451760D01*
X120228316Y-104352971D01*
X120472128Y-104253617D01*
X120681725Y-104174401D01*
X120690958Y-104171142D01*
X120854905Y-104111129D01*
X120981285Y-104060382D01*
X121042863Y-104029841D01*
X121042968Y-104029753D01*
X121062507Y-103974548D01*
X121095721Y-103838779D01*
X121139313Y-103637709D01*
X121189984Y-103386599D01*
X121244439Y-103100713D01*
X121248894Y-103076612D01*
X121303518Y-102782059D01*
X121353664Y-102514684D01*
X121396102Y-102291480D01*
X121427598Y-102129439D01*
X121444923Y-102045553D01*
X121445225Y-102044272D01*
X121455768Y-102008588D01*
X121476269Y-101981646D01*
X121519011Y-101962218D01*
X121596276Y-101949075D01*
X121720348Y-101940989D01*
X121903509Y-101936732D01*
X122158042Y-101935075D01*
X122496231Y-101934790D01*
X122540000Y-101934790D01*
X122888357Y-101934997D01*
G37*
X122673241Y-117720601D02*
X122863905Y-117791403D01*
X122866086Y-117792764D01*
X122984006Y-117879550D01*
X123071060Y-117980973D01*
X123132286Y-118113145D01*
X123172723Y-118292182D01*
X123197409Y-118534195D01*
X123211382Y-118855299D01*
X123212607Y-118901048D01*
X123230200Y-119590869D01*
X123082152Y-119667427D01*
X122975030Y-119719163D01*
X122910351Y-119743678D01*
X122907359Y-119743985D01*
X122896166Y-119698751D01*
X122887275Y-119576736D01*
X122881806Y-119398468D01*
X122880613Y-119254116D01*
X122880586Y-119020271D01*
X122869896Y-118873419D01*
X122832633Y-118803376D01*
X122752888Y-118799958D01*
X122614749Y-118852983D01*
X122406188Y-118950454D01*
X122252829Y-119031409D01*
X122173952Y-119101644D01*
X122150764Y-119178194D01*
X122150728Y-119181982D01*
X122188993Y-119313852D01*
X122302283Y-119385091D01*
X122475664Y-119395410D01*
X122600550Y-119393620D01*
X122666399Y-119429589D01*
X122707464Y-119515985D01*
X122731099Y-119626054D01*
X122697039Y-119688508D01*
X122684214Y-119697446D01*
X122563472Y-119733343D01*
X122394388Y-119738426D01*
X122220261Y-119714631D01*
X122096876Y-119671147D01*
X121926287Y-119526309D01*
X121829319Y-119324694D01*
X121810115Y-119167180D01*
X121824770Y-119025104D01*
X121877801Y-118909127D01*
X121982806Y-118806121D01*
X122153386Y-118702954D01*
X122403138Y-118586496D01*
X122418353Y-118579914D01*
X122643329Y-118475981D01*
X122782157Y-118390743D01*
X122841662Y-118314147D01*
X122828672Y-118236139D01*
X122750012Y-118146664D01*
X122726490Y-118126073D01*
X122568933Y-118046236D01*
X122405677Y-118049597D01*
X122263495Y-118127874D01*
X122169160Y-118272781D01*
X122160395Y-118301224D01*
X122075038Y-118439174D01*
X121966729Y-118505620D01*
X121810115Y-118571471D01*
X121810115Y-118401097D01*
X121857756Y-118153454D01*
X121999159Y-117926307D01*
X122072742Y-117850318D01*
X122240009Y-117752790D01*
X122452726Y-117708640D01*
X122673241Y-117720601D01*
G36*
X122673241Y-117720601D02*
G01*
X122863905Y-117791403D01*
X122866086Y-117792764D01*
X122984006Y-117879550D01*
X123071060Y-117980973D01*
X123132286Y-118113145D01*
X123172723Y-118292182D01*
X123197409Y-118534195D01*
X123211382Y-118855299D01*
X123212607Y-118901048D01*
X123230200Y-119590869D01*
X123082152Y-119667427D01*
X122975030Y-119719163D01*
X122910351Y-119743678D01*
X122907359Y-119743985D01*
X122896166Y-119698751D01*
X122887275Y-119576736D01*
X122881806Y-119398468D01*
X122880613Y-119254116D01*
X122880586Y-119020271D01*
X122869896Y-118873419D01*
X122832633Y-118803376D01*
X122752888Y-118799958D01*
X122614749Y-118852983D01*
X122406188Y-118950454D01*
X122252829Y-119031409D01*
X122173952Y-119101644D01*
X122150764Y-119178194D01*
X122150728Y-119181982D01*
X122188993Y-119313852D01*
X122302283Y-119385091D01*
X122475664Y-119395410D01*
X122600550Y-119393620D01*
X122666399Y-119429589D01*
X122707464Y-119515985D01*
X122731099Y-119626054D01*
X122697039Y-119688508D01*
X122684214Y-119697446D01*
X122563472Y-119733343D01*
X122394388Y-119738426D01*
X122220261Y-119714631D01*
X122096876Y-119671147D01*
X121926287Y-119526309D01*
X121829319Y-119324694D01*
X121810115Y-119167180D01*
X121824770Y-119025104D01*
X121877801Y-118909127D01*
X121982806Y-118806121D01*
X122153386Y-118702954D01*
X122403138Y-118586496D01*
X122418353Y-118579914D01*
X122643329Y-118475981D01*
X122782157Y-118390743D01*
X122841662Y-118314147D01*
X122828672Y-118236139D01*
X122750012Y-118146664D01*
X122726490Y-118126073D01*
X122568933Y-118046236D01*
X122405677Y-118049597D01*
X122263495Y-118127874D01*
X122169160Y-118272781D01*
X122160395Y-118301224D01*
X122075038Y-118439174D01*
X121966729Y-118505620D01*
X121810115Y-118571471D01*
X121810115Y-118401097D01*
X121857756Y-118153454D01*
X121999159Y-117926307D01*
X122072742Y-117850318D01*
X122240009Y-117752790D01*
X122452726Y-117708640D01*
X122673241Y-117720601D01*
G37*
D13*
%TO.C,R3*%
X136772936Y-83095000D02*
X137227064Y-83095000D01*
X136772936Y-84565000D02*
X137227064Y-84565000D01*
%TO.C,R2*%
X127772936Y-97265000D02*
X128227064Y-97265000D01*
X127772936Y-98735000D02*
X128227064Y-98735000D01*
%TO.C,R1*%
X117557064Y-98735000D02*
X117102936Y-98735000D01*
X117557064Y-97265000D02*
X117102936Y-97265000D01*
%TO.C,J3*%
X120470000Y-92670000D02*
X128150000Y-92670000D01*
X119200000Y-95330000D02*
X117870000Y-95330000D01*
X128150000Y-95330000D02*
X128150000Y-92670000D01*
X120470000Y-95330000D02*
X120470000Y-92670000D01*
X117870000Y-95330000D02*
X117870000Y-94000000D01*
X120470000Y-95330000D02*
X128150000Y-95330000D01*
%TO.C,J1*%
X106115000Y-84670000D02*
X106115000Y-87330000D01*
X111255000Y-84670000D02*
X106115000Y-84670000D01*
X112525000Y-84670000D02*
X113855000Y-84670000D01*
X111255000Y-87330000D02*
X106115000Y-87330000D01*
X113855000Y-84670000D02*
X113855000Y-86000000D01*
X111255000Y-84670000D02*
X111255000Y-87330000D01*
%TO.C,C2*%
X127748748Y-99815000D02*
X128271252Y-99815000D01*
X127748748Y-101285000D02*
X128271252Y-101285000D01*
%TO.C,C1*%
X117088748Y-99655000D02*
X117611252Y-99655000D01*
X117088748Y-101125000D02*
X117611252Y-101125000D01*
%TD*%
M02*
