%TF.GenerationSoftware,KiCad,Pcbnew,7.0.2-6a45011f42~172~ubuntu22.10.1*%
%TF.CreationDate,2023-04-24T10:08:01+02:00*%
%TF.ProjectId,him-card,68696d2d-6361-4726-942e-6b696361645f,rev?*%
%TF.SameCoordinates,Original*%
%TF.FileFunction,Legend,Bot*%
%TF.FilePolarity,Positive*%
%FSLAX46Y46*%
G04 Gerber Fmt 4.6, Leading zero omitted, Abs format (unit mm)*
G04 Created by KiCad (PCBNEW 7.0.2-6a45011f42~172~ubuntu22.10.1) date 2023-04-24 10:08:01*
%MOMM*%
%LPD*%
G01*
G04 APERTURE LIST*
%ADD10C,0.150000*%
%ADD11C,0.120000*%
G04 APERTURE END LIST*
D10*
%TO.C,D3*%
X136773094Y-76952619D02*
X136773094Y-75952619D01*
X136773094Y-75952619D02*
X136534999Y-75952619D01*
X136534999Y-75952619D02*
X136392142Y-76000238D01*
X136392142Y-76000238D02*
X136296904Y-76095476D01*
X136296904Y-76095476D02*
X136249285Y-76190714D01*
X136249285Y-76190714D02*
X136201666Y-76381190D01*
X136201666Y-76381190D02*
X136201666Y-76524047D01*
X136201666Y-76524047D02*
X136249285Y-76714523D01*
X136249285Y-76714523D02*
X136296904Y-76809761D01*
X136296904Y-76809761D02*
X136392142Y-76905000D01*
X136392142Y-76905000D02*
X136534999Y-76952619D01*
X136534999Y-76952619D02*
X136773094Y-76952619D01*
X135868332Y-75952619D02*
X135249285Y-75952619D01*
X135249285Y-75952619D02*
X135582618Y-76333571D01*
X135582618Y-76333571D02*
X135439761Y-76333571D01*
X135439761Y-76333571D02*
X135344523Y-76381190D01*
X135344523Y-76381190D02*
X135296904Y-76428809D01*
X135296904Y-76428809D02*
X135249285Y-76524047D01*
X135249285Y-76524047D02*
X135249285Y-76762142D01*
X135249285Y-76762142D02*
X135296904Y-76857380D01*
X135296904Y-76857380D02*
X135344523Y-76905000D01*
X135344523Y-76905000D02*
X135439761Y-76952619D01*
X135439761Y-76952619D02*
X135725475Y-76952619D01*
X135725475Y-76952619D02*
X135820713Y-76905000D01*
X135820713Y-76905000D02*
X135868332Y-76857380D01*
%TO.C,SW2*%
X137333332Y-97415000D02*
X137190475Y-97462619D01*
X137190475Y-97462619D02*
X136952380Y-97462619D01*
X136952380Y-97462619D02*
X136857142Y-97415000D01*
X136857142Y-97415000D02*
X136809523Y-97367380D01*
X136809523Y-97367380D02*
X136761904Y-97272142D01*
X136761904Y-97272142D02*
X136761904Y-97176904D01*
X136761904Y-97176904D02*
X136809523Y-97081666D01*
X136809523Y-97081666D02*
X136857142Y-97034047D01*
X136857142Y-97034047D02*
X136952380Y-96986428D01*
X136952380Y-96986428D02*
X137142856Y-96938809D01*
X137142856Y-96938809D02*
X137238094Y-96891190D01*
X137238094Y-96891190D02*
X137285713Y-96843571D01*
X137285713Y-96843571D02*
X137333332Y-96748333D01*
X137333332Y-96748333D02*
X137333332Y-96653095D01*
X137333332Y-96653095D02*
X137285713Y-96557857D01*
X137285713Y-96557857D02*
X137238094Y-96510238D01*
X137238094Y-96510238D02*
X137142856Y-96462619D01*
X137142856Y-96462619D02*
X136904761Y-96462619D01*
X136904761Y-96462619D02*
X136761904Y-96510238D01*
X136428570Y-96462619D02*
X136190475Y-97462619D01*
X136190475Y-97462619D02*
X135999999Y-96748333D01*
X135999999Y-96748333D02*
X135809523Y-97462619D01*
X135809523Y-97462619D02*
X135571428Y-96462619D01*
X135238094Y-96557857D02*
X135190475Y-96510238D01*
X135190475Y-96510238D02*
X135095237Y-96462619D01*
X135095237Y-96462619D02*
X134857142Y-96462619D01*
X134857142Y-96462619D02*
X134761904Y-96510238D01*
X134761904Y-96510238D02*
X134714285Y-96557857D01*
X134714285Y-96557857D02*
X134666666Y-96653095D01*
X134666666Y-96653095D02*
X134666666Y-96748333D01*
X134666666Y-96748333D02*
X134714285Y-96891190D01*
X134714285Y-96891190D02*
X135285713Y-97462619D01*
X135285713Y-97462619D02*
X134666666Y-97462619D01*
%TO.C,SW1*%
X111143332Y-97795000D02*
X111000475Y-97842619D01*
X111000475Y-97842619D02*
X110762380Y-97842619D01*
X110762380Y-97842619D02*
X110667142Y-97795000D01*
X110667142Y-97795000D02*
X110619523Y-97747380D01*
X110619523Y-97747380D02*
X110571904Y-97652142D01*
X110571904Y-97652142D02*
X110571904Y-97556904D01*
X110571904Y-97556904D02*
X110619523Y-97461666D01*
X110619523Y-97461666D02*
X110667142Y-97414047D01*
X110667142Y-97414047D02*
X110762380Y-97366428D01*
X110762380Y-97366428D02*
X110952856Y-97318809D01*
X110952856Y-97318809D02*
X111048094Y-97271190D01*
X111048094Y-97271190D02*
X111095713Y-97223571D01*
X111095713Y-97223571D02*
X111143332Y-97128333D01*
X111143332Y-97128333D02*
X111143332Y-97033095D01*
X111143332Y-97033095D02*
X111095713Y-96937857D01*
X111095713Y-96937857D02*
X111048094Y-96890238D01*
X111048094Y-96890238D02*
X110952856Y-96842619D01*
X110952856Y-96842619D02*
X110714761Y-96842619D01*
X110714761Y-96842619D02*
X110571904Y-96890238D01*
X110238570Y-96842619D02*
X110000475Y-97842619D01*
X110000475Y-97842619D02*
X109809999Y-97128333D01*
X109809999Y-97128333D02*
X109619523Y-97842619D01*
X109619523Y-97842619D02*
X109381428Y-96842619D01*
X108476666Y-97842619D02*
X109048094Y-97842619D01*
X108762380Y-97842619D02*
X108762380Y-96842619D01*
X108762380Y-96842619D02*
X108857618Y-96985476D01*
X108857618Y-96985476D02*
X108952856Y-97080714D01*
X108952856Y-97080714D02*
X109048094Y-97128333D01*
%TO.C,D2*%
X120753094Y-77502619D02*
X120753094Y-76502619D01*
X120753094Y-76502619D02*
X120514999Y-76502619D01*
X120514999Y-76502619D02*
X120372142Y-76550238D01*
X120372142Y-76550238D02*
X120276904Y-76645476D01*
X120276904Y-76645476D02*
X120229285Y-76740714D01*
X120229285Y-76740714D02*
X120181666Y-76931190D01*
X120181666Y-76931190D02*
X120181666Y-77074047D01*
X120181666Y-77074047D02*
X120229285Y-77264523D01*
X120229285Y-77264523D02*
X120276904Y-77359761D01*
X120276904Y-77359761D02*
X120372142Y-77455000D01*
X120372142Y-77455000D02*
X120514999Y-77502619D01*
X120514999Y-77502619D02*
X120753094Y-77502619D01*
X119800713Y-76597857D02*
X119753094Y-76550238D01*
X119753094Y-76550238D02*
X119657856Y-76502619D01*
X119657856Y-76502619D02*
X119419761Y-76502619D01*
X119419761Y-76502619D02*
X119324523Y-76550238D01*
X119324523Y-76550238D02*
X119276904Y-76597857D01*
X119276904Y-76597857D02*
X119229285Y-76693095D01*
X119229285Y-76693095D02*
X119229285Y-76788333D01*
X119229285Y-76788333D02*
X119276904Y-76931190D01*
X119276904Y-76931190D02*
X119848332Y-77502619D01*
X119848332Y-77502619D02*
X119229285Y-77502619D01*
%TO.C,D1*%
X110743094Y-77502619D02*
X110743094Y-76502619D01*
X110743094Y-76502619D02*
X110504999Y-76502619D01*
X110504999Y-76502619D02*
X110362142Y-76550238D01*
X110362142Y-76550238D02*
X110266904Y-76645476D01*
X110266904Y-76645476D02*
X110219285Y-76740714D01*
X110219285Y-76740714D02*
X110171666Y-76931190D01*
X110171666Y-76931190D02*
X110171666Y-77074047D01*
X110171666Y-77074047D02*
X110219285Y-77264523D01*
X110219285Y-77264523D02*
X110266904Y-77359761D01*
X110266904Y-77359761D02*
X110362142Y-77455000D01*
X110362142Y-77455000D02*
X110504999Y-77502619D01*
X110504999Y-77502619D02*
X110743094Y-77502619D01*
X109219285Y-77502619D02*
X109790713Y-77502619D01*
X109504999Y-77502619D02*
X109504999Y-76502619D01*
X109504999Y-76502619D02*
X109600237Y-76645476D01*
X109600237Y-76645476D02*
X109695475Y-76740714D01*
X109695475Y-76740714D02*
X109790713Y-76788333D01*
D11*
%TO.C,D3*%
X137595000Y-78214000D02*
X137595000Y-78370000D01*
X137595000Y-80530000D02*
X137595000Y-80686000D01*
X137075960Y-78370001D02*
G75*
G03*
X134993871Y-78370164I-1040960J-1079999D01*
G01*
X134362666Y-80528608D02*
G75*
G03*
X137594999Y-80685515I1672334J1078608D01*
G01*
X134993871Y-80529836D02*
G75*
G03*
X137075960Y-80529999I1041129J1079836D01*
G01*
X137594999Y-78214485D02*
G75*
G03*
X134362666Y-78371392I-1559999J-1235515D01*
G01*
%TO.C,SW2*%
X139810000Y-105510000D02*
X139810000Y-105810000D01*
X139810000Y-100430000D02*
X139810000Y-103570000D01*
X132190000Y-100430000D02*
X132190000Y-103570000D01*
X132190000Y-105510000D02*
X132190000Y-105810000D01*
X132190000Y-105810000D02*
X139810000Y-105810000D01*
X132190000Y-98190000D02*
X132190000Y-98490000D01*
X139810000Y-98190000D02*
X139810000Y-98490000D01*
X139810000Y-98190000D02*
X132190000Y-98190000D01*
X138540000Y-102000000D02*
G75*
G03*
X138540000Y-102000000I-2540000J0D01*
G01*
%TO.C,SW1*%
X113620000Y-105510000D02*
X113620000Y-105810000D01*
X113620000Y-100430000D02*
X113620000Y-103570000D01*
X106000000Y-100430000D02*
X106000000Y-103570000D01*
X106000000Y-105510000D02*
X106000000Y-105810000D01*
X106000000Y-105810000D02*
X113620000Y-105810000D01*
X106000000Y-98190000D02*
X106000000Y-98490000D01*
X113620000Y-98190000D02*
X113620000Y-98490000D01*
X113620000Y-98190000D02*
X106000000Y-98190000D01*
X112350000Y-102000000D02*
G75*
G03*
X112350000Y-102000000I-2540000J0D01*
G01*
%TO.C,D2*%
X121575000Y-78764000D02*
X121575000Y-78920000D01*
X121575000Y-81080000D02*
X121575000Y-81236000D01*
X121055960Y-78920001D02*
G75*
G03*
X118973871Y-78920164I-1040960J-1079999D01*
G01*
X118342666Y-81078608D02*
G75*
G03*
X121574999Y-81235515I1672334J1078608D01*
G01*
X118973871Y-81079836D02*
G75*
G03*
X121055960Y-81079999I1041129J1079836D01*
G01*
X121574999Y-78764485D02*
G75*
G03*
X118342666Y-78921392I-1559999J-1235515D01*
G01*
%TO.C,D1*%
X111565000Y-78764000D02*
X111565000Y-78920000D01*
X111565000Y-81080000D02*
X111565000Y-81236000D01*
X111045960Y-78920001D02*
G75*
G03*
X108963871Y-78920164I-1040960J-1079999D01*
G01*
X108332666Y-81078608D02*
G75*
G03*
X111564999Y-81235515I1672334J1078608D01*
G01*
X108963871Y-81079836D02*
G75*
G03*
X111045960Y-81079999I1041129J1079836D01*
G01*
X111564999Y-78764485D02*
G75*
G03*
X108332666Y-78921392I-1559999J-1235515D01*
G01*
%TD*%
M02*
